<?xml version="1.0" standalone="no"?>
<!DOCTYPE svg PUBLIC "-//W3C//DTD SVG 20010904//EN"
 "http://www.w3.org/TR/2001/REC-SVG-20010904/DTD/svg10.dtd">
<svg version="1.0" xmlns="http://www.w3.org/2000/svg"
 width="1280.000000pt" height="640.000000pt" viewBox="0 0 1280.000000 640.000000"
 preserveAspectRatio="xMidYMid meet">
<metadata>
Created by potrace 1.15, written by Peter Selinger 2001-2017
</metadata>
<g transform="translate(0.000000,640.000000) scale(0.100000,-0.100000)"
fill="#000000" stroke="none">
<path d="M0 4635 l0 -55 64 0 c93 0 96 -7 96 -187 0 -174 -5 -183 -100 -183
l-60 0 0 -1020 0 -1020 73 0 c107 0 107 -1 107 -188 0 -183 1 -182 -106 -182
l-74 0 0 -45 0 -45 6400 0 6400 0 0 325 0 325 -155 0 -155 0 0 830 0 830 155
0 155 0 0 335 0 335 -6400 0 -6400 0 0 -55z m558 -67 c8 -8 12 -60 12 -169 0
-130 -3 -160 -16 -173 -12 -12 -38 -16 -116 -16 -143 0 -138 -6 -138 190 0
108 4 160 12 168 17 17 229 17 246 0z m422 -7 c5 -11 10 -85 10 -167 0 -189 4
-184 -137 -184 -145 0 -143 -3 -143 187 0 190 -5 183 146 183 102 0 114 -2
124 -19z m414 -3 c13 -18 16 -52 16 -165 0 -185 1 -183 -142 -183 -142 0 -138
-5 -138 182 0 84 5 158 10 169 10 17 22 19 125 19 106 0 115 -1 129 -22z m414
10 c8 -8 12 -60 12 -167 0 -197 4 -191 -136 -191 -80 0 -106 3 -118 16 -13 13
-16 43 -16 173 0 109 4 161 12 169 17 17 229 17 246 0z m422 -7 c5 -11 10 -84
10 -165 0 -188 2 -186 -140 -186 -141 0 -140 -2 -140 183 0 192 -4 187 145
187 103 0 115 -2 125 -19z m416 -5 c13 -21 15 -50 12 -171 -4 -180 1 -175
-142 -175 -140 0 -136 -6 -136 190 0 108 4 160 12 168 8 8 50 12 125 12 108 0
113 -1 129 -24z m412 12 c8 -8 12 -60 12 -167 0 -197 4 -191 -136 -191 -146 0
-148 3 -142 207 2 91 7 135 17 146 11 14 34 17 125 17 74 0 116 -4 124 -12z
m416 -4 c13 -13 16 -42 16 -166 0 -194 4 -188 -137 -188 -145 0 -143 -3 -143
189 0 123 3 152 16 165 12 13 39 16 124 16 85 0 112 -3 124 -16z m422 -8 c13
-21 15 -50 12 -171 -4 -180 1 -175 -142 -175 -140 0 -136 -6 -136 190 0 108 4
160 12 168 8 8 50 12 125 12 108 0 113 -1 129 -24z m412 12 c8 -8 12 -60 12
-167 0 -197 4 -191 -135 -191 -145 0 -140 -7 -140 183 0 116 3 158 14 170 11
14 33 17 125 17 74 0 116 -4 124 -12z m412 2 c12 -7 16 -40 18 -164 4 -199 6
-196 -138 -196 -142 0 -140 -2 -140 186 0 81 5 154 10 165 10 17 22 19 123 19
62 0 119 -5 127 -10z m418 -2 c8 -8 12 -60 12 -169 0 -130 -3 -160 -16 -173
-12 -12 -38 -16 -116 -16 -143 0 -138 -6 -138 190 0 108 4 160 12 168 17 17
229 17 246 0z m420 0 c8 -8 12 -60 12 -167 0 -197 4 -191 -137 -191 -145 0
-143 -2 -143 183 0 192 -4 187 144 187 74 0 116 -4 124 -12z m414 -5 c16 -14
18 -33 18 -165 0 -191 2 -188 -142 -188 -142 0 -138 -5 -138 182 0 84 5 158
10 169 10 17 22 19 122 19 90 0 115 -3 130 -17z m416 5 c8 -8 12 -60 12 -169
0 -130 -3 -160 -16 -173 -12 -13 -38 -16 -119 -16 -81 0 -107 3 -119 16 -13
13 -16 43 -16 173 0 109 4 161 12 169 17 17 229 17 246 0z m422 -7 c5 -11 10
-85 10 -167 0 -189 4 -184 -135 -184 -144 0 -139 -6 -143 175 -5 200 -8 195
143 195 103 0 115 -2 125 -19z m416 -5 c13 -21 15 -50 12 -171 -4 -180 1 -175
-142 -175 -140 0 -136 -5 -136 182 0 84 5 158 10 169 10 17 22 19 125 19 110
0 115 -1 131 -24z m412 12 c8 -8 12 -60 12 -167 0 -197 4 -191 -136 -191 -80
0 -106 3 -118 16 -13 13 -16 43 -16 173 0 109 4 161 12 169 17 17 229 17 246
0z m422 -7 c5 -11 10 -85 10 -167 0 -189 4 -184 -137 -184 -145 0 -143 -3
-143 189 0 123 3 152 16 165 12 13 39 16 129 16 103 0 115 -2 125 -19z m414
-3 c13 -18 16 -52 16 -165 0 -185 1 -183 -142 -183 -143 0 -138 -6 -138 190 0
108 4 160 12 168 8 8 50 12 124 12 105 0 114 -1 128 -22z m414 10 c8 -8 12
-60 12 -167 0 -196 4 -191 -132 -191 -146 0 -138 -10 -138 183 0 114 4 167 12
175 17 17 229 17 246 0z m416 -4 c13 -13 16 -42 16 -165 0 -192 2 -189 -140
-189 -142 0 -140 -3 -140 189 0 123 3 152 16 165 12 13 39 16 124 16 85 0 112
-3 124 -16z m414 4 c8 -8 12 -61 12 -175 0 -193 7 -183 -136 -183 -138 0 -134
-6 -134 190 0 108 4 160 12 168 17 17 229 17 246 0z m420 0 c8 -8 12 -60 12
-167 0 -197 4 -191 -135 -191 -144 0 -139 -6 -143 175 -5 199 -8 195 141 195
75 0 117 -4 125 -12z m416 -4 c13 -13 16 -42 16 -165 0 -192 2 -189 -142 -189
-142 0 -138 -5 -138 182 0 84 5 158 10 169 10 17 22 19 125 19 90 0 117 -3
129 -16z m414 4 c8 -8 12 -60 12 -169 0 -130 -3 -160 -16 -173 -12 -12 -38
-16 -116 -16 -143 0 -138 -6 -138 190 0 108 4 160 12 168 17 17 229 17 246 0z
m422 -7 c5 -11 10 -85 10 -167 0 -189 4 -184 -135 -184 -144 0 -139 -6 -143
175 -5 200 -8 195 143 195 103 0 115 -2 125 -19z m416 -5 c13 -21 15 -50 12
-171 -4 -180 1 -175 -142 -175 -140 0 -136 -5 -136 182 0 84 5 158 10 169 10
17 22 19 125 19 110 0 115 -1 131 -24z m412 12 c8 -8 12 -60 12 -169 0 -130
-3 -160 -16 -173 -12 -13 -38 -16 -119 -16 -81 0 -107 3 -119 16 -13 13 -16
43 -16 173 0 109 4 161 12 169 17 17 229 17 246 0z m422 -7 c5 -11 10 -85 10
-167 0 -189 4 -184 -137 -184 -145 0 -143 -3 -143 187 0 190 -5 183 146 183
102 0 114 -2 124 -19z m-10180 -1356 l0 -835 -1110 0 -1110 0 0 835 0 835
1110 0 1110 0 0 -835z m2450 0 l0 -835 -1110 0 -1110 0 0 835 0 835 1110 0
1110 0 0 -835z m2460 0 l0 -835 -1115 0 -1115 0 0 835 0 835 1115 0 1115 0 0
-835z m2450 0 l0 -835 -1110 0 -1110 0 0 835 0 835 1110 0 1110 0 0 -835z
m2450 0 l0 -835 -1110 0 -1110 0 0 835 0 835 1110 0 1110 0 0 -835z m-11683
-1065 c8 -16 13 -71 13 -160 0 -183 3 -180 -140 -180 -85 0 -112 3 -124 16
-13 13 -16 42 -16 166 0 196 -5 190 144 186 107 -3 111 -4 123 -28z m407 14
c13 -13 16 -43 16 -173 0 -109 -4 -161 -12 -169 -17 -17 -229 -17 -246 0 -8 8
-12 61 -12 175 0 144 2 163 18 172 9 6 63 11 119 11 79 0 105 -3 117 -16z
m418 -1 c16 -14 18 -33 18 -166 0 -193 5 -187 -141 -187 -142 0 -139 -4 -139
185 0 189 -3 185 137 185 85 0 110 -3 125 -17z m422 -5 c13 -18 16 -52 16
-163 0 -189 3 -185 -140 -185 -85 0 -112 3 -124 16 -13 13 -16 42 -16 166 0
194 -5 188 141 188 100 0 109 -2 123 -22z m410 6 c13 -13 16 -43 16 -169 0
-126 -3 -156 -16 -169 -20 -20 -223 -23 -242 -4 -8 8 -12 61 -12 175 0 144 2
163 18 172 9 6 63 11 119 11 79 0 105 -3 117 -16z m418 -1 c16 -14 18 -33 18
-166 0 -193 5 -187 -141 -187 -142 0 -139 -4 -139 185 0 189 -3 185 137 185
85 0 110 -3 125 -17z m409 7 c18 -10 19 -23 19 -173 0 -114 -4 -167 -12 -175
-19 -19 -222 -16 -242 4 -13 13 -16 43 -16 169 0 126 3 156 16 169 12 12 38
16 115 16 55 0 109 -5 120 -10z m423 -6 c13 -13 16 -43 16 -169 0 -126 -3
-156 -16 -169 -23 -24 -226 -23 -245 1 -11 12 -14 54 -14 168 0 114 3 156 14
168 19 24 222 25 245 1z m418 -1 c16 -14 18 -33 18 -166 0 -193 4 -187 -138
-187 -147 0 -142 -6 -142 183 0 193 -4 187 138 187 84 0 109 -3 124 -17z m414
3 c17 -13 19 -27 19 -169 0 -116 -3 -158 -14 -170 -11 -14 -33 -17 -118 -17
-57 0 -113 5 -124 10 -18 10 -19 23 -19 170 0 131 3 161 16 174 21 22 211 23
240 2z m416 -3 c16 -14 18 -34 18 -169 0 -125 -3 -155 -16 -168 -23 -24 -226
-23 -245 1 -11 12 -14 54 -14 168 0 114 3 156 14 168 20 25 216 25 243 0z
m422 -5 c13 -18 16 -52 16 -163 0 -189 3 -185 -140 -185 -85 0 -112 3 -124 16
-13 13 -16 42 -16 166 0 194 -5 188 141 188 100 0 109 -2 123 -22z m410 6 c13
-13 16 -43 16 -173 0 -109 -4 -161 -12 -169 -17 -17 -229 -17 -246 0 -8 8 -12
60 -12 169 0 130 3 160 16 173 12 13 38 16 119 16 81 0 107 -3 119 -16z m418
-1 c16 -14 18 -34 18 -169 0 -125 -3 -155 -16 -168 -12 -13 -39 -16 -124 -16
-143 0 -140 -4 -140 185 0 189 -3 185 137 185 85 0 110 -3 125 -17z m422 -5
c13 -18 16 -52 16 -163 0 -189 3 -185 -140 -185 -85 0 -112 3 -124 16 -13 13
-16 42 -16 166 0 194 -5 188 141 188 100 0 109 -2 123 -22z m410 6 c13 -13 16
-43 16 -173 0 -109 -4 -161 -12 -169 -17 -17 -229 -17 -246 0 -8 8 -12 61 -12
175 0 144 2 163 18 172 9 6 63 11 119 11 79 0 105 -3 117 -16z m418 -1 c16
-14 18 -33 18 -166 0 -193 5 -187 -141 -187 -142 0 -139 -4 -139 185 0 189 -3
185 137 185 85 0 110 -3 125 -17z m419 0 c11 -12 14 -54 14 -168 0 -114 -3
-156 -14 -168 -19 -24 -222 -25 -245 -1 -24 24 -23 309 1 336 23 26 223 27
244 1z m413 1 c13 -13 16 -43 16 -174 0 -147 -1 -160 -19 -170 -11 -5 -67 -10
-124 -10 -85 0 -107 3 -118 17 -11 12 -14 54 -14 170 0 190 -5 183 141 183 80
0 106 -3 118 -16z m418 -1 c16 -14 18 -33 18 -166 0 -193 4 -187 -138 -187
-147 0 -142 -6 -142 183 0 193 -4 187 138 187 84 0 109 -3 124 -17z m419 0
c11 -12 14 -54 14 -168 0 -114 -3 -156 -14 -168 -19 -24 -222 -25 -245 -1 -13
13 -16 43 -16 169 0 126 3 156 16 169 23 24 226 23 245 -1z m411 0 c16 -14 18
-34 18 -169 0 -125 -3 -155 -16 -168 -23 -24 -226 -23 -245 1 -11 12 -14 54
-14 170 0 190 -5 183 139 183 78 0 103 -3 118 -17z m422 -5 c13 -18 16 -52 16
-163 0 -189 3 -185 -137 -185 -148 0 -143 -6 -143 183 0 193 -5 187 141 187
100 0 109 -2 123 -22z m407 12 c18 -10 19 -23 19 -173 0 -114 -4 -167 -12
-175 -15 -15 -211 -16 -239 -2 -18 10 -19 23 -19 170 0 131 3 161 16 174 12
12 38 16 115 16 55 0 109 -5 120 -10z m421 -7 c16 -14 18 -34 18 -169 0 -125
-3 -155 -16 -168 -12 -13 -39 -16 -124 -16 -143 0 -140 -4 -140 185 0 189 -3
185 137 185 85 0 110 -3 125 -17z m422 -5 c13 -18 16 -52 16 -163 0 -189 3
-185 -137 -185 -148 0 -143 -6 -143 183 0 193 -5 187 141 187 100 0 109 -2
123 -22z m407 12 c18 -10 19 -23 19 -173 0 -114 -4 -167 -12 -175 -17 -17
-229 -17 -246 0 -8 8 -12 60 -12 169 0 130 3 160 16 173 12 12 38 16 115 16
55 0 109 -5 120 -10z m421 -7 c16 -14 18 -34 18 -169 0 -125 -3 -155 -16 -168
-12 -13 -39 -16 -124 -16 -143 0 -140 -4 -140 185 0 189 -3 185 137 185 85 0
110 -3 125 -17z m425 -13 c8 -16 13 -71 13 -160 0 -183 3 -180 -140 -180 -85
0 -112 3 -124 16 -13 13 -16 42 -16 166 0 196 -5 190 144 186 107 -3 111 -4
123 -28z m407 14 c13 -13 16 -43 16 -174 0 -147 -1 -160 -19 -170 -11 -5 -67
-10 -124 -10 -85 0 -107 3 -118 17 -11 12 -14 54 -14 170 0 190 -5 183 141
183 80 0 106 -3 118 -16z"/>
</g>
</svg>
