<svg width="574" height="439" viewBox="0 0 574 439" fill="none" xmlns="http://www.w3.org/2000/svg">
<path d="M181.841 1.97095C180.855 3.18044 177.223 7.52565 173.77 11.6021C170.317 15.7233 166.191 20.6509 164.577 22.5771C160.63 27.3254 148.612 41.7049 139.016 53.1279C134.711 58.2346 129.643 64.2821 127.805 66.5667C125.966 68.8065 118.388 77.8552 110.988 86.68C103.589 95.5048 95.9208 104.643 93.9477 107.062C90.0014 111.811 73.0953 132.058 65.2477 141.376C52.6914 156.293 44.7989 165.745 41.4805 169.776C39.5074 172.151 31.8391 181.334 24.4399 190.159C17.0406 198.983 9.37236 208.167 7.39924 210.541C5.42611 212.96 2.9597 215.916 1.9283 217.126L0.0448608 219.366L4.17049 224.293C23.9017 247.945 28.5206 253.41 34.9781 261.16C39.0589 266.043 46.7272 275.226 52.0188 281.542C57.3103 287.903 65.5167 297.669 70.1805 303.268C74.8891 308.868 82.5574 318.051 87.2211 323.65C91.9297 329.25 99.598 338.433 104.262 344.033C108.97 349.632 116.639 358.815 121.302 364.415C126.011 370.014 132.065 377.271 134.755 380.496C143.41 390.755 159.733 410.286 163.455 414.81C170.989 423.993 183.142 438.328 183.501 438.462C183.68 438.552 183.859 413.421 183.859 382.602V326.562H378.705C485.882 326.562 573.552 326.473 573.552 326.293C573.552 326.159 568.036 319.484 561.354 311.466C554.627 303.447 547.587 295.026 545.748 292.786C543.91 290.501 538.932 284.544 534.672 279.482C527.183 270.612 514.851 255.874 508.977 248.796C507.362 246.87 501.174 239.434 495.21 232.312L484.357 219.366L488.035 215.02C490.052 212.601 493.012 209.062 494.627 207.136C498.393 202.657 535.345 158.443 540.143 152.709C542.116 150.335 547.587 143.795 552.251 138.195C556.959 132.596 563.686 124.533 567.229 120.322L573.641 112.662L461.397 112.393C399.648 112.258 311.933 112.079 266.506 112.035L183.859 111.99L183.77 55.9052L183.635 -0.224046L181.841 1.97095ZM349.019 130.401C449.917 130.446 532.968 130.58 533.551 130.759C534.537 131.028 534.358 131.297 530.636 135.732C524.717 142.72 501.757 170.224 500.456 171.837C499.828 172.599 496.196 176.944 492.384 181.468C488.573 185.948 484.447 190.875 483.191 192.398C481.981 193.921 476.375 200.596 470.815 207.271L460.68 219.321L463.998 223.352C467.362 227.384 477.182 239.165 492.609 257.576C497.317 263.176 504.896 272.27 509.515 277.779C514.134 283.289 521.578 292.204 526.107 297.579C530.636 303 534.358 307.569 534.448 307.793C534.537 308.017 466.42 308.196 366.239 308.196C273.681 308.196 190.631 308.33 181.707 308.509L165.473 308.778L165.384 348.647L165.249 388.515L160.765 383.184C158.254 380.273 155.742 377.226 155.159 376.465C154.532 375.703 150.63 371 146.415 365.983C138.029 356.038 126.37 342.062 113.23 326.383C108.567 320.739 100.764 311.466 95.9656 305.732C91.1674 299.998 83.4991 290.815 78.925 285.35C74.351 279.885 67.8038 272.046 64.3508 267.924C60.8978 263.803 56.7722 258.876 55.1578 256.949C53.5435 255.023 50.5389 251.395 48.4313 248.886C25.83 222.009 23.7672 219.366 24.3502 218.649C28.8345 213.363 33.2741 208.077 34.5297 206.509C35.3817 205.434 38.3414 201.895 41.032 198.67C43.7675 195.489 49.0142 189.218 52.6914 184.783C56.3686 180.348 61.6153 174.077 64.3508 170.852C72.602 161.086 84.396 146.931 86.7278 144.064C87.9835 142.541 92.1988 137.479 96.145 132.775C100.136 128.071 107.221 119.605 111.885 114.006C116.594 108.406 124.262 99.2229 128.926 93.6234C133.634 88.0687 143.724 75.9738 151.348 66.8355L165.249 50.1714L165.384 90.2637L165.473 130.356L349.019 130.401Z" fill="#510000"/>
</svg>
