<svg width="374" height="114" viewBox="0 0 374 114" fill="none" xmlns="http://www.w3.org/2000/svg">
<g clip-path="url(#clip0_68_33)">
<path d="M0 57V114H187H374V57V0H187H0V57ZM369.617 48.9615V92.6615H187.351C87.1011 92.6615 4.99641 92.6031 4.93797 92.5446C4.87953 92.4862 4.85031 72.8138 4.90875 48.8446L4.96719 5.26154H187.292H369.617V48.9615Z" fill="#840707"/>
<path d="M172.829 25.46C168.768 26.0446 163.771 28.0908 160.002 30.6923C157.285 32.5631 153.252 36.7139 151.47 39.4616C146.444 47.2369 144.983 56.3862 147.292 65.7693C150.155 77.3154 158.687 85.12 170.316 86.8154C174.056 87.3708 180.046 87.0493 183.494 86.0846C187.175 85.0908 191.704 82.84 194.334 80.7354C197.694 78.0462 197.636 78.1631 196.701 76.4385C195.649 74.5093 194.948 74.4216 192.552 75.9708C190.565 77.2569 187.234 78.6308 183.786 79.5954C182.004 80.0923 180.747 80.2093 177.066 80.2093C172.975 80.2093 172.332 80.1508 170.287 79.4493C164.297 77.4323 159.476 73.0769 156.846 67.26C154.626 62.4077 153.749 55.2462 154.684 50.1893C156.087 42.8816 160.177 37.0939 166.021 34.2293C169.556 32.4754 171.602 32.0369 175.897 32.0077C179.169 32.0077 179.841 32.0954 182.15 32.8554C190.302 35.5446 194.918 43.2323 194.948 54.3693C194.977 56.9123 194.831 58.5785 194.48 59.8646C192.785 66.2369 189.104 69.3939 187.76 65.6523C187.643 65.3308 187.555 60.5369 187.555 54.9539C187.555 46.6231 187.672 44.3723 188.052 42.3846L188.549 39.9585L187.555 39.14C187 38.6723 186.474 38.2923 186.386 38.2923C186.299 38.2923 185.393 38.9354 184.4 39.7539C183.406 40.5431 182.413 41.2154 182.208 41.2154C182.004 41.2154 181.595 40.9523 181.273 40.6016C180.981 40.2508 180.163 39.6369 179.462 39.2569C178.351 38.6139 177.855 38.4969 175.809 38.5262C170.258 38.5846 165.407 41.9169 162.485 47.7339C160.586 51.4754 160.002 54.3108 160.206 58.7539C160.294 60.7708 160.586 63.1969 160.849 64.1616C162.047 68.5462 164.881 72.5216 167.862 73.9831C169.06 74.5385 169.761 74.6846 171.66 74.6554C174.553 74.6554 175.926 74.0123 178.264 71.5569L179.929 69.8616L180.25 70.7969C181.039 73.0769 183.318 74.8016 185.539 74.8308C190.915 74.8308 197.49 69.3939 200.236 62.6416C201.609 59.2216 201.989 57.1462 201.96 52.7616C201.96 46.3308 200.967 41.8877 198.425 36.9769C196.759 33.7616 193.457 30.2246 190.36 28.4123C185.685 25.6646 179.082 24.5539 172.829 25.46ZM176.773 44.8693C177.241 45.1031 177.942 45.7462 178.351 46.2723L179.111 47.2662V55.3631V63.46L177.884 64.9216C175.459 67.8154 173.764 68.2246 171.748 66.4123C169.264 64.1908 168.095 60.0693 168.388 54.6616C168.68 49.4 170.141 46.2139 172.8 44.9862C174.261 44.3139 175.634 44.2846 176.773 44.8693Z" fill="#840707"/>
<path d="M32.3744 27.1847C23.2581 28.2662 16.0703 34.8724 13.4406 44.577C12.6225 47.5585 12.3303 53.7262 12.827 56.8832C13.6744 62.057 15.632 65.9739 19.109 69.4524C20.8622 71.2062 22.0309 72.0832 23.6672 72.9016C31.1472 76.5555 38.6272 74.8016 46.4578 67.5816L48.6492 65.5647L47.3636 64.0739C46.6915 63.2262 45.9903 62.5539 45.8734 62.5539C45.7273 62.5539 44.5878 63.2847 43.3314 64.1908C40.6433 66.1201 39.007 66.997 36.8448 67.6401C31.4101 69.2478 25.8586 66.3832 22.9367 60.3908C21.3589 57.2339 20.9498 54.7201 21.1251 49.6924C21.3589 43.437 22.6445 39.4908 25.4787 36.3924C29.5401 31.9493 35.4423 31.9201 40.2342 36.3339C41.0815 37.1231 41.812 37.5032 42.6301 37.6201C43.7697 37.7662 43.7989 37.737 45.143 35.9247C47.1298 33.2062 47.7434 31.9201 47.3928 31.1308C47.0422 30.3708 43.7405 28.617 41.4906 27.9447C40.1173 27.5647 34.9456 26.8047 34.4781 26.9216C34.3905 26.9508 33.4555 27.0678 32.3744 27.1847Z" fill="#840707"/>
<path d="M128.942 29.4355L125.933 31.8909V35.6909V39.4617H124.998C124.238 39.4909 123.625 39.8416 122.164 41.1863L120.294 42.8816L121.141 43.934C121.959 44.9863 122.047 45.0155 123.946 45.0155H125.904L125.991 56.7955L126.079 68.5755L127.102 70.5924C129.381 75.1816 133.238 75.9124 139.403 72.9601C141.857 71.7909 146.065 69.1016 146.269 68.5755C146.357 68.3709 145.977 67.4647 145.48 66.5586L144.545 64.9216L143.347 65.5355C141.477 66.5001 138.731 67.4647 137.62 67.5232C135.663 67.6693 135.312 67.5524 134.786 66.5586C134.319 65.7109 134.26 64.5416 134.173 55.2755L134.085 44.9278L136.539 45.1032C137.883 45.1909 139.666 45.5416 140.484 45.834L142.003 46.4186L143.61 44.9863C144.487 44.1678 145.48 43.057 145.831 42.5016L146.474 41.4786L145.48 40.4555L144.516 39.4617H139.315H134.114V34.0832V28.7047L133.033 27.8278L131.923 26.9509L128.942 29.4355Z" fill="#840707"/>
<path d="M239.535 29.5522L236.672 31.8907V35.6907V39.4615H235.708C234.977 39.4615 234.48 39.7245 233.633 40.6015L232.523 41.7415L231.062 40.7476C228.929 39.3153 227.059 38.8184 223.231 38.6722C219.316 38.4968 217.329 38.9061 213.881 40.543C210.696 42.063 207.307 45.483 205.7 48.8445C202.983 54.5445 202.983 60.7415 205.729 66.3245C208.71 72.3753 214.32 75.4738 220.777 74.5968C224.575 74.0999 228.052 71.9368 231.617 67.8738L233.136 66.1491L231.763 64.6291L230.39 63.1384L228.491 64.6291C227.439 65.4768 225.773 66.5291 224.751 67.0261C223.085 67.7861 222.676 67.8738 220.806 67.7568C218.381 67.5815 216.891 66.9384 215.225 65.2722C209.761 59.8645 211.31 46.6815 217.65 44.7815C220.835 43.8168 224.079 44.8984 225.773 47.4999C227.147 49.5753 227.176 49.6045 228.374 49.8091C229.805 50.1015 230.068 49.7799 231.266 46.5938C231.968 44.7522 232.318 44.1384 232.435 44.4891C232.61 44.9276 233.02 45.0153 234.656 45.0153H236.643L236.73 56.6199C236.818 68.0491 236.847 68.283 237.519 69.9784C238.834 73.2815 241.873 75.1522 245.087 74.6845C247.95 74.2753 253.473 71.5861 256.658 69.043L257.359 68.5168L256.336 66.7045L255.313 64.8922L253.677 65.7399C250.025 67.5522 246.606 68.1368 245.847 67.1138C245.058 66.003 244.853 63.5184 244.853 54.3107V44.9276L247.278 45.103C248.622 45.1907 250.405 45.5415 251.281 45.863L252.83 46.4476L254.495 44.8399C255.401 43.963 256.395 42.7938 256.716 42.2384L257.242 41.2445L256.395 40.3384L255.547 39.4615H250.2H244.853V34.083V28.7045L243.947 27.9445C243.451 27.5353 242.895 27.1845 242.72 27.2138C242.516 27.2138 241.084 28.2661 239.535 29.5522Z" fill="#840707"/>
<path d="M285.935 28.617C285.584 28.997 285.467 29.5524 285.526 30.4293C285.613 31.657 285.643 31.6863 286.782 31.9201C287.425 32.037 288.506 32.3586 289.178 32.6216L290.405 33.0601L290.493 47.2955C290.639 63.0801 290.58 62.6709 292.684 66.734C294.554 70.2709 298.177 72.9601 302.706 74.1586C305.044 74.7724 310.391 74.8309 312.641 74.2755C317.17 73.1647 321.289 69.8616 323.247 65.7693C325.322 61.414 325.292 61.5309 325.409 46.6816L325.526 33.2647L326.753 32.7386C327.455 32.417 328.565 32.0955 329.237 31.9786L330.464 31.774V30.2832C330.464 29.4355 330.318 28.617 330.113 28.4124C329.85 28.1493 327.688 28.0616 322.137 28.0616C316.585 28.0616 314.423 28.1493 314.16 28.4124C313.955 28.617 313.809 29.4355 313.809 30.2832V31.774L314.978 31.9786C315.621 32.0663 316.673 32.3586 317.316 32.6216L318.484 33.0893V45.9509C318.484 56.7078 318.397 59.1047 318.017 60.5955C317.053 64.2786 315.037 66.997 312.495 67.9909C311.501 68.3416 310.595 68.4293 308.784 68.3416C303.817 68.0786 301.07 65.7986 299.58 60.7416C298.879 58.4616 298.645 33.6155 299.288 33.0601C299.521 32.8847 300.661 32.5047 301.8 32.2124L303.875 31.7155V30.3709C303.875 28.0324 304.021 28.0616 294.613 28.0616C286.957 28.0616 286.402 28.0909 285.935 28.617Z" fill="#840707"/>
<path d="M91.4547 39.3155C90.0814 39.8416 87.8316 40.5139 86.4291 40.777L83.8578 41.2739V42.9693V44.6355L85.8155 44.957C87.0719 45.1616 87.9484 45.4832 88.1822 45.8047C88.4452 46.1847 88.5328 48.8155 88.4744 57.5555L88.3867 68.8093L86.1369 69.5109L83.8578 70.1832V71.5862C83.8578 72.3462 84.0039 73.1062 84.2084 73.3109C84.4714 73.5739 86.7505 73.6616 92.6234 73.6616C98.4964 73.6616 100.775 73.5739 101.038 73.3109C101.243 73.1062 101.389 72.3462 101.389 71.557V70.1832L100.162 69.8616C99.4606 69.6862 98.438 69.3939 97.8828 69.1893L96.8602 68.8093L96.7725 60.7124L96.7141 52.5862L99.4022 49.8678C102.675 46.5939 104.574 45.5124 106.941 45.6585C108.255 45.7462 108.577 45.8632 109.103 46.5647C109.687 47.3832 109.716 47.6755 109.716 58.1109V68.8093L107.467 69.5109L105.188 70.2124V71.5862C105.188 72.3462 105.334 73.1062 105.538 73.3109C105.801 73.5739 108.08 73.6616 113.953 73.6616C121.521 73.6616 122.076 73.6324 122.543 73.1062C122.894 72.7262 123.011 72.1709 122.953 71.4401C122.865 70.417 122.748 70.2709 121.696 69.9201C121.053 69.6862 119.972 69.3062 119.3 69.0724L118.044 68.6339V57.1755C118.044 44.5478 117.956 43.8755 116.291 41.5955C115.677 40.7478 114.771 40.0755 113.515 39.4324C111.733 38.5555 111.499 38.5262 109.074 38.6432C106.999 38.7601 106.123 38.9647 104.545 39.6662C102.061 40.8062 100.22 42.0924 98.1458 44.0508L96.5095 45.6001L96.3342 44.0801C96.2174 43.2324 96.1297 42.0047 96.1297 41.3324C96.1297 40.397 95.9544 39.9878 95.1655 39.2278C94.6395 38.7016 94.1428 38.2924 94.0844 38.3216C93.9967 38.3216 92.828 38.7601 91.4547 39.3155Z" fill="#840707"/>
<path d="M62.0898 39.3153C57.7362 40.8645 54.0839 44.2261 51.9801 48.6692C50.4316 51.8845 49.9641 53.9599 49.9641 57.4676C49.9641 65.5645 53.9378 71.7615 60.5705 73.9246C64.6903 75.2692 68.6056 74.9769 72.4041 73.0476C79.4166 69.5399 83.6533 61.5599 82.7183 53.5799C81.9586 47.3245 78.8906 42.443 74.2156 40.1338C71.7028 38.9061 70.2419 38.5845 66.9109 38.5845C64.7195 38.5845 63.7261 38.7307 62.0898 39.3153ZM68.3426 45.0153C69.862 45.7753 71.9073 48.1138 72.9008 50.1892C74.128 52.7907 74.5955 55.5092 74.3909 58.783C73.9819 65.5061 71.6151 68.663 67.057 68.6922C64.4566 68.6922 62.7326 67.5522 60.7166 64.483C59.0219 61.8522 58.4083 59.5138 58.4083 55.6845C58.4375 49.7799 59.9861 46.243 63.1125 44.8984C64.5734 44.2553 66.9986 44.3138 68.3426 45.0153Z" fill="#840707"/>
<path d="M340.019 39.1693C335.84 40.4847 333.006 43.7001 332.626 47.5586C332.159 52.0309 334.555 54.9832 341.48 58.5493C347.995 61.8816 349.69 63.8693 348.492 66.7339C347.82 68.2832 346.505 68.9847 344.168 68.9847C340.603 68.9847 337.944 66.997 336.951 63.577L336.425 61.8232L334.876 61.5601C333.678 61.3555 333.269 61.3847 333.094 61.677C332.626 62.4078 332.217 65.6524 332.217 68.3709C332.217 70.9432 332.246 71.1186 333.035 71.8786C333.532 72.3755 334.876 73.0186 336.746 73.6616C339.317 74.5093 340.048 74.6262 342.736 74.6555C348.726 74.6847 353.021 72.4339 355.183 68.1955C355.943 66.6462 356.03 66.237 356.03 63.4309C356.03 59.7186 355.651 58.7832 353.255 56.4155C352.057 55.2462 350.391 54.1647 346.973 52.3232C341.509 49.4001 340.106 48.2309 340.106 46.6524C340.106 45.3078 341.041 44.3139 342.619 43.8755C344.957 43.2616 347.265 44.4601 349.106 47.237C349.895 48.4647 350.216 48.6986 351.239 48.8739C351.911 48.9909 352.583 49.0201 352.758 48.9032C353.342 48.5524 354.803 44.8109 354.92 43.2324C355.066 41.6832 355.037 41.5662 354.219 40.9816C351.18 38.8186 343.992 37.8832 340.019 39.1693Z" fill="#840707"/>
</g>
<defs>
<clipPath id="clip0_68_33">
<rect width="374" height="114" fill="white"/>
</clipPath>
</defs>
</svg>
