<svg width="260" height="342" viewBox="0 0 260 342" fill="none" xmlns="http://www.w3.org/2000/svg">
<g clip-path="url(#clip0_56_4027)">
<path d="M149.887 0.160278C134.858 0.908417 123.914 2.56497 112.195 5.90482C81.0965 14.722 59.6879 34.2534 50.3183 62.3882C48.2361 68.6137 46.6345 76.6828 46.2074 82.935C46.0739 84.6984 45.9672 116.173 45.9672 152.831C45.9405 189.489 45.9138 220.376 45.9138 221.418V223.369H22.9569H0L3.55031 228.766C5.49897 231.758 22.9302 258.45 42.2834 288.082L77.4661 342L82.5647 334.839C85.3943 330.912 87.8768 327.438 88.0904 327.118C88.4908 326.557 90.0123 324.419 102.692 306.731C106.216 301.815 115.799 288.402 123.994 276.94C132.189 265.477 144.175 248.752 150.608 239.747C157.041 230.743 162.3 223.342 162.3 223.315C162.3 223.262 152.103 223.289 139.61 223.342L116.92 223.422V219.468C116.84 151.041 116.947 100.703 117.187 99.2601C119.589 84.164 134.084 74.5453 154.425 74.5453C169.854 74.5453 179.838 82.0266 184.429 96.989L185.123 99.2601L185.203 216.475L185.257 333.717H222.628H260L259.92 206.589C259.84 86.6222 259.813 79.3279 259.359 76.4156C256.85 59.9034 251.111 45.7692 242.248 34.2C238.271 29.0165 231.517 22.4704 226.205 18.6497C211.871 8.36295 194.493 2.53824 172.043 0.534332C168.84 0.240448 153.411 -0.0267639 149.887 0.160278Z" fill="#610202"/>
</g>
<defs>
<clipPath id="clip0_56_4027">
<rect width="260" height="342" fill="white"/>
</clipPath>
</defs>
</svg>
