<svg width="250" height="301" viewBox="0 0 250 301" fill="none" xmlns="http://www.w3.org/2000/svg">
<path d="M62.7617 67.4309L0.494873 134.366L1.72041 134.532C2.40389 134.602 19.5614 134.673 39.8771 134.697L76.8319 134.72L76.879 139.014L76.9497 143.332L125.453 143.403L173.932 143.45V139.085V134.72H211.759C232.57 134.72 249.586 134.649 249.586 134.579C249.586 134.39 251.448 136.395 217.887 100.273C201.672 82.814 174.899 53.9824 158.401 36.2163C130.544 6.2287 125.146 0.448227 125.052 0.495407C125.052 0.495407 97.0061 30.6246 62.7617 67.4309Z" fill="#610202"/>
<path d="M101.296 145.031C114.706 145.078 136.553 145.078 149.846 145.031C163.162 145.007 152.203 144.984 125.5 144.984C98.7973 144.984 87.9089 145.007 101.296 145.031Z" fill="#610202"/>
<path d="M76.9497 146.116C76.879 146.281 76.8554 149.207 76.879 152.652L76.9497 158.904L125.453 158.975L173.932 159.022V152.416V145.809H125.5C86.6361 145.809 77.0204 145.88 76.9497 146.116Z" fill="#610202"/>
<path d="M102.12 161.074C115.318 161.122 136.86 161.122 149.964 161.074C163.091 161.051 152.297 161.027 125.971 161.027C99.6693 161.027 88.9222 161.051 102.12 161.074Z" fill="#610202"/>
<path d="M76.9969 162.726C76.9026 162.797 76.8319 165.463 76.8319 168.624V174.358H125.382H173.932L173.885 168.506L173.815 162.679L125.476 162.608C98.8916 162.584 77.0676 162.632 76.9969 162.726Z" fill="#610202"/>
<path d="M77.6568 175.537C78.7645 175.821 173.697 175.821 173.697 175.537C173.697 175.372 157.435 175.301 125.335 175.325C98.7266 175.349 77.2797 175.443 77.6568 175.537Z" fill="#610202"/>
<path d="M76.9969 178.298C76.9026 178.369 76.8319 180.917 76.8319 183.913V189.387L78.4345 189.529C80.4614 189.741 172.683 189.741 173.414 189.552L173.932 189.411L173.885 183.819L173.815 178.251L125.476 178.18C98.8916 178.156 77.0676 178.204 76.9969 178.298Z" fill="#610202"/>
<path d="M76.9969 193.162C76.9026 193.233 76.8319 195.569 76.8319 198.329V203.354L78.081 203.496C78.7409 203.567 100.565 203.614 126.561 203.567L173.815 203.496V198.305V193.115L125.476 193.044C98.8916 193.02 77.0676 193.068 76.9969 193.162Z" fill="#610202"/>
<path d="M76.9969 207.79C76.9026 207.861 76.8319 209.984 76.8319 212.485V217.015L78.3167 217.18C79.118 217.251 100.942 217.298 126.796 217.251L173.815 217.18V212.462V207.743L125.476 207.672C98.8916 207.649 77.0676 207.696 76.9969 207.79Z" fill="#610202"/>
<path d="M76.9261 222.796C76.879 222.961 76.8554 224.896 76.879 227.09L76.9497 231.101H125.382H173.814V226.854V222.607L125.429 222.536C86.1177 222.489 77.0204 222.536 76.9261 222.796Z" fill="#610202"/>
<path d="M76.9261 237.424C76.879 237.589 76.8554 239.359 76.879 241.364L76.9497 245.021L125.453 245.092L173.932 245.139L173.885 241.199L173.814 237.235L125.429 237.188C86.1177 237.141 77.0204 237.164 76.9261 237.424Z" fill="#610202"/>
<path d="M76.9261 252.288C76.879 252.453 76.8554 253.963 76.879 255.662L76.9497 258.705L125.453 258.776L173.956 258.823L173.885 255.473L173.814 252.099L125.429 252.028C85.8113 251.981 77.0204 252.028 76.9261 252.288Z" fill="#610202"/>
<path d="M76.8791 269.724L76.9498 272.626L125.453 272.696L173.932 272.744V269.794V266.845H125.382H76.8083L76.8791 269.724Z" fill="#610202"/>
<path d="M76.9261 281.78C76.8554 281.969 76.8554 283.101 76.879 284.328L76.9497 286.546L125.453 286.617L173.956 286.664L173.885 284.14L173.814 281.591L125.429 281.521C85.4106 281.473 77.0439 281.521 76.9261 281.78Z" fill="#610202"/>
<path d="M76.8791 298.272L76.9498 300.23L125.453 300.301L173.932 300.348V298.343V296.337H125.382H76.8083L76.8791 298.272Z" fill="#610202"/>
</svg>
