<svg width="142" height="38" viewBox="0 0 142 38" fill="none" xmlns="http://www.w3.org/2000/svg">
<path d="M37.0438 37.7994C37.0438 37.689 37.0096 37.6198 36.9678 37.6457C36.926 37.6716 36.8396 37.5677 36.7758 37.415C36.7086 37.2539 36.6048 37.1373 36.5287 37.1373C36.425 37.1373 36.4166 37.1143 36.4888 37.0273C36.5589 36.9428 36.5565 36.9094 36.4788 36.8832C36.3991 36.8564 36.4026 36.8185 36.4951 36.7059C36.5847 36.5968 36.5894 36.5549 36.5147 36.5297C36.4608 36.5116 36.4167 36.4623 36.4167 36.4202C36.4167 36.3781 36.4516 36.3653 36.4942 36.3916C36.5386 36.4191 36.5518 36.3876 36.525 36.3178C36.4993 36.2509 36.5186 36.1961 36.5678 36.1961C36.6331 36.1961 36.6346 36.1535 36.5735 36.0392C36.5061 35.9132 36.5139 35.8823 36.613 35.8823C36.7128 35.8823 36.7176 35.8621 36.6383 35.7772C36.5368 35.6685 36.3396 35.7657 36.3654 35.9117C36.372 35.9495 36.3362 35.9956 36.2857 36.0143C36.2253 36.0366 36.2094 35.9887 36.2392 35.8745C36.2642 35.779 36.2526 35.7197 36.2134 35.7426C36.1743 35.7655 36.0717 35.7583 35.9855 35.7266C35.8612 35.6808 35.8977 35.6571 36.1619 35.6118C36.3697 35.5763 36.4951 35.5131 36.4951 35.444C36.4951 35.3831 36.5636 35.3333 36.6474 35.3333C36.7312 35.3333 36.848 35.2643 36.907 35.1801C37.0128 35.029 37.4121 34.8229 37.5415 34.8525C37.5781 34.8609 37.8074 34.8174 38.0511 34.7559C38.2948 34.6944 38.7147 34.6192 38.9843 34.5887C39.2538 34.5583 39.494 34.5016 39.5181 34.4627C39.5421 34.4238 39.6391 34.3912 39.7335 34.3903C39.828 34.3893 40.117 34.2842 40.3757 34.1567C40.6344 34.0292 40.9057 33.9241 40.9786 33.9231C41.0515 33.9222 41.133 33.8861 41.1596 33.843C41.1863 33.7998 41.1683 33.7645 41.1196 33.7645C41.0109 33.7645 41.0501 33.4137 41.1596 33.4061C41.2027 33.4031 41.3927 33.3563 41.5817 33.3022C41.7708 33.248 42.0115 33.2254 42.1167 33.2518C42.222 33.2782 42.4201 33.2652 42.557 33.223C42.6939 33.1807 43.0028 33.1076 43.2434 33.0605C43.9036 32.9312 44.2562 32.8232 44.2562 32.7503C44.2562 32.6747 40.2346 32.7274 39.2389 32.8161C38.7143 32.8628 38.5142 32.85 38.2982 32.7561C38.1473 32.6904 38.0062 32.6316 37.9846 32.6254C37.963 32.6191 37.8423 32.5714 37.7163 32.5194C37.5903 32.4673 37.4315 32.4464 37.3635 32.4729C37.2955 32.4994 36.252 32.5337 35.0448 32.5492C33.8375 32.5647 32.6909 32.6125 32.4969 32.6555C32.3029 32.6984 31.7214 32.7746 31.2047 32.8246C30.6881 32.8747 30.1979 32.9518 30.1154 32.996C30.0329 33.0402 29.7931 33.0598 29.5825 33.0395C29.3719 33.0193 29.1806 33.0335 29.1573 33.0711C29.1341 33.1088 29.0822 33.1193 29.0421 33.0944C29.0019 33.0696 28.9691 33.0867 28.9691 33.1324C28.9691 33.1781 28.9426 33.2084 28.9103 33.1999C28.7799 33.1654 28.1067 33.3081 28.1067 33.3702C28.1067 33.4468 27.5145 33.5741 27.2906 33.5456C27.2083 33.5352 27.0746 33.5978 26.9936 33.6848C26.9126 33.7718 26.7859 33.8471 26.7122 33.8522C26.6384 33.8573 26.3664 33.8691 26.1077 33.8784C25.8489 33.8877 25.4962 33.9361 25.3237 33.9859C25.1512 34.0357 24.8768 34.0963 24.714 34.1205C24.5511 34.1448 24.4369 34.1956 24.4603 34.2335C24.5333 34.3516 24.3591 34.3825 22.997 34.4934C22.9247 34.4992 22.8717 34.5375 22.8794 34.5784C22.8871 34.6192 22.8229 34.6734 22.7366 34.6988C22.6504 34.7242 22.4908 34.8056 22.3819 34.8797C22.2395 34.9766 21.9426 35.0286 21.3236 35.0649C20.8504 35.0926 20.3816 35.1116 20.282 35.1071C20.1823 35.1026 19.9924 35.155 19.86 35.2235C19.7232 35.2942 19.5983 35.317 19.5708 35.2761C19.5033 35.1758 19.2273 35.0794 19.2878 35.1773C19.3515 35.2804 19.2752 35.2752 19.0665 35.162C18.6452 34.9335 16.6507 35.1071 16.4427 35.3904C16.3783 35.4781 16.3712 35.5373 16.4231 35.5546C16.4677 35.5695 16.5042 35.6129 16.5042 35.6511C16.5042 35.6893 16.4548 35.7016 16.3945 35.6784C16.3342 35.6553 16.2616 35.674 16.2331 35.7201C16.1571 35.8432 16.6269 35.8253 16.8805 35.6955C16.9969 35.6359 17.2509 35.5611 17.4449 35.5294C17.639 35.4976 17.8595 35.4602 17.9349 35.4462C18.0104 35.4322 18.0721 35.4669 18.0721 35.5234C18.0721 35.5961 18.1696 35.6185 18.4053 35.6001C18.6628 35.5799 18.7069 35.5923 18.5996 35.6545C18.5233 35.6988 18.4784 35.7637 18.5 35.7986C18.5465 35.8739 18.1082 35.9497 17.2597 36.013C16.7832 36.0485 16.6277 36.0344 16.5749 35.951C16.5254 35.8727 16.5063 35.87 16.5054 35.9412C16.5036 36.0856 16.0324 36.0622 15.8636 35.9094C15.7847 35.838 15.7202 35.813 15.7202 35.8538C15.7202 35.8988 15.4658 35.9068 15.0735 35.8741C14.7177 35.8444 14.1621 35.8007 13.8387 35.7769C13.5154 35.7532 13.1349 35.6927 12.9933 35.6425C12.8516 35.5924 12.6479 35.5681 12.5406 35.5887C12.4333 35.6092 12.3232 35.5899 12.296 35.5459C12.2656 35.4967 12.2861 35.4903 12.3492 35.5294C12.4131 35.5688 12.4328 35.562 12.4015 35.5113C12.3425 35.4157 11.9686 35.3292 11.5261 35.3086C11.265 35.2965 11.2111 35.2658 11.204 35.1255C11.1964 34.9749 11.2504 34.9506 11.7135 34.8969C11.9985 34.8638 12.3198 34.8444 12.4276 34.8538L12.6236 34.8708L12.4156 34.7576C12.0549 34.5615 11.7032 34.4787 11.0165 34.4284C10.65 34.4015 10.1208 34.3219 9.84056 34.2514C9.19595 34.0894 6.95925 34.0769 6.8617 34.2349C6.82813 34.2892 6.75916 34.308 6.70845 34.2767C6.57746 34.1957 5.13479 34.1684 5.18386 34.2478C5.22976 34.3221 5.21808 34.3234 4.19254 34.3546C3.46872 34.3765 3.16319 34.4033 2.07939 34.5399C1.5852 34.6022 1.29627 34.5665 1.01382 34.4084C0.895531 34.3421 0.921024 34.3045 1.20589 34.1245C1.43566 33.9794 1.71636 33.8941 2.14006 33.8405C2.86312 33.749 3.55301 33.6338 4.05005 33.5215C4.34736 33.4543 4.40666 33.4128 4.37551 33.2936C4.35315 33.2081 4.29204 33.1653 4.22755 33.1901C4.16712 33.2133 4.11768 33.1932 4.11768 33.1454C4.11768 33.0977 4.17941 33.058 4.25487 33.0574C4.37212 33.0564 4.37496 33.0451 4.27447 32.9801C4.2001 32.9321 4.19199 32.9037 4.25241 32.9029C4.3051 32.9022 4.32764 32.8488 4.30266 32.7836C4.27114 32.7015 4.34936 32.6246 4.5599 32.531L4.86244 32.3965L4.09646 32.3492C3.67518 32.3232 3.11955 32.3055 2.86173 32.3099C2.60392 32.3142 2.39298 32.3134 2.39298 32.308C2.39298 32.3026 2.46353 32.2168 2.54977 32.1173C2.636 32.0178 2.70656 31.9603 2.70656 31.9895C2.70656 32.0186 2.786 31.9905 2.88309 31.9268C2.98019 31.8631 3.32116 31.7704 3.64081 31.7208C3.96045 31.6712 4.3617 31.5813 4.53246 31.521C4.70323 31.4607 4.97081 31.4101 5.12708 31.4086C5.56367 31.4043 6.66343 31.1182 6.34542 31.0916C6.3059 31.0883 6.203 31.0694 6.11677 31.0495C6.03053 31.0297 5.9169 31.004 5.86425 30.9925C5.68489 30.9531 5.67343 30.8768 5.839 30.8242C5.92988 30.7953 6.09644 30.6862 6.20914 30.5817C6.32184 30.4772 6.49277 30.3917 6.58899 30.3917C6.68521 30.3917 6.80418 30.3432 6.85337 30.2839C6.92687 30.1953 6.86223 30.1669 6.49059 30.1245C6.24187 30.0962 5.93254 30.0559 5.80318 30.035C5.49545 29.9853 4.27088 29.9925 4.18678 30.0445C4.07331 30.1147 3.17693 30.1477 3.17693 30.0818C3.17693 30.0471 3.22985 29.9748 3.29452 29.9211C3.3592 29.8674 3.41212 29.7866 3.41212 29.7415C3.41212 29.6965 3.3889 29.6829 3.36053 29.7112C3.33216 29.7396 3.26161 29.7235 3.20374 29.6755C3.14549 29.6271 3.09854 29.6216 3.09854 29.6631C3.09854 29.7043 3.04562 29.7381 2.98094 29.7381C2.79267 29.7381 2.84431 29.6541 3.10304 29.5395C3.39399 29.4106 3.35233 29.3566 2.88327 29.2544C2.45537 29.1611 2.3738 29.015 2.68059 28.8913C2.99808 28.7633 4.48975 28.5971 5.34246 28.5947C5.74215 28.5936 6.16275 28.5693 6.27714 28.5405L6.48511 28.4883L6.26174 28.3055C6.13889 28.2049 5.97872 28.1214 5.90581 28.1199C5.71998 28.1159 5.6635 27.9911 5.76318 27.8048C5.86843 27.608 6.55036 27.2542 6.82435 27.2542C6.93987 27.2542 7.00666 27.2204 6.97912 27.1758C6.95247 27.1326 6.86597 27.0973 6.78689 27.0973C6.65407 27.0973 6.5064 26.9015 6.5355 26.764C6.56508 26.6242 5.32124 26.7805 5.21715 26.9297C5.13764 27.0436 3.13577 27.3414 2.93897 27.2685L2.75156 27.1992L2.93386 27.1016C3.03412 27.0479 3.68546 26.909 4.38128 26.7929C5.65453 26.5806 5.96442 26.4306 5.13009 26.4306C4.87372 26.4306 4.63788 26.3858 4.56121 26.3226C4.45231 26.2327 4.30153 26.2302 3.66639 26.3078C2.49851 26.4505 1.81978 26.5485 1.66061 26.5975C1.55515 26.6299 1.52344 26.6067 1.54302 26.5113C1.57155 26.3723 1.81409 26.2092 2.19433 26.0733C2.52162 25.9564 2.31818 25.8532 1.8997 25.924C1.71826 25.9546 1.41107 26.0046 1.21704 26.035L0.86426 26.0902L1.15824 25.8084C1.31994 25.6533 1.45223 25.5139 1.45223 25.4985C1.45223 25.483 1.23347 25.4457 0.966094 25.4154C0.333921 25.3438 -0.00433729 25.1665 4.19917e-05 24.909C0.00234239 24.7732 0.509506 24.591 0.981409 24.5564C1.17568 24.5422 1.61686 24.4745 1.9618 24.4059C2.30674 24.3374 2.83595 24.2654 3.13783 24.246C3.43971 24.2266 3.89832 24.1736 4.15697 24.1281C5.76335 23.8459 6.12489 23.7764 6.19413 23.7367C6.23668 23.7123 6.11321 23.6538 5.91974 23.6066C5.72506 23.5592 5.568 23.475 5.568 23.4179C5.568 23.2859 6.35814 22.9992 7.07526 22.871C7.4241 22.8086 7.6822 22.7158 7.76671 22.6224C7.84234 22.5388 8.10478 22.4333 8.36442 22.3822C8.95352 22.2663 8.93761 22.1563 8.29752 21.9196C8.16028 21.8689 8.0639 21.7866 8.08333 21.7367C8.12756 21.6231 8.49093 21.4499 8.68488 21.4499C8.76507 21.4499 8.80887 21.4146 8.78222 21.3714C8.75557 21.3283 8.47126 21.293 8.15043 21.293C7.62181 21.293 7.40954 21.2128 7.66508 21.1096C7.89342 21.0174 6.74932 21.0673 6.18422 21.1742C5.48051 21.3073 5.09762 21.2516 5.09762 21.0161C5.09762 20.9076 5.3024 20.765 5.86712 20.4805C6.39911 20.2125 6.60479 20.0723 6.53349 20.0262C6.39805 19.9387 6.53173 19.8492 7.05752 19.6755C7.79967 19.4302 8.38843 19.0191 8.31114 18.8001C8.25834 18.6505 8.5476 18.5689 9.74269 18.3963C10.3367 18.3106 10.9316 18.186 11.0647 18.1196C11.1978 18.0532 11.4795 17.9781 11.6907 17.9528C12.2732 17.8829 13.3879 17.6008 13.5622 17.4791C13.6472 17.4197 13.8236 17.3686 13.9542 17.3656C14.0847 17.3626 14.2621 17.3298 14.3483 17.2927C14.4732 17.239 14.4412 17.2229 14.1915 17.2137C13.5233 17.1891 13.1687 17.1232 13.0801 17.0071C13.0197 16.9279 12.9252 16.9035 12.8058 16.9363C12.649 16.9794 12.6429 16.9743 12.7622 16.8996C12.8384 16.8518 12.9619 16.8227 13.0366 16.835C13.1113 16.8473 13.2198 16.8276 13.2778 16.7912C13.3402 16.7521 13.4623 16.7674 13.5767 16.8287C13.7274 16.9093 13.8027 16.9117 13.9183 16.8395C14.0122 16.7809 14.0841 16.7751 14.1141 16.8237C14.1402 16.8659 14.3623 16.9018 14.6077 16.9033C14.8531 16.9048 15.1421 16.9565 15.2499 17.0182C15.4847 17.1525 15.5634 17.1623 15.5634 17.0574C15.5634 17.0142 15.5084 16.9789 15.4412 16.9789C15.374 16.9789 15.3383 16.9477 15.3619 16.9094C15.3856 16.8712 15.331 16.8206 15.2407 16.797C15.1504 16.7733 15.0919 16.7075 15.1106 16.6508C15.1452 16.546 15.4963 16.4846 16.5826 16.3934C17.5639 16.3111 17.8369 16.2668 17.8369 16.1898C17.8369 16.1493 17.784 16.1161 17.7193 16.1161C17.654 16.1161 17.6017 16.0464 17.6017 15.9593C17.6017 15.8442 17.654 15.8024 17.7977 15.8024C18.0232 15.8024 18.0617 15.6816 17.8535 15.6271C17.7764 15.607 17.3795 15.6093 16.9716 15.6323C15.7834 15.6994 15.3081 15.6771 15.0595 15.5425C14.9332 15.4742 14.8073 15.4322 14.7797 15.4493C14.7521 15.4664 14.744 15.381 14.7619 15.2595C14.8007 14.9945 14.6905 14.9532 13.8855 14.9311C13.4038 14.9178 13.3664 14.9059 13.5338 14.8191C13.8092 14.6762 14.8196 14.4713 15.4221 14.436C15.73 14.418 16.0209 14.3535 16.1255 14.2802C16.3482 14.1241 16.4824 14.1222 16.633 14.2728C16.7007 14.3406 16.8895 14.3898 17.0782 14.3888C17.6592 14.3858 19.8271 14.1652 20.1214 14.0791C20.3963 13.9988 20.4046 13.9858 20.3466 13.7285C20.3101 13.5664 20.3183 13.4295 20.3676 13.3802C20.4235 13.3243 20.4211 13.2657 20.3598 13.1919C20.1725 12.9661 20.4108 12.9193 21.5548 12.9574C22.4438 12.987 22.7211 12.9708 22.9015 12.8787C23.0923 12.7814 23.9527 12.647 24.5397 12.623C24.626 12.6195 24.8729 12.585 25.0885 12.5465L25.4805 12.4763L25.1277 12.4193C24.9337 12.3879 24.3516 12.3802 23.8342 12.4022C23.3168 12.4242 22.5759 12.4375 22.1879 12.4318C21.7998 12.426 21.0413 12.4788 20.5024 12.5491C19.4359 12.6882 18.3362 12.7854 17.8627 12.7826C17.6976 12.7816 17.5404 12.8116 17.5133 12.8492C17.4862 12.8869 17.3539 12.9222 17.2193 12.9277C17.0847 12.9333 16.9746 12.967 16.9746 13.0027C16.9746 13.0384 16.8952 13.0453 16.7982 13.018C16.6601 12.9791 16.6473 12.9862 16.7394 13.0507C16.8407 13.1217 16.838 13.1333 16.7198 13.1343C16.6443 13.135 16.5826 13.1749 16.5826 13.223C16.5826 13.2767 16.508 13.2615 16.3894 13.1837C16.1748 13.0431 16.0807 13.021 16.1459 13.1266C16.1695 13.1648 16.1187 13.2145 16.0329 13.2369C15.9437 13.2603 15.877 13.2389 15.877 13.187C15.877 13.1345 15.7532 13.0963 15.583 13.0963C15.3962 13.0963 15.2957 13.1306 15.3074 13.1906C15.32 13.2555 15.2356 13.2733 15.0364 13.2478C14.7101 13.206 14.3881 13.0233 14.3863 12.8788C14.3855 12.817 14.3579 12.8247 14.3091 12.9002C14.2501 12.9915 14.2329 12.9684 14.2319 12.797C14.2304 12.5141 14.3596 12.2727 14.5125 12.2727C14.5782 12.2727 14.6101 12.2374 14.5835 12.1943C14.5568 12.1511 14.5989 12.1131 14.6769 12.1098C14.9352 12.0989 15.0993 12.0514 15.274 11.9368C15.4306 11.8342 15.7986 11.8737 15.7986 11.9932C15.7986 12.0148 15.7514 12.0143 15.6936 11.992C15.6358 11.9699 15.5388 12.013 15.478 12.088C15.3827 12.2055 15.3828 12.215 15.4789 12.1571C15.5645 12.1055 15.5774 12.1232 15.535 12.2339C15.502 12.3199 15.5203 12.4034 15.5805 12.4416C15.7305 12.5368 15.8567 12.5189 15.7203 12.4218C15.6318 12.3588 15.6773 12.3484 15.9038 12.38C16.0704 12.4032 16.269 12.3819 16.3482 12.3324C16.4567 12.2646 16.5194 12.266 16.6064 12.3382C16.6989 12.415 16.7329 12.4065 16.782 12.2942C16.8154 12.2176 16.8372 12.1285 16.8303 12.0961C16.8235 12.0638 16.8678 12.0373 16.9289 12.0373C16.99 12.0373 17.0534 11.9969 17.0699 11.9476C17.0863 11.8983 17.2033 11.8468 17.3297 11.8333C17.4562 11.8199 17.5991 11.7549 17.6473 11.689C17.6955 11.623 17.7635 11.595 17.7984 11.6267C17.8334 11.6584 17.8398 11.6226 17.8128 11.5471C17.7522 11.3781 17.9021 11.3623 17.9667 11.5308C18.0078 11.638 18.0301 11.6366 18.1603 11.5187C18.2993 11.3928 18.3074 11.3937 18.3086 11.5349C18.3096 11.6601 18.3221 11.6652 18.3858 11.5667C18.4991 11.3913 18.4829 11.3531 18.2731 11.3004C18.14 11.267 18.0858 11.2022 18.0944 11.0872C18.1082 10.904 18.3813 10.7671 18.6959 10.7856C18.9892 10.8028 19.2481 10.7019 19.2481 10.5703C19.2481 10.4856 19.326 10.4607 19.5421 10.4765C19.8581 10.4996 20.3896 10.4113 20.5809 10.304C20.6758 10.2507 20.6683 10.2368 20.5417 10.2319C20.4554 10.2286 20.2085 10.2093 19.9929 10.189C19.3263 10.1265 18.4395 10.1285 18.1197 10.1932C17.9001 10.2376 17.8297 10.2302 17.8689 10.1666C17.9027 10.112 17.8815 10.0943 17.8135 10.1204C17.749 10.1452 17.6449 10.0734 17.5622 9.94706C17.4612 9.79283 17.4479 9.72245 17.5156 9.69989C17.5791 9.67871 17.5637 9.63192 17.4688 9.55741C17.3399 9.45629 17.3482 9.4501 17.5626 9.48736C17.692 9.50985 17.7537 9.50745 17.6998 9.48202C17.5013 9.38837 17.6106 9.292 17.9154 9.292C18.1133 9.292 18.2294 9.32815 18.2302 9.39004C18.231 9.46219 18.2492 9.45998 18.2988 9.38167C18.3411 9.31481 18.3845 9.30493 18.4155 9.35508C18.4681 9.44027 18.5679 9.43364 18.8129 9.32869C18.8969 9.2927 19.0816 9.26089 19.2234 9.25801C19.5483 9.25142 19.6538 9.05669 19.3324 9.05669C19.2053 9.05669 19.0885 9.00568 19.063 8.93903C19.0325 8.85964 19.0668 8.82137 19.1683 8.82137C19.251 8.82137 19.3469 8.77725 19.3814 8.72333C19.4713 8.58272 19.7908 8.41617 19.873 8.46703C19.9114 8.49076 19.965 8.47433 19.9921 8.43047C20.0192 8.38663 20.1387 8.35075 20.2576 8.35075C20.3766 8.35075 20.6656 8.29343 20.8998 8.22338C21.2694 8.11279 21.3027 8.08738 21.1516 8.03071C21.056 7.99481 20.4014 7.97022 19.697 7.97607C18.9926 7.98196 18.3702 7.95821 18.3139 7.92337C18.2555 7.8873 18.1883 7.89741 18.1578 7.94687C18.0948 8.04885 15.6578 8.12616 15.5972 8.02809C15.5759 7.99362 15.5037 7.98643 15.4368 8.01213C15.3544 8.04376 15.3436 8.07641 15.4032 8.11328C15.4517 8.14323 15.3841 8.16773 15.253 8.16773C15.122 8.16773 15.0147 8.134 15.0147 8.09276C15.0147 8.05153 14.961 8.06244 14.8953 8.11701C14.8295 8.17158 14.7507 8.19114 14.72 8.16047C14.6894 8.1298 14.752 8.03794 14.8591 7.95634L15.0539 7.80795L14.8579 7.84565C14.6862 7.87868 14.6814 7.87412 14.8188 7.80881C15.0448 7.70134 15.4164 7.71246 15.6342 7.83323C15.8465 7.95093 16.1123 7.91215 16.1123 7.76346C16.1123 7.69497 16.2671 7.6642 16.6219 7.6622C16.9416 7.66039 17.1314 7.69142 17.1314 7.74549C17.1314 7.79289 17.1755 7.77384 17.2294 7.70315C17.3002 7.61031 17.5125 7.56063 17.9938 7.52428C18.3603 7.49659 18.8828 7.42414 19.155 7.36328C19.4271 7.30243 19.7623 7.24924 19.8997 7.2451C20.0372 7.24094 20.326 7.18937 20.5416 7.13047C20.9092 7.03004 20.8677 7.02603 19.8753 7.06616C19.2932 7.08969 18.764 7.10953 18.6993 7.11023C18.6347 7.11094 17.8233 7.19426 16.8962 7.29538C15.9692 7.39651 14.9585 7.49003 14.6503 7.5032C14.3421 7.51638 14.106 7.55363 14.1258 7.58598C14.1455 7.61834 14.0096 7.64496 13.8238 7.64512C13.638 7.64512 13.1685 7.69659 12.7805 7.75908C12.115 7.86624 10.5497 7.97676 10.7623 7.90156C10.8164 7.88241 10.8408 7.83444 10.8164 7.79499C10.7921 7.75554 10.8712 7.72156 10.9923 7.71949C11.1135 7.71747 11.336 7.64875 11.4869 7.56688C11.6378 7.48502 11.8319 7.38512 11.9181 7.34489C12.2016 7.21265 16.8253 6.44733 17.9154 6.35222C18.2388 6.32401 19.1736 6.231 19.9929 6.14555C20.8121 6.0601 21.8934 5.95593 22.3957 5.91407C22.8981 5.8722 23.4788 5.78684 23.6863 5.72437C23.9588 5.64231 24.0785 5.63507 24.1175 5.6983C24.1671 5.77846 24.9918 5.75651 25.9901 5.64847C26.141 5.63213 26.6173 5.59672 27.0485 5.56977C27.8222 5.52141 29.0009 5.3587 29.6607 5.2092C29.847 5.16699 30.0325 5.15287 30.0728 5.17782C30.1132 5.20278 30.6594 5.14541 31.2866 5.05035C32.2146 4.90969 32.4604 4.89539 32.6064 4.97357C32.7532 5.05217 32.9412 5.03898 33.6409 4.90101C34.8057 4.67134 36.3257 4.37276 37.0831 4.22482C37.4281 4.15745 37.9292 4.05226 38.1968 3.99108C38.4643 3.92989 38.7995 3.88001 38.9415 3.88021C39.0836 3.88021 39.3585 3.82978 39.5526 3.76764C39.8796 3.66294 40.5491 3.5467 42.3356 3.28448C43.2534 3.14976 43.4383 3.11867 44.3739 2.94172C44.8051 2.86017 45.5106 2.7352 45.9418 2.66399C46.373 2.59279 46.8316 2.51702 46.961 2.49563C47.8763 2.34427 48.0506 2.34709 48.2327 2.51617C48.3309 2.6074 48.4113 2.72212 48.4113 2.77109C48.4113 2.82007 48.4377 2.85596 48.4701 2.85085C48.5024 2.84579 48.6095 2.84579 48.708 2.85085C48.8578 2.85861 48.8743 2.88414 48.8088 3.0067C48.7128 3.18612 48.7896 3.2829 48.9332 3.16361C49.0949 3.02938 49.0581 3.15011 48.8721 3.36411C48.7746 3.47636 48.5786 3.57701 48.3983 3.60748C48.1351 3.65199 48.105 3.67651 48.1893 3.77813C48.3158 3.93065 48.209 3.94011 53.2326 3.33194C53.5776 3.29018 54.1949 3.23909 54.6045 3.2184C55.0142 3.19771 55.755 3.14363 56.2508 3.09822C56.7467 3.05281 57.3993 3.00168 57.7012 2.98459C58.003 2.9675 58.3894 2.91695 58.5599 2.87225C58.7305 2.82756 59.4069 2.78882 60.0631 2.78617C60.7194 2.78352 61.3031 2.76562 61.3602 2.74639C61.5013 2.69894 63.3383 2.60265 63.7755 2.61979C63.9688 2.62739 64.1809 2.68242 64.2468 2.74212C64.3945 2.8759 64.7708 2.88931 66.5207 2.82317C67.325 2.79276 68.0637 2.72362 68.3063 2.65604C68.6228 2.56785 69.1478 2.54371 70.5406 2.5533C71.5419 2.56023 73.2078 2.53919 74.2426 2.50665C76.3397 2.44068 76.2276 2.43993 78.3976 2.53418C79.8026 2.5952 80.6131 2.59774 81.847 2.54497C82.0626 2.53575 82.1773 2.51206 82.1018 2.49233C82.0264 2.4726 81.9646 2.41956 81.9646 2.37447C81.9646 2.32038 82.1847 2.30802 82.6114 2.33817C82.9671 2.3633 84.0343 2.41963 84.9828 2.46335C85.9314 2.50707 87.1485 2.57906 87.6875 2.62331C89.8528 2.80111 90.6786 2.86378 91.8033 2.9356C94.6158 3.11527 96.0985 3.18685 97.6437 3.2176C98.3552 3.23177 99.2371 3.26741 99.6036 3.29679C99.9701 3.32619 100.517 3.34707 100.819 3.3432C101.121 3.33939 101.72 3.37087 102.151 3.41331C102.583 3.45574 103.979 3.506 105.255 3.525C106.53 3.544 107.73 3.59395 107.92 3.636C108.111 3.67804 108.544 3.73157 108.882 3.75493C109.221 3.7783 109.609 3.81557 109.745 3.83776C110.208 3.91365 110.932 3.96525 111.99 3.99786C112.922 4.02657 113.828 4.0955 115.165 4.23954C115.381 4.26274 115.681 4.29158 115.832 4.30362C115.982 4.31567 116.371 4.34816 116.694 4.37586C117.017 4.40355 117.564 4.4478 117.909 4.47419C118.254 4.50058 118.554 4.53305 118.575 4.54634C118.597 4.55963 118.815 4.59182 119.06 4.61791C119.306 4.64399 119.558 4.68517 119.621 4.70942C119.684 4.73367 120.048 4.76402 120.43 4.77688C121.477 4.81217 121.476 4.81195 121.476 4.93873C121.476 5.00344 121.513 5.05638 121.559 5.05638C121.605 5.05638 121.617 5.01509 121.585 4.96462C121.547 4.90205 121.572 4.88957 121.666 4.9254C121.741 4.95431 121.88 4.97795 121.975 4.97795C122.092 4.97795 122.152 5.02894 122.16 5.13483C122.174 5.32233 122.132 5.33133 121.974 5.17404C121.81 5.00986 121.627 5.02217 121.682 5.19365C121.709 5.27812 121.701 5.2972 121.66 5.24326C121.615 5.18352 121.394 5.17231 120.966 5.20805C120.231 5.26958 119.675 5.25265 118.654 5.13754C118.244 5.09138 117.715 5.03464 117.478 5.01144C117.241 4.98825 117.005 4.95581 116.955 4.93934C116.905 4.92288 116.843 4.96295 116.818 5.02836C116.784 5.11647 116.71 5.13356 116.531 5.09427C116.25 5.03256 116.07 5.00909 115.322 4.93708C115.02 4.90802 114.752 4.87125 114.726 4.85538C114.671 4.82158 113.623 4.81602 112.186 4.84193C111.275 4.85836 110.632 4.81346 110.152 4.69985C109.882 4.63584 107.992 4.60815 107.992 4.66821C107.992 4.6991 108.23 4.74986 108.521 4.78103C108.812 4.81221 109.121 4.85163 109.207 4.86865C109.812 4.98802 111.432 5.12181 112.735 5.16C113.037 5.16885 113.321 5.19998 113.367 5.22918C113.442 5.27775 115.843 5.46504 115.972 5.43244C116.002 5.42467 116.292 5.44301 116.615 5.4732C117.115 5.51985 118.392 5.61374 118.713 5.62742C118.828 5.63235 118.842 5.7336 118.736 5.79933C118.659 5.8465 118.069 5.8574 117.534 5.82148C117.37 5.81051 117.208 5.75508 117.173 5.6983C117.126 5.62149 116.991 5.60867 116.647 5.64821C116.392 5.67744 116.161 5.7154 116.132 5.73256C116.103 5.74973 116.026 5.71023 115.96 5.64479C115.895 5.57936 115.823 5.55603 115.8 5.59298C115.756 5.66466 114.173 5.63413 113.715 5.55275C113.564 5.52596 113.298 5.49678 113.124 5.48788C112.95 5.47899 112.729 5.42996 112.634 5.37894C112.495 5.30478 112.461 5.30718 112.461 5.39092C112.461 5.45256 112.356 5.50411 112.206 5.51622C111.586 5.56627 110.718 5.56152 110.03 5.50433C109.535 5.4632 109.324 5.46834 109.401 5.51968C109.71 5.72671 109.13 5.82881 108.227 5.72637C107.427 5.63554 107.284 5.63076 106.938 5.68329C106.759 5.71039 106.509 5.70461 106.381 5.67044C106.046 5.58043 104.301 5.42104 103.523 5.4094C103.157 5.40392 102.628 5.37529 102.347 5.3458C102.067 5.31631 101.503 5.27406 101.093 5.25191C100.684 5.22977 99.7134 5.15976 98.9373 5.09633C98.1612 5.0329 97.0068 4.95729 96.3719 4.9283C95.3375 4.88107 95.2125 4.88915 95.1676 5.00623C95.1249 5.11758 94.9887 5.13635 94.2444 5.13351C93.7641 5.13171 93.2124 5.1588 93.0184 5.19379L92.6656 5.25743L93.2536 5.34489C93.577 5.39299 93.965 5.43138 94.1159 5.4302C94.2668 5.42892 94.8842 5.4827 95.4879 5.54951C96.0915 5.61631 97.238 5.71038 98.0357 5.75854C98.8334 5.8067 99.5645 5.863 99.6604 5.88365C99.7563 5.9043 100.55 5.95556 101.424 5.99755C102.996 6.07304 104.096 6.13463 104.935 6.19396C105.172 6.21075 105.985 6.26023 106.742 6.30393C107.5 6.34762 108.17 6.39908 108.232 6.41829C108.294 6.4375 108.415 6.47992 108.502 6.51254C108.588 6.54517 108.794 6.58165 108.96 6.59364C109.125 6.60563 109.302 6.67138 109.352 6.73979C109.424 6.83855 109.628 6.86833 110.344 6.88443C110.84 6.89558 111.281 6.92642 111.324 6.95293C111.367 6.97946 111.667 7.02187 111.99 7.04719C113.536 7.16821 115.081 7.2665 115.792 7.28903C116.224 7.3027 117.141 7.37551 117.831 7.45084C118.521 7.52618 119.402 7.59953 119.791 7.61385C122.476 7.71295 124.621 7.83776 125.749 7.96051C126.137 8.00277 126.817 8.06004 127.26 8.08779C127.703 8.11554 128.085 8.16841 128.107 8.20528C128.13 8.24217 128.032 8.2752 127.889 8.27871C127.747 8.28225 127.53 8.29231 127.409 8.30116C127.287 8.31 127.172 8.29241 127.153 8.26206C127.135 8.23171 126.989 8.24289 126.83 8.2869C126.668 8.33157 126.313 8.34405 126.027 8.31515C125.744 8.28666 124.243 8.24955 122.691 8.23265C121.139 8.21577 119.287 8.17916 118.575 8.15131C117.307 8.10166 116.948 8.13203 117.78 8.21854C118.011 8.24254 118.216 8.27925 118.237 8.30012C118.293 8.35606 118.007 8.49447 117.769 8.52633C117.492 8.56345 117.404 8.66282 117.641 8.67133C117.745 8.67508 118.289 8.71103 118.85 8.75124C119.41 8.79145 120.513 8.84519 121.3 8.87069C122.593 8.91259 122.73 8.93021 122.73 9.05451C122.73 9.22703 123.046 9.26783 124.948 9.34118C125.715 9.37076 126.361 9.42474 126.383 9.46114C126.406 9.49754 126.579 9.52733 126.768 9.52733C127.412 9.52733 127.231 9.74392 126.44 9.92038C126.217 9.97018 125.917 10.0044 125.774 9.99649C124.819 9.94355 125.069 10.098 126.141 10.2227C126.572 10.2729 127.171 10.331 127.473 10.3519C127.775 10.3728 128.322 10.4251 128.688 10.4681C129.055 10.5111 129.796 10.5696 130.335 10.598C130.998 10.6331 131.34 10.6829 131.393 10.7525C131.436 10.8095 131.716 10.8781 132.02 10.9064C132.322 10.9345 132.604 11.0005 132.647 11.0532C132.691 11.1059 132.983 11.1728 133.298 11.2019C133.613 11.231 133.95 11.3067 134.047 11.37C134.157 11.4426 134.496 11.498 134.964 11.5197C135.971 11.5666 136.76 11.655 136.804 11.7258C136.85 11.8003 136.163 11.9066 136.058 11.8414C136.015 11.8146 135.979 11.8262 135.979 11.8671C135.979 11.908 136.103 11.9646 136.254 11.9929C136.552 12.0489 136.608 12.1464 136.391 12.2306C136.135 12.33 136.493 12.4874 137.299 12.6293C137.976 12.7486 138.404 12.896 138.092 12.9025C137.799 12.9087 138.251 13.0469 138.722 13.0951C139.002 13.1238 139.272 13.1812 139.322 13.2229C139.372 13.2645 139.636 13.3345 139.909 13.3784C140.666 13.5005 140.658 13.5986 139.885 13.6594C139.597 13.6821 139.332 13.7494 139.253 13.8205C139.142 13.9203 139.005 13.9322 138.508 13.8857C137.497 13.7913 137.297 13.8097 137.146 14.0109C137.071 14.1094 137.026 14.2147 137.045 14.2448C137.063 14.275 137.316 14.3244 137.607 14.3546C137.897 14.3848 138.17 14.4372 138.214 14.4711C138.257 14.5049 138.459 14.5576 138.664 14.5881C139.226 14.6718 139.111 14.7826 138.462 14.7826C138.146 14.7826 137.86 14.8091 137.827 14.8415C137.795 14.8738 137.466 14.9003 137.097 14.9003C136.63 14.9003 136.415 14.9301 136.392 14.9983C136.369 15.0655 136.453 15.0965 136.659 15.0968C136.824 15.097 137.083 15.1296 137.234 15.1692C137.384 15.2088 137.807 15.2635 138.172 15.2908C138.536 15.3181 138.875 15.3734 138.923 15.4138C138.972 15.4542 139.032 15.4666 139.058 15.4415C139.083 15.4164 139.185 15.4251 139.286 15.461C139.426 15.5113 139.343 15.5375 138.919 15.5761C138.419 15.6216 137.849 15.7361 137.547 15.8515C137.356 15.9247 137.653 16.0052 138.547 16.1217C138.989 16.1794 139.35 16.2475 139.35 16.2731C139.35 16.2987 139.58 16.305 139.86 16.2871C140.269 16.261 140.369 16.2772 140.369 16.3693C140.369 16.5115 140.121 16.744 139.971 16.7424C139.879 16.7414 139.88 16.728 139.977 16.6651C140.077 16.6004 140.074 16.5889 139.955 16.5879C139.878 16.5872 139.795 16.6415 139.769 16.7084C139.729 16.8121 139.587 16.8241 138.811 16.7891C137.838 16.7453 137.599 16.7972 137.778 17.0133C138.078 17.3752 139.303 17.7632 140.144 17.7632C140.653 17.7632 140.918 17.8584 140.918 18.0405C140.918 18.1317 140.793 18.1551 140.311 18.1536C139.976 18.1526 139.562 18.1145 139.389 18.0691C139.217 18.0236 138.404 17.9705 137.584 17.9509C136.132 17.9164 136.091 17.9197 136.079 18.0731C136.068 18.2239 136.164 18.3326 136.332 18.3598C136.375 18.3668 136.713 18.4296 137.084 18.4994C138.295 18.7279 139.371 18.867 140.472 18.9377C141.492 19.0032 141.84 19.0931 141.735 19.2637C141.711 19.3027 141.657 19.3137 141.616 19.2882C141.575 19.2627 141.551 19.2887 141.563 19.3458C141.575 19.4032 141.523 19.4448 141.448 19.4389C141.373 19.433 141.329 19.4556 141.349 19.4891C141.37 19.5227 141.267 19.5726 141.121 19.6001C140.805 19.6594 140.73 19.8008 140.892 20.0323C140.978 20.1556 140.987 20.2292 140.926 20.3034C140.825 20.4252 140.891 20.5086 141.088 20.5086C141.167 20.5086 141.232 20.5233 141.232 20.5414C141.232 20.5594 141.255 20.6352 141.284 20.7098C141.331 20.8345 141.279 20.8413 140.637 20.7935C140.253 20.7649 139.806 20.7205 139.644 20.6949C139.41 20.6578 139.35 20.6732 139.35 20.7706C139.35 20.8379 139.293 20.9248 139.224 20.9637C139.044 21.0642 139.152 21.5161 139.377 21.607C139.538 21.6719 139.539 21.6757 139.389 21.6857C139.233 21.6961 139.233 21.6961 139.389 21.7636C139.542 21.8293 139.329 21.8574 138.527 21.877C138.193 21.8852 137.939 21.9908 137.939 22.1218C137.939 22.1918 137.858 22.2346 137.723 22.2352C137.605 22.236 137.428 22.2578 137.33 22.2841C137.162 22.3289 137.16 22.3384 137.29 22.4374C137.367 22.4954 137.526 22.5441 137.644 22.5454C137.762 22.5469 138.091 22.6715 138.376 22.8225C138.663 22.9747 139.007 23.097 139.149 23.097C139.624 23.097 140.365 23.1968 140.329 23.256C140.309 23.2882 140.353 23.3097 140.426 23.3038C140.499 23.2979 140.572 23.3539 140.587 23.4282C140.623 23.6008 140.16 23.8984 139.921 23.8563C139.826 23.8395 139.735 23.8642 139.719 23.9113C139.682 24.0223 138.767 24.0536 138.401 23.9565C138.246 23.9152 137.443 23.8719 136.618 23.8602C135.222 23.8404 134.811 23.8805 135.332 23.9853C135.451 24.0091 135.707 24.0645 135.901 24.1084C136.095 24.1523 136.403 24.1898 136.587 24.1917C136.77 24.1936 136.92 24.2304 136.92 24.2735C136.92 24.3167 136.975 24.352 137.043 24.352C137.11 24.352 137.238 24.3908 137.326 24.4382C137.486 24.5234 137.485 24.5253 137.302 24.617C136.98 24.7774 137.08 24.9287 137.62 25.1007C137.897 25.1889 138.141 25.3124 138.161 25.3752C138.181 25.438 138.229 25.5098 138.267 25.5348C138.387 25.6135 138.243 25.8555 138.108 25.8034C138.039 25.7771 138.005 25.7772 138.031 25.8037C138.058 25.8302 137.99 25.9408 137.882 26.0496C137.739 26.1926 137.591 26.2509 137.348 26.2603C137.164 26.2674 137.027 26.2963 137.045 26.3245C137.062 26.3528 136.739 26.3585 136.326 26.3374C135.726 26.3067 135.549 26.3228 135.444 26.4179C135.298 26.5499 134.528 26.6043 134.127 26.511C133.973 26.4754 133.861 26.4864 133.828 26.5404C133.799 26.5879 133.692 26.6267 133.59 26.6267C133.354 26.6267 133.157 26.7019 133.157 26.792C133.157 26.8305 133.208 26.862 133.271 26.862C133.333 26.862 133.414 26.9155 133.451 26.9809C133.492 27.0547 133.799 27.1546 134.258 27.2441C135.164 27.4204 135.831 27.69 135.768 27.8544C135.744 27.9175 135.674 27.9499 135.612 27.9263C135.551 27.9028 135.52 27.9154 135.544 27.9544C135.569 27.9934 135.496 28.1353 135.383 28.2697C135.231 28.4496 135.136 28.5008 135.02 28.464C134.932 28.4363 134.882 28.4458 134.906 28.4854C134.93 28.5247 134.828 28.5603 134.678 28.5646C134.528 28.5688 134.157 28.633 133.855 28.7072L133.304 28.8421L133.479 29.0286C133.576 29.1312 133.687 29.2151 133.727 29.2151C133.767 29.2151 133.921 29.2726 134.069 29.3429C134.327 29.4654 134.333 29.4781 134.219 29.6525C134.143 29.7672 134.129 29.8525 134.178 29.8832C134.222 29.91 134.234 29.9685 134.207 30.0133C134.174 30.0658 134.132 30.0569 134.088 29.9883C134.043 29.9192 133.999 29.91 133.96 29.9619C133.928 30.0059 133.796 30.093 133.666 30.1554L133.431 30.2689L133.679 30.2955C133.948 30.3244 134.092 30.5257 133.897 30.6004C133.831 30.6257 133.758 30.6269 133.734 30.603C133.71 30.5792 133.573 30.6257 133.43 30.7063C133.286 30.787 133.035 30.8781 132.871 30.9089C132.707 30.9397 132.525 31.0124 132.467 31.0704C132.33 31.208 132.276 31.205 131.548 31.0186C130.894 30.8513 130.71 30.8669 130.441 31.1122C130.29 31.2506 130.229 31.2574 129.819 31.1816C129.282 31.0823 128.27 31.0695 128.327 31.1629C128.35 31.1988 128.625 31.272 128.94 31.3257C129.741 31.4624 129.831 31.4918 129.7 31.5731C129.471 31.7142 130.493 32.0472 131.491 32.1572C131.761 32.1869 131.998 32.2389 132.019 32.2727C132.04 32.3065 131.983 32.4283 131.893 32.5433C131.741 32.7365 131.738 32.7631 131.855 32.8921C131.924 32.9689 131.981 33.051 131.981 33.0746C131.981 33.1715 130.653 33.032 130.217 32.8892C129.59 32.6839 128.319 32.5341 128.201 32.6515C128.139 32.7137 128.139 32.767 128.199 32.8402C128.281 32.939 128.407 32.9813 129.453 33.2616C129.779 33.349 129.943 33.4325 129.943 33.5111C129.943 33.6105 129.85 33.6209 129.361 33.5765C128.988 33.5427 128.761 33.5529 128.729 33.6049C128.702 33.6495 128.722 33.6861 128.775 33.6861C128.828 33.6861 128.853 33.7043 128.831 33.7267C128.778 33.7792 127.668 33.5461 127.557 33.4593C127.471 33.3911 126.326 33.2146 126.082 33.2319C126.006 33.2372 125.944 33.2858 125.944 33.3397C125.944 33.3937 125.926 33.4855 125.904 33.5436C125.865 33.6441 126.823 33.8472 128.473 34.0885C128.72 34.1248 129.051 34.2079 129.207 34.2732C129.364 34.3385 129.602 34.3922 129.737 34.3924C130.092 34.3931 130.602 34.5484 130.519 34.6308C130.481 34.669 130.004 34.7103 129.458 34.7226C128.913 34.7349 128.473 34.7509 128.48 34.7583C128.487 34.7656 128.667 34.8401 128.88 34.9238C129.251 35.0697 129.26 35.0801 129.091 35.1709C128.958 35.242 128.816 35.2447 128.523 35.1818C128.046 35.0794 127.983 35.078 127.983 35.1701C127.983 35.2098 128.088 35.2655 128.217 35.2938C128.646 35.388 128.553 35.4901 128.039 35.4901C127.739 35.4901 127.437 35.5399 127.29 35.6132C127.141 35.6875 126.974 35.7145 126.87 35.6812C126.646 35.6102 122.965 35.5831 123.008 35.6528C123.099 35.8005 122.071 35.7997 121.193 35.6514C119.416 35.3513 117.904 35.1806 116.929 35.1702C116.39 35.1644 115.579 35.1112 115.126 35.0519C114.673 34.9927 113.867 34.9078 113.334 34.8633C112.8 34.8188 112.342 34.7688 112.314 34.7522C112.287 34.7356 112 34.6995 111.676 34.672C111.353 34.6445 110.965 34.607 110.814 34.5887C110.5 34.5508 109.07 34.471 108.031 34.4335C107.28 34.4064 106.138 34.3342 105.366 34.265C105.107 34.2419 104.101 34.2079 103.131 34.1895C102.161 34.1711 101.015 34.1271 100.583 34.0917C100.152 34.0564 98.9598 34.0309 97.9335 34.0352C96.3814 34.0417 96.055 34.0625 95.9932 34.1586C95.9302 34.2567 95.9083 34.2577 95.8485 34.1648C95.8015 34.0919 95.7007 34.0708 95.5463 34.1017C95.4186 34.1273 95.2761 34.1096 95.2288 34.0622C95.1816 34.015 95.0266 33.9689 94.8842 33.9598C94.7419 33.9507 94.5549 33.9224 94.4686 33.8968C93.9988 33.7576 93.5093 33.7172 93.3121 33.8012C93.1538 33.8687 92.7587 33.789 92.8133 33.7006C92.8334 33.668 92.4556 33.6319 91.9737 33.6203C90.6762 33.5891 90.5416 33.5748 90.3947 33.4529C90.2754 33.3538 90.2635 33.3583 90.2871 33.4941C90.3051 33.5976 90.2758 33.6378 90.1961 33.6189C90.1314 33.6035 89.9991 33.5903 89.9021 33.5895C89.8051 33.5886 89.7257 33.5608 89.7257 33.5277C89.7257 33.4945 89.6688 33.4456 89.5994 33.4189C89.5076 33.3837 89.4859 33.404 89.5201 33.493C89.5525 33.5775 89.5369 33.5965 89.47 33.5539C89.4166 33.52 89.0378 33.4811 88.6282 33.4676C87.7667 33.4391 87.8948 33.4395 83.846 33.4537C82.1429 33.4598 80.5313 33.4392 80.2647 33.408C79.9981 33.3769 79.7207 33.3741 79.6482 33.402C79.5147 33.4532 76.9537 33.5543 76.1669 33.5395C75.5516 33.5278 74.8537 33.8898 75.2419 34.0192C75.2998 34.0385 75.2597 34.094 75.1439 34.1552C75.0362 34.212 74.9285 34.2883 74.9046 34.3247C74.8181 34.4563 74.1524 34.5297 73.9634 34.4285C73.8442 34.3647 73.5286 34.3418 73.0322 34.3609C72.6192 34.3768 71.2626 34.4085 70.0175 34.4312C68.7725 34.454 67.6681 34.4941 67.5634 34.5204C67.4587 34.5467 67.0137 34.5736 66.5744 34.5802C66.1352 34.5868 65.7053 34.6319 65.619 34.6804C65.4647 34.7672 64.7377 34.9096 64.616 34.8769C64.466 34.8366 64.1875 34.8467 63.9335 34.9017C63.7826 34.9344 63.5886 34.9552 63.5023 34.948C63.4161 34.9408 63.275 34.9286 63.1888 34.921C63.1025 34.9134 62.6968 34.9486 62.2872 34.9993C61.8776 35.0499 61.3899 35.0907 61.2035 35.0898C61.0171 35.0889 60.8231 35.1215 60.7724 35.1623C60.7216 35.2032 60.5655 35.2611 60.4253 35.2911C60.2168 35.3357 60.1705 35.3215 60.1705 35.2128C60.1705 35.0953 60.1057 35.0864 59.6022 35.1356C59.2896 35.1662 58.4693 35.1993 57.7795 35.2092C57.0896 35.2192 56.3351 35.2687 56.1029 35.3194C55.8706 35.3701 55.6634 35.4116 55.6425 35.4116C55.6215 35.4116 55.6483 35.4645 55.702 35.5292C55.7557 35.5939 55.9187 35.6469 56.0644 35.6469C56.21 35.6469 56.3291 35.6616 56.3291 35.6797C56.3291 35.6977 56.3506 35.7683 56.3767 35.8366C56.442 36.0067 56.2213 35.9983 56.0471 35.824C55.9484 35.7253 55.9015 35.7146 55.878 35.7853C55.86 35.8391 55.8131 35.8632 55.7737 35.8388C55.7343 35.8144 55.702 35.8231 55.702 35.858C55.702 35.8929 55.6226 35.9257 55.5256 35.931C55.4286 35.9363 54.8906 35.9806 54.3301 36.0294C53.7695 36.0782 52.6406 36.1323 51.8214 36.1496C51.0022 36.1669 50.2437 36.2004 50.1359 36.224C49.7707 36.3042 47.7626 36.49 46.6865 36.5433C44.6925 36.6419 43.1809 36.9273 42.8691 37.2638C42.7716 37.3691 42.5998 37.4541 42.4765 37.4581C41.462 37.4911 40.0532 37.5968 39.4349 37.6863C39.1762 37.7238 38.7224 37.776 38.4264 37.8025C38.1304 37.829 37.711 37.8842 37.4945 37.9253C37.278 37.9664 37.088 38 37.0723 38C37.0567 38 37.0438 37.9097 37.0438 37.7993L37.0438 37.7994ZM37.0438 37.0857C37.0438 36.9999 37.0091 36.9935 36.89 37.0573C36.798 37.1065 36.7544 37.1874 36.7815 37.2582C36.8165 37.3495 36.8519 37.356 36.9354 37.2866C36.9951 37.2371 37.0438 37.1467 37.0438 37.0857ZM50.2535 35.9191C50.5602 35.809 50.5525 35.8074 49.9007 35.8457C48.4083 35.9332 47.9408 35.9776 47.9408 36.0317C47.9408 36.134 49.9236 36.0375 50.2535 35.9191ZM13.8387 34.9719C13.8387 34.9549 13.7858 34.9411 13.7211 34.9411C13.6565 34.9411 13.6036 34.9753 13.6036 35.017C13.6036 35.0588 13.6565 35.0727 13.7211 35.0479C13.7858 35.023 13.8387 34.9889 13.8387 34.9719ZM19.5224 34.7058C19.5498 34.6615 19.4856 34.6273 19.3749 34.6273C19.2671 34.6273 19.1571 34.6626 19.1304 34.7058C19.1031 34.7501 19.1673 34.7842 19.278 34.7842C19.3858 34.7842 19.4958 34.7489 19.5224 34.7058ZM15.7986 34.3044C15.7986 34.2235 15.7048 34.2159 15.5307 34.2827C15.3339 34.3583 15.3867 34.4525 15.6026 34.4112C15.7104 34.3906 15.7986 34.3425 15.7986 34.3044ZM60.1577 34.2917C60.4252 34.2171 60.4619 34.1885 60.3301 34.1572C60.1209 34.1076 57.6267 34.2124 56.29 34.327C55.9267 34.3582 58.7319 34.4342 59.3082 34.4088C59.5885 34.3965 59.9707 34.3438 60.1577 34.2917ZM62.8752 34.0503C62.9614 34.0298 62.8027 34.016 62.5224 34.0195C61.8535 34.0279 61.5887 34.1 62.0129 34.1582C62.1853 34.1819 62.4146 34.1756 62.5224 34.1443C62.6302 34.113 62.789 34.0707 62.8752 34.0503V34.0503ZM12.8456 34.0733C13.007 34.0686 13.006 34.0645 12.8247 33.992C12.611 33.9066 12.4276 33.9492 12.4276 34.0842C12.4276 34.1334 12.4833 34.1521 12.5516 34.1259C12.6198 34.0997 12.7521 34.076 12.8456 34.0733ZM64.0529 33.985C64.0739 33.964 63.9343 33.9409 63.7428 33.9337C63.5513 33.9264 63.3702 33.96 63.3404 34.0082C63.3023 34.0698 63.3945 34.0851 63.6505 34.0595C63.8509 34.0395 64.0319 34.006 64.0529 33.985ZM125.357 33.0586C125.387 33.01 125.261 32.9837 125.028 32.9894C124.693 32.9977 124.677 33.0054 124.886 33.0586C125.229 33.1459 125.303 33.1459 125.357 33.0586ZM4.52436 31.9069C4.46777 31.8842 4.40015 31.887 4.3741 31.9131C4.34805 31.9391 4.39435 31.9577 4.477 31.9543C4.56832 31.9505 4.5869 31.9319 4.52436 31.9069V31.9069ZM5.45041 31.8036C5.60796 31.7531 5.61565 31.7403 5.48961 31.7385C5.40337 31.7372 5.26226 31.7665 5.17602 31.8036C4.97625 31.8895 5.18236 31.8895 5.45041 31.8036ZM6.50234 31.8344C6.57054 31.8082 6.62634 31.7234 6.62634 31.6458C6.62634 31.5256 6.57703 31.5109 6.29316 31.5464C5.93293 31.5915 5.69786 31.7252 5.97887 31.7252C6.07119 31.7252 6.16852 31.7605 6.19517 31.8036C6.25094 31.8939 6.32747 31.9016 6.50234 31.8344ZM133.862 30.4702C133.862 30.427 133.801 30.3923 133.725 30.3929C133.608 30.3939 133.605 30.4052 133.706 30.4702C133.854 30.5658 133.862 30.5658 133.862 30.4702ZM8.44414 27.2791C8.38755 27.2564 8.31993 27.2592 8.29388 27.2853C8.26783 27.3113 8.31414 27.3299 8.39678 27.3265C8.4881 27.3227 8.50668 27.3041 8.44414 27.2791V27.2791ZM7.80228 27.0502C7.80228 26.9224 7.58424 26.908 7.29781 27.017C6.98599 27.1356 7.05999 27.2191 7.4495 27.1881C7.68617 27.1692 7.80228 27.1239 7.80228 27.0502ZM9.25844 27.1068C9.18016 26.9801 8.89982 26.9478 8.89982 27.0655C8.89982 27.1315 8.9803 27.1758 9.10043 27.1758C9.21077 27.1758 9.28188 27.1448 9.25844 27.1068ZM8.66463 27.0189C8.7521 26.9624 8.70691 26.9426 8.48824 26.9417C8.32655 26.941 8.19426 26.9758 8.19426 27.0189C8.19426 27.1188 8.51012 27.1188 8.66463 27.0189ZM139.35 17.8418C139.35 17.7986 139.315 17.7633 139.272 17.7633C139.229 17.7633 139.193 17.7986 139.193 17.8418C139.193 17.8849 139.229 17.9202 139.272 17.9202C139.315 17.9202 139.35 17.8849 139.35 17.8418ZM139.919 16.3779C139.865 16.3562 139.776 16.3562 139.723 16.3779C139.669 16.3997 139.713 16.4175 139.821 16.4175C139.928 16.4175 139.972 16.3997 139.919 16.3779ZM138.743 15.4333C138.646 15.4146 138.487 15.4146 138.39 15.4333C138.293 15.452 138.372 15.4673 138.566 15.4673C138.76 15.4673 138.84 15.452 138.743 15.4333ZM135.117 14.8001C135.117 14.7665 134.826 14.6972 134.47 14.646C134.114 14.5948 133.738 14.5285 133.635 14.4986C133.517 14.4648 133.464 14.4737 133.494 14.5218C133.52 14.5645 133.852 14.6444 134.231 14.6992C134.611 14.7541 134.956 14.8102 134.999 14.8239C135.042 14.8376 135.086 14.8515 135.097 14.8549C135.108 14.8583 135.117 14.8337 135.117 14.8001ZM20.7768 14.0768C20.9168 14.0166 20.911 14.0088 20.7226 14.0038C20.6066 14.0008 20.4898 14.0336 20.4632 14.0768C20.4053 14.1704 20.559 14.1704 20.7768 14.0768ZM134.568 13.6172C134.568 13.5802 134.214 13.5096 133.781 13.4603C132.807 13.3495 132.632 13.3472 132.731 13.4469C132.773 13.4888 133.195 13.5544 133.668 13.5928C134.141 13.6312 134.538 13.6676 134.548 13.6736C134.559 13.6797 134.568 13.6543 134.568 13.6172V13.6172ZM16.3785 12.678C16.4007 12.642 16.3675 12.6126 16.3048 12.6126C16.242 12.6126 16.1906 12.642 16.1906 12.678C16.1906 12.7139 16.2238 12.7433 16.2644 12.7433C16.305 12.7433 16.3563 12.7139 16.3785 12.678ZM26.8671 12.5329C26.8105 12.5102 26.7429 12.513 26.7169 12.5391C26.6908 12.5651 26.7371 12.5837 26.8197 12.5803C26.9111 12.5765 26.9297 12.5579 26.8671 12.5329V12.5329ZM14.7011 12.4296C14.7011 12.3864 14.6394 12.3517 14.5639 12.3523C14.4467 12.3533 14.4438 12.3646 14.5443 12.4296C14.6922 12.5252 14.7011 12.5252 14.7011 12.4296ZM15.0147 12.3073C15.0147 12.2883 14.9794 12.2727 14.9363 12.2727C14.8932 12.2727 14.8579 12.3101 14.8579 12.3558C14.8579 12.4015 14.8932 12.417 14.9363 12.3904C14.9794 12.3637 15.0147 12.3263 15.0147 12.3073ZM19.4832 11.7612C19.591 11.731 19.9262 11.6769 20.228 11.6409C20.5298 11.6049 20.9002 11.5381 21.0511 11.4925C21.202 11.4469 21.3255 11.4126 21.3255 11.4162C21.3255 11.4462 21.8625 11.2784 22.1291 11.165C22.5335 10.993 22.5591 10.8608 22.1879 10.8608C21.9962 10.8608 21.9135 10.8254 21.9135 10.7432C21.9135 10.6226 22.2644 10.5749 22.8468 10.6163C23.1005 10.6344 23.8244 10.4992 23.9902 10.4028C24.114 10.3308 23.7184 10.2497 23.2023 10.2412C22.8665 10.2356 22.5805 10.2909 22.2271 10.4294C21.952 10.5373 21.6543 10.6261 21.5654 10.6267C21.4368 10.6277 21.4271 10.6426 21.5178 10.7C21.5804 10.7396 21.6598 10.7546 21.6942 10.7334C21.7286 10.7121 21.7567 10.7281 21.7567 10.7689C21.7567 10.8391 21.5851 10.8887 20.9863 10.9915C20.8429 11.0161 20.7065 11.0859 20.6832 11.1467C20.6486 11.2369 20.6184 11.2388 20.5177 11.157C20.4146 11.0732 20.4021 11.077 20.4408 11.1805C20.4746 11.2709 20.4416 11.3006 20.3183 11.291C20.2255 11.2838 20.0325 11.3099 19.8895 11.3491C19.7091 11.3984 19.5949 11.3917 19.5171 11.327C19.4539 11.2746 19.4048 11.2677 19.4048 11.3112C19.4048 11.3977 18.8075 11.6452 18.5987 11.6452C18.5246 11.6452 18.4641 11.6935 18.4641 11.7525C18.4641 11.8323 18.5692 11.8541 18.8757 11.8378C19.102 11.8258 19.3754 11.7913 19.4832 11.7612V11.7612ZM22.7082 8.91655C22.6516 8.89769 22.5681 8.91953 22.5225 8.96513C22.4643 9.02333 22.4949 9.03354 22.6253 8.99942C22.7313 8.97169 22.7669 8.93613 22.7082 8.91655ZM117.399 8.60577C117.399 8.57341 117.292 8.53944 117.161 8.53027C117.025 8.52072 116.943 8.54588 116.97 8.5891C117.025 8.67757 117.399 8.69214 117.399 8.60577ZM22.9326 8.11163L23.1286 8.10559L22.9458 8.03226C22.7392 7.94941 22.3839 8.01323 22.3839 8.13318C22.3839 8.17692 22.4627 8.19112 22.5603 8.16497C22.6573 8.13895 22.8248 8.11496 22.9326 8.11163ZM116.772 8.12861C116.772 8.09266 116.719 8.06324 116.655 8.06324C116.59 8.06324 116.537 8.09266 116.537 8.12861C116.537 8.16456 116.59 8.19397 116.655 8.19397C116.719 8.19397 116.772 8.16456 116.772 8.12861ZM117.1 8.14038C117.044 8.11773 116.976 8.12052 116.95 8.14657C116.924 8.17264 116.97 8.19117 117.053 8.18777C117.144 8.18402 117.163 8.16542 117.1 8.14038V8.14038ZM24.2801 7.98351C24.2235 7.96085 24.1559 7.96364 24.1298 7.98969C24.1038 8.01576 24.1501 8.0343 24.2327 8.03089C24.324 8.02714 24.3426 8.00854 24.2801 7.98351V7.98351ZM15.485 7.88021C15.485 7.83708 15.4498 7.80178 15.4067 7.80178C15.3635 7.80178 15.3283 7.83708 15.3283 7.88021C15.3283 7.92336 15.3635 7.95865 15.4067 7.95865C15.4498 7.95865 15.485 7.92336 15.485 7.88021ZM17.5233 7.67452C17.5233 7.58664 17.3761 7.6637 17.3339 7.77366C17.2927 7.8813 17.3041 7.88616 17.4039 7.80327C17.4696 7.74875 17.5233 7.69081 17.5233 7.67452ZM18.3073 7.68413C18.3073 7.61942 18.2934 7.56647 18.2765 7.56647C18.2595 7.56647 18.2254 7.61942 18.2005 7.68413C18.1757 7.74884 18.1896 7.80178 18.2314 7.80178C18.2731 7.80178 18.3073 7.74884 18.3073 7.68413ZM120.942 5.0029C120.885 4.98024 120.818 4.98303 120.792 5.00908C120.766 5.03514 120.812 5.05369 120.895 5.05027C120.986 5.04652 121.004 5.02793 120.942 5.00289V5.0029ZM48.7606 3.4147C48.7855 3.37454 48.7736 3.3218 48.7343 3.2975C48.695 3.27319 48.6426 3.30605 48.6179 3.37052C48.5691 3.49759 48.6869 3.53405 48.7606 3.4147ZM11.5497 37.0785C11.5046 37.0246 11.4985 36.9794 11.5361 36.9781C11.5737 36.9768 11.5385 36.9373 11.4579 36.8905C11.251 36.7702 11.4343 36.6672 11.8397 36.6757C12.0514 36.6802 12.1023 36.6989 11.9964 36.7333C11.8471 36.7819 11.7357 36.9816 11.8593 36.9794C12.0894 36.9752 12.2557 36.8727 12.2198 36.757C12.1848 36.6441 12.1941 36.6451 12.2927 36.7647C12.4266 36.9273 13.0231 36.9573 13.0747 36.804C13.1009 36.7261 13.1328 36.7266 13.2296 36.8065C13.3822 36.9325 13.4722 37.2387 13.3426 37.1908C13.2921 37.1722 13.2622 37.1094 13.2762 37.0513C13.2939 36.9774 13.258 36.9851 13.1565 37.077C13.0406 37.1819 12.8725 37.2052 12.3216 37.1925C11.8835 37.1824 11.6018 37.1408 11.5497 37.0785L11.5497 37.0785ZM10.4735 36.9056C10.3691 36.841 10.4193 36.6667 10.5424 36.6667C10.6318 36.6667 10.7103 36.8882 10.637 36.9335C10.6044 36.9536 10.5309 36.9411 10.4735 36.9056ZM12.1322 36.2745C12.0455 36.1356 12.0546 36.1163 12.2114 36.1057C12.3087 36.0991 12.4413 36.088 12.506 36.0809C12.7151 36.0581 12.7545 36.1298 12.6166 36.2823C12.4423 36.4749 12.2555 36.4719 12.1322 36.2745ZM59.6218 35.6909C59.6218 35.6718 59.6571 35.6345 59.7002 35.6078C59.7433 35.5811 59.7786 35.5967 59.7786 35.6424C59.7786 35.6881 59.7433 35.7254 59.7002 35.7254C59.6571 35.7254 59.6218 35.7099 59.6218 35.6909ZM60.5416 35.6373C60.5948 35.5837 60.6581 35.5596 60.6822 35.5837C60.7063 35.6079 60.6628 35.6517 60.5855 35.6812C60.4738 35.7238 60.4648 35.7147 60.5416 35.6373ZM18.4641 35.4213C18.4641 35.3834 18.5185 35.3073 18.585 35.2521C18.679 35.174 18.7268 35.1726 18.7999 35.2457C18.873 35.3189 18.8679 35.3563 18.777 35.4138C18.6292 35.5073 18.4641 35.5113 18.4641 35.4213V35.4213ZM106.973 34.7058C106.973 34.6626 107.024 34.6273 107.086 34.6273C107.148 34.6273 107.22 34.6626 107.247 34.7058C107.274 34.7489 107.223 34.7842 107.134 34.7842C107.045 34.7842 106.973 34.7489 106.973 34.7058ZM105.64 34.6225C105.64 34.5332 105.851 34.5241 105.904 34.611C105.925 34.6452 105.875 34.6783 105.791 34.6846C105.708 34.6909 105.64 34.6629 105.64 34.6225ZM27.8946 34.4959C27.8241 34.3119 27.9316 34.285 28.2025 34.4186C28.3439 34.4883 28.4242 34.5506 28.3811 34.5571C28.0507 34.6068 27.9314 34.5918 27.8946 34.4959ZM95.6838 34.3136C95.6838 34.2704 95.6993 34.2351 95.7184 34.2351C95.7374 34.2351 95.7747 34.2704 95.8014 34.3136C95.828 34.3567 95.8125 34.392 95.7668 34.392C95.7212 34.392 95.6838 34.3567 95.6838 34.3136ZM94.5536 34.2457C94.5198 34.191 94.5133 34.1251 94.5392 34.0992C94.6094 34.029 94.6859 34.1322 94.648 34.246C94.6214 34.3257 94.6029 34.3256 94.5536 34.2456V34.2457ZM94.841 34.2616C94.6805 34.1968 94.73 34.0895 94.8998 34.134C94.9861 34.1565 95.0566 34.2062 95.0566 34.2443C95.0566 34.3191 94.9955 34.324 94.841 34.2616ZM132.425 33.8691C132.335 33.7788 132.368 33.6861 132.491 33.6861C132.555 33.6861 132.608 33.739 132.608 33.8037C132.608 33.9262 132.515 33.9594 132.425 33.8691ZM35.1332 33.3886C35.1121 33.3544 35.1637 33.3213 35.2479 33.3149C35.3321 33.3086 35.3804 33.3365 35.3554 33.3771C35.2999 33.467 35.1853 33.4729 35.1332 33.3886ZM35.8399 33.2539C35.8645 33.1896 35.9427 33.1343 36.0135 33.131C36.0843 33.1277 36.3011 33.109 36.4951 33.0896C36.7495 33.0641 36.8151 33.0764 36.7303 33.1337C36.6333 33.1992 36.6321 33.2133 36.7237 33.2143C36.7848 33.215 36.8128 33.2374 36.7859 33.2643C36.7591 33.2912 36.5251 33.3262 36.2661 33.342C35.8737 33.3659 35.8025 33.3512 35.8399 33.2539ZM3.84665 33.064C3.78867 32.9701 3.93615 32.8771 4.04057 32.9417C4.12824 32.9959 4.07068 33.137 3.96089 33.137C3.92286 33.137 3.87145 33.1042 3.84665 33.064ZM4.58806 31.0238C4.58806 30.9832 4.62293 30.9285 4.66556 30.9021C4.71 30.8746 4.72314 30.9061 4.69636 30.9759C4.64425 31.1118 4.58806 31.1367 4.58806 31.0238ZM5.16296 30.9834C5.16296 30.9206 5.19293 30.8878 5.22957 30.9104C5.2662 30.9331 5.27588 30.9845 5.25107 31.0246C5.18768 31.1273 5.16296 31.1157 5.16296 30.9834ZM141.78 20.7439C141.716 20.7021 141.698 20.6679 141.741 20.6679C141.784 20.6679 141.873 20.7021 141.937 20.7439C142.002 20.7857 142.02 20.82 141.976 20.82C141.933 20.82 141.845 20.7857 141.78 20.7439ZM12.9764 14.9229C12.9764 14.8889 13.0469 14.8611 13.1332 14.8611C13.2194 14.8611 13.29 14.8942 13.29 14.9347C13.29 14.9752 13.2194 15.0029 13.1332 14.9964C13.0469 14.9899 12.9764 14.9568 12.9764 14.9229ZM16.2593 13.7709L16.0755 13.622L16.5446 13.5597C16.8027 13.5254 17.1989 13.4954 17.4252 13.4929C17.6516 13.4905 17.8368 13.4645 17.8368 13.4351C17.8369 13.3741 18.3039 13.4957 18.3767 13.5758C18.4032 13.6049 18.3161 13.608 18.183 13.5827C18.0342 13.5545 17.8534 13.5833 17.7127 13.6577C17.587 13.7241 17.2989 13.7819 17.0726 13.7861C16.8462 13.7903 16.661 13.8221 16.661 13.8568C16.661 13.9692 16.4479 13.9237 16.2593 13.7709V13.7709ZM15.2711 13.7941C15.2971 13.768 15.3648 13.7652 15.4214 13.7879C15.4839 13.8129 15.4653 13.8315 15.374 13.8353C15.2913 13.8387 15.245 13.8201 15.2711 13.7941V13.7941ZM13.8449 12.7106C13.8415 12.628 13.8601 12.5816 13.8861 12.6077C13.9122 12.6338 13.9149 12.7014 13.8923 12.758C13.8673 12.8206 13.8487 12.802 13.8449 12.7106H13.8449ZM15.986 12.0514C16.0079 12.0159 15.9536 11.9251 15.8654 11.8495C15.7075 11.7143 15.7127 11.7084 16.19 11.4825C16.7648 11.2105 16.8178 11.2044 16.8178 11.4099C16.8178 11.5065 16.7651 11.5672 16.6806 11.568C16.5694 11.569 16.5644 11.5825 16.6543 11.6394C16.7153 11.678 16.83 11.6972 16.9091 11.6819C16.9882 11.6667 17.053 11.6902 17.053 11.7341C17.053 11.7781 16.9383 11.8078 16.7982 11.8001C16.658 11.7925 16.4728 11.7903 16.3866 11.7953C16.256 11.803 16.2494 11.8172 16.3474 11.8805C16.4479 11.9455 16.445 11.9567 16.3278 11.9578C16.2523 11.9585 16.1906 11.9943 16.1906 12.0374C16.1906 12.0805 16.1356 12.1158 16.0684 12.1158C16.0012 12.1158 15.9641 12.0868 15.986 12.0514V12.0514ZM16.9884 11.4184C16.9096 11.3697 16.9126 11.337 17.0031 11.2619C17.1299 11.1566 17.231 11.2486 17.1437 11.3899C17.1126 11.4403 17.0441 11.4529 16.9884 11.4184ZM14.2699 8.11552C14.2433 8.07237 14.2744 8.03708 14.3391 8.03708C14.4037 8.03708 14.4785 8.07237 14.5051 8.11552C14.5317 8.15866 14.5006 8.19396 14.436 8.19396C14.3713 8.19396 14.2966 8.15866 14.2699 8.11552ZM15.8755 7.76434C15.9884 7.62824 16.0338 7.61408 16.0338 7.71494C16.0338 7.75347 15.9759 7.80722 15.9051 7.83439C15.7975 7.8757 15.7927 7.86423 15.8755 7.76434ZM126.672 6.49854C126.764 6.4066 127.266 6.33454 127.367 6.39875C127.426 6.4357 127.438 6.46998 127.395 6.47492C126.973 6.52332 126.636 6.53432 126.672 6.49854ZM126.196 6.40177C126.131 6.36041 126.18 6.33761 126.333 6.33761C126.464 6.33761 126.572 6.36702 126.572 6.40297C126.572 6.48646 126.328 6.48568 126.196 6.40169V6.40177ZM124.181 6.30163C123.845 6.22647 123.03 6.17255 121.508 6.12478C120.987 6.10842 120.485 6.05465 120.393 6.00529C120.292 5.95158 119.941 5.92425 119.518 5.93723C119.129 5.94916 118.81 5.95089 118.81 5.94105C118.81 5.91375 119.267 5.68391 119.321 5.68391C119.347 5.68391 119.347 5.7192 119.32 5.76234C119.292 5.80811 119.372 5.84078 119.511 5.84078C119.643 5.84078 119.751 5.80548 119.751 5.76234C119.751 5.7192 119.789 5.68391 119.834 5.68391C119.88 5.68391 119.891 5.72803 119.858 5.78195C119.815 5.85445 119.829 5.8593 119.913 5.80057C119.975 5.75688 120.096 5.72518 120.182 5.73013C120.269 5.73506 120.527 5.74435 120.755 5.75074C120.984 5.75712 121.155 5.78881 121.135 5.82117C121.115 5.85352 121.316 5.87483 121.581 5.86852C121.847 5.86214 122.126 5.88992 122.201 5.93011C122.293 5.97888 122.338 5.97464 122.338 5.91736C122.338 5.87015 122.381 5.8579 122.433 5.89013C122.485 5.92237 122.829 5.95836 123.197 5.97013C123.566 5.9819 123.867 5.99571 123.867 6.00082C123.867 6.00595 124.043 6.02155 124.259 6.03554C124.475 6.04952 124.66 6.06877 124.671 6.07833C124.689 6.09464 124.77 6.11841 124.906 6.14752C124.968 6.16088 124.6 6.38868 124.533 6.37806C124.512 6.37459 124.353 6.34021 124.181 6.30158L124.181 6.30163ZM121.006 5.90947C121.006 5.87172 120.937 5.84084 120.853 5.84084C120.77 5.84084 120.682 5.87172 120.659 5.90947C120.636 5.94722 120.704 5.9781 120.811 5.9781C120.918 5.9781 121.006 5.94722 121.006 5.90947ZM125.199 5.68268C125.172 5.63884 125.117 5.62327 125.077 5.64809C125.037 5.67291 125.004 5.65792 125.004 5.61479C125.004 5.46292 125.13 5.46051 125.224 5.61062C125.276 5.69411 125.303 5.76242 125.283 5.76242C125.264 5.76242 125.226 5.72655 125.199 5.68271V5.68268ZM123.521 5.37675C123.438 5.29406 123.354 5.24278 123.334 5.26278C123.314 5.2828 123.126 5.31099 122.916 5.32545C122.552 5.35051 122.101 5.18892 122.216 5.07451C122.307 4.98294 122.849 5.00437 122.967 5.10425C123.088 5.20651 123.309 5.2099 123.407 5.11098C123.491 5.02775 123.891 5.046 123.946 5.13556C124.021 5.25747 123.909 5.52704 123.783 5.52704C123.722 5.52704 123.603 5.45939 123.521 5.37671V5.37675ZM124.33 5.43653C124.297 5.38248 124.308 5.36718 124.359 5.39859C124.406 5.42753 124.466 5.41533 124.493 5.37149C124.566 5.25323 124.664 5.27494 124.664 5.40943C124.664 5.5476 124.411 5.56811 124.33 5.43653ZM32.6749 4.85221C32.701 4.82614 32.7686 4.82335 32.8252 4.84603C32.8877 4.87106 32.8691 4.88965 32.7778 4.89342C32.6952 4.89681 32.6489 4.87829 32.6749 4.85222V4.85221ZM48.4896 2.62491C48.4896 2.58177 48.5052 2.54647 48.5242 2.54647C48.5432 2.54647 48.5806 2.58177 48.6072 2.62491C48.6339 2.66805 48.6183 2.70334 48.5726 2.70334C48.527 2.70334 48.4896 2.66805 48.4896 2.62491ZM50.3176 2.63284C50.1911 2.53982 50.2214 2.40613 50.3607 2.44259C50.4496 2.46585 50.5066 2.43385 50.5148 2.35612C50.522 2.28825 50.5338 2.17978 50.541 2.11507C50.5481 2.05036 50.6187 1.99301 50.6978 1.98761C50.7768 1.9822 50.8679 1.97052 50.9003 1.96161C50.9326 1.95269 51.0649 1.91695 51.1943 1.88216C51.4819 1.80481 51.6381 1.68926 51.5807 1.59634C51.5571 1.55809 51.6075 1.5268 51.6927 1.5268C51.7779 1.5268 51.8655 1.57091 51.8873 1.62484C51.9149 1.69296 51.9469 1.69719 51.9918 1.63873C52.1069 1.48917 52.347 1.44249 52.4736 1.54506C52.5752 1.62739 52.5848 1.62533 52.5292 1.53307C52.4782 1.44847 52.495 1.43432 52.5989 1.47424C52.6742 1.50315 52.7835 1.52679 52.8417 1.52679C52.8999 1.52679 52.9688 1.59376 52.9948 1.67561C53.0252 1.77128 53.0924 1.81125 53.183 1.78754C53.3831 1.73518 53.3624 1.54124 53.1607 1.57838C53.0013 1.60773 53.0011 1.60665 53.1542 1.53391C53.2404 1.49292 53.4304 1.4569 53.5763 1.45387C53.7222 1.45081 54.0574 1.41373 54.321 1.37142C55.0045 1.26176 56.7224 1.06959 57.5051 1.01526C57.8716 0.989826 58.3302 0.955023 58.5243 0.937915C58.933 0.901884 59.74 0.844524 60.7977 0.776331C61.2073 0.749921 61.7718 0.708872 62.0521 0.685119C62.7256 0.628026 63.786 0.623767 63.9336 0.67759C63.9982 0.701176 64.2011 0.74757 64.3843 0.780704C64.5676 0.813829 64.7175 0.866906 64.7175 0.89865C64.7175 0.930389 64.6303 1.04363 64.5237 1.15027C64.3659 1.30815 64.2566 1.34276 63.9354 1.33647C63.7008 1.33182 63.5516 1.36095 63.5674 1.40818C63.5819 1.45186 63.8654 1.4905 64.1974 1.49405C64.7187 1.49961 65.066 1.60109 64.9475 1.71322C64.8945 1.76339 63.8551 1.81297 63.8553 1.76532C63.8554 1.74199 63.6173 1.73395 63.3262 1.74744C63.035 1.76094 62.5944 1.73993 62.3471 1.70066C62.0997 1.66143 61.8806 1.64607 61.8601 1.66655C61.8397 1.687 61.6717 1.71119 61.4867 1.7203C61.3018 1.7294 61.053 1.76412 60.9339 1.79746C60.8051 1.83351 60.6769 1.82458 60.6177 1.77541C60.563 1.72994 60.1771 1.68458 59.7602 1.6746C59.2441 1.66227 59.0183 1.62953 59.0527 1.57203C59.0804 1.5256 59.0432 1.5362 58.9701 1.5956C58.8785 1.6699 58.7375 1.68768 58.5181 1.65258C58.3086 1.61907 58.2162 1.62912 58.2487 1.68184C58.3042 1.77171 58.2939 1.77343 57.5835 1.79253C57.3032 1.80006 56.9946 1.83398 56.8975 1.8679C56.8005 1.90182 56.7212 1.90073 56.7212 1.86547C56.7212 1.83021 56.633 1.80136 56.5252 1.80136C56.4174 1.80136 56.3292 1.82783 56.3292 1.86018C56.3292 1.89254 56.2742 1.91901 56.207 1.91901C56.1397 1.91901 56.1032 1.8892 56.1257 1.85275C56.1801 1.76466 55.3747 1.89403 55.3163 1.98276C55.2093 2.1452 53.7421 2.30982 53.7421 2.15938C53.7421 2.11347 53.7048 2.07589 53.6591 2.07589C53.6134 2.07589 53.5964 2.10875 53.6212 2.14891C53.6921 2.26371 53.5117 2.3344 53.3951 2.23752C53.3168 2.17253 53.28 2.17651 53.2506 2.25311C53.2253 2.31925 53.0963 2.34946 52.8887 2.33785C52.7113 2.32793 52.5662 2.35277 52.5662 2.39307C52.5662 2.52278 52.1634 2.4376 52.0852 2.29134C52.0436 2.21357 51.9755 2.17101 51.9338 2.19677C51.8922 2.22253 51.8761 2.27276 51.8981 2.3084C51.9201 2.34404 51.8865 2.39301 51.8235 2.41721C51.7604 2.44142 51.6877 2.42692 51.6618 2.38497C51.633 2.33848 51.5326 2.35445 51.4045 2.42589C51.1633 2.56034 50.4133 2.70318 50.3176 2.63288L50.3176 2.63284ZM49.1952 2.27658C49.1952 2.1388 49.2422 2.11852 49.3094 2.22731C49.3342 2.26747 49.3187 2.3225 49.2748 2.34959C49.231 2.37669 49.1952 2.34391 49.1952 2.27658ZM49.4906 2.14108C49.5362 2.0955 49.6197 2.07364 49.6763 2.0925C49.735 2.11208 49.6994 2.14764 49.5934 2.17537C49.463 2.20949 49.4324 2.19928 49.4906 2.14108ZM76.4965 1.94206C76.3994 1.92336 76.3201 1.88112 76.3201 1.8482C76.3201 1.75221 76.6608 1.80439 76.6945 1.90554C76.7113 1.95607 76.7133 1.9926 76.699 1.98673C76.6846 1.98083 76.5934 1.96076 76.4964 1.94206H76.4965ZM74.8697 1.7621C75.0853 1.66945 75.209 1.66945 75.0657 1.7621C75.0011 1.80392 74.8952 1.83621 74.8306 1.83383C74.753 1.83098 74.7664 1.80655 74.8697 1.7621ZM75.3446 1.7694C75.3205 1.73028 75.3713 1.71675 75.4576 1.73934C75.6407 1.78723 75.6638 1.84053 75.5015 1.84053C75.4394 1.84053 75.3688 1.80852 75.3446 1.7694ZM65.2523 1.5919C65.1289 1.4678 65.1849 1.4592 66.1538 1.45336C66.7221 1.44989 67.2656 1.43192 67.3617 1.41333C67.4578 1.39475 67.5547 1.40917 67.5771 1.44536C67.5995 1.48156 67.7257 1.5037 67.8577 1.49455C68.2144 1.46985 68.2161 1.58405 67.8595 1.61807C67.6909 1.63416 67.5697 1.62016 67.5902 1.58705C67.6545 1.48286 67.5338 1.52152 67.4109 1.64443C67.2776 1.77787 66.9464 1.8019 66.8733 1.68344C66.841 1.63122 66.773 1.63243 66.671 1.68705C66.4975 1.77999 66.334 1.71683 66.4138 1.58765C66.4487 1.53116 66.4294 1.52579 66.3563 1.57167C66.2958 1.60971 66.0522 1.65959 65.815 1.68252C65.4757 1.71532 65.3559 1.69603 65.2523 1.59188V1.5919ZM71.5379 1.68364C71.5379 1.64051 71.5535 1.60521 71.5725 1.60521C71.5915 1.60521 71.6289 1.64051 71.6555 1.68364C71.6822 1.72679 71.6666 1.76208 71.621 1.76208C71.5753 1.76208 71.5379 1.72679 71.5379 1.68364ZM68.4021 1.52677C68.3314 1.48109 68.3218 1.45025 68.3779 1.44953C68.4292 1.44882 68.493 1.48363 68.5197 1.52677C68.5798 1.62415 68.5527 1.62415 68.4021 1.52677ZM99.0222 1.51607C99.0628 1.45041 98.7641 1.37316 98.7036 1.43369C98.6193 1.51802 98.2708 1.53395 98.2708 1.45346C98.2708 1.40368 98.0478 1.39169 97.6633 1.4208C97.1919 1.4565 96.9942 1.4381 96.7813 1.33876C96.6304 1.26833 96.5664 1.2269 96.6391 1.24668C96.7117 1.26645 96.7823 1.25195 96.7959 1.21449C96.8094 1.17701 96.8734 1.13488 96.9381 1.12085C97.0028 1.10684 97.0816 1.06007 97.1133 1.01692C97.145 0.97378 97.1714 1.01579 97.1721 1.11032C97.1732 1.27276 97.1851 1.27599 97.3889 1.16947C97.5823 1.06838 97.6157 1.07088 97.713 1.19373C97.8163 1.32398 97.8193 1.32396 97.7743 1.19373C97.7378 1.08779 97.7703 1.05646 97.9166 1.05646C98.0209 1.05646 98.1422 1.11824 98.1862 1.19373C98.2305 1.26991 98.2671 1.28736 98.2685 1.23295C98.271 1.13024 98.506 1.09142 98.506 1.19373C98.506 1.22608 98.7727 1.25052 99.0987 1.24802C99.4247 1.24552 99.7089 1.272 99.7305 1.30685C99.752 1.3417 99.8451 1.37021 99.9375 1.37021C100.072 1.37021 100.086 1.38982 100.007 1.46825C99.9092 1.56642 98.9627 1.61268 99.0222 1.51639V1.51607ZM100.309 1.51371C100.309 1.47776 100.336 1.44597 100.368 1.44305C100.4 1.44014 100.54 1.42298 100.678 1.40493C100.988 1.36433 101.098 1.49889 100.8 1.55387C100.505 1.60822 100.309 1.59222 100.309 1.51371ZM94.6647 1.25225C94.6647 1.20911 94.5324 1.17382 94.3707 1.17382C94.209 1.17382 94.0508 1.20911 94.0191 1.25225C93.9807 1.30454 93.961 1.30454 93.9601 1.25225C93.9584 1.15398 93.4887 1.13074 93.4887 1.22893C93.4887 1.26842 93.4566 1.28091 93.4175 1.25667C93.3428 1.21051 92.6532 1.13638 91.9208 1.09579C91.6837 1.08265 91.4896 1.06397 91.4896 1.05428C91.4896 1.00171 90.4581 1.0009 90.3921 1.05343C90.2743 1.14718 89.4905 1.2126 89.4905 1.12866C89.4905 1.08879 89.4376 1.05617 89.3729 1.05617C89.3083 1.05617 89.2553 1.09022 89.2553 1.13186C89.2553 1.17912 88.7032 1.1936 87.7854 1.17043C86.977 1.15002 86.2304 1.13369 86.1264 1.13414C86.0224 1.13485 85.8195 1.10242 85.6756 1.06266C85.5183 1.01919 85.414 1.01892 85.414 1.06195C85.414 1.13323 85.1398 1.12168 85.0654 1.04727C85.0439 1.02581 84.6872 1.02079 84.2726 1.03613C83.773 1.05462 83.4815 1.03301 83.4081 0.972034C83.3218 0.900385 83.297 0.903852 83.2961 0.987695C83.2952 1.05571 83.2737 1.06518 83.2373 1.01341C83.2027 0.964228 82.7567 0.92757 82.1213 0.921708C81.5393 0.916366 79.7754 0.891737 78.2016 0.867068C76.6278 0.842407 74.6081 0.817518 73.7134 0.811774C72.8187 0.806091 72.0866 0.779245 72.0865 0.752252C72.0864 0.725245 71.8924 0.703156 71.6553 0.703156C71.4183 0.703156 71.2243 0.729629 71.2243 0.761984C71.2243 0.79434 71.187 0.820814 71.1413 0.820814C71.0957 0.820814 71.0801 0.785516 71.1068 0.742373C71.1334 0.699236 71.1002 0.663941 71.033 0.663941C70.9658 0.663976 70.9108 0.628678 70.9108 0.585543C70.9108 0.5424 70.8734 0.507102 70.8277 0.507102C70.7821 0.507102 70.7665 0.5424 70.7932 0.585543C70.8218 0.631869 70.7354 0.663489 70.5822 0.662774C70.3859 0.66178 70.3514 0.643088 70.4404 0.585543C70.5272 0.529385 70.5309 0.509191 70.4544 0.508303C70.3746 0.507308 70.3778 0.480054 70.4684 0.389445C70.5331 0.324736 70.6591 0.271789 70.7484 0.271789C70.8377 0.271789 70.9108 0.234112 70.9108 0.188063C70.9108 0.138399 70.9785 0.125865 71.0774 0.157257C71.1895 0.192858 71.2264 0.181758 71.1903 0.123325C71.1608 0.0755549 71.1576 0.0364767 71.183 0.0364767C71.2085 0.0364767 71.2562 0.109069 71.289 0.197797L71.3487 0.359123L71.5554 0.196416C71.6971 0.0848921 71.7793 0.0614505 71.8166 0.121909C71.8553 0.184441 71.8902 0.179142 71.9368 0.103686C71.9903 0.0171989 72.5281 -0.00219149 74.8081 0.000188272C76.3511 0.00185055 78.2486 0.0257809 79.0247 0.0535013C79.8008 0.0812159 81.0885 0.124358 81.8862 0.149374C84.7665 0.239683 85.5085 0.272505 85.573 0.312416C85.7172 0.401594 86.349 0.4807 86.4446 0.421552C86.5036 0.385104 86.5722 0.398118 86.6074 0.452416C86.6528 0.522489 86.6879 0.516461 86.7455 0.428663C86.7879 0.363952 86.8233 0.346303 86.824 0.389445C86.8248 0.43895 87.3097 0.464384 88.1383 0.458404C89.4479 0.448942 91.6855 0.575559 91.6857 0.659141C91.6857 0.683372 91.9592 0.699222 92.2933 0.69438C92.8659 0.686069 94.1848 0.793412 94.4187 0.867363C94.5049 0.894647 94.5066 0.923969 94.4272 1.01968C94.3472 1.11612 94.3492 1.13178 94.438 1.10373C94.498 1.08478 94.6455 1.04763 94.7658 1.0212C94.9007 0.991575 94.9672 0.936373 94.9393 0.877379C94.9144 0.824719 94.9351 0.836885 94.9854 0.9044C95.0593 1.00369 95.16 1.01587 95.5121 0.968071C95.7596 0.93446 96.0066 0.940709 96.0848 0.982561C96.1604 1.02305 96.3216 1.06097 96.443 1.06684C96.6463 1.07668 96.6488 1.08034 96.4746 1.11319C96.3283 1.14078 96.3106 1.16471 96.3962 1.21896C96.5174 1.29572 96.4156 1.30533 95.3114 1.32133C94.9263 1.32689 94.6647 1.29897 94.6647 1.25226L94.6647 1.25225ZM71.88 0.546768C71.8553 0.4823 71.8035 0.449092 71.7649 0.472964C71.6542 0.541407 71.6831 0.663969 71.8099 0.663969C71.8798 0.663969 71.9073 0.617959 71.88 0.546768ZM67.3077 0.814896C67.3884 0.664059 67.3836 0.64693 67.2727 0.689533C67.162 0.73203 67.157 0.714852 67.2367 0.565769L67.3293 0.392665L67.4073 0.567541C67.4968 0.768172 67.6587 0.797345 67.7249 0.624751C67.7497 0.56004 67.7417 0.507095 67.7071 0.507095C67.6726 0.507095 67.6443 0.45372 67.6443 0.388474C67.6443 0.292033 67.7151 0.279253 68.0232 0.320142C68.2821 0.354494 68.4021 0.342377 68.4021 0.281898C68.4021 0.232713 68.5261 0.19335 68.6811 0.19335C68.864 0.19335 68.9418 0.223061 68.9068 0.279613C68.869 0.340939 68.9011 0.340419 69.018 0.277809C69.1547 0.204628 69.1748 0.209935 69.1367 0.309201C69.1115 0.374905 69.0594 0.428667 69.0209 0.428667C68.9824 0.428667 68.9509 0.463964 68.9509 0.5071C68.9509 0.670604 69.0925 0.576105 69.1861 0.350226C69.2951 0.0867968 69.2979 0.0853487 69.4945 0.19058C69.5936 0.243665 69.6242 0.326551 69.5971 0.468364C69.5759 0.579533 69.5894 0.660206 69.6271 0.647623C69.6648 0.635049 69.7133 0.659243 69.7348 0.701413C69.758 0.746755 69.5717 0.783502 69.2787 0.791376C68.8259 0.803538 68.776 0.788534 68.6977 0.616674C68.6133 0.431366 68.3237 0.350104 68.3237 0.511728C68.3237 0.557424 68.3586 0.573232 68.4012 0.546878C68.4449 0.519829 68.4592 0.549863 68.4339 0.615731C68.4077 0.683967 68.3376 0.712729 68.2652 0.684911C68.1846 0.653977 68.1605 0.668629 68.1965 0.72679C68.2595 0.828887 67.999 0.904273 67.6965 0.871439C67.5887 0.859746 67.4361 0.881541 67.3574 0.919883C67.2292 0.982352 67.224 0.971453 67.3077 0.8149V0.814896ZM69.4524 0.520172C69.4746 0.484223 69.4429 0.45481 69.382 0.45481C69.3212 0.45481 69.2895 0.484223 69.3117 0.520172C69.3339 0.55612 69.3656 0.585536 69.382 0.585536C69.3985 0.585536 69.4302 0.55612 69.4524 0.520172ZM66.2517 0.829761C66.2281 0.791523 66.2791 0.741853 66.365 0.719369C66.4691 0.692141 66.5053 0.636774 66.4734 0.553581C66.447 0.484875 66.4586 0.428661 66.4992 0.428661C66.6067 0.428661 66.5893 0.684882 66.4739 0.800306C66.3569 0.917379 66.3097 0.923636 66.2517 0.829761ZM66.7325 0.611681C66.7545 0.554158 66.7827 0.507095 66.795 0.507095C66.8073 0.507095 66.8355 0.554158 66.8575 0.611681C66.8796 0.669205 66.8514 0.716267 66.795 0.716267C66.7385 0.716267 66.7104 0.669205 66.7325 0.611681ZM67.0348 0.391936C67.1185 0.328599 67.2643 0.275654 67.3587 0.27428C67.5457 0.27151 67.6649 0.390507 67.5477 0.462952C67.5076 0.487767 67.4612 0.467527 67.4447 0.417901C67.4221 0.350138 67.373 0.350008 67.2472 0.417192C67.0062 0.546232 66.8546 0.528049 67.0348 0.391717V0.391936ZM65.9931 0.381266C66.0191 0.355202 66.0867 0.352414 66.1433 0.375085C66.2059 0.400122 66.1873 0.41871 66.096 0.422469C66.0133 0.425865 65.967 0.407338 65.9931 0.381275V0.381266ZM70.1268 0.350215C70.0263 0.28524 70.0292 0.274002 70.1464 0.272975C70.2219 0.272265 70.2836 0.307071 70.2836 0.350215C70.2836 0.44588 70.2747 0.44588 70.1268 0.350215ZM69.7058 0.230749C69.6684 0.133272 69.6885 0.126558 69.815 0.194287C69.9967 0.291596 70.0139 0.350215 69.8608 0.350215C69.8007 0.350215 69.731 0.296452 69.7058 0.230749Z" fill="black"/>
</svg>
