<svg width="118" height="25" viewBox="0 0 118 25" fill="none" xmlns="http://www.w3.org/2000/svg">
<path d="M22.8567 24.8689C22.2704 24.8332 21.2827 24.7803 20.6617 24.7516C18.4509 24.6491 17.084 24.5745 16.8991 24.5461C16.7959 24.5303 16.387 24.4976 15.9905 24.4733C15.5939 24.4491 15.171 24.4107 15.0508 24.388C14.9305 24.3653 14.6488 24.3349 14.4246 24.3204C13.6854 24.2726 13.0062 24.1806 12.4681 24.0552C12.2596 24.0067 12.0609 23.9816 12.0265 23.9996C11.9921 24.0175 11.9831 24.0059 12.0066 23.9738C12.0355 23.9342 11.8268 23.9081 11.3605 23.8929C10.9817 23.8805 10.6299 23.8549 10.5788 23.836C10.5277 23.8171 10.47 23.7132 10.4505 23.6051C10.4102 23.3816 10.3442 23.3471 9.74487 23.2372C9.5215 23.1962 9.17066 23.1098 8.96524 23.0452C8.75981 22.9806 8.51754 22.9133 8.42686 22.8956C8.16794 22.845 8.17253 22.7208 8.44203 22.4846C8.72544 22.2362 8.94886 22.1327 9.40357 22.0394C9.69841 21.9789 10.1019 21.728 10.1054 21.603C10.1066 21.561 9.83639 21.4793 9.45156 21.4054C9.34849 21.3857 9.01057 21.3497 8.70063 21.3255C8.39069 21.3013 7.97851 21.2409 7.78468 21.1912C7.56925 21.1359 7.13609 21.094 6.6704 21.0834C5.84336 21.0646 5.4897 20.9768 5.4375 20.7776C5.41982 20.7101 5.26547 20.6033 5.04506 20.506C4.84525 20.4179 4.69686 20.3251 4.71532 20.2998C4.73377 20.2746 4.71177 20.2645 4.66643 20.2776C4.46277 20.336 4.15954 20.2071 4.05218 20.0164C3.93516 19.8086 3.99027 19.6169 4.1659 19.621C4.21646 19.6221 4.2586 19.6041 4.25954 19.5809C4.26048 19.5578 4.45187 19.5359 4.68487 19.5323C4.91788 19.5287 5.11862 19.5016 5.13097 19.4722C5.14333 19.4427 5.2059 19.4198 5.27003 19.4213C5.33416 19.4227 5.40481 19.399 5.42702 19.3686C5.44924 19.3382 5.49566 19.314 5.53018 19.3148C5.5647 19.3155 5.57857 19.3359 5.561 19.3599C5.54342 19.384 5.61182 19.4046 5.713 19.4057C5.82165 19.4069 5.89783 19.3775 5.89907 19.334C5.90025 19.2935 5.92896 19.2766 5.96294 19.2965C5.99692 19.3164 6.02541 19.3086 6.02624 19.2792C6.02871 19.1925 5.86532 19.1572 5.57638 19.1818C5.42771 19.1945 5.17979 19.1732 5.02544 19.1345C4.87109 19.0958 4.70265 19.0558 4.65112 19.0456C4.59959 19.0354 4.50812 19.007 4.44786 18.9824C4.38759 18.9578 4.28186 18.9495 4.21291 18.9639C4.05257 18.9976 4.00003 18.9199 4.12401 18.8325C4.1765 18.7955 4.21925 18.7872 4.21901 18.8142C4.21878 18.8412 4.24005 18.8384 4.26629 18.8081C4.347 18.7149 4.60062 18.6131 4.59887 18.6747C4.59792 18.7059 4.62717 18.732 4.66373 18.7329C4.70029 18.7337 4.71697 18.7141 4.7008 18.6893C4.6591 18.6253 5.16308 18.6267 5.2893 18.6909C5.35672 18.7252 5.42028 18.722 5.46737 18.682C5.55192 18.6101 5.80492 18.5862 5.75476 18.6549C5.6963 18.7349 5.89818 18.7084 5.97922 18.6254C6.03692 18.5663 6.09654 18.5604 6.21147 18.6025C6.41015 18.6754 6.47766 18.6753 6.35955 18.6023C6.29017 18.5595 6.32199 18.5475 6.48652 18.5546C6.60728 18.5599 6.91873 18.5403 7.17864 18.5113C7.43855 18.4822 7.72683 18.4567 7.81927 18.4547C8.0941 18.4486 8.02044 18.2592 7.65369 18.029C7.44417 17.8975 7.34508 17.7996 7.36901 17.7478C7.39239 17.6972 7.43104 17.6873 7.47541 17.7206C7.51374 17.7493 7.60217 17.7538 7.67192 17.7304C7.74167 17.7071 7.90406 17.6886 8.03279 17.6894C8.21395 17.6905 8.29241 17.6577 8.38006 17.5444C8.52242 17.3603 8.54295 17.2561 8.46435 17.1162C8.43022 17.0554 8.42783 17.0207 8.45903 17.0389C8.49023 17.0572 8.55576 16.9795 8.60467 16.8663C8.65358 16.7531 8.72545 16.6427 8.76439 16.6209C8.80332 16.599 8.72221 16.5778 8.58415 16.5737C8.39875 16.5682 8.35815 16.5526 8.42884 16.514C8.50141 16.4743 8.47505 16.4603 8.31971 16.4561C8.20706 16.4531 8.0665 16.4266 8.00735 16.3973C7.9482 16.3679 7.64034 16.2445 7.3232 16.123C6.68721 15.8794 6.31729 15.8187 4.96514 15.7363C3.92893 15.6732 3.81252 15.6591 3.65012 15.5768C3.4848 15.493 2.6303 15.3575 2.08757 15.3289C1.80309 15.314 1.55019 15.2627 1.36906 15.1832C1.21533 15.1158 0.948972 15.0403 0.777158 15.0156C0.435478 14.9664 -0.00190536 14.8166 6.24429e-06 14.7494C0.000714244 14.7261 0.164981 14.663 0.365141 14.6092C0.672725 14.5266 0.933155 14.5155 2.04729 14.5374C2.93727 14.555 3.44386 14.5419 3.60666 14.4972C3.84177 14.4327 4.06697 14.4476 4.64096 14.5656C4.78891 14.5961 5.20972 14.6324 5.57608 14.6464C5.94245 14.6604 6.29597 14.6992 6.36169 14.7326C6.43196 14.7684 6.57591 14.778 6.71116 14.7559C6.83765 14.7353 6.96594 14.7244 6.99625 14.7317C7.10822 14.7585 9.01944 14.7846 9.23239 14.7621C9.5934 14.7241 10.0464 14.7009 10.6707 14.6883C10.9945 14.6818 11.2908 14.6498 11.3291 14.6172C11.3972 14.5593 11.2822 14.5271 11.0757 14.5464C11.0324 14.5504 10.9978 14.5246 10.9988 14.4891C10.9998 14.4535 10.9599 14.4373 10.9102 14.4531C10.8604 14.4689 10.7859 14.4434 10.7446 14.3965C10.6843 14.3279 10.6589 14.3253 10.6158 14.3828C10.572 14.4413 10.5622 14.4409 10.5632 14.3805C10.5639 14.3337 10.5205 14.3178 10.4453 14.3373C10.366 14.3579 10.313 14.3348 10.2866 14.2683C10.2648 14.2134 10.2776 14.1601 10.3151 14.1498C10.4119 14.1234 10.5737 13.9786 10.5754 13.9168C10.5779 13.8307 10.3324 13.6276 10.2671 13.6617C10.2337 13.6791 10.2235 13.6564 10.2443 13.6111C10.2732 13.5486 10.2483 13.536 10.1403 13.5586C10.0275 13.5823 10.0069 13.5698 10.0401 13.4978C10.102 13.3638 9.97021 13.3173 9.86249 13.4352C9.80346 13.4998 9.78183 13.5065 9.80337 13.4535C9.84132 13.3601 9.55205 13.203 9.44507 13.2588C9.40821 13.2781 9.40046 13.2651 9.42705 13.2287C9.4527 13.1936 9.44377 13.1642 9.40721 13.1634C9.37065 13.1625 9.33966 13.1998 9.33834 13.2461C9.33495 13.3651 9.21076 13.3488 9.20879 13.2291C9.20743 13.1456 9.19908 13.1475 9.15348 13.2419C9.12395 13.3031 9.10802 13.367 9.1181 13.384C9.12817 13.401 9.08177 13.4174 9.01499 13.4204C8.86815 13.4269 8.86083 13.3823 8.99509 13.2991C9.0731 13.2507 9.01776 13.2393 8.74046 13.2466C8.53117 13.2521 8.40166 13.2348 8.42402 13.2041C8.44503 13.1754 8.4056 13.1641 8.33542 13.1789C8.26189 13.1943 8.20975 13.1777 8.21084 13.1393C8.2119 13.103 8.17915 13.0908 8.13813 13.1122C8.08573 13.1396 8.07876 13.1195 8.11472 13.0448C8.14286 12.9862 8.17333 12.904 8.18241 12.8621C8.21068 12.7317 8.37155 12.6971 8.56652 12.7796C8.66892 12.8228 8.71734 12.8595 8.67412 12.861C8.51988 12.8665 8.59545 12.9762 8.75596 12.9799C8.87404 12.9826 8.91041 12.9604 8.88659 12.9003C8.86843 12.8545 8.88241 12.802 8.91764 12.7836C8.95858 12.7623 8.9532 12.7171 8.90276 12.6585C8.83602 12.5811 8.8391 12.5724 8.9227 12.6026C8.97709 12.6222 9.06212 12.6138 9.11165 12.584C9.18278 12.5411 9.17827 12.5359 9.09018 12.5591C8.99617 12.5839 8.98591 12.5646 9.02484 12.4364C9.05023 12.3528 9.09424 12.2714 9.12261 12.2554C9.21498 12.2036 9.11806 11.9815 9.01708 12.0136C8.95158 12.0344 8.93052 12.0117 8.94691 11.9379C8.96404 11.8607 8.93653 11.8349 8.84444 11.8419C8.7752 11.8472 8.75444 11.8382 8.79829 11.822C8.84215 11.8058 8.86387 11.7708 8.84656 11.7443C8.82925 11.7177 8.87288 11.6617 8.94352 11.6198C9.01416 11.5778 9.05379 11.5264 9.03157 11.5055C9.00936 11.4846 9.04533 11.4683 9.11151 11.4693C9.21029 11.4709 9.21554 11.4615 9.14083 11.4168C9.08112 11.381 9.03361 11.3845 9.00264 11.4269C8.97669 11.4624 8.93797 11.475 8.91659 11.4549C8.8774 11.418 9.00062 11.1825 9.0854 11.1323C9.1547 11.0913 9.24132 10.8356 9.17402 10.8707C9.14221 10.8873 9.08457 10.8529 9.04592 10.7942C8.98337 10.6993 8.99438 10.6891 9.14589 10.7018C9.25319 10.7107 9.31108 10.6899 9.30245 10.6454C9.29492 10.6066 9.30985 10.5783 9.33564 10.5825C9.46459 10.6038 9.54006 10.5723 9.54222 10.4963C9.54354 10.4499 9.57453 10.4127 9.61109 10.4135C9.64765 10.4144 9.66225 10.3915 9.64355 10.3628C9.62484 10.3341 9.64537 10.2986 9.68919 10.284C9.73724 10.2679 9.72532 10.2546 9.65913 10.2504C9.59879 10.2466 9.54997 10.2241 9.55064 10.2003C9.55135 10.1766 9.45302 10.1591 9.33221 10.1615C9.2114 10.1638 9.12886 10.1434 9.14879 10.1161C9.16871 10.0888 9.12519 10.0651 9.05208 10.0635C8.97896 10.0618 8.93731 10.0356 8.95952 10.0051C8.98174 9.97474 8.96698 9.9491 8.92673 9.94819C8.88466 9.94724 8.87147 9.90769 8.8957 9.85521C8.93095 9.77886 8.92187 9.77517 8.84025 9.83272C8.76019 9.88917 8.74308 9.88634 8.74505 9.81695C8.74638 9.77042 8.80433 9.72042 8.87383 9.70583C8.9499 9.68987 9.00155 9.63207 9.00358 9.56063C9.00642 9.46067 8.97956 9.44648 8.83342 9.47071C8.69101 9.49432 8.67952 9.48889 8.76937 9.44047C8.87109 9.38565 8.86959 9.37142 8.74805 9.23969C8.67611 9.16171 8.57527 9.09695 8.52396 9.09578C8.33508 9.09147 8.50571 9.03619 8.75968 9.01941C8.91261 9.00931 9.00606 9.02362 8.98405 9.05375C8.96329 9.08216 8.97456 9.10605 9.00908 9.10684C9.0436 9.10758 9.08687 9.08771 9.10522 9.06258C9.12358 9.03745 9.23163 9.02373 9.34533 9.0321C9.45903 9.04046 9.5855 9.02507 9.62638 8.9979C9.67204 8.96755 9.71578 8.97164 9.7398 9.00849C9.76627 9.04911 9.81721 9.05124 9.89751 9.0151C9.96275 8.98573 10.0817 8.96535 10.1619 8.96981C10.3847 8.98218 11.1556 8.93822 11.2095 8.91006C11.2515 8.88813 11.9388 8.8256 12.1492 8.82457C12.2594 8.82405 12.2549 8.55981 12.1434 8.48181C12.0927 8.44633 12.0469 8.34706 12.0417 8.26122C12.0357 8.16426 12.0026 8.11451 11.9542 8.12988C11.9086 8.14436 11.8908 8.12339 11.9111 8.07929C11.9338 8.03007 11.881 7.98963 11.7586 7.96263C11.5528 7.91722 11.409 7.79128 11.4691 7.70904C11.4907 7.67941 11.4523 7.66806 11.381 7.68302C11.2909 7.70192 11.2553 7.68192 11.2573 7.61348C11.2588 7.56063 11.2039 7.50289 11.1353 7.48515C10.996 7.44914 10.9755 7.37998 11.0868 7.32185C11.133 7.29775 11.1427 7.30774 11.1128 7.34863C11.0866 7.38449 11.0886 7.41075 11.1172 7.40697C11.2516 7.38921 11.3255 7.42467 11.3231 7.50594C11.3198 7.62176 11.4718 7.58025 11.5022 7.45705C11.515 7.40499 11.5021 7.36551 11.4733 7.36933C11.2994 7.39241 11.2021 7.34629 11.205 7.24228C11.2068 7.17866 11.2361 7.14288 11.2701 7.16276C11.3041 7.18264 11.3334 7.14686 11.3352 7.08324C11.337 7.01962 11.3778 6.96846 11.4259 6.96956C11.474 6.97066 11.5313 6.9327 11.5532 6.88522C11.5751 6.83774 11.5669 6.81256 11.5349 6.82928C11.5028 6.84599 11.4654 6.82747 11.4515 6.78813C11.4377 6.74879 11.4326 6.76101 11.4401 6.81529C11.4477 6.86957 11.4282 6.91339 11.3969 6.91268C11.3657 6.91194 11.3409 6.88128 11.342 6.84447C11.343 6.80767 11.3025 6.82556 11.252 6.88423C11.1845 6.96252 11.179 7.00197 11.2313 7.03254C11.2721 7.05645 11.2472 7.0692 11.1727 7.06247C11.0575 7.05206 10.9805 6.90319 11.0916 6.90572C11.1161 6.90625 11.1552 6.83128 11.1785 6.73906C11.2122 6.60588 11.2536 6.57212 11.3795 6.57499C11.4666 6.57698 11.5387 6.55333 11.5396 6.52243C11.5404 6.49153 11.5976 6.46754 11.6667 6.46912C11.7996 6.47215 11.8331 6.55477 11.7244 6.61153C11.6084 6.67213 11.7153 6.73804 11.9126 6.72753C12.1695 6.71385 12.2324 6.65211 12.002 6.6398C11.8226 6.63021 11.8221 6.62934 11.9772 6.59363L12.1352 6.55723L11.996 6.48525C11.8355 6.40232 11.8143 6.30384 11.9576 6.3071C12.0115 6.30833 12.0373 6.33422 12.0151 6.36463C11.9929 6.39504 12.0046 6.4206 12.0412 6.42144C12.0777 6.42228 12.1091 6.37239 12.1109 6.3106C12.1128 6.24253 12.1559 6.19919 12.2202 6.20066C12.3125 6.20277 12.3108 6.19231 12.2068 6.12021C12.1113 6.05403 12.0805 6.05178 12.0538 6.10903C12.0335 6.15256 11.9746 6.1649 11.9039 6.14044C11.7944 6.10259 11.794 6.09458 11.8964 6.00743C11.9564 5.95642 12.0458 5.91561 12.0951 5.91673C12.1762 5.91858 12.2144 5.85122 12.1974 5.73637C12.194 5.7131 12.2352 5.69507 12.2891 5.69629C12.3429 5.69752 12.3713 5.67462 12.3523 5.64541C12.3072 5.57626 12.4282 5.51348 12.512 5.56253C12.5563 5.58844 12.5528 5.62498 12.5011 5.67803C12.4466 5.73381 12.4451 5.75607 12.4957 5.75722C12.5694 5.7589 12.5912 5.69136 12.575 5.51238C12.5624 5.37248 12.683 5.31369 12.9713 5.3192C13.1099 5.32186 13.2009 5.29813 13.1927 5.26146C13.1838 5.22166 13.3147 5.20148 13.5555 5.20549C13.7626 5.20895 13.9682 5.18777 14.0123 5.15842C14.0564 5.12907 14.1743 5.12164 14.2742 5.14191C14.4036 5.16816 14.4804 5.15168 14.5406 5.08472C14.5871 5.03298 14.5995 5.00918 14.5681 5.03183C14.5368 5.05448 14.4344 4.96361 14.3407 4.82989C14.247 4.69618 14.1695 4.60965 14.1686 4.63762C14.1676 4.66557 14.1117 4.6414 14.0442 4.58391C13.9768 4.52641 13.9232 4.4517 13.9252 4.41789C13.9272 4.38408 13.9564 4.40131 13.9901 4.45619C14.0237 4.51106 14.0979 4.55702 14.1548 4.55832C14.2314 4.56006 14.2405 4.54382 14.1898 4.49605C14.1521 4.46051 14.1381 4.39482 14.1587 4.35009C14.1894 4.28359 14.2056 4.28264 14.2472 4.34491C14.2847 4.40096 14.2987 4.3914 14.3003 4.30867C14.303 4.16815 14.1605 3.98398 14.0906 4.03774C14.0619 4.0598 14.06 4.0463 14.0863 4.00775C14.1126 3.96919 14.16 3.9528 14.1916 3.97131C14.2232 3.98981 14.2498 3.97968 14.2507 3.94878C14.2515 3.91788 14.2257 3.87704 14.1932 3.85803C14.1139 3.81158 14.1926 3.64901 14.3372 3.56082C14.4016 3.52152 14.4369 3.4627 14.4157 3.4301C14.3905 3.39152 14.4287 3.38613 14.525 3.41465C14.6458 3.45045 14.6589 3.44464 14.5966 3.38295C14.5038 3.29119 14.501 3.12132 14.5918 3.09649C14.6542 3.07945 14.6713 2.98267 14.6519 2.75672C14.6468 2.69796 14.5906 2.6566 14.5126 2.65431C14.4375 2.65209 14.411 2.63357 14.4504 2.61073C14.5493 2.55339 14.6132 2.3852 14.5501 2.3483C14.5205 2.33098 14.4828 2.34827 14.4662 2.38674C14.4496 2.4252 14.4199 2.44293 14.4003 2.42612C14.3806 2.40932 14.3906 2.35996 14.4224 2.31643C14.4711 2.24968 14.5 2.25415 14.6066 2.34503C14.73 2.45024 14.7331 2.45026 14.741 2.34587C14.7454 2.28663 14.7622 2.27059 14.7786 2.30991C14.7949 2.34893 14.8372 2.38151 14.8725 2.38232C14.9079 2.38316 14.9217 2.3458 14.9033 2.29937C14.8849 2.25295 14.8899 2.2192 14.9144 2.22438C14.939 2.22957 15.0399 2.20608 15.1388 2.17221C15.2376 2.13833 15.344 2.12551 15.3751 2.14373C15.4062 2.16194 15.4325 2.14858 15.4335 2.11404C15.4344 2.07949 15.4612 2.06637 15.4928 2.08488C15.5244 2.10339 15.5676 2.09483 15.5888 2.06585C15.6099 2.03688 15.6761 2.01451 15.7358 2.01613C15.9092 2.02084 16.0172 1.99234 16.3066 1.86562C16.4561 1.80018 16.6175 1.74753 16.6653 1.74862C16.7132 1.74971 16.7647 1.72007 16.7798 1.68276C16.8091 1.61022 17.3955 1.58816 17.3935 1.65968C17.3929 1.68248 17.4705 1.68355 17.5661 1.66207C17.7545 1.61974 18.1536 1.63763 18.4424 1.70134C18.5922 1.7344 18.6384 1.71791 18.7095 1.60595C18.7567 1.53151 18.7794 1.44595 18.7597 1.4158C18.7091 1.33809 18.2855 1.27537 17.5937 1.24313C17.266 1.22786 16.9363 1.18352 16.8611 1.14461C16.7859 1.1057 16.7019 1.07669 16.6745 1.08014C16.6471 1.0836 16.5221 1.08109 16.3968 1.07456C16.2253 1.06565 16.1616 1.03474 16.1393 0.949608C16.1152 0.857733 16.141 0.836881 16.2765 0.838518C16.4358 0.840441 16.438 0.836752 16.3252 0.756253C16.2196 0.680884 16.2679 0.674747 16.7819 0.698186C17.098 0.712601 17.3564 0.739884 17.356 0.758812C17.3556 0.777741 17.4332 0.786892 17.5284 0.779149C17.9547 0.744488 18.6047 0.711294 18.8449 0.711919C18.9892 0.712342 19.0941 0.692311 19.078 0.667515C19.0618 0.642719 19.0998 0.619854 19.1623 0.616703C19.4098 0.604244 19.4692 0.595276 19.5788 0.553853C19.6414 0.530184 19.7494 0.417167 19.8188 0.302704C19.9469 0.0914277 20.1522 -0.0283916 20.191 0.0854588C20.2059 0.128992 20.2408 0.127615 20.307 0.0808853C20.3671 0.0385152 20.4167 0.0346507 20.4425 0.0703249C20.4855 0.12971 21.4983 0.153295 21.5651 0.0964801C21.5865 0.0782417 21.6367 0.0888457 21.6766 0.120044C21.7535 0.180249 22.1326 0.179501 22.2486 0.118913C22.2866 0.0990669 22.4145 0.109144 22.5328 0.141305C22.6512 0.173469 23.2689 0.224477 23.9055 0.254657C24.5421 0.284838 25.4299 0.330417 25.8782 0.355942C28.2947 0.493521 29.0326 0.524793 30.5361 0.553318C31.7172 0.575726 32.1834 0.60245 32.1821 0.647664C32.1808 0.693288 32.2035 0.694367 32.2642 0.651561C32.349 0.591788 32.7273 0.584546 33.8158 0.621867C34.1437 0.633107 34.4402 0.640836 34.4748 0.639039C34.5094 0.637244 34.8491 0.618742 35.2297 0.597924C35.6103 0.577108 35.9683 0.574217 36.0254 0.591502C36.0824 0.608789 36.1445 0.6018 36.1634 0.575978C36.1823 0.550155 36.4326 0.528813 36.7196 0.528554C37.0067 0.528343 37.4038 0.506241 37.6021 0.479541C37.8004 0.452843 38.3239 0.427928 38.7656 0.424173C39.2072 0.420403 39.7665 0.412252 40.0085 0.406043C40.2505 0.399833 40.5007 0.420339 40.5644 0.451609C40.6281 0.48288 40.6652 0.485424 40.6469 0.45726C40.628 0.428254 40.877 0.414152 41.2212 0.424734C41.5554 0.43501 41.9286 0.415461 42.0504 0.381295C42.2177 0.334393 42.2828 0.335352 42.3163 0.385214C42.3466 0.43037 42.3615 0.431695 42.3633 0.389396C42.365 0.351327 42.5411 0.326693 42.8215 0.325307C43.4444 0.322234 45.3404 0.359631 45.7247 0.382575C45.8971 0.392872 46.2929 0.391351 46.6041 0.379216C47.355 0.34992 48.5203 0.359397 48.5193 0.394793C48.5181 0.438498 48.8197 0.425455 49.3238 0.360011C49.5767 0.327182 49.8595 0.320039 49.9523 0.344141C50.1697 0.400583 50.5912 0.424176 50.5924 0.379967C50.5929 0.361227 50.671 0.347734 50.766 0.349983C52.5217 0.391577 55.8358 0.361707 55.9477 0.303285C55.9747 0.289199 55.9961 0.300065 55.9953 0.327437C55.9945 0.354808 56.0786 0.36804 56.1822 0.356843C56.2857 0.345645 56.4196 0.356314 56.4798 0.380592C56.6183 0.436427 56.8689 0.45918 56.8389 0.413203C56.8265 0.394124 57.3021 0.394883 57.8958 0.414894C58.4894 0.434901 58.9751 0.4556 58.9749 0.460894C58.9749 0.466185 59.1511 0.479539 59.3667 0.490567C59.5823 0.501595 59.7591 0.494327 59.7597 0.4744C59.7603 0.45448 59.8591 0.460425 59.9794 0.487611C60.0997 0.514798 60.2109 0.519555 60.2266 0.498183C60.2422 0.476809 60.5108 0.466594 60.8235 0.475484C61.1626 0.485116 61.3932 0.468968 61.3947 0.435489C61.3963 0.402377 61.4155 0.404849 61.4416 0.44151C61.4966 0.518575 61.971 0.525436 62.0361 0.450117C62.068 0.413365 62.0836 0.413724 62.0832 0.451195C62.0832 0.482108 62.1885 0.506854 62.3181 0.506194C62.4477 0.50556 62.6185 0.528405 62.6977 0.557017C62.7838 0.588134 62.8886 0.587879 62.9586 0.556383C63.0714 0.505625 63.3349 0.490012 64.6906 0.453772C65.0363 0.444531 65.6023 0.420666 65.9483 0.400738C66.2943 0.38081 67.0718 0.372509 67.676 0.382291C68.2803 0.392081 68.8882 0.383663 69.0269 0.363613C69.1657 0.343557 69.929 0.337273 70.7231 0.349648C72.5883 0.378708 73.992 0.36524 74.5511 0.312918C74.7959 0.290001 75.3222 0.240721 75.7205 0.203406C76.1188 0.166091 76.7845 0.114175 77.1998 0.0880341C77.6151 0.0618926 78.0823 0.0307433 78.2381 0.0188121C78.7485 -0.0202744 79.2677 0.00204703 79.6875 0.0811157C79.9522 0.130975 80.7571 0.173326 81.9326 0.199238C82.9405 0.221458 83.7846 0.2506 83.8084 0.264003C83.8322 0.277407 84.8963 0.328696 86.173 0.377978C87.4498 0.427262 88.72 0.484633 88.9958 0.505472C90.5441 0.622472 91.7195 0.670639 94.2968 0.722704C94.6594 0.730023 95.0546 0.74621 95.1751 0.758667C95.4359 0.785609 96.6427 0.861963 97.777 0.923276C100.228 1.05579 101.143 1.09847 102.795 1.15744C103.796 1.19316 104.713 1.23834 104.833 1.25782C104.954 1.2773 105.278 1.30765 105.554 1.32527C106.064 1.35786 106.647 1.43284 106.722 1.47558C106.745 1.48857 106.956 1.51678 107.191 1.53826C107.427 1.55974 107.788 1.60521 107.994 1.63931C108.201 1.67342 108.454 1.71364 108.557 1.72869C108.66 1.74375 108.974 1.81457 109.254 1.88608C109.534 1.95758 109.822 2.01743 109.894 2.01907C109.966 2.02071 110.024 2.04312 110.023 2.06887C110.023 2.09462 110.057 2.11678 110.1 2.11811C110.524 2.1312 111.537 2.24074 111.696 2.29067C111.807 2.32546 111.955 2.43033 112.025 2.52371C112.164 2.70812 112.54 2.89706 112.887 2.95672C113.321 3.03136 114.072 3.11111 114.23 3.09926C114.318 3.09261 114.39 3.11443 114.389 3.14775C114.388 3.18108 114.407 3.1917 114.431 3.17135C114.455 3.151 114.532 3.1852 114.602 3.24735C114.672 3.3095 114.918 3.45373 115.148 3.56786C115.484 3.73413 115.655 3.78188 116.011 3.80811C116.482 3.84276 116.565 3.8928 116.513 4.10958C116.479 4.24774 116.226 4.35583 115.951 4.34955C115.872 4.34775 115.789 4.37115 115.767 4.40157C115.744 4.43198 115.63 4.45467 115.513 4.452C115.183 4.44446 114.663 4.5471 114.663 4.61997C114.663 4.73981 115.137 4.89706 115.604 4.93186C115.857 4.95071 116.445 4.98976 116.911 5.01863C117.851 5.07695 117.95 5.09448 117.996 5.21192C118.065 5.38508 117.186 5.94864 116.47 6.19068C116.239 6.26878 116.122 6.34865 116.041 6.48282C115.903 6.71309 115.963 6.82548 116.335 7.03323C116.48 7.11384 116.597 7.21846 116.596 7.26571C116.595 7.31296 116.635 7.39051 116.685 7.43803C116.828 7.57281 116.789 7.70805 116.577 7.81401C116.469 7.86741 116.258 8.01078 116.106 8.1326C115.875 8.31805 115.78 8.35632 115.522 8.36775C115.295 8.37781 115.185 8.41349 115.105 8.50325C115.046 8.57027 115.01 8.64507 115.026 8.66949C115.042 8.6939 115.026 8.71322 114.99 8.71241C114.955 8.71157 114.891 8.76708 114.849 8.83568C114.807 8.90428 114.794 8.94313 114.82 8.92202C114.887 8.86948 115.056 9.03656 115.005 9.10519C114.982 9.13713 115.013 9.14943 115.079 9.13448C115.142 9.12029 115.079 9.15642 114.939 9.21477C114.799 9.27312 114.595 9.31947 114.485 9.31777C114.375 9.31607 114.211 9.33769 114.122 9.3658C114.002 9.4034 113.959 9.39869 113.96 9.34805C113.96 9.31016 113.93 9.32181 113.894 9.37393C113.771 9.55295 113.884 9.75191 114.195 9.90186C114.356 9.97956 114.53 10.1041 114.581 10.1787C114.633 10.2533 114.785 10.3466 114.92 10.3862C115.423 10.5336 115.493 10.8266 115.051 10.9294C114.775 10.9932 114.64 11.1719 114.717 11.3688C114.757 11.4713 114.755 11.5178 114.71 11.5168C114.594 11.5141 114.479 11.6516 114.482 11.7899C114.485 11.9266 114.48 11.9288 113.948 12.0261C113.861 12.042 113.704 12.1193 113.598 12.1979C113.492 12.2765 113.326 12.3752 113.23 12.4173C113.134 12.4594 113.054 12.5302 113.053 12.5746C113.05 12.679 112.822 12.7818 112.551 12.8013C112.254 12.8226 112.131 12.8889 112.115 13.0371C112.101 13.1607 112.342 13.4303 112.469 13.4332C112.546 13.435 112.894 13.766 112.892 13.8363C112.889 13.9324 112.661 13.9933 112.222 14.0149C111.983 14.0268 111.645 14.0601 111.471 14.089C111.184 14.1369 110.158 14.2692 109.924 14.2885C109.827 14.2966 109.778 14.4961 109.874 14.4983C109.902 14.499 109.896 14.5461 109.859 14.603C109.823 14.66 109.813 14.7247 109.836 14.7468C109.915 14.8209 109.866 15.534 109.777 15.6131C109.73 15.6544 109.562 15.693 109.403 15.699C109.147 15.7086 108.975 15.793 109.031 15.8818C109.042 15.899 109.01 15.9447 108.961 15.9835C108.912 16.0222 108.872 16.0352 108.873 16.0124C108.873 15.9895 108.84 15.9998 108.798 16.0352C108.743 16.0822 108.701 16.0825 108.641 16.0361C108.582 15.9897 108.509 15.9902 108.37 16.038C108.049 16.1484 108.149 16.3198 108.579 16.3993C109.06 16.4883 109.168 16.5287 109.092 16.5931C109.071 16.6105 108.625 16.6232 108.099 16.6211C106.981 16.6168 106.852 16.6597 106.749 17.07C106.716 17.2027 106.619 17.4045 106.534 17.5186C106.394 17.7071 106.282 17.953 106.272 18.0983C106.27 18.1292 106.173 18.1604 106.056 18.1677C105.911 18.1768 105.834 18.2146 105.81 18.2879C105.791 18.3468 105.751 18.3805 105.721 18.3629C105.691 18.3452 105.666 18.3565 105.665 18.388C105.664 18.4194 105.533 18.5092 105.375 18.5875C104.925 18.8098 104.858 18.9979 105.186 19.118C105.339 19.1742 105.345 19.2166 105.235 19.4519C105.154 19.6245 105.358 19.7407 106.03 19.9061C106.681 20.0661 106.863 20.1716 106.672 20.2791C106.554 20.3459 105.703 20.2609 104.366 20.0487C103.76 19.9526 103.504 19.9906 103.363 20.1976C103.223 20.4039 103.078 20.4627 102.661 20.4827C102.315 20.4993 101.989 20.6451 101.985 20.7852C101.983 20.8712 102.259 20.9586 102.579 20.9733C102.82 20.9842 103.103 21.1387 102.962 21.1823C102.918 21.196 102.839 21.2437 102.786 21.2883C102.734 21.333 102.691 21.3544 102.692 21.3359C102.694 21.268 102.307 21.4724 102.229 21.5807C102.131 21.7157 101.801 21.8973 101.671 21.8875C101.347 21.8632 100.917 21.8915 100.916 21.9371C100.913 22.0242 101.237 22.2811 101.305 22.2457C101.339 22.2279 101.347 22.2403 101.323 22.2733C101.299 22.3064 101.308 22.3502 101.343 22.3707C101.378 22.3912 101.389 22.4323 101.368 22.4619C101.346 22.4916 101.362 22.5545 101.404 22.6018C101.522 22.7362 101.402 22.7872 100.922 22.8058C100.68 22.8152 100.355 22.845 100.198 22.872C100.042 22.899 99.5174 22.9666 99.0322 23.0223C98.547 23.0779 97.9914 23.1681 97.7976 23.2226C97.5994 23.2784 97.2748 23.3179 97.0562 23.3129C96.8423 23.308 96.4614 23.3508 96.2098 23.4079C95.7778 23.5059 95.6299 23.5072 93.5563 23.4319C92.3485 23.388 91.1205 23.3355 90.8275 23.3152C90.0638 23.2623 89.1251 23.1801 88.9962 23.1548C88.9355 23.1429 88.2013 23.1003 87.3647 23.0601C86.1684 23.0027 85.6621 23.0017 84.9937 23.0555C84.5263 23.0931 83.6674 23.1284 83.085 23.1339C82.5026 23.1394 81.9229 23.1527 81.7966 23.1636C81.3609 23.201 79.8665 23.256 78.9896 23.2668C78.5058 23.2728 77.6291 23.2905 77.0414 23.3063C76.4537 23.3221 75.2663 23.3344 74.4027 23.3336C73.5391 23.3328 72.7476 23.3386 72.6437 23.3464C72.5398 23.3542 71.8302 23.3626 71.0666 23.365C70.303 23.3674 69.5962 23.3764 69.4958 23.385C69.3028 23.4016 68.8272 23.4199 67.1443 23.4759C65.8234 23.5198 64.8315 23.5783 64.0125 23.6604C63.6564 23.6961 63.2571 23.7228 63.1252 23.7198C62.9933 23.7168 62.8028 23.7362 62.7019 23.763C62.601 23.7897 62.3399 23.8207 62.1216 23.8318C61.9034 23.8429 61.4497 23.8958 61.1133 23.9494C60.777 24.0031 60.332 24.0565 60.1244 24.0683C59.9168 24.0801 59.5344 24.1094 59.2747 24.1335C59.0149 24.1577 58.6325 24.1862 58.4249 24.197C58.2174 24.2078 57.7402 24.2486 57.3645 24.2877C56.9888 24.3267 56.4506 24.3684 56.1685 24.3803C55.8864 24.3922 55.4931 24.4172 55.2946 24.4359C55.0961 24.4546 54.587 24.467 54.1633 24.4636C53.7396 24.4601 53.1804 24.4755 52.9207 24.4979C52.408 24.5419 51.317 24.57 50.4694 24.561C50.1759 24.5579 49.808 24.5738 49.6519 24.5963C49.4958 24.6188 48.4215 24.6291 47.2645 24.6191C46.1076 24.6092 45.1 24.6108 45.0255 24.6228C44.951 24.6348 44.3429 24.6492 43.6742 24.6549C43.0055 24.6605 42.317 24.6699 42.1441 24.6757C41.9712 24.6815 41.335 24.6904 40.7304 24.6955C40.1257 24.7006 39.3904 24.7158 39.0964 24.7292C38.8024 24.7427 38.5338 24.7463 38.4995 24.7373C38.4652 24.7282 38.0268 24.7388 37.5253 24.7608C37.0238 24.7828 36.3306 24.8083 35.9849 24.8174C35.6392 24.8266 35.2572 24.8421 35.136 24.852C35.0148 24.8619 34.534 24.8776 34.0675 24.8868C33.6011 24.896 33.205 24.9111 33.1873 24.9203C33.1696 24.9295 32.8016 24.9453 32.3695 24.9554C31.9374 24.9655 31.5271 24.9826 31.4577 24.9935C31.3306 25.0133 26.8825 24.9848 24.9583 24.9518C24.3886 24.9421 23.4429 24.9048 22.8566 24.8691L22.8567 24.8689ZM10.1185 17.6239C10.1498 17.6227 10.1247 17.569 10.0628 17.5046C9.96637 17.4042 9.88704 17.3882 9.51165 17.3936C9.27047 17.3971 9.06242 17.4267 9.0493 17.4594C9.01496 17.5451 9.44754 17.6506 9.77863 17.6373C9.93426 17.6311 10.0872 17.625 10.1185 17.6239ZM11.6868 14.5892C11.6872 14.5756 11.6593 14.5638 11.6247 14.563C11.5902 14.5623 11.5612 14.5884 11.5603 14.6211C11.5593 14.6538 11.5873 14.6656 11.6223 14.6473C11.6574 14.629 11.6864 14.6029 11.6868 14.5892ZM8.53339 12.8402C8.53374 12.8281 8.49061 12.8021 8.43756 12.7825C8.38225 12.762 8.35678 12.7708 8.37787 12.8032C8.41321 12.8574 8.53209 12.8857 8.53339 12.8402ZM9.28258 11.0655C9.22215 11.009 9.21476 11.0153 9.24654 11.0962C9.26854 11.1521 9.30275 11.1841 9.32257 11.1672C9.34238 11.1504 9.32438 11.1046 9.28258 11.0655ZM9.8039 10.4028C9.74348 10.3463 9.73608 10.3526 9.76787 10.4335C9.78986 10.4894 9.82407 10.5214 9.84389 10.5045C9.86371 10.4877 9.84571 10.4419 9.8039 10.4028ZM9.33452 10.0698C9.31407 10.0384 9.28488 10.0125 9.26965 10.0121C9.25443 10.0118 9.24125 10.0368 9.24037 10.0677C9.23955 10.0986 9.26869 10.1245 9.30525 10.1254C9.34181 10.1262 9.35498 10.1012 9.33452 10.0698ZM11.9018 7.44786C11.857 7.4306 11.8028 7.43136 11.7814 7.44955C11.76 7.46775 11.7967 7.48187 11.8629 7.48094C11.9361 7.47988 11.9514 7.46694 11.9018 7.44786ZM11.8942 7.30048C11.8002 7.22734 11.6514 7.00502 11.6533 6.94044C11.6539 6.92078 11.6964 6.93767 11.7479 6.97795C11.8699 7.07338 11.944 7.00942 11.8436 6.89535C11.7553 6.79506 11.5925 6.86918 11.5884 7.0115C11.5872 7.05588 11.5641 7.07931 11.5372 7.06355C11.5103 7.0478 11.4827 7.08362 11.476 7.14316C11.4678 7.21569 11.5039 7.25233 11.5854 7.25419C11.6523 7.25572 11.7063 7.28224 11.7055 7.31314C11.7046 7.34404 11.7674 7.36997 11.8451 7.37075C11.9664 7.37199 11.9733 7.36201 11.8942 7.30048ZM11.5211 7.17172C11.5214 7.15809 11.5505 7.13197 11.5855 7.11366C11.6206 7.09535 11.6485 7.10714 11.6476 7.13986C11.6466 7.17258 11.6176 7.19871 11.5831 7.19792C11.5486 7.19718 11.5207 7.18535 11.5211 7.17172ZM12.6644 6.02801C12.6702 5.95858 12.6604 5.93321 12.6426 5.97165C12.6248 6.01008 12.5851 6.02683 12.5544 6.00888C12.5238 5.99092 12.5143 6.01585 12.5335 6.06427C12.5844 6.19249 12.6522 6.1737 12.6644 6.02801ZM12.3428 5.97478C12.4131 5.87849 12.3368 5.85601 12.2481 5.94689C12.197 5.99915 12.1914 6.03128 12.233 6.03223C12.2697 6.03307 12.3191 6.00721 12.3428 5.97478ZM14.435 4.09282C14.4354 4.08068 14.3937 4.05522 14.3424 4.03626C14.2912 4.01729 14.2485 4.02626 14.2477 4.05619C14.2468 4.08612 14.2885 4.11157 14.3403 4.11275C14.392 4.11393 14.4347 4.10496 14.435 4.09282ZM3.84076 18.8298C3.84158 18.8008 3.87095 18.762 3.90601 18.7437C3.94108 18.7254 3.96865 18.7498 3.96728 18.798C3.96591 18.8462 3.93654 18.8849 3.90202 18.8841C3.86749 18.8834 3.83993 18.8589 3.84076 18.8298ZM6.53114 14.2688C6.56854 14.237 6.63588 14.2228 6.68078 14.2374C6.72739 14.2525 6.69821 14.2773 6.61277 14.2952C6.50768 14.3173 6.48338 14.3094 6.53114 14.2688ZM7.42414 14.2986C7.3597 14.2592 7.35547 14.2402 7.41023 14.2359C7.54825 14.2252 7.58187 14.2171 7.65883 14.1757C7.70026 14.1534 7.75375 14.1653 7.7777 14.202C7.8049 14.2437 7.79447 14.2531 7.74992 14.2271C7.70766 14.2023 7.67758 14.221 7.67611 14.2729C7.6733 14.3717 7.56229 14.3831 7.42414 14.2986ZM7.10455 14.1648C7.15326 14.1234 7.19914 14.1213 7.23895 14.1588C7.27876 14.1963 7.25351 14.2178 7.16499 14.2217C7.06377 14.2262 7.04885 14.2122 7.10455 14.1648V14.1648ZM8.70756 13.3408C8.70893 13.2926 8.73785 13.2695 8.77183 13.2894C8.80581 13.3092 8.83293 13.3493 8.83211 13.3784C8.83128 13.4074 8.80236 13.4306 8.76784 13.4298C8.73331 13.4291 8.70619 13.389 8.70756 13.3408ZM8.8041 12.4034C8.91143 12.2297 8.92229 12.2248 8.90737 12.3571C8.9001 12.4214 8.85674 12.486 8.81099 12.5005C8.74459 12.5216 8.7432 12.502 8.8041 12.4034ZM9.23642 10.3509C9.18391 10.3202 9.21421 10.2945 9.33023 10.2712C9.54053 10.229 9.58075 10.2555 9.42838 10.336C9.36547 10.3692 9.27908 10.3759 9.23642 10.3509ZM10.6128 6.57969C10.6342 6.5615 10.6884 6.56073 10.7332 6.578C10.7828 6.59707 10.7675 6.61005 10.6943 6.61107C10.6281 6.61202 10.5914 6.59788 10.6128 6.57969ZM10.8075 6.35927C10.8289 6.34108 10.8831 6.34032 10.9279 6.35758C10.9775 6.37665 10.9622 6.38963 10.889 6.39065C10.8228 6.3916 10.7861 6.37746 10.8075 6.35927ZM11.9458 5.66497C11.9447 5.60568 11.9605 5.57284 11.9808 5.59198C12.0011 5.61113 12.002 5.65963 11.9827 5.69977C11.9614 5.74413 11.9469 5.73048 11.9457 5.66497H11.9458ZM14.2265 2.59236C14.1709 2.55834 14.1638 2.53609 14.2087 2.53659C14.2498 2.53712 14.3002 2.56312 14.3207 2.5945C14.3668 2.66534 14.3451 2.66485 14.2265 2.59236Z" fill="black"/>
</svg>
