<svg width="169" height="58" viewBox="0 0 169 58" fill="none" xmlns="http://www.w3.org/2000/svg">
<path d="M33.5651 79.8294C33.3388 79.6771 33.1981 79.2614 33.292 79.0223C33.3153 78.9631 33.3631 78.7668 33.3984 78.5862C33.4338 78.4056 33.6339 77.9647 33.8432 77.6064C34.0527 77.2482 34.265 76.7808 34.3152 76.5677C34.3654 76.3547 34.4778 76.0467 34.5651 75.8833C34.7519 75.5333 35.2211 74.1912 35.5377 73.1009C35.6611 72.6759 35.8149 72.174 35.8795 71.9856C35.9441 71.7972 36.0145 71.5662 36.0363 71.4722C36.058 71.3783 36.2016 71.0522 36.3556 70.7476C36.6212 70.2218 36.7124 69.9029 36.8434 69.0418C36.8749 68.8351 36.9969 68.4884 37.1146 68.2714C37.3121 67.9072 37.3352 67.7492 37.4131 66.2269C37.4844 64.8336 37.5245 64.5243 37.671 64.2372C37.7786 64.0261 37.8705 63.6183 37.9132 63.1608C37.9511 62.7556 38.0359 62.2309 38.1019 61.9947C38.1678 61.7584 38.2364 61.4288 38.2545 61.2621C38.2725 61.0954 38.3265 60.7259 38.3745 60.4409C38.4223 60.1559 38.4912 59.5901 38.5274 59.1834C38.5749 58.6507 38.6628 58.2899 38.8421 57.8928C38.979 57.5896 39.195 56.994 39.3222 56.5692C39.4492 56.1444 39.586 55.7396 39.6259 55.6697C39.6658 55.5997 39.7363 55.329 39.7824 55.0679C39.8286 54.8068 39.9007 54.536 39.9427 54.4662C39.9846 54.3964 40.0251 54.3003 40.0327 54.2529C40.0669 54.04 40.1902 53.8046 40.3952 53.5618C40.5282 53.4042 40.646 53.1258 40.6897 52.8656C40.7534 52.4869 40.7431 52.4328 40.6088 52.4386C40.506 52.4436 40.4484 52.3726 40.4353 52.2266C40.4252 52.1065 40.4012 51.8557 40.3833 51.6694C40.352 51.3449 40.3598 51.333 40.5694 51.3834C40.6897 51.4123 40.8473 51.3951 40.9198 51.3455C41.111 51.2141 41.2223 50.4324 41.0783 50.2321C40.9402 50.0402 40.6779 50.0997 40.667 50.3253C40.6619 50.4284 40.5523 50.5126 40.3493 50.5687C40.1112 50.6344 40.0368 50.7021 40.0292 50.8596C40.0241 50.9725 39.989 51.0816 39.952 51.102C39.915 51.1224 39.8962 50.9378 39.9104 50.6917C39.928 50.3858 40.0016 50.151 40.1431 49.9495C40.257 49.7873 40.3287 49.595 40.3026 49.5219C40.1949 49.22 40.1875 49.0812 40.2794 49.0856C40.333 49.0889 40.3805 49.0144 40.3851 48.9217C40.3901 48.829 40.4336 48.7309 40.4831 48.7037C40.5324 48.6764 40.5786 48.5364 40.5855 48.3924C40.5956 48.191 40.563 48.1356 40.4459 48.1523C40.3427 48.1674 40.2549 48.3155 40.1729 48.6146C40.0326 49.1259 39.5852 49.6903 39.3906 49.6012C39.3199 49.5689 39.2132 49.5317 39.1532 49.5186C39.0932 49.5051 38.9997 49.4461 38.9453 49.3865C38.7612 49.1847 38.5327 49.2607 38.2745 49.6095C38.1336 49.8 37.8475 50.1024 37.6388 50.2817C37.4301 50.4609 37.2316 50.6989 37.1977 50.8105C37.1637 50.9222 36.9991 51.2738 36.8317 51.592C36.6434 51.9501 36.495 52.3843 36.4421 52.7321C36.3951 53.0411 36.2577 53.5241 36.1368 53.8056C36.0158 54.0871 35.8925 54.4141 35.8628 54.5324C35.8331 54.6507 35.6421 54.9941 35.4384 55.2955C35.2347 55.597 34.9145 56.13 34.7267 56.4801C34.3153 57.2474 34.1124 57.6006 33.8265 58.0474C33.7075 58.2332 33.5295 58.5773 33.4308 58.8119C32.787 60.3413 32.6476 60.6971 32.6414 60.8268C32.638 60.9069 32.5214 61.197 32.3831 61.4715C32.2451 61.7459 32.0485 62.1428 31.9465 62.3533C31.7149 62.8312 31.6056 63.0014 31.2146 63.492C31.0432 63.7071 30.7519 64.2643 30.5672 64.7303C30.3825 65.1963 30.1703 65.6631 30.0955 65.7677C30.0206 65.8721 29.924 66.1519 29.8807 66.3892C29.6273 67.7782 28.7157 68.6999 28.216 68.0723C28.0227 67.8295 27.7848 67.2548 27.7945 67.054C27.8063 66.8037 28.166 66.2337 28.5553 65.8472C28.7624 65.6416 29.015 65.3161 29.1166 65.1238C29.2181 64.9316 29.3631 64.728 29.4385 64.6716C29.5139 64.615 29.5776 64.5287 29.5799 64.4794C29.5884 64.3104 30.1733 63.2889 30.4348 62.9872C30.6998 62.6815 31.0274 61.876 31.2825 60.9032C31.3594 60.6098 31.5784 60.0688 31.7691 59.7009C31.9598 59.333 32.1185 58.9785 32.1216 58.9132C32.1267 58.8077 32.8639 57.3603 33.2346 56.7282C33.3119 56.5963 33.3776 56.4387 33.3805 56.3779C33.3838 56.3172 33.4825 56.173 33.6007 56.0577C33.7845 55.8783 33.8314 55.7186 33.9258 54.9507C34.0957 53.5698 34.1034 53.5287 34.2327 53.3132C34.2995 53.202 34.5579 52.8709 34.8071 52.5774C35.0723 52.265 35.2561 51.9669 35.2503 51.8586C35.2452 51.7569 35.4022 51.3681 35.6002 50.9945C35.9552 50.3248 35.96 50.3046 35.9438 49.5312C35.9353 49.0877 35.9711 48.6226 36.0283 48.4607C36.1483 48.1202 36.7289 47.4571 37.0018 47.3487C37.288 47.235 37.4151 47.002 37.4861 46.4606C37.5787 45.7545 37.5084 45.6586 36.9375 45.7114C36.061 45.7923 35.2674 46.2557 35.246 46.699C35.2426 46.7723 35.2023 46.8529 35.1566 46.8781C35.111 46.9032 35.0424 47.0395 35.0039 47.1806C34.9349 47.4345 34.8739 47.4694 34.5765 47.4248C34.3927 47.3972 33.886 47.7059 33.8784 47.8499C33.87 48.0165 33.0611 49.5395 32.8014 49.8786C32.4829 50.2946 32.3714 50.7656 32.5423 50.9728C32.7483 51.2226 32.6755 51.5818 32.331 52.0137C32.1566 52.2324 31.8996 52.6182 31.7597 52.871C31.62 53.1238 31.3055 53.5425 31.0611 53.8014C30.8166 54.0604 30.5232 54.443 30.409 54.6517C30.2947 54.8604 30.1421 55.0755 30.0698 55.1297C29.9608 55.2113 29.94 55.1909 29.9488 55.0111C29.964 54.7032 29.2602 54.3624 28.539 54.3282C28.1009 54.3073 27.9223 54.3495 27.4423 54.5875C26.769 54.9214 26.4853 55.2809 26.1355 56.2437C25.9329 56.8013 25.8027 57.0803 25.5544 57.4888C25.5227 57.5411 25.0821 58.0217 24.5754 58.557C24.0687 59.0923 23.5389 59.6693 23.3981 59.8392C22.9961 60.3243 22.5842 60.866 22.582 60.9126C22.5808 60.936 22.4351 61.1486 22.258 61.385C22.0809 61.6215 21.8363 62.0583 21.7144 62.3558C21.5787 62.6869 21.4311 62.913 21.3336 62.9387C21.246 62.9619 21.1014 63.0913 21.0122 63.2263C20.923 63.3614 20.7006 63.5233 20.5179 63.5861C20.2226 63.6877 20.137 63.6834 19.7463 63.5473C19.2484 63.3738 19.1491 63.2003 19.1801 62.5581C19.1973 62.2008 19.2443 62.1236 19.7169 61.6755C20.0017 61.4054 20.2877 61.1869 20.3523 61.19C20.417 61.1934 20.4713 61.1649 20.4732 61.1274C20.4748 61.0899 20.6077 60.991 20.7679 60.9075C21.1505 60.7084 21.5333 60.3352 21.7604 59.9401C21.8611 59.7648 22.0022 59.5923 22.074 59.5567C22.1458 59.5211 22.3125 59.2774 22.4445 59.015C22.5764 58.7526 22.7828 58.4683 22.903 58.3831C23.0262 58.2958 23.1542 58.092 23.1962 57.9162C23.2372 57.7446 23.3444 57.5156 23.4344 57.4073C23.7665 57.0079 24.2043 56.0941 24.2845 55.6329C24.405 54.9398 25.0161 53.7569 25.4916 53.2969C25.7893 53.0088 26.0383 52.706 26.697 51.8312C26.958 51.4846 27.2696 51.1078 27.3895 50.9938C27.5095 50.8799 27.679 50.637 27.7663 50.4541C27.8536 50.2713 28.1461 49.912 28.4162 49.6558C28.6864 49.3997 28.9554 49.0955 29.014 48.98C29.0726 48.8644 29.1818 48.6749 29.2568 48.5588C29.4525 48.2556 29.4408 48.0551 29.1956 47.5102C29.0131 47.1047 28.9043 46.9863 28.5139 46.7685C28.2584 46.626 28.0254 46.4342 27.9962 46.3422C27.921 46.1054 28.1934 45.6257 28.6518 45.1879C28.9067 44.9445 29.0452 44.737 29.0524 44.5879C29.0659 44.308 29.2235 44.0312 29.3662 44.0368C29.4245 44.0385 29.6498 43.9139 29.8669 43.7583C30.084 43.6029 30.3984 43.4337 30.5655 43.3824C30.9101 43.2765 30.963 43.0072 30.6333 43.0374C30.5258 43.0475 30.4398 43.0139 30.4423 42.963C30.4507 42.802 30.1344 42.8483 29.8169 43.0547C29.6482 43.1644 29.3649 43.3251 29.1874 43.4117C28.7842 43.6084 28.0351 44.3896 27.67 44.9943C27.3714 45.4889 27.1218 45.7393 26.3049 46.3643C26.0157 46.5855 25.7222 46.8856 25.6527 47.0312C25.5833 47.1767 25.3896 47.4113 25.2226 47.5522C24.5082 48.155 23.8111 48.8038 23.6643 49.0026C23.5775 49.1204 23.3731 49.2719 23.2103 49.3395C23.0476 49.4071 22.7891 49.6164 22.6361 49.8046C22.483 49.9928 21.9456 50.5364 21.4418 51.0125C20.5627 51.8432 20.4995 51.885 19.8776 52.0462C19.4592 52.1547 19.1116 52.3117 18.8967 52.4891C18.7136 52.6404 18.4622 52.8109 18.338 52.8683C18.2138 52.9256 17.7501 53.2966 17.3076 53.6925C16.2682 54.6225 15.7908 54.9793 15.6838 54.9062C15.6365 54.8739 15.5658 54.8927 15.527 54.9499C15.4176 55.1084 14.8779 54.542 14.8288 54.2171C14.8063 54.0682 14.8296 53.8768 14.8807 53.7919C14.9751 53.6348 16.1595 52.8666 16.6342 52.6546C16.7779 52.5905 17.5833 51.9245 18.4242 51.1748C19.8823 49.8746 20.131 49.7 21.4574 49.0444C21.8132 48.8685 21.9509 48.739 22.0827 48.4562C22.4255 47.7205 22.5796 47.5007 22.8786 47.321C23.0469 47.2199 23.2788 47.1416 23.394 47.1471C23.5515 47.1538 23.6442 47.0781 23.7676 46.8385C23.9112 46.5595 24.1559 46.2503 24.9172 45.3851C25.2158 45.0458 25.649 44.4501 25.6527 44.3738C25.6544 44.3356 25.9099 44.1398 26.2202 43.9385C26.5304 43.7373 26.9509 43.3818 27.1545 43.1485C27.5041 42.748 27.6837 42.5641 28.512 41.7588C28.7017 41.5744 28.9163 41.2759 28.989 41.0954L29.1212 40.7672L28.7142 40.3142C28.3577 39.9172 28.2859 39.873 28.1346 39.9574C27.8673 40.1062 27.7002 40.0615 27.621 39.8197C27.5715 39.6688 27.4823 39.5955 27.3397 39.5887C27.2248 39.5836 26.8848 39.4872 26.5841 39.3756C26.0971 39.1947 25.9655 39.1796 25.3772 39.2371C25.014 39.2726 24.4986 39.3418 24.2317 39.3908C23.9299 39.4461 23.2521 39.4505 22.4387 39.4025C20.9383 39.3139 20.5205 39.3839 19.9946 39.8119C19.808 39.9638 19.5097 40.1405 19.3317 40.2048C19.1538 40.2691 18.8738 40.4281 18.7095 40.5583C18.4878 40.7342 18.3513 40.7808 18.1794 40.7395C18.052 40.7089 17.6447 40.7627 17.2742 40.8589C16.7697 40.99 16.518 41.1113 16.2721 41.3416C15.7964 41.7872 15.3351 41.9 14.0564 41.8832C12.7837 41.8664 11.8637 41.9981 11.0887 42.3076C10.7843 42.4292 10.5034 42.5271 10.4646 42.5252C10.4257 42.5236 10.2333 42.6196 10.037 42.7392C9.40813 43.1221 8.49779 42.9246 8.52256 42.4106C8.53439 42.1813 8.78074 41.8268 9.05979 41.6401C9.23789 41.5208 9.47866 41.4871 10.1199 41.492C11.0286 41.4987 11.1735 41.4555 11.6482 41.0362C12.0589 40.6735 12.6054 40.4558 13.187 40.4234C13.4401 40.4099 13.7674 40.3519 13.9144 40.2957C14.0614 40.2395 14.368 40.1754 14.5958 40.153C14.8949 40.1236 15.1554 40.011 15.5334 39.7475C15.8213 39.5469 16.0717 39.3476 16.0898 39.3048C16.1078 39.2619 16.1731 39.2292 16.2349 39.2323C16.2966 39.2356 16.5215 39.099 16.7345 38.9297C16.9476 38.7604 17.2878 38.5442 17.4904 38.4492C18.5889 37.9348 18.6273 37.9257 19.7562 37.9158C20.9963 37.9057 21.3644 37.7917 22.2441 37.1504C22.5167 36.9517 22.8096 36.767 22.895 36.74C22.9805 36.7131 23.0544 36.6093 23.0591 36.5096C23.0675 36.321 22.6385 35.8296 22.3815 35.7346C22.3002 35.7047 22.2131 35.6028 22.1879 35.5082C22.1627 35.4137 22.0958 35.3312 22.0392 35.3248C21.7863 35.2964 21.6088 35.2272 21.3981 35.0748C21.1939 34.9273 19.7196 34.3983 19.1258 34.2595C18.9698 34.223 18.7607 34.2713 18.5069 34.4023C18.296 34.5112 17.8848 34.6555 17.593 34.7232C17.3012 34.7908 16.929 34.915 16.7659 34.9993C16.6028 35.0835 16.3833 35.1486 16.278 35.1438C16.1728 35.1387 15.98 35.1843 15.8495 35.2444C15.719 35.3044 15.4589 35.3948 15.2715 35.4451C15.084 35.4954 14.7609 35.6605 14.5534 35.8117C14.3459 35.9629 13.7405 36.2785 13.2081 36.5131C12.6756 36.7477 12.0172 37.0715 11.745 37.2329C11.2666 37.5163 11.231 37.5234 10.6856 37.4427C10.3752 37.3967 9.65103 37.3207 9.07621 37.2738C8.21054 37.2029 7.93984 37.213 7.49955 37.3323C7.20719 37.4115 6.85098 37.4549 6.70797 37.429C6.565 37.4031 6.05747 37.3197 5.58023 37.2438C5.103 37.1679 4.41973 37.0584 4.06184 37.0006C3.70396 36.9427 3.26081 36.8419 3.07706 36.7767C2.67696 36.6345 2.0393 36.653 1.31462 36.828C0.65634 36.9868 0.358753 36.9094 0.147792 36.5247C-0.157839 35.9672 0.00296312 35.5901 0.701158 35.2263C1.07699 35.0305 1.19134 35.015 1.93322 35.0601C2.38299 35.0873 2.85015 35.1526 2.97135 35.2052C3.23909 35.3215 4.91124 35.2734 5.19036 35.1415C5.2948 35.092 5.56676 35.0594 5.79461 35.069C6.02245 35.0791 6.40862 35.0235 6.65279 34.9467C6.89694 34.8698 7.58966 34.7835 8.19217 34.7546C8.79466 34.7259 9.32888 34.6725 9.37931 34.6362C9.42967 34.5999 9.71023 34.4949 10.0026 34.4031C10.295 34.3112 10.7097 34.1314 10.9242 34.0035C11.7593 33.5055 11.9595 33.4496 13.2718 33.3477C13.6494 33.3184 14.1458 33.222 14.3751 33.1337C14.6044 33.0454 15.0839 32.9315 15.4405 32.8808C15.7972 32.8302 16.1352 32.7567 16.1916 32.7173C16.5892 32.4406 18.6131 32.486 19.7611 32.7974C20.162 32.9061 20.3609 32.9155 20.808 32.8465C21.1115 32.7998 21.39 32.7351 21.4269 32.7032C21.4638 32.671 21.5395 32.4133 21.5949 32.1303C21.6505 31.8474 21.7142 31.558 21.7365 31.4873C21.7707 31.3793 21.6688 31.3584 21.0996 31.3576C20.6767 31.3567 20.4236 31.3232 20.4263 31.2679C20.428 31.2191 20.5265 30.9616 20.6438 30.6956C20.8245 30.2854 20.8387 30.1984 20.7369 30.1231C20.6008 30.0224 19.8377 30.0568 19.5881 30.1749C19.4974 30.2178 19.0344 30.2677 18.5592 30.2861C18.084 30.3044 17.6124 30.3584 17.5113 30.4064C17.4102 30.4542 17.1322 30.4839 16.8936 30.4727C16.5978 30.4592 16.2671 30.5272 15.8535 30.6887L15.2472 30.9254L14.4868 30.7809C13.7775 30.6461 13.695 30.6472 13.2586 30.7944C13.0013 30.8815 12.5611 31.0245 12.2804 31.1123C11.9996 31.2001 11.5602 31.3374 11.3038 31.4176C11.0475 31.4979 10.4597 31.6516 9.99769 31.7594C9.01529 31.9886 8.24779 32.2274 7.46089 32.5489C7.14995 32.6759 6.83382 32.7769 6.75841 32.7733C6.68304 32.7699 6.37212 32.8588 6.06759 32.9714C5.67774 33.1156 5.35896 33.1693 4.99038 33.1532C4.11874 33.115 3.85436 32.8169 4.17575 32.2348C4.42723 31.7792 4.80712 31.6448 5.73258 31.6839C6.28499 31.7073 6.52697 31.6824 6.627 31.5919C6.70238 31.5237 6.81606 31.4691 6.87953 31.4706C7.30556 31.4807 7.58687 30.8124 7.34376 30.3677C7.13988 29.9947 7.16352 29.8123 7.44921 29.5539C7.71678 29.312 7.69277 29.3168 8.37358 29.3671C9.06087 29.418 10.4053 29.151 11.061 28.8335C11.3775 28.6802 11.9333 28.5875 13.4609 28.433C13.8494 28.3938 14.4826 28.5934 14.9694 28.9087C15.1889 29.0509 15.2612 29.0532 15.9819 28.9417C16.4087 28.8756 16.9155 28.7387 17.108 28.6375C17.4389 28.4636 17.5316 28.4584 18.809 28.5425C19.552 28.5914 20.4309 28.6592 20.7622 28.6932C21.3624 28.7548 21.7745 28.6932 21.7819 28.5403C21.7836 28.496 21.662 28.3724 21.5109 28.2655C21.3229 28.1324 21.2843 28.0731 21.3889 28.077C21.4729 28.0804 21.5436 28.0437 21.5459 27.9959C21.5476 27.9482 21.4618 27.9043 21.3539 27.8984C21.1361 27.8866 21.0431 27.8272 20.877 27.594C20.734 27.3935 20.8719 27.2239 21.305 27.0676C21.5799 26.9683 21.6057 26.9302 21.5949 26.6383C21.5797 26.2053 21.3773 26.0705 21.0235 26.2563L20.756 26.3968L20.6299 26.1226C20.3276 25.4651 21.0383 24.9461 22.2425 24.9449C22.7513 24.9441 22.8907 24.8455 22.7621 24.576C22.6523 24.3456 22.8072 24.1177 23.0392 24.1683C23.1183 24.1856 23.3201 24.0956 23.4876 23.9684C23.7436 23.7741 23.8416 23.7487 24.1017 23.8091C24.2719 23.8486 24.4338 23.9085 24.4616 23.942C24.5458 24.0435 24.3379 24.5604 24.2153 24.5545C24.1525 24.5512 24.0509 24.6459 23.9896 24.7643C23.8991 24.9393 23.9018 24.9898 24.0049 25.0346C24.074 25.0649 24.1929 25.0332 24.2691 24.9644C24.4643 24.7879 24.8958 24.7319 25.1042 24.8561C25.3372 24.9949 25.5884 24.8695 25.601 24.607C25.6078 24.4764 25.7107 24.3511 25.8993 24.2452C26.0957 24.1348 26.1924 24.0138 26.2022 23.8661C26.214 23.6851 26.286 23.6304 26.6368 23.5357C26.9404 23.4538 27.0669 23.372 27.0924 23.2416C27.1226 23.0872 27.0692 23.0495 26.7228 22.9807C26.4683 22.9303 26.2813 22.9335 26.2193 22.9891C26.0887 23.1074 25.8096 23.0837 25.5665 22.9338C25.3852 22.8221 25.3817 22.8034 25.5213 22.6989C25.7426 22.5332 25.8569 22.2291 25.9539 21.5471C26.032 20.9985 26.0592 20.9402 26.2449 20.923C26.3576 20.9129 26.5125 20.963 26.5892 21.035C26.8162 21.2482 27.0295 21.3043 27.0903 21.1669C27.1205 21.0986 27.2581 20.9931 27.396 20.9327C27.6418 20.8248 27.6472 20.8282 27.6723 21.096C27.6858 21.2463 27.7243 21.4394 27.7569 21.525C27.8037 21.6483 27.7468 21.7056 27.4813 21.8014C27.2972 21.8678 27.0793 21.9011 26.997 21.8756C26.9147 21.8498 26.7923 21.8587 26.7251 21.8963C26.6234 21.9523 26.6239 21.9853 26.7285 22.0926C26.8972 22.2666 27.9453 22.2451 27.9538 22.0675C27.9572 22.0015 28.0098 21.9501 28.0709 21.9529C28.1323 21.9563 28.294 21.8432 28.4306 21.7025C28.5671 21.5618 28.7178 21.4734 28.7655 21.506C28.9093 21.6043 28.8433 21.9903 28.6384 22.2494C28.5234 22.3951 28.4639 22.5604 28.4906 22.6606C28.5409 22.8496 28.8642 22.9767 29.1086 22.9035C29.3782 22.8228 29.8577 22.4722 29.8635 22.3515C29.8669 22.2893 29.9766 22.1333 30.1082 22.0049C30.3262 21.7921 30.3452 21.7259 30.322 21.2589C30.3085 20.977 30.275 20.7078 30.2488 20.6607C30.2226 20.6136 30.0493 20.5677 29.8637 20.5587C29.5897 20.5453 29.4838 20.5916 29.3007 20.8028C29.0873 21.0489 29.0643 21.0554 28.8732 20.9227C28.5685 20.7111 27.74 20.4949 27.6933 20.6148C27.6698 20.6752 27.5402 20.6249 27.3473 20.4805C27.0078 20.2264 26.6898 20.1685 26.6111 20.3466C26.5832 20.4099 26.4185 20.536 26.2452 20.6269C25.9762 20.7681 25.9236 20.7728 25.886 20.6594C25.8103 20.4306 25.8517 20.2185 25.9932 20.1127C26.2152 19.9465 26.1584 19.8411 25.8728 19.8894C25.7226 19.9148 25.6101 19.8978 25.6124 19.8508C25.6141 19.8051 25.4948 19.7105 25.3461 19.6407C25.1974 19.5709 24.9016 19.3829 24.6886 19.2228C24.0841 18.7685 23.2365 18.3272 22.9402 18.3125C22.792 18.3058 22.5183 18.1954 22.332 18.0686C22.0839 17.8996 21.8671 17.8312 21.5209 17.8126C20.8512 17.7768 19.9537 17.5687 19.6547 17.38C19.2471 17.1228 18.5852 16.9035 17.9765 16.8241C17.3217 16.7386 16.8621 16.6341 16.6747 16.5277C16.4846 16.4199 14.3001 15.8255 13.7944 15.744C13.5593 15.7062 13.3261 15.638 13.2763 15.5926C13.155 15.4821 12.0792 15.1826 11.7469 15.1667C11.4675 15.1533 10.9117 14.6484 10.9228 14.4179C10.9262 14.3511 11.1546 14.2404 11.4536 14.1608L11.9788 14.021L12.9942 14.3973C13.5527 14.6043 14.2025 14.8535 14.4383 14.9511C14.9809 15.1757 15.6876 15.355 16.1096 15.3752C16.2896 15.3836 16.4724 15.4273 16.516 15.4721C16.6152 15.5739 17.905 15.8994 18.5417 15.9832C19.2014 16.07 19.3654 16.1102 19.5779 16.2368C19.8803 16.4171 20.7198 16.7225 20.9535 16.7374C21.0733 16.7458 21.4817 16.8454 21.8609 16.9603C22.24 17.0752 22.6867 17.1962 22.8534 17.2291C23.0202 17.2619 23.229 17.3137 23.3175 17.3442C23.4576 17.3925 23.4757 17.3593 23.4571 17.0889C23.4394 16.8306 23.4554 16.7962 23.553 16.8848C23.6173 16.9434 23.7002 17.0836 23.7371 17.1962C23.7742 17.309 23.8725 17.426 23.9559 17.4565C24.0394 17.4869 24.2207 17.58 24.359 17.6632C24.4972 17.7465 24.8059 17.8733 25.0449 17.9449C25.2839 18.0166 25.6924 18.1461 25.9527 18.2327C26.5521 18.4323 26.9019 18.4504 27.1496 18.2948C27.257 18.2272 27.3939 18.1848 27.4538 18.2006C27.5136 18.2157 27.5672 18.1706 27.5727 18.0991C27.5846 17.942 27.9623 17.891 28.0885 18.0293C28.218 18.1713 28.3171 18.1565 28.325 17.9941C28.3334 17.8153 27.7307 17.1491 27.5525 17.1405C27.4786 17.1372 27.2967 17.2263 27.1484 17.3389C27.0002 17.4514 26.8596 17.5427 26.8361 17.5415C26.8126 17.5404 26.7038 17.3296 26.5943 17.073C26.3978 16.6128 25.978 16.1075 25.5242 15.785C25.0059 15.4167 25.4859 15.3628 26.3017 15.6977C26.5802 15.8121 26.956 15.9068 27.1367 15.9081C27.4117 15.9098 27.4769 15.9462 27.5368 16.129C27.6157 16.3701 28.1644 16.8216 28.3915 16.8325C28.4709 16.8359 28.729 16.9858 28.9651 17.1646C29.2012 17.3434 29.4583 17.4928 29.5365 17.4965C29.6666 17.5032 29.9667 17.7249 30.3606 18.1067C30.5397 18.2802 31.0023 18.2492 31.4071 18.0367C31.6814 17.8927 31.8692 17.965 32.0217 18.2736C32.2028 18.64 32.4039 18.9392 32.4712 18.9424C32.5099 18.9441 32.5683 18.8393 32.6011 18.709C32.6339 18.5788 32.8326 18.3043 33.0428 18.099C33.2529 17.8938 33.4653 17.6592 33.5147 17.5778C33.564 17.4964 33.6798 17.4333 33.7718 17.4378C33.9849 17.4479 34.3921 17.2883 34.3967 17.1926C34.3983 17.1526 34.459 17.1224 34.531 17.126C34.8423 17.1411 34.5226 16.351 33.9731 15.7445C33.4953 15.2177 33.119 14.6768 33.1262 14.527C33.1296 14.4688 32.6914 13.9557 32.1538 13.3869C31.6162 12.8182 31.1284 12.3015 31.0699 12.2387C30.2145 11.3208 28.3141 9.15149 28.3168 9.09597C28.3185 9.0556 28.1302 8.87997 27.8978 8.70577C27.6655 8.53159 27.4575 8.32312 27.4358 8.24252C27.3976 8.10069 26.7232 7.44043 26.5162 7.34222C26.4601 7.31564 26.2534 7.14905 26.0569 6.9721C25.8603 6.79516 25.5037 6.54308 25.2643 6.41197C24.8975 6.21099 24.819 6.1225 24.7649 5.84845C24.6815 5.42724 24.8277 5.25846 25.2544 5.283C25.6615 5.30639 25.806 5.40212 26.5482 6.14083C27.3192 6.90806 27.6301 7.26031 28.78 8.66901C29.2884 9.29174 29.9331 10.0503 30.2128 10.3548C30.4925 10.6592 31.053 11.2931 31.4585 11.7635C31.8639 12.2338 32.2945 12.6879 32.4154 12.7726C32.6599 12.944 33.6303 13.9683 34.1093 14.5607C34.3174 14.818 34.4913 14.948 34.6368 14.9549C34.8804 14.9667 34.8904 14.9482 34.7792 14.6994C34.7358 14.6023 34.6648 14.4432 34.6214 14.3461C34.5779 14.2488 34.5458 14.0983 34.5501 14.0114C34.5534 13.9246 34.4659 13.7163 34.3538 13.5487C34.2416 13.3811 34.1515 13.2102 34.1535 13.1689C34.1552 13.1277 34.0509 12.9442 33.9212 12.7613C33.7914 12.5784 33.6261 12.2417 33.5536 12.0132C33.4811 11.7847 33.3511 11.5276 33.2647 11.4419C33.1784 11.3562 33.1131 11.1729 33.1197 11.0347C33.1349 10.7253 33.0043 10.429 32.4239 9.45244C31.9185 8.60226 31.7977 8.44464 31.5351 8.29249C31.4352 8.23461 31.2184 7.96196 31.0534 7.68662C30.8883 7.41129 30.6702 7.14956 30.5687 7.10499C30.4671 7.06041 30.0873 6.82919 29.7247 6.59116C29.3621 6.35313 29.0175 6.15592 28.959 6.15296C28.8123 6.14623 28.3871 5.84716 28.1368 5.57598C27.8648 5.28134 26.9771 4.69046 26.6746 4.60274C26.5438 4.56472 26.4168 4.49792 26.3925 4.45418C26.3681 4.41044 26.2208 4.36855 26.0651 4.36114C25.828 4.34937 25.6952 4.2464 25.2484 3.72597C24.5566 2.91997 24.2621 2.52067 24.268 2.39681C24.2782 2.18069 24.6594 1.85674 24.8901 1.86781C25.2003 1.88295 26.0233 2.24284 26.2325 2.45522C26.3241 2.54826 26.5915 2.71644 26.8266 2.82882C27.0616 2.94121 27.2909 3.08224 27.3361 3.14227C27.3812 3.20233 27.6142 3.42904 27.8537 3.64615C28.0932 3.86325 28.3083 4.11245 28.3316 4.19992C28.3805 4.38307 28.9277 4.70855 29.46 4.87093C29.719 4.95001 29.9407 5.11503 30.2197 5.43656C30.4363 5.68628 30.7757 5.99646 30.9738 6.12586C31.1719 6.25524 31.3326 6.39096 31.3308 6.42742C31.3292 6.46392 31.5892 6.7978 31.909 7.16948C32.2287 7.54117 32.7443 8.20995 33.0548 8.65565C33.3653 9.10136 33.811 9.69062 34.0451 9.96512C34.2793 10.2396 34.6092 10.6275 34.7782 10.8271C34.9472 11.0266 35.1371 11.3052 35.2003 11.4461C35.2635 11.5871 35.4548 11.8764 35.6254 12.0891C35.796 12.3018 35.9335 12.5481 35.9309 12.6364C35.9241 12.8768 36.6951 13.8902 37.1005 14.1728C37.2957 14.3091 37.5066 14.4764 37.5691 14.5449C37.7381 14.7301 38.147 14.9495 38.2126 14.8902C38.3336 14.7808 38.2682 14.6166 37.9407 14.2084C37.7542 13.9758 37.5715 13.6384 37.5348 13.4586C37.4981 13.2788 37.4417 13.0057 37.4095 12.8516C37.3774 12.6977 37.2173 12.3921 37.0538 12.1728C36.8902 11.9535 36.7583 11.7366 36.7605 11.6907C36.7622 11.645 36.6469 11.4867 36.5033 11.3392C36.1544 10.9812 35.4788 9.83581 35.4228 9.50752C35.3916 9.32446 35.2244 9.11503 34.8713 8.81667C34.5926 8.58119 34.3194 8.26427 34.2641 8.11243C34.1531 7.80778 33.7908 7.34162 33.6601 7.33538C33.6143 7.3337 33.4736 7.15028 33.3477 6.92891C33.2218 6.70753 33.0926 6.52511 33.0609 6.52352C32.9408 6.51679 32.0004 5.23711 32.0075 5.08932C32.0159 4.92563 32.3555 4.74876 32.6364 4.76218C32.7498 4.76723 32.9476 5.01213 33.2495 5.51997C33.5481 6.02224 33.7797 6.30938 33.9509 6.38976C34.2782 6.54336 34.3819 6.68483 34.4076 7.01276C34.4353 7.36701 34.617 7.65556 35.0668 8.05981C35.2893 8.25983 35.5925 8.68661 35.8134 9.11074C36.018 9.50352 36.2356 9.84686 36.297 9.87373C36.3584 9.90065 36.4069 9.95785 36.4048 10.0011C36.4031 10.0443 36.5551 10.3314 36.7432 10.639C37.156 11.3138 37.8581 12.077 38.3351 12.3694C38.5531 12.5032 38.7348 12.7042 38.8177 12.9036C38.9134 13.1336 39.0492 13.2682 39.3014 13.383C39.6675 13.5495 39.8526 13.5211 40.0908 13.2618C40.1562 13.1905 40.2747 13.1353 40.3538 13.139C40.4329 13.1424 40.5786 13.0123 40.6773 12.8491C40.8502 12.5632 40.8521 12.5336 40.7295 12.0464C40.6596 11.7682 40.5795 11.3382 40.5517 11.0908C40.5191 10.8008 40.3903 10.4583 40.1891 10.1269C40.0176 9.84413 39.7867 9.44686 39.676 9.24408C39.2648 8.49042 38.9109 8.02365 38.6422 7.88065C38.4901 7.79972 38.2117 7.59903 38.0234 7.43466C37.2953 6.7993 37.1843 6.72143 36.7289 6.52654C36.0452 6.23393 33.9584 4.5238 33.9708 4.26626C33.9792 4.09581 34.1644 3.98238 34.3435 4.03825C34.4368 4.06736 34.638 4.30791 34.7908 4.57284C35.083 5.07963 35.4871 5.41979 35.8161 5.43605C35.9927 5.44447 36.0144 5.40358 36.0326 5.02501C36.0479 4.72125 36.0086 4.56031 35.8937 4.44627C35.8062 4.35946 35.6924 4.17164 35.6409 4.029C35.5896 3.88633 35.5177 3.76828 35.4814 3.76653C35.4451 3.76485 35.3695 3.63648 35.3136 3.48144C35.2576 3.32633 35.0172 2.96012 34.7793 2.66753C34.5413 2.37496 34.2711 1.94813 34.1788 1.71907C33.7279 0.599895 32.9655 -0.623827 32.557 -0.88386C32.4316 -0.963774 32.2274 -1.23245 32.1034 -1.48101C31.8058 -2.0775 31.3435 -2.74873 30.926 -3.1906C30.4314 -3.71408 30.499 -4.27187 31.0776 -4.44219C31.4675 -4.55693 31.7615 -4.3801 31.8849 -3.95672C31.938 -3.77482 32.0752 -3.49036 32.19 -3.3246C32.3048 -3.15888 32.3967 -2.9813 32.3943 -2.93009C32.3926 -2.87895 32.4191 -2.82258 32.4551 -2.80492C32.4909 -2.78726 32.6929 -2.50994 32.9038 -2.18867C33.5003 -1.28017 33.6815 -1.01043 34.03 -0.512097C34.2081 -0.257347 34.352 -0.0101128 34.3497 0.0373302C34.3463 0.115058 34.8825 0.741924 35.3256 1.17758C35.4199 1.27028 35.5349 1.55004 35.581 1.7991C35.7106 2.49919 35.8804 2.8253 36.5841 3.72566C37.0769 4.3562 37.3349 4.60769 37.6431 4.75799C38.0571 4.95983 38.5353 5.47058 39.159 6.37684C39.4713 6.83059 39.8697 7.29231 40.691 8.15241C41.0708 8.55016 41.9603 8.99938 42.1129 8.87044C42.2508 8.75402 42.5497 8.9581 42.7877 9.33134C42.9237 9.54452 43.1809 9.78369 43.4044 9.90462C43.6153 10.0187 43.9514 10.2341 44.1512 10.3832C44.584 10.7061 44.8156 10.6824 44.7431 10.3228C44.7164 10.1904 44.6741 9.82663 44.6491 9.51425C44.5612 8.41468 44.3067 7.40813 43.94 6.71052C43.7783 6.40297 43.7363 6.19827 43.758 5.82451C43.8097 4.93385 43.514 3.9341 42.6938 2.22556C42.4624 1.74352 42.2151 1.11133 42.1443 0.82071C41.9936 0.202021 41.7644 -0.534994 41.5675 -1.03479C41.4137 -1.42499 41.2757 -1.99129 41.2026 -2.53198C41.1765 -2.72472 41.0293 -3.2199 40.8755 -3.63238C40.5734 -4.44225 40.5412 -4.78772 40.7529 -4.94624C40.9066 -5.06132 41.2519 -4.98292 41.4243 -4.79398C41.4876 -4.7245 41.5755 -4.37758 41.6196 -4.02316C41.7159 -3.2467 41.9299 -2.51654 42.1523 -2.20546C42.256 -2.06027 42.3093 -1.846 42.2978 -1.61926C42.2756 -1.18191 42.5687 -0.0997376 42.9756 0.88343C43.1425 1.28707 43.2764 1.67702 43.2728 1.74996C43.2678 1.87058 43.3999 2.22901 43.9285 3.51725C44.1446 4.04397 44.3168 4.91016 44.3427 5.60027C44.3601 6.06307 44.574 6.78486 44.9132 7.52482C44.9917 7.69614 45.0771 7.97441 45.1028 8.14319C45.1403 8.38875 45.8423 10.1696 46.0681 10.5918C46.1333 10.7139 46.615 11.4262 46.7765 11.6397C47.3043 12.3369 48.5368 10.868 48.0781 10.0885C47.9656 9.89717 47.9578 9.68419 48.019 8.45043C48.0342 8.13657 48.0021 7.66498 47.9472 7.40246C47.8921 7.13993 47.8138 6.67262 47.773 6.36399C47.7323 6.05537 47.6021 5.52036 47.4837 5.17508C47.3654 4.8298 47.2499 4.33096 47.2272 4.06657C47.2046 3.80218 47.1368 3.47773 47.0767 3.34559C47.0165 3.21335 46.972 3.00892 46.9776 2.89109C46.9827 2.77332 46.9181 2.49077 46.833 2.26333C46.5134 1.41028 46.7397 1.08943 47.3971 1.46385L47.748 1.66377L47.7033 2.2444C47.6306 3.18524 47.7687 4.43095 47.9934 4.86237C48.1265 5.11799 48.1772 5.34443 48.151 5.56625C48.1297 5.74612 48.1544 5.98188 48.2075 6.09017C48.2599 6.19852 48.3194 6.47548 48.3396 6.70579C48.3601 6.93609 48.4618 7.34402 48.5658 7.61232C48.7405 8.06287 48.7472 8.16624 48.6537 8.96693C48.5611 9.75898 48.5685 9.88376 48.7401 10.4131C49.1045 11.5378 49.4387 12.103 49.6359 11.9282C49.7824 11.7983 50.0037 9.36741 49.9188 8.82101C49.8765 8.54881 49.826 7.97283 49.8067 7.54104C49.7506 6.28357 49.6768 5.75719 49.4384 4.91212C49.2479 4.2368 49.2148 3.92923 49.217 2.85599C49.2185 2.1156 49.1741 1.4479 49.1095 1.24054C49.049 1.04615 48.9862 0.357679 48.9701 -0.289394C48.9532 -0.936483 48.9211 -1.85853 48.8973 -2.33842C48.8589 -3.11184 48.8734 -3.2446 49.025 -3.50741C49.2342 -3.86974 49.4811 -3.90953 49.7766 -3.62854L49.9987 -3.41738L49.9174 -1.11458C49.8671 0.312606 49.8689 1.28293 49.9225 1.43735C49.9698 1.57446 49.994 2.00641 49.9764 2.39741C49.9587 2.78842 49.9798 3.26667 50.0217 3.4602C50.0643 3.65374 50.1016 4.08614 50.1047 4.42109C50.108 4.75604 50.1391 5.14923 50.1746 5.29486C50.2101 5.44056 50.2757 5.79642 50.3206 6.08582C50.3654 6.37521 50.4486 6.78764 50.5051 7.00233C50.5617 7.21704 50.597 7.61902 50.5837 7.89562C50.5668 8.23306 50.6126 8.51332 50.7212 8.74738C50.8101 8.93922 50.906 9.30538 50.934 9.56106C50.9714 9.90178 51.0454 10.0829 51.2114 10.2393C51.3357 10.3568 51.4685 10.5889 51.5061 10.7553C51.5438 10.9217 51.631 11.1197 51.6999 11.1953C51.7929 11.2971 51.8003 11.3743 51.7292 11.4928C51.6129 11.6862 51.6639 11.7598 51.8826 11.7139C51.9833 11.6927 52.0672 11.5758 52.1025 11.4075C52.1339 11.2577 52.2397 10.8464 52.3377 10.4934C52.4869 9.9559 52.5008 9.79732 52.4227 9.51733C52.346 9.24204 52.3529 9.14402 52.4622 8.96212C52.6196 8.70032 52.7966 8.62464 52.9242 8.76453C52.9749 8.82022 53.0075 9.16964 52.9965 9.54119C52.9864 9.91275 53.0134 10.4315 53.0574 10.694C53.1018 10.9565 53.1116 11.2899 53.079 11.4349C52.9986 11.7936 53.0891 11.9055 53.4344 11.8709L53.7237 11.8418L53.6837 11.4369C53.6617 11.2142 53.6194 10.9542 53.5899 10.8593C53.5603 10.7642 53.5814 10.5303 53.6363 10.3392C53.7024 10.1099 53.7197 9.63606 53.6867 8.94496C53.6593 8.36915 53.6766 6.8446 53.7266 5.55707C53.8092 3.39729 53.8288 3.20454 53.9813 3.06671C54.196 2.8726 54.3685 2.88636 54.5764 3.11416C54.7244 3.27634 54.7346 3.36813 54.6607 3.87982C54.6146 4.19955 54.5135 4.57563 54.4361 4.71556C54.2142 5.1165 54.1102 6.2294 54.2555 6.64796C54.3389 6.88873 54.3545 7.14237 54.3053 7.46452C54.2482 7.83887 54.2622 7.95757 54.3761 8.06124C54.4951 8.16958 54.5643 8.1743 54.8003 8.09068C54.9554 8.03567 55.1899 7.97644 55.3214 7.95912C55.4529 7.94179 55.6066 7.87735 55.6628 7.81611C55.8283 7.63591 56.0663 6.59159 56.0315 6.19794C56.0136 5.99519 56.0647 5.62644 56.147 5.36309C56.2281 5.10366 56.315 4.63777 56.3402 4.3278C56.3654 4.01781 56.4609 3.08229 56.5524 2.24888C56.644 1.41544 56.7247 0.675082 56.7319 0.603613C56.7387 0.53211 56.737 0.0400038 56.7286 -0.49004C56.7117 -1.39131 56.7235 -1.46829 56.9071 -1.67838C57.1695 -1.97963 57.6339 -1.97258 57.757 -1.66492C57.8745 -1.37157 57.7638 -0.502926 57.5579 -0.0962873C57.4048 0.205387 57.3722 0.527145 57.2676 2.7623C57.1229 5.85559 57.0781 6.90975 57.0547 7.77686C57.0446 8.15197 56.9875 8.53014 56.9254 8.63344C56.8401 8.77544 56.8311 9.00302 56.8866 9.61292C56.9265 10.0499 56.9951 10.4582 57.039 10.5201C57.145 10.6693 57.6322 10.6875 57.8413 10.55C57.9855 10.4553 57.9961 10.402 57.9211 10.1492C57.7398 9.53877 57.9387 8.94637 58.2753 9.0938C58.3752 9.13754 58.3936 9.23125 58.3478 9.46349C58.1421 10.5085 58.1261 10.6847 58.2251 10.8158C58.2816 10.8905 58.4058 10.9554 58.5012 10.9599C58.7477 10.9717 59.5532 10.4856 59.5596 10.3213C59.5697 10.0746 59.4343 9.92956 59.2575 9.99577C58.9379 10.1156 58.6968 10.1092 58.7029 9.98063C58.7063 9.90879 58.8344 9.83982 59.0085 9.81576C59.3107 9.7742 59.4182 9.65306 59.4334 9.33707C59.4385 9.24219 59.546 9.04129 59.6736 8.89046C59.8214 8.71552 59.9108 8.50324 59.9204 8.30414C59.9393 7.91174 60.4076 6.64786 60.65 6.335C60.795 6.14776 60.8883 6.10764 61.1053 6.13913C61.4515 6.18944 61.5028 6.49139 61.2231 6.8325C61.1164 6.96255 61.024 7.17595 61.0177 7.30667C61.011 7.4374 60.9004 7.68175 60.7711 7.84971C60.6304 8.03257 60.4886 8.37687 60.4178 8.70795C60.3527 9.01203 60.255 9.34169 60.2008 9.44051C59.9838 9.83519 60.2724 10.1696 60.8563 10.2001C61.0123 10.2085 61.1441 10.2445 61.1494 10.2807C61.1965 10.6051 61.132 11.3146 61.051 11.3609C60.9817 11.4004 60.9944 11.4661 61.0919 11.573C61.2107 11.7032 61.2562 11.7104 61.3781 11.6192C61.4578 11.5595 61.5153 11.4286 61.5058 11.3282C61.494 11.1988 61.5667 11.1113 61.7565 11.0279C61.9907 10.9249 62.0254 10.8662 62.0314 10.5623C62.0348 10.371 62.0162 10.0689 61.9877 9.89107C61.9473 9.63345 61.9792 9.50698 62.1431 9.2688L62.3492 8.96987L62.9167 9.31024C63.2289 9.49746 63.5037 9.68476 63.5274 9.7265C63.5513 9.76822 63.8631 9.82762 64.2206 9.8584C64.78 9.90669 64.9103 9.88903 65.1564 9.73138C65.3137 9.63061 65.6425 9.52031 65.8871 9.48614C66.5624 9.39175 67.2001 9.06474 67.7226 8.54486C67.982 8.28671 68.4733 7.81527 68.8144 7.4972L69.4345 6.91891L69.2199 6.79357C68.7538 6.52136 69.0587 6.05392 69.8208 5.8723C70.5864 5.68986 71.0889 5.34089 71.6165 4.62537C71.8734 4.27699 72.1612 3.81153 72.2561 3.59102C72.4738 3.08493 72.6961 2.89531 72.9735 2.97889C73.0887 3.01355 73.1995 3.09212 73.2198 3.15351C73.2401 3.21475 73.0907 3.57036 72.8879 3.94355C72.685 4.31674 72.5146 4.68936 72.5093 4.77162C72.5042 4.85389 72.4043 5.09459 72.2879 5.30657C72.114 5.62327 72.0159 5.70513 71.7377 5.76563C71.4813 5.82132 71.3607 5.91032 71.2411 6.1321C71.1542 6.2931 71.0491 6.42331 71.0076 6.42132C70.966 6.41964 70.8668 6.54195 70.7871 6.69367C70.5356 7.17235 70.1295 7.83241 69.999 7.97447C69.9096 8.07188 69.8811 8.25527 69.8998 8.6114L69.9262 9.11153L69.7619 8.86543C69.6002 8.62315 69.5933 8.62133 69.3137 8.74884C69.1576 8.82001 68.7105 8.97188 68.3203 9.08616C67.6975 9.26855 67.5479 9.3553 67.0958 9.79634L66.5808 10.2987L66.7079 10.7629C66.8328 11.219 66.8414 11.2278 67.2075 11.2721C67.5381 11.3122 67.5735 11.2992 67.5226 11.1565C67.3287 10.6138 67.467 10.5034 67.7092 11.0075C67.7915 11.179 67.8989 11.3247 67.9477 11.3314C68.3144 11.3816 69.1412 11.3696 69.595 11.3079C69.8949 11.267 70.1996 11.2285 70.272 11.2222C70.3445 11.2155 70.4638 11.1891 70.5372 11.1622C70.784 11.072 71.7108 10.9811 72.1625 11.0027C72.4087 11.0145 72.8253 10.9976 73.0882 10.9648C73.3511 10.9322 73.7599 10.891 73.9969 10.8733C74.2338 10.8556 74.493 10.8102 74.573 10.7724C74.6529 10.7345 74.8752 10.6892 75.0668 10.6718C78.816 10.3295 78.7556 10.3322 78.9107 10.5022C78.9837 10.5821 79.114 10.6282 79.2017 10.605C79.2891 10.5819 79.6357 10.538 79.9718 10.5074C81.0895 10.4058 81.2852 10.3767 81.3953 10.2957C81.4555 10.2516 81.5349 10.2358 81.5719 10.2607C81.6089 10.2856 81.955 10.2838 82.341 10.2574C82.727 10.2301 83.2597 10.1993 83.5247 10.1889C83.7897 10.1788 84.1347 10.1357 84.2914 10.0942C84.448 10.0526 84.8274 10.0418 85.1345 10.0703C85.4796 10.1022 85.7435 10.0837 85.8255 10.0228C85.8983 9.96832 85.9774 9.94476 86.0012 9.97084C86.0248 9.99692 86.1599 9.98094 86.3009 9.93383C86.442 9.88739 87.1462 9.85947 87.8657 9.87158C88.9263 9.88941 89.2057 9.86821 89.3421 9.75599C89.5335 9.59953 90.6038 9.58082 90.9429 9.72807C91.0532 9.77602 91.1652 9.78342 91.1919 9.74489C91.2187 9.7062 91.5662 9.66717 91.9643 9.65808C92.3624 9.64967 92.9049 9.63402 93.1698 9.6246C93.4348 9.6145 94.2219 9.61114 94.9189 9.61619C95.616 9.62124 96.462 9.61955 96.799 9.61114C97.136 9.60441 97.9819 9.60441 98.6787 9.61451C99.3756 9.62292 100.104 9.61955 100.297 9.60777C100.49 9.59431 101.501 9.60273 102.544 9.62712C103.587 9.65084 104.858 9.65101 105.369 9.62712C105.879 9.6034 106.328 9.60542 106.366 9.63049C106.542 9.75078 113.24 9.96532 115.059 9.90893C115.781 9.88655 116.548 9.88538 116.764 9.90725C117.71 9.99995 118.122 9.9981 119.693 9.89547C120.61 9.83524 121.947 9.7883 122.663 9.79099C123.955 9.79604 123.966 9.79772 123.91 9.9748C123.87 10.1037 123.889 10.1425 123.977 10.1134C124.045 10.0912 124.098 10.1168 124.096 10.1708C124.092 10.2293 124.172 10.2524 124.293 10.2282C124.593 10.1683 124.961 10.3567 124.951 10.5653C124.942 10.7281 124.999 10.7442 125.706 10.7826C126.706 10.8369 127.209 10.9165 127.347 11.0422C127.556 11.2322 130.148 11.4834 131.989 11.4919C132.109 11.4927 132.343 11.5296 132.509 11.5743C132.675 11.6191 133.134 11.6694 133.529 11.6859C133.923 11.7027 134.262 11.7444 134.281 11.7789C134.328 11.864 135.581 11.8827 136.127 11.8065C136.39 11.7696 136.688 11.7818 136.868 11.8366C137.034 11.8871 137.34 11.9576 137.547 11.9932C137.755 12.0291 137.96 12.0822 138.002 12.1115C138.045 12.1408 138.677 12.2084 139.407 12.2619C140.774 12.3622 141.385 12.4544 141.38 12.5598C141.379 12.5931 141.253 12.6853 141.102 12.765C140.752 12.9486 140.812 13.0105 141.343 13.0171C141.656 13.0205 141.816 13.0701 141.96 13.2069C142.137 13.3751 142.269 13.3961 143.471 13.4456C144.196 13.4754 144.885 13.4779 145.003 13.4506C145.532 13.3303 146.138 13.631 146.163 14.026C146.174 14.2209 146.149 14.2329 145.816 14.1942C145.456 14.1525 145.14 14.2533 145.25 14.3744C145.283 14.4097 145.613 14.4656 145.985 14.4982C147.045 14.5914 147.909 14.6994 148.615 14.8267C148.973 14.8912 149.574 14.9598 149.951 14.9793C150.579 15.0118 150.651 14.9975 150.818 14.8059C151.026 14.5673 151.461 14.539 151.57 14.7569C151.646 14.9092 151.914 14.9472 152.655 14.9113C152.949 14.8979 153.157 14.9214 153.155 14.9694C153.153 15.0146 153.257 15.1045 153.386 15.1689C153.515 15.2333 153.658 15.3354 153.703 15.3958C153.805 15.5319 156.874 16.1098 157.61 16.1315C157.831 16.1382 158.008 16.1948 158.072 16.2794C158.159 16.3951 158.132 16.439 157.898 16.5573C157.745 16.6345 157.618 16.727 157.616 16.7628C157.614 16.7986 157.504 16.8256 157.372 16.8225C157.137 16.8175 156.692 16.9386 156.863 16.9613C156.91 16.9681 156.89 17.0064 156.818 17.0473C156.592 17.1747 157.12 17.354 157.907 17.4173C158.765 17.4863 159.023 17.6027 158.854 17.845C158.687 18.0851 158.824 18.1845 159.515 18.3229C160.118 18.4435 160.488 18.6551 160.225 18.7283C160.155 18.7476 159.607 18.7547 159.006 18.7434C157.964 18.7249 157.463 18.8168 157.297 19.0571C157.2 19.1989 157.391 19.356 157.739 19.4194C158.178 19.4995 158.207 19.5423 158.029 19.8467C157.953 19.9779 157.898 20.1367 157.907 20.1997C157.918 20.2628 157.844 20.3687 157.744 20.4352C157.626 20.5141 157.592 20.5856 157.647 20.6407C157.759 20.7549 158.694 20.976 158.849 20.9251C158.973 20.8842 159.232 21.131 159.46 21.5071C159.528 21.618 159.627 21.7104 159.682 21.7122C159.736 21.7139 159.724 21.676 159.655 21.6276C159.571 21.569 159.718 21.5593 160.094 21.5985C160.404 21.6308 160.805 21.6678 160.985 21.6808C161.165 21.6942 161.31 21.7433 161.307 21.7911C161.305 21.8443 160.892 21.8583 160.243 21.8273L159.183 21.7767L158.834 22.1082C158.642 22.2905 158.415 22.4366 158.329 22.4329C158.243 22.4296 158.123 22.5214 158.062 22.6377C157.961 22.8295 157.969 22.8502 158.146 22.8587C158.253 22.8637 158.367 22.897 158.4 22.9325C158.432 22.968 158.624 22.9936 158.827 22.9896C159.1 22.9845 159.169 23.0064 159.094 23.0757C159.039 23.1275 158.532 23.1745 157.96 23.1807C156.103 23.2011 156.785 23.4846 159.145 23.6735C159.431 23.6964 159.628 23.748 159.597 23.7924C159.567 23.8355 159.588 23.9013 159.642 23.9386C159.704 23.9809 159.72 23.9676 159.684 23.9031C159.599 23.7507 159.864 23.7877 160.011 23.9489C160.158 24.1102 160.27 24.1346 160.188 23.9874C160.151 23.9215 160.168 23.9097 160.233 23.9546C160.291 23.9941 160.414 23.9613 160.513 23.8809C160.681 23.743 160.696 23.7457 160.854 23.9455C160.944 24.0603 161.02 24.1273 161.021 24.0944C161.023 24.0616 161.099 24.0793 161.191 24.1338C161.282 24.1883 161.878 24.2766 162.515 24.3301C164.735 24.5165 167.796 24.8863 168.147 25.0107C168.218 25.0358 168.392 25.093 168.534 25.1379C168.802 25.2223 169.005 25.3605 169 25.4558C168.997 25.5131 168.539 25.6607 168.043 25.7642C167.69 25.8379 166.205 25.8008 162.631 25.6285C161.132 25.5563 159.915 25.5068 159.926 25.5188C160.004 25.6027 161.451 25.9041 162.005 25.9517C162.774 26.0178 162.933 26.0941 162.443 26.1615C162.201 26.1948 158.112 25.9437 157.622 25.8653C157.593 25.8603 157.283 25.848 156.931 25.8369C156.356 25.8187 156.305 25.8302 156.42 25.9569C156.578 26.1304 157.399 26.2343 159.644 26.3649C161.586 26.4778 161.487 26.4637 161.544 26.6362C161.618 26.8606 161.286 26.9016 159.576 26.8796C157.032 26.847 156.801 26.883 157.209 27.2451C157.359 27.3784 157.37 27.4332 157.279 27.5852C157.179 27.7512 157.197 27.7749 157.494 27.8686C158.477 28.1788 159.32 28.2916 161.748 28.4378L162.464 28.4808L162.966 29.0181C163.254 29.3259 163.465 29.6305 163.46 29.7313C163.449 29.959 163.497 29.9735 164.58 30.0733C165.083 30.1196 165.737 30.2188 166.034 30.2937C166.967 30.5289 166.695 30.6379 165.165 30.6425C164.612 30.6442 164.079 30.6748 163.981 30.7105C163.883 30.7462 163.562 30.8402 163.267 30.9194C162.653 31.0839 161.705 31.039 158.256 30.6818C155.832 30.4308 154.103 30.3494 153.959 30.4797C153.765 30.6554 154.033 30.7943 154.686 30.8566C155.454 30.9299 155.543 30.9604 155.469 31.1269C155.438 31.1987 155.378 31.2342 155.336 31.2058C155.294 31.1773 155.257 31.2142 155.254 31.2867C155.25 31.369 155.199 31.3981 155.119 31.3631C155.048 31.3321 154.988 31.3496 154.986 31.403C154.983 31.4558 154.903 31.4953 154.807 31.4908C154.711 31.4857 154.63 31.528 154.627 31.5838C154.624 31.6395 154.65 31.6607 154.683 31.6308C154.716 31.6008 154.784 31.6123 154.835 31.6563C154.885 31.7002 155.006 31.7085 155.104 31.6745C155.227 31.6318 155.242 31.6067 155.152 31.5931C155.08 31.583 155.138 31.5446 155.279 31.5098C155.655 31.4171 155.735 31.5281 155.443 31.7379L155.189 31.9203L155.394 32.0419C155.506 32.1089 155.659 32.2474 155.735 32.3498C155.831 32.4805 156.011 32.5567 156.338 32.6053C156.595 32.6433 156.803 32.7128 156.8 32.7597C156.795 32.8714 155.458 32.999 154.736 32.9566C153.911 32.9081 153.846 32.9133 153.908 33.0245C153.975 33.145 153.781 33.2667 153.538 33.2569C153.44 33.2535 153.202 33.3205 153.009 33.4072C152.817 33.4936 152.533 33.5584 152.379 33.5512C151.694 33.5184 151.645 33.7159 152.284 33.9346C152.545 34.0236 152.756 34.1367 152.753 34.1859C152.752 34.2352 152.789 34.2532 152.839 34.226C152.888 34.1987 152.926 34.2226 152.924 34.2791C152.92 34.3538 152.951 34.3575 153.037 34.2926C153.126 34.2263 153.185 34.2482 153.27 34.3792C153.333 34.4756 153.622 34.646 153.912 34.7576C154.296 34.9055 154.463 35.021 154.528 35.1827C154.631 35.4392 154.619 35.4455 153.958 35.493C151.995 35.6342 151.89 35.6731 152.64 35.985C153.007 36.138 153.434 36.2196 154.269 36.2965C155.995 36.4553 156.67 36.5362 156.755 36.5938C156.797 36.6228 156.828 36.7259 156.823 36.8231C156.818 36.9267 156.886 37.022 156.987 37.0535C157.223 37.1272 157.194 37.3015 156.929 37.4068C156.713 37.4926 153.13 37.303 152.434 37.1688C152.268 37.1367 151.992 37.1353 151.822 37.1655L151.514 37.2208L151.927 37.3054C152.154 37.3519 152.615 37.4176 152.951 37.4513C153.929 37.5494 154.537 37.6741 154.652 37.8C154.804 37.9664 154.794 37.9778 154.408 38.0845C154.213 38.1385 154.076 38.2253 154.095 38.2831C154.117 38.3479 154.007 38.3876 153.799 38.3906C153.617 38.394 153.388 38.4175 153.291 38.4445C153.11 38.4946 153.032 38.5069 152.814 38.5197C152.745 38.523 152.718 38.5577 152.752 38.5952C152.786 38.6327 153.202 38.6859 153.676 38.7131C154.537 38.7628 154.801 38.8578 154.789 39.1136C154.777 39.349 154.298 39.4232 152.917 39.4031C152.678 39.3998 152.73 39.5187 153.052 39.7115C153.298 39.8594 153.33 39.9134 153.251 40.0462C153.109 40.281 153.404 40.3749 154.592 40.4748C155.147 40.5214 155.627 40.5886 155.66 40.6237C155.692 40.659 155.639 40.7396 155.543 40.8028C155.402 40.8953 155.133 40.8955 154.166 40.8038C153.505 40.7411 152.963 40.714 152.961 40.7434C152.96 40.7729 153.017 40.9349 153.088 41.1034C153.234 41.4512 153.33 41.4862 154.493 41.6146C155.652 41.7426 155.883 41.8048 155.874 41.9857C155.869 42.0954 155.963 42.1706 156.183 42.2339C156.525 42.3317 156.674 42.5472 156.39 42.5337C156.296 42.5286 156.17 42.5788 156.111 42.644C156.015 42.7477 155.758 42.8059 155.088 42.8754C154.992 42.8855 154.436 42.8703 153.855 42.8427C152.865 42.7951 152.793 42.803 152.742 42.966C152.696 43.1126 152.616 43.1368 152.238 43.1188C151.762 43.0961 151.09 43.1918 150.765 43.3288C150.644 43.3799 150.412 43.3775 150.154 43.322C149.551 43.1937 147.871 43.113 147.51 43.195C147.178 43.2702 147.091 43.3185 146.715 43.6361C146.582 43.7485 146.425 43.8275 146.366 43.8117C146.284 43.7898 146.277 43.8403 146.337 44.0224C146.395 44.2 146.387 44.2779 146.304 44.3234C146.243 44.3572 146.168 44.368 146.138 44.3475C146.108 44.3269 146.03 44.3991 145.964 44.5081C145.796 44.788 145.944 45.0586 146.313 45.1461C146.546 45.2012 146.594 45.248 146.553 45.3789C146.525 45.4691 146.545 45.5448 146.599 45.5474C146.653 45.5507 146.693 45.5225 146.689 45.4865C146.656 45.183 146.715 45.1613 147.422 45.2147C147.811 45.2439 148.172 45.305 148.225 45.3501C148.357 45.4638 148.795 45.5566 148.799 45.4716C148.802 45.3974 149.84 45.4918 149.914 45.5729C150.004 45.6716 149.859 45.6931 149.224 45.6757C148.865 45.6656 148.343 45.7069 148.063 45.7673C147.738 45.8377 147.439 45.8489 147.231 45.7986C147.053 45.7556 146.711 45.7135 146.471 45.7053C146.23 45.6968 145.664 45.6109 145.212 45.514C144.5 45.3612 144.194 45.327 143.668 45.3411C143.608 45.3428 143.556 45.3966 143.553 45.4609C143.548 45.5514 143.366 45.5659 142.741 45.5247C142.185 45.488 141.804 45.5095 141.511 45.5953C141.244 45.6732 140.788 45.7072 140.282 45.687L139.478 45.6549L139.911 45.8321C140.149 45.9295 140.525 46.0402 140.747 46.078C141.148 46.1465 141.748 46.433 141.495 46.4355C141.423 46.4362 140.986 46.4304 140.524 46.4237C140.001 46.4153 139.583 46.4553 139.414 46.5292C139.204 46.6212 139.039 46.6254 138.68 46.5486C138.424 46.494 137.471 46.3958 136.56 46.3304C135.65 46.2649 134.524 46.1695 134.059 46.1185C133.117 46.0151 132.817 46.0512 132.887 46.2605C132.927 46.3813 132.78 46.3827 131.607 46.2723C130.878 46.204 130.243 46.1219 130.196 46.0898C130.149 46.0577 129.206 45.9956 128.1 45.9519C126.995 45.9079 125.601 45.8055 125.004 45.7241C124.407 45.6426 123.566 45.5471 123.134 45.5119C122.703 45.4767 121.94 45.405 121.437 45.3529C118.516 45.0496 108.072 44.4869 104.824 44.4577C103.512 44.446 100.158 44.4281 96.3011 44.4125C95.6039 44.4091 94.993 44.4306 94.9436 44.4589C94.8941 44.4873 94.4804 44.499 94.0242 44.485C93.5681 44.4715 92.9974 44.4732 92.7561 44.49C92.5149 44.5072 91.674 44.5456 90.8875 44.575C89.773 44.6167 89.419 44.6603 89.2824 44.7719C89.1157 44.9082 89.0991 44.9073 88.9451 44.7546C88.7904 44.6011 88.6842 44.5978 86.6099 44.678C83.6858 44.7913 82.8118 44.8315 81.9823 44.8907C81.5962 44.9183 80.4913 44.9843 79.527 45.0373C75.2652 45.2714 73.1278 45.4559 71.6502 45.7174C71.2285 45.7921 70.9863 46.0578 71.2042 46.2067C71.3151 46.2824 71.3648 46.2794 72.4796 46.1276C73.0526 46.0496 73.8389 46.0422 75.3225 46.1007C77.0377 46.1683 77.4174 46.1603 77.642 46.0514C77.9404 45.9067 78.2816 45.8983 78.4711 46.0307C78.615 46.1313 78.5604 46.1557 78.0269 46.2289C77.4591 46.3068 77.3701 46.3159 76.5771 46.3763C75.79 46.4362 75.5218 46.5556 75.6056 46.8089C75.6335 46.8928 75.4444 46.9282 74.8717 46.9458C73.7791 46.9795 72.4922 47.1185 72.0758 47.2476C71.8806 47.3082 71.6369 47.3555 71.5343 47.3526C71.3258 47.3475 68.6033 47.8581 67.9769 48.0205C67.7555 48.0779 67.3753 48.1724 67.1321 48.2305C65.9179 48.5203 65.7488 48.5791 65.7882 48.6983C65.841 48.8578 65.7073 48.923 65.2705 48.9512C65.0724 48.9646 64.8425 49.0058 64.7597 49.0445C64.6768 49.0831 64.4668 49.1078 64.293 49.0995C63.4335 49.0585 62.8352 49.3965 62.8091 49.9378C62.8024 50.0637 62.7042 50.2812 62.5895 50.4211C62.3988 50.6537 62.3503 50.6693 62.0202 50.6038C61.6535 50.5309 61.4088 50.6453 61.722 50.7431C61.9515 50.8147 61.9322 50.958 61.6864 51.0084C61.3762 51.072 60.9719 51.4538 61.0207 51.637C61.1412 52.0892 60.9898 52.6846 60.7569 52.6735C60.6706 52.6701 60.4673 52.2 60.4491 51.9624C60.4457 51.9143 60.3639 51.8712 60.2679 51.8667C60.1021 51.8583 60.1045 51.8802 60.3125 52.3028C60.468 52.6184 60.5853 52.7502 60.7171 52.7574C60.9543 52.7708 61.1196 52.9737 60.9889 53.0918C60.8171 53.2473 60.972 53.6421 61.2574 53.774L61.525 53.8978L61.0488 54.1081C60.7869 54.2239 60.5199 54.3159 60.4556 54.3128C60.3912 54.3095 60.2161 54.4003 60.0663 54.514C59.8422 54.6841 59.7355 54.7087 59.4627 54.6531C59.2372 54.6072 59.074 54.624 58.9519 54.7057C58.7854 54.8171 58.7821 54.8381 58.9059 54.9925C58.9792 55.0842 59.0609 55.2437 59.087 55.3471C59.1252 55.498 59.0904 55.5441 58.9072 55.5805C58.7822 55.6056 58.645 55.6023 58.6026 55.5738C58.5602 55.5449 58.4539 55.644 58.3666 55.7941C58.216 56.0526 58.2018 56.0581 58.0955 55.8979C58.0338 55.8048 57.9813 55.6676 57.9788 55.5928C57.9635 55.1275 57.9417 55.0241 57.8552 54.9907C57.802 54.9701 57.7641 54.8365 57.7711 54.6938C57.7778 54.5512 57.7332 54.3791 57.6715 54.3116C57.6098 54.2441 57.5454 53.9405 57.5282 53.6372C57.4964 53.0734 57.2291 52.3217 57.0361 52.2534C56.8438 52.1853 56.9063 52.5475 57.1044 52.6492C57.2836 52.7412 57.2714 52.7533 56.9208 52.8311C56.7142 52.8771 56.5434 52.9501 56.5413 52.9937C56.5397 53.0371 56.433 53.1746 56.3054 53.2992C56.1391 53.4616 56.0723 53.6138 56.07 53.8365C56.0683 54.0074 56.0364 54.2633 55.999 54.4051C55.921 54.7031 56.0041 54.8854 56.238 54.9311C56.3421 54.9515 56.4043 55.0401 56.4071 55.1728C56.4088 55.288 56.4455 55.5406 56.4867 55.7341C56.528 55.9275 56.5386 56.15 56.5102 56.2284C56.4818 56.3068 56.4984 56.3979 56.5466 56.4309C56.797 56.6021 56.0227 57.3222 55.6094 57.3025C55.346 57.2907 55.1522 57.0657 55.2758 56.9166C55.3234 56.8591 55.363 56.7532 55.3633 56.6814C55.3643 56.4936 55.0736 55.7971 54.9925 55.7933C54.9548 55.7916 54.8551 55.8846 54.7707 56.0003C54.6781 56.1273 54.535 56.2066 54.4093 56.2006C54.2839 56.1939 54.1988 56.2416 54.195 56.3189C54.1917 56.3894 54.0877 56.5064 53.9639 56.579C53.8267 56.6594 53.735 56.7926 53.7289 56.9207C53.712 57.2549 53.4698 57.2603 53.1968 56.9324C52.9238 56.6045 52.9035 56.461 53.1084 56.3076C53.2237 56.2213 53.3068 56.2246 53.549 56.3251C53.7809 56.4213 53.8767 56.4272 53.9781 56.3513C54.0905 56.2672 54.0864 56.2189 53.9482 56.0048C53.7944 55.7663 53.7705 55.7588 53.3679 55.8225C53.1369 55.859 52.8866 55.9367 52.8117 55.9952C52.7366 56.0537 52.5948 56.1106 52.4963 56.1218C52.3043 56.1437 51.8587 55.812 51.8664 55.653C51.8731 55.4968 51.68 55.5335 51.4458 55.7324C51.2312 55.9146 51.2255 55.9148 51.1118 55.7425C50.9039 55.4289 51.0641 54.6246 51.3938 54.3264C51.6062 54.1343 51.6378 54.0045 51.5217 53.8007C51.4083 53.6018 51.0022 53.9821 50.9129 54.3708C50.8738 54.5408 50.789 54.7362 50.7245 54.8049C50.5388 55.0025 50.2672 55.5942 50.2807 55.7717C50.2874 55.8607 50.2107 56.0136 50.1103 56.1117C49.8917 56.3252 49.6951 56.9002 49.6373 57.4948C49.5602 58.2887 49.4109 58.8743 49.2289 59.0972C49.0573 59.3073 49.0509 59.3775 49.094 60.5705C49.1364 61.7454 49.1263 61.8632 48.9306 62.4661C48.6169 63.4325 48.4857 64.2318 48.3562 65.9655C48.317 66.4912 48.245 67.1608 48.1965 67.4537C48.1479 67.7466 48.0912 68.3699 48.0702 68.8388C48.0494 69.3077 47.9561 69.9781 47.8632 70.3286C47.7342 70.8142 47.6982 71.1852 47.7118 71.8882C47.7219 72.3955 47.7219 73.2019 47.7152 73.6802C47.705 74.2343 47.7478 74.6944 47.8314 74.9479C47.9036 75.1668 47.9888 75.6298 48.0206 75.9768C48.0765 76.5872 48.0701 76.6197 47.82 76.9742C47.5076 77.4172 47.1752 77.5642 46.7131 77.4635C46.2953 77.3725 46.1593 77.2107 46.02 76.6386C45.8997 76.1447 45.9674 75.6928 46.2283 75.2481C46.4361 74.8939 46.5987 73.8805 46.7456 72.0236C46.8117 71.1889 46.9655 69.8058 47.0874 68.9498C47.3418 67.1634 47.3752 66.6989 47.3396 65.4461C47.3223 64.8431 47.3565 64.3646 47.4399 64.0145C47.5094 63.7252 47.5998 63.0398 47.641 62.4913C47.6822 61.9428 47.7523 61.3195 47.797 61.1062C47.8656 60.7781 47.851 60.687 47.7022 60.5142C47.4396 60.2094 47.2047 60.2474 46.7682 60.6654C46.3408 61.0747 46.3039 61.0868 46.072 60.8939C45.8506 60.7098 45.948 60.3246 46.4304 59.4759C46.6443 59.0997 46.8253 58.705 46.8328 58.5989C46.8395 58.4928 46.9279 58.2728 47.0278 58.11C47.4297 57.4549 47.5057 57.2481 47.53 56.7441C47.5505 56.3207 47.5284 56.219 47.415 56.2135C47.3088 56.2085 47.2906 56.1545 47.3399 55.9923C47.3832 55.8497 47.3681 55.773 47.2948 55.7633C47.2341 55.7549 47.1261 55.7372 47.0546 55.7233C46.9831 55.7098 46.8367 55.6868 46.7291 55.6735C46.5824 55.6553 46.5362 55.5949 46.544 55.4321C46.5508 55.2752 46.5077 55.2128 46.3852 55.2069C46.2921 55.2019 46.1915 55.1551 46.1618 55.1016C46.1229 55.0316 46.0798 55.0296 46.0084 55.0949C45.8068 55.2772 45.6696 55.1835 45.7121 54.8925C45.7453 54.6642 45.7898 54.6146 45.9489 54.6278C46.0968 54.6396 46.1472 54.5955 46.1544 54.446C46.1697 54.1134 46.027 53.3911 45.9098 53.2143C45.8026 53.0527 45.7898 53.0532 45.5243 53.2294C45.3732 53.3298 45.2336 53.4112 45.2141 53.4103C45.1693 53.4086 45.316 52.8121 45.409 52.6178C45.4474 52.5377 45.5549 52.452 45.6478 52.4274C45.7497 52.4005 45.8206 52.3033 45.8264 52.1824C45.8315 52.0722 45.8664 51.8611 45.9036 51.7132C45.9626 51.4787 45.9472 51.4433 45.7831 51.4355C45.6797 51.4304 45.5696 51.4841 45.5385 51.5544C45.5074 51.6247 45.3888 51.6779 45.2749 51.6724C45.0185 51.6606 44.9897 51.7566 44.8787 53.0002C44.8277 53.5726 44.7557 53.9619 44.6978 53.978C44.6414 53.9932 44.6078 53.8828 44.616 53.709L44.6296 53.4132L44.1586 53.3784C43.6284 53.3392 43.5952 53.3632 43.3343 53.9732C43.2037 54.2787 43.1176 54.7676 43.0302 55.6995C42.9281 56.7885 42.8725 57.0686 42.688 57.4243C42.5115 57.7648 42.465 57.9807 42.4536 58.5124C42.4384 59.2547 42.2964 59.6362 41.9222 59.9481C41.6845 60.1462 41.2948 60.9198 41.2802 61.2227C41.2769 61.3104 41.1785 61.5687 41.0634 61.7966C40.9483 62.0246 40.6804 62.7958 40.468 63.5104C40.2556 64.2249 40.0132 64.8977 39.9293 65.0055C39.8455 65.1133 39.7738 65.2612 39.7703 65.3341C39.7669 65.4071 39.6351 65.6839 39.4777 65.9493C39.115 66.5612 38.4986 68.1467 38.4792 68.5173C38.4708 68.6724 38.3521 69.0991 38.2149 69.4654C38.0777 69.8317 37.9597 70.2484 37.9528 70.3914C37.9461 70.5344 37.8776 70.7826 37.8011 70.9429C37.7245 71.1032 37.5757 71.6334 37.4703 72.1211C37.349 72.6828 37.1813 73.1788 37.0127 73.474C36.8562 73.7481 36.7142 74.1535 36.6678 74.4585C36.6143 74.8114 36.4636 75.2031 36.1962 75.685C35.8785 76.2577 35.7729 76.5606 35.6438 77.269C35.5561 77.7507 35.4774 78.2697 35.469 78.4224C35.4538 78.7061 35.0982 79.3795 34.8148 79.6627C34.4316 80.0457 33.9803 80.1053 33.5674 79.8274L33.5651 79.8294ZM15.3737 54.6762C15.2704 54.5707 15.162 54.5058 15.1331 54.532C15.0516 54.6057 15.2716 54.8541 15.4249 54.8615C15.5299 54.8665 15.518 54.8235 15.3737 54.6762L15.3737 54.6762ZM54.9566 54.9804C54.9617 54.8664 54.861 54.6747 54.7254 54.5424C54.593 54.413 54.468 54.2537 54.4477 54.1883C54.4195 54.0973 54.3715 54.0901 54.2425 54.1574C53.9635 54.3029 53.977 54.5707 54.2788 54.8807C54.6171 55.2282 54.9423 55.276 54.9565 54.9803L54.9566 54.9804ZM55.3676 53.2666C55.3507 53.2058 55.2525 53.1397 55.1492 53.1195C55.0088 53.0921 54.9731 53.1178 55.0074 53.2215C55.0618 53.3857 55.4128 53.4295 55.3675 53.2664L55.3676 53.2666ZM59.8375 51.674C59.8392 51.6262 59.773 51.5845 59.689 51.5811C59.5585 51.576 59.5546 51.5878 59.6631 51.6656C59.8227 51.7793 59.8325 51.7798 59.8376 51.674H59.8375ZM33.708 46.8566C33.7399 46.8103 33.7046 46.7695 33.6301 46.7659C33.5552 46.7626 33.4922 46.7986 33.4898 46.8463C33.4881 46.8941 33.5226 46.935 33.5677 46.937C33.6128 46.9387 33.6759 46.903 33.708 46.8566ZM63.9599 47.7792C64.3726 47.6981 64.7571 47.5767 64.8143 47.5096C64.8716 47.4424 64.9791 47.414 65.0532 47.4465C65.1274 47.4789 65.5458 47.4212 65.9831 47.3183C66.4205 47.2153 66.8388 47.134 66.9127 47.1375C66.9865 47.1409 67.337 47.066 67.6912 46.971C68.0455 46.8758 68.5536 46.7575 68.8205 46.7082C69.5641 46.5707 69.7077 46.5105 69.657 46.3576C69.5754 46.1109 68.8091 46.1967 67.2945 46.622C67.002 46.7041 66.2053 46.9074 65.524 47.0738C64.8428 47.2402 64.165 47.4254 64.0178 47.4854C63.8706 47.5455 63.5742 47.6363 63.359 47.6872C63.1437 47.7382 62.9477 47.8311 62.9233 47.8938C62.8932 47.9711 62.9318 47.9947 63.0443 47.9671C63.1353 47.9449 63.5473 47.8603 63.96 47.7791L63.9599 47.7792ZM136.604 45.5184C136.581 45.4762 136.276 45.4267 135.927 45.4085C135.433 45.3828 135.359 45.3934 135.594 45.456C136.024 45.5704 136.655 45.6094 136.604 45.5184ZM145.037 44.5752C145.114 44.4773 145.177 44.3698 145.179 44.3364C145.186 44.2032 144.551 44.0424 144.157 44.0774C143.522 44.1339 142.822 44.2586 142.82 44.3155C142.817 44.5063 143.025 44.6132 143.553 44.6907C144.437 44.8206 144.873 44.7866 145.037 44.5751L145.037 44.5752ZM25.378 37.863C25.5872 37.7413 25.7729 37.6131 25.7906 37.578C25.8543 37.452 25.9977 37.5272 26.2017 37.7935C26.3732 38.0174 26.4747 38.0677 26.7848 38.0825C27.1373 38.0993 27.2706 38.0137 27.2827 37.7625C27.2878 37.6558 26.6184 37.5217 25.8677 37.479C25.2796 37.4456 25.1627 37.4639 25.0307 37.6113C24.9464 37.7053 24.8048 37.806 24.7162 37.835C24.6276 37.864 24.5776 37.9282 24.6052 37.9779C24.6925 38.1348 24.9854 38.0914 25.378 37.8631L25.378 37.863ZM28.8022 37.7856C29.0928 37.5538 29.1382 37.4798 29.0562 37.3713C28.85 37.0982 27.9416 37.6808 28.1078 37.9795C28.1952 38.1367 28.4518 38.065 28.8022 37.7856ZM27.5343 37.0783C27.7008 37.0205 27.697 37.0085 27.4753 36.8925C27.2895 36.7952 27.2145 36.79 27.1274 36.8689C27.0404 36.9477 27.0436 36.9884 27.1427 37.0575C27.289 37.1598 27.2988 37.1603 27.5344 37.0783H27.5343ZM28.1117 36.8909C28.1218 36.6772 28.0292 36.4882 27.9111 36.4825C27.8486 36.4792 27.8072 36.5461 27.8192 36.6304C27.831 36.7147 27.8417 36.8328 27.8425 36.8927C27.8442 37.0443 28.1043 37.0424 28.1116 36.891L28.1117 36.8909ZM150.905 41.168C150.823 41.1421 150.685 41.1355 150.6 41.1528C150.515 41.1707 150.583 41.1919 150.751 41.1998C150.919 41.2082 150.988 41.193 150.906 41.1673L150.905 41.168ZM23.776 33.2726C23.8533 33.2472 23.9193 33.1691 23.9227 33.099C23.9278 33.0081 23.847 32.9743 23.6442 32.9817C23.1474 32.9995 22.9165 33.2844 23.381 33.3066C23.5211 33.3134 23.6988 33.2982 23.7761 33.2726L23.776 33.2726ZM29.1235 32.5584C29.1134 32.3698 29.1573 32.2654 29.2716 32.2083C29.4907 32.0988 29.3326 31.9255 29.0647 31.9817C28.8838 32.0198 28.5914 32.382 28.5818 32.58C28.5768 32.674 28.9259 32.8719 29.0499 32.8458C29.0986 32.8357 29.1317 32.7061 29.1236 32.5584H29.1235ZM22.8647 32.2472C22.8931 32.2062 22.8596 32.1214 22.7915 32.059C22.5691 31.8565 22.6717 31.6425 23.2357 31.1324L23.7895 30.6316L23.6583 30.3187C23.5863 30.1467 23.4887 30.004 23.4416 30.0018C23.2212 29.9917 22.8269 30.3569 22.7134 30.6771C22.637 30.893 22.5125 31.0554 22.3848 31.1061C22.0781 31.2279 21.8578 31.9591 22.0608 32.1815C22.1761 32.3079 22.7883 32.3579 22.8647 32.2471L22.8647 32.2472ZM153.722 38.1953C153.759 38.1112 153.723 38.0878 153.596 38.1144C153.46 38.1428 153.445 38.1702 153.532 38.2306C153.675 38.3307 153.661 38.3334 153.722 38.1953H153.722ZM21.4363 30.2634C21.4414 30.157 21.1999 30.0596 21.1412 30.1447C21.1152 30.1825 21.1177 30.2397 21.1463 30.2717C21.2254 30.3585 21.4315 30.3526 21.4358 30.2633L21.4363 30.2634ZM24.3047 29.8243C24.266 29.5456 24.2333 29.507 24.0667 29.543C23.9606 29.5661 23.8245 29.5831 23.7645 29.5809C23.5799 29.5742 23.6293 29.8691 23.8577 30.1393C24.0509 30.3677 24.0899 30.3823 24.2122 30.2717C24.312 30.1815 24.3373 30.0587 24.3049 29.8243L24.3047 29.8243ZM22.2435 28.0296C22.2452 27.9818 22.1888 27.9399 22.1168 27.9365C22.0448 27.9332 21.984 27.9693 21.9818 28.0171C21.9801 28.0649 22.0365 28.1068 22.1085 28.1101C22.1805 28.1135 22.2412 28.0773 22.2435 28.0296ZM23.0951 28.0486C23.0598 27.9236 22.919 27.9305 22.8687 28.0587C22.8505 28.1056 22.9008 28.1473 22.9808 28.151C23.0607 28.1544 23.1121 28.1083 23.095 28.0477L23.0951 28.0486ZM24.9785 27.2486C25.0202 27.0793 24.8718 26.94 24.6356 26.9267C24.4643 26.9166 24.4157 27.1734 24.5591 27.3305C24.6909 27.4751 24.9343 27.4274 24.9784 27.2486L24.9785 27.2486ZM25.8828 26.245C25.9139 26.1747 26.0094 26.1205 26.0951 26.1246C26.2535 26.1313 26.3974 25.9378 26.3069 25.8386C26.2795 25.8086 26.1094 25.7771 25.9287 25.7684C25.6773 25.7566 25.5892 25.7115 25.5534 25.5772C25.5277 25.4806 25.5277 25.371 25.5535 25.3336C25.5792 25.2963 25.5704 25.2108 25.5326 25.1437C25.4766 25.043 25.4379 25.0457 25.3128 25.1588C25.2291 25.2343 25.1047 25.2936 25.0362 25.2902C24.9676 25.2868 24.9096 25.3233 24.9074 25.3711C24.9057 25.4189 24.9424 25.4598 24.9904 25.4621C25.1126 25.4672 25.0813 25.845 24.9486 25.965C24.8633 26.0422 24.8611 26.0885 24.9385 26.1734C25.0161 26.2584 25.0625 26.2606 25.1479 26.1835C25.3005 26.0456 25.5683 26.073 25.621 26.2323C25.6452 26.3053 25.7013 26.3667 25.7456 26.3687C25.7899 26.3704 25.8517 26.3151 25.8826 26.2448L25.8828 26.245ZM27.2925 24.7931C27.4049 24.7297 27.4015 24.692 27.2697 24.5322C27.0026 24.2085 26.6854 24.3286 26.8824 24.6789C26.9948 24.8788 27.0925 24.906 27.2925 24.7932L27.2925 24.7931ZM31.7377 24.1068C31.8242 24.0286 32.0002 23.9691 32.1288 23.9744C32.5683 23.9931 32.7673 23.8982 32.9483 23.5833C33.0886 23.3391 33.1156 23.1969 33.0705 22.9405C33.0019 22.5514 33.0228 22.5761 32.6965 22.4995C32.487 22.4504 32.4028 22.4802 32.2588 22.6545C32.1487 22.7877 32.1291 22.8458 32.2077 22.8062C32.2997 22.76 32.2949 22.7808 32.1908 22.8814C32.0144 23.0517 31.7562 22.9597 31.7673 22.7304C31.7723 22.64 31.7333 22.564 31.6821 22.5615C31.5239 22.5548 30.9671 22.9771 31.0171 23.067C31.0431 23.1136 31.0086 23.27 30.9398 23.4144C30.8242 23.6584 30.8312 23.6919 31.039 23.8879C31.1621 24.0038 31.2243 24.12 31.1774 24.1458C31.1306 24.1717 31.1104 24.2474 31.1325 24.3141C31.1786 24.4536 31.4614 24.3567 31.7377 24.1068L31.7377 24.1068ZM32.508 21.6721C32.6587 21.7096 32.8218 21.6889 32.9248 21.6184C33.1876 21.4394 33.6633 21.4948 33.8928 21.731C34.0774 21.921 34.0984 21.9252 34.1842 21.7885C34.2351 21.7074 34.3322 21.6438 34.4001 21.647C34.5326 21.6538 34.7166 21.4032 34.7262 21.2036C34.7347 21.0177 33.5162 20.3862 33.1109 20.3668C32.8332 20.3534 32.7546 20.3865 32.6972 20.5406C32.6582 20.6453 32.429 20.9028 32.1877 21.113C31.8573 21.401 31.7587 21.5408 31.7882 21.6798C31.825 21.8536 31.8399 21.8569 32.0439 21.7374C32.1789 21.6581 32.3535 21.6337 32.508 21.6721V21.6721ZM28.8686 19.015C29.0215 18.8768 29.0273 18.4443 28.8787 18.281C28.6812 18.0645 28.2909 18.1368 28.1796 18.4107C28.0166 18.8123 28.5634 19.2916 28.8692 19.0151L28.8686 19.015ZM35.1756 18.8128C35.2498 18.8161 35.2851 18.7315 35.2745 18.5769C35.261 18.3921 35.1888 18.3087 34.9578 18.2149C34.7927 18.148 34.5754 18.0886 34.4748 18.083C34.3743 18.078 34.1757 18.0081 34.0336 17.9287C33.6823 17.7328 33.4908 17.8116 33.4741 18.159C33.4589 18.4777 33.7423 18.7133 34.0607 18.6464C34.1633 18.6249 34.3506 18.6686 34.4771 18.7435C34.6037 18.8185 34.7866 18.8636 34.8837 18.8441C34.9809 18.8244 35.1122 18.8103 35.1757 18.8126L35.1756 18.8128ZM160.677 23.9328C160.679 23.8821 160.641 23.8631 160.591 23.8904C160.542 23.9176 160.501 23.9572 160.5 23.9782C160.499 23.9992 160.537 24.0184 160.585 24.0206C160.633 24.0223 160.674 23.9834 160.677 23.9328ZM35.8099 16.246C35.7345 16.1545 35.6745 16.0241 35.6767 15.9562C35.6852 15.7065 35.0096 15.0452 34.8728 15.1689C34.7531 15.2773 34.9304 15.6995 35.2212 15.9988C35.6557 16.446 36.1441 16.651 35.8099 16.246ZM45.562 13.106C45.5051 12.7608 45.4338 12.6504 44.6527 11.6996C44.2793 11.2452 44.0802 11.2426 44.2079 11.6946C44.2522 11.8512 44.3576 12.0636 44.4422 12.1665C44.5267 12.2693 44.5947 12.3901 44.593 12.4348C44.5879 12.5847 45.3127 13.3775 45.4618 13.3847C45.5821 13.3897 45.6005 13.3397 45.562 13.1066L45.562 13.106ZM43.7728 13.0641C43.7762 12.9804 43.6734 12.672 43.5455 12.3786C43.4176 12.0852 43.3159 11.7627 43.3197 11.6618C43.3231 11.5609 43.2359 11.3305 43.1249 11.1496C43.014 10.9688 42.8686 10.7021 42.8019 10.5571C42.626 10.1746 42.2923 9.9523 42.0754 10.0731C41.9821 10.1251 41.8463 10.1648 41.7737 10.1613C41.7011 10.1579 41.6409 10.1731 41.6397 10.1943C41.6329 10.3331 41.8655 10.7799 42.092 11.0635C42.2387 11.2472 42.3781 11.537 42.4019 11.7076C42.4341 11.9401 42.5892 12.1669 43.0205 12.6128C43.6204 13.2329 43.7637 13.3189 43.7727 13.0639L43.7728 13.0641ZM47.4355 13.3044C47.4372 13.2566 47.4005 13.2157 47.3525 13.2133C47.3045 13.2117 47.2634 13.2483 47.2611 13.2961C47.2594 13.3439 47.2961 13.3848 47.344 13.3871C47.392 13.3888 47.4331 13.3521 47.4355 13.3045V13.3044ZM66.0815 11.0298C66.1014 10.6152 65.9806 10.4193 65.7649 10.5169C65.6865 10.5524 65.4116 10.6202 65.1542 10.6676C64.7537 10.7412 64.6888 10.7805 64.7039 10.9402C64.7174 11.0864 64.8149 11.1516 65.1532 11.2417C65.3906 11.3049 65.6926 11.3658 65.8243 11.3771C66.0492 11.3963 66.0648 11.3754 66.0815 11.0299V11.0298ZM100.411 10.3569C100.594 10.3519 100.45 10.2148 100.243 10.198C100.112 10.1879 99.6518 10.1359 99.2215 10.0837C98.4145 9.98597 97.9509 10.0326 97.8785 10.2186C97.846 10.3021 98.1111 10.3292 99.0909 10.3421C99.7806 10.3505 100.374 10.3573 100.411 10.3573L100.411 10.3569ZM123.307 10.1414C123.309 10.1096 123.191 10.0951 123.046 10.1092C122.792 10.134 122.722 10.1998 122.827 10.3146C122.885 10.378 123.303 10.2273 123.307 10.1414ZM23.7755 65.6349C23.837 65.5094 24.0022 65.2556 24.1427 65.0708C24.2832 64.886 24.4924 64.4914 24.6075 64.1939C24.8276 63.6253 25.161 63.0903 25.5121 62.7425C25.6273 62.6282 25.7389 62.4606 25.7599 62.3699C25.7811 62.279 25.8461 62.1915 25.9046 62.1751C26.0209 62.1427 26.0004 62.2126 25.6101 63.1824C25.4872 63.4877 25.2691 63.8746 25.1255 64.0422C24.9819 64.2098 24.8632 64.3722 24.8617 64.4032C24.8602 64.4341 24.7855 64.5307 24.6957 64.6179C24.606 64.7051 24.4768 64.9421 24.4088 65.1446C24.2587 65.5913 24.0867 65.8027 23.8453 65.8372C23.6795 65.8609 23.6735 65.8439 23.7755 65.6349ZM26.1252 61.7708C26.1286 61.6991 26.173 61.6424 26.2239 61.6449C26.2748 61.6466 26.2905 61.6029 26.2589 61.5462C26.2232 61.4821 26.2386 61.4683 26.2995 61.5098C26.3694 61.5576 26.3692 61.6237 26.2988 61.7409C26.1807 61.9374 26.1167 61.9484 26.1253 61.7708L26.1252 61.7708ZM28.8193 56.6711C28.826 56.5317 29.0346 56.2954 29.1462 56.3008C29.2841 56.3075 29.3005 56.3889 29.2067 56.6012C29.1523 56.7243 28.8137 56.7855 28.8193 56.6712L28.8193 56.6711ZM64.9105 52.0422C64.6321 51.8276 64.6886 51.7319 65.0827 51.7507C65.4556 51.7686 65.643 51.9858 65.4027 52.1217C65.224 52.2228 65.1235 52.2065 64.9105 52.0422V52.0422ZM92.2021 46.0447C92.1202 45.9362 92.1445 45.8726 92.334 45.7013C92.5444 45.511 92.6328 45.4943 93.2682 45.5247C93.9032 45.5549 93.9693 45.5741 93.962 45.7257C93.9501 45.9737 93.7035 46.1541 93.389 46.145C93.2364 46.1399 92.9295 46.1462 92.7071 46.1568C92.4189 46.1719 92.2739 46.1389 92.2022 46.044L92.2021 46.0447ZM19.5451 27.9134C19.4304 27.8744 19.321 27.7879 19.3022 27.7211C19.2746 27.6235 19.3664 27.6146 19.7694 27.6755C20.254 27.7488 20.6482 27.9521 20.2764 27.9369C20.1827 27.9335 20.0269 27.9419 19.93 27.9571C19.8332 27.9722 19.6599 27.952 19.5451 27.9133V27.9134ZM18.918 27.6391C18.9791 27.6179 19.0772 27.6223 19.1361 27.6492C19.1949 27.6761 19.1445 27.6934 19.0249 27.6877C18.9049 27.6827 18.8569 27.66 18.9179 27.6388L18.918 27.6391ZM32.1605 17.7836C32.1086 17.6268 32.2481 17.3851 32.3353 17.4808C32.3678 17.5164 32.3522 17.6295 32.2998 17.732C32.2245 17.8807 32.1962 17.8911 32.1606 17.7836L32.1605 17.7836ZM159.428 23.1294C159.458 23.102 159.533 23.1025 159.595 23.1306C159.663 23.1617 159.642 23.1812 159.54 23.1805C159.448 23.1797 159.397 23.157 159.428 23.1294H159.428ZM25.9598 9.52166C25.9133 9.38134 26.1001 9.15129 26.2545 9.15868C26.3944 9.16541 26.6784 9.51166 26.6013 9.58143C26.4842 9.68742 25.9997 9.64217 25.9598 9.52171V9.52166ZM152.956 14.5051C152.766 14.4607 152.316 14.4033 151.957 14.3774C151.231 14.3253 151.161 14.3024 151.233 14.1393C151.271 14.0537 151.474 14.0439 152.079 14.0989C152.517 14.1388 152.915 14.2019 152.964 14.2394C153.013 14.2768 153.195 14.3133 153.369 14.3207C153.572 14.3291 153.67 14.369 153.642 14.432C153.579 14.5734 153.352 14.5976 152.956 14.5052V14.5051ZM153.959 14.5643C153.721 14.4758 153.727 14.4691 154.074 14.4292C154.25 14.409 154.315 14.4376 154.31 14.5347C154.303 14.6804 154.276 14.6826 153.959 14.5645L153.959 14.5643ZM150.543 14.082C150.445 13.9748 150.489 13.8894 150.668 13.8423C150.856 13.7925 151.19 13.9508 151.184 14.0866C151.179 14.1805 150.629 14.1765 150.543 14.0816L150.543 14.082ZM52.146 0.86607C52.0904 0.792548 52.0291 0.50556 52.0098 0.228401C51.9904 -0.0487599 51.9441 -0.330564 51.9065 -0.397827C51.8692 -0.465124 51.8447 -0.936248 51.8521 -1.44486C51.8589 -1.95348 51.8219 -2.57761 51.7683 -2.83184C51.6887 -3.20983 51.6928 -3.32066 51.7906 -3.44008C51.8819 -3.55129 51.9336 -3.56088 52.0084 -3.48012C52.1109 -3.36959 52.3295 -2.20154 52.4167 -1.29877C52.4446 -1.01019 52.5286 -0.594903 52.6035 -0.375887C52.7911 0.173151 52.7622 0.745658 52.5393 0.892094C52.3218 1.03493 52.271 1.03157 52.1459 0.866019L52.146 0.86607Z" fill="black"/>
</svg>
