<svg width="294" height="294" viewBox="0 0 294 294" fill="none" xmlns="http://www.w3.org/2000/svg">
<path d="M145.953 79.3138C156.82 79.3138 165.629 70.201 165.629 58.9599C165.629 47.7188 156.82 38.6061 145.953 38.6061C135.087 38.6061 126.278 47.7188 126.278 58.9599C126.278 70.201 135.087 79.3138 145.953 79.3138Z" fill="#FF0001" stroke="black" stroke-width="2" stroke-miterlimit="10"/>
<path d="M126.391 83.9106L100.245 113.81C98.3067 115.815 97.2367 120.933 97.8787 124.488L100.321 138.865L103.254 156.08C103.808 158.593 105.268 160.469 107.609 161.719C108.642 162.279 109.8 162.565 110.97 162.578C112.418 162.604 113.815 162.539 115.074 162.305C117.151 161.849 118.7 160.508 119.77 158.32C120.374 157.083 120.676 155.729 120.726 154.348L120.903 149.452C120.928 148.827 120.903 148.202 120.827 147.59L119.165 133.395L118.372 124.97C118.335 124.501 118.347 124.032 118.41 123.577C118.41 123.485 118.41 123.394 118.41 123.303C118.423 122.313 118.763 121.35 119.329 120.542L126.051 110.932V151.093C126.051 151.614 125.988 152.121 125.85 152.616L105.834 228.406C104.727 235.985 106.476 240.868 110.568 242.418C115.502 244.879 120.135 243.642 123.911 239.657C125.12 238.394 125.976 236.818 126.454 235.112L146.494 165.026C146.557 164.818 146.834 164.831 146.885 165.026L155.08 196.124L167.554 236.623C168.864 240.699 172.313 242.913 176.593 243.564C177.814 243.746 179.06 243.733 180.269 243.499C185.178 242.548 187.456 239.631 187.91 232.755C188.023 231.076 187.847 229.396 187.419 227.768L167.844 153.593C167.655 152.877 167.554 152.134 167.554 151.392V111.14L173.911 119.982C174.251 120.464 174.528 120.998 174.705 121.571L174.868 122.092C175.007 122.509 175.07 122.938 175.07 123.381V127.093C175.07 127.444 175.044 127.783 175.007 128.134L172.791 147.837C172.741 148.293 172.716 148.762 172.728 149.23L172.904 155.65C173.395 159.479 175.41 161.589 178.544 162.409C178.922 162.513 179.299 162.565 179.677 162.591C183.642 162.891 186.311 162.201 188.375 159.544C189.433 158.177 190.1 156.549 190.402 154.83L195.576 124.306C195.664 123.811 195.702 123.316 195.689 122.821C195.676 121.845 195.614 120.894 195.513 120.008C195.198 117.495 194.141 115.151 192.517 113.25L167.756 84.2883C167.366 83.8195 166.787 83.559 166.195 83.559H127.121C126.869 83.559 126.592 83.6893 126.391 83.9106Z" fill="#FF0000" stroke="black" stroke-width="2" stroke-miterlimit="10"/>
<path d="M126.064 119.149L175.044 92.7398L177.398 95.5005L126.064 119.149Z" fill="black"/>
<path d="M126.064 113.51L169.052 86.1374L171.507 88.6117L126.064 113.51Z" fill="black"/>
<path d="M181.011 203.989L160.719 214.407L181.842 206.594L181.011 203.989Z" fill="black" stroke="black" stroke-width="0.25" stroke-miterlimit="10"/>
<path d="M182.27 210.5L161.978 220.918L183.101 213.105L182.27 210.5Z" fill="black" stroke="black" stroke-width="0.25" stroke-miterlimit="10"/>
<path d="M196.595 125.647L198.282 124.696C199.188 124.045 199.893 123.056 200.422 121.779L204.312 120.464C204.45 120.425 204.576 120.373 204.702 120.308L208.73 118.498C208.869 118.433 209.007 118.355 209.146 118.276C210.744 117.495 212.192 116.662 213.375 115.737C213.564 116.232 213.766 116.701 213.992 117.13C214.093 117.326 214.231 117.495 214.395 117.638C214.622 118.042 215.138 118.459 215.767 118.888C215.906 119.019 215.981 119.201 215.956 119.396L215.818 120.79C215.792 121.063 215.83 121.337 215.931 121.597L215.969 121.701C216.057 121.91 216.157 122.118 216.296 122.3L218.499 125.243C218.524 125.282 218.511 125.334 218.461 125.334L214.294 126.428L211.336 127.535L207.862 128.994C206.414 129.619 205.092 130.322 203.934 131.116C202.814 130.465 201.568 130.192 200.17 130.322L198.647 130.934L196.595 125.647Z" fill="#615C54"/>
<path d="M143.662 169.089C141.396 167.983 139.357 166.237 138.74 164.336C137.834 162.148 137.834 160.443 138.513 158.763C138.69 158.32 139.03 157.578 139.332 157.2C139.684 156.783 140.112 156.679 140.628 156.523C140.628 156.523 140.628 156.523 140.641 156.523L164.118 146.756L183.579 138.201L198.673 131.468C200.687 130.569 202.562 130.075 203.897 131.168L205.042 130.426L205.785 129.983C206.037 129.84 206.314 129.762 206.565 129.658L209.209 128.421L210.103 128.043L213.061 126.936L213.841 126.611L218.776 125.217C216.888 122.691 215.843 121.193 216.044 121.232C215.843 120.607 215.843 119.709 216.044 118.732C214.647 117.99 213.854 116.792 213.413 115.177C212.532 115.867 211.651 116.466 210.757 116.896C210.266 117.17 209.775 117.43 209.574 117.534C208.617 118.068 207.786 118.602 206.754 118.98L205.747 119.396C204.79 119.904 203.733 120.204 202.676 120.542L201.618 120.855L200.12 121.35C199.466 123.329 198.144 124.801 196.495 125.23L161.953 138.891L143.612 146.313L141.346 142.537L140.1 141.039C138.073 139.06 135.794 137.745 133.239 137.146C132.068 136.872 130.835 137.028 129.752 137.562C129.475 137.706 129.097 137.849 128.821 138.005C128.795 138.018 128.758 138.044 128.732 138.057C127.914 138.513 127.159 139.086 126.504 139.763L121.456 145.141C120.55 145.858 119.455 146.027 118.284 145.858C111.801 143.787 106.351 142.068 102.851 142.081C100.938 142.224 99.2885 142.615 97.4381 143.071L95.0211 144.087C94.1022 144.477 93.221 144.985 92.428 145.597L90.6782 146.952C89.8474 147.59 89.1047 148.345 88.4627 149.191L88.0221 149.777C87.3549 150.65 86.7633 151.587 86.2723 152.577C85.4541 154.192 84.7743 155.559 84.4596 157.356L84.3212 157.682C84.1323 158.789 83.9309 159.831 83.9057 160.95L83.868 161.51C83.8428 162.969 83.9939 164.649 84.2204 166.081L84.2456 166.472C84.4345 167.67 84.5603 168.803 84.9506 169.949L86.5619 173.725L86.9647 174.767L88.3494 178.635C89.0543 180.093 89.797 181.604 90.7915 182.867C91.6978 184.013 92.8056 185.406 93.8756 186.422C95.6002 187.828 97.5639 188.935 99.5277 189.86C101.366 190.576 103.115 190.863 104.966 191.084C107.685 191.618 110.945 191.032 114.067 189.691C117.944 187.933 121.117 184.846 123.571 180.992C126.58 175.692 128.77 171.459 129.903 171.186C131.174 170.118 133.113 170.379 136.789 170.457C137.066 170.457 137.544 170.444 137.821 170.431L139.621 170.353C140.188 170.313 141.018 170.157 141.547 169.949L143.662 169.089Z" fill="#0F0E0A"/>
<path d="M196.797 125.855L198.169 125.165C198.358 125.074 198.521 124.957 198.685 124.814C199.554 124.006 200.221 123.108 200.661 122.079C202.726 121.376 204.337 120.816 205.105 120.49L208.756 118.954C208.894 118.888 209.045 118.823 209.171 118.745L213.224 116.401L213.766 117.456C213.929 117.782 214.169 118.081 214.446 118.315L215.604 119.318L215.478 120.438C215.415 120.673 215.44 121.076 215.528 121.311C215.616 121.545 215.667 121.871 215.843 122.118C215.931 122.326 216.082 122.483 216.208 122.665L217.97 125.074L216.762 125.308L215.868 125.478C215.654 125.517 215.453 125.582 215.239 125.647L214.446 125.934L212.293 126.65C212.142 126.702 212.003 126.754 211.852 126.819L207.623 128.59L206.641 129.111L203.947 130.543C203.204 130.244 202.336 130.075 201.341 130.023C200.599 129.983 199.843 130.101 199.151 130.387L198.509 130.648L198.194 129.853C200.838 128.877 202.487 127.639 202.827 126.025C202.122 125.243 200.196 125.465 196.923 126.611L196.646 125.907L196.797 125.855Z" fill="#FF0000"/>
<path d="M138.941 157.512C137.771 159.336 137.532 161.354 138.048 163.555C138.753 166.172 140.314 167.995 142.668 169.037C141.698 169.415 140.805 169.727 140.226 169.792L132.207 169.949C131.124 169.91 129.991 170.352 128.795 171.212C128.015 171.993 127.335 172.853 126.781 173.816L123.697 179.833C122.816 181.317 121.859 182.659 120.84 183.857C118.536 186.305 116.081 188.141 113.438 189.248C108.893 191.253 104.185 191.175 99.3012 189.105C95.701 187.242 92.705 184.586 90.4391 180.979C88.3872 177.358 86.7004 173.478 85.4164 169.298C84.2205 164.258 84.2961 159.596 85.6682 155.299C87.7704 150.09 91.1944 146.47 96.0786 144.594C99.3893 143.11 102.864 142.81 106.464 143.474C109.183 144.087 111.915 144.881 114.684 145.831C117.34 146.678 119.203 146.938 120.16 146.509C122.124 146.027 123.76 143.214 125.736 141.274C127.436 139.62 128.909 138.747 129.979 138.292C131.036 137.823 132.106 137.627 133.176 137.823C136.008 138.474 138.274 140.063 140.15 142.315C141.346 143.722 142.265 145.115 142.97 146.522L138.941 157.512Z" fill="#FF2727" stroke="black" stroke-width="2" stroke-miterlimit="10"/>
<path d="M109.963 184.117C110.7 184.117 111.298 183.499 111.298 182.737C111.298 181.974 110.7 181.356 109.963 181.356C109.226 181.356 108.629 181.974 108.629 182.737C108.629 183.499 109.226 184.117 109.963 184.117Z" fill="url(#paint0_linear_9_1058)" stroke="black" stroke-width="0.25" stroke-miterlimit="10"/>
<path d="M115.766 181.278C116.503 181.278 117.101 180.66 117.101 179.898C117.101 179.136 116.503 178.518 115.766 178.518C115.03 178.518 114.432 179.136 114.432 179.898C114.432 180.66 115.03 181.278 115.766 181.278Z" fill="url(#paint1_linear_9_1058)" stroke="black" stroke-width="0.25" stroke-miterlimit="10"/>
<path d="M119.241 176.186C119.978 176.186 120.575 175.568 120.575 174.806C120.575 174.044 119.978 173.426 119.241 173.426C118.504 173.426 117.907 174.044 117.907 174.806C117.907 175.568 118.504 176.186 119.241 176.186Z" fill="url(#paint2_linear_9_1058)" stroke="black" stroke-width="0.25" stroke-miterlimit="10"/>
<path d="M132.081 151.158L196.595 125.647L198.735 131.103L135.14 158.958L132.081 151.158Z" fill="#241D1C"/>
<path d="M108.503 170.678L105.117 162.005L107.005 161.185L110.404 169.884L108.503 170.678Z" fill="url(#paint3_linear_9_1058)" stroke="black" stroke-width="0.5" stroke-miterlimit="10"/>
<path d="M105.117 162.005L104.412 160.208C104.752 159.192 105.381 158.919 106.313 159.414L107.005 161.198" fill="black"/>
<path d="M105.117 162.005L104.412 160.208C104.752 159.192 105.381 158.919 106.313 159.414L107.005 161.198" stroke="black" stroke-width="0.5" stroke-miterlimit="10"/>
<path d="M110.404 169.845L111.109 171.642C110.769 172.658 110.14 172.931 109.208 172.436L108.516 170.652" fill="black"/>
<path d="M110.404 169.845L111.109 171.642C110.769 172.658 110.14 172.931 109.208 172.436L108.516 170.652" stroke="black" stroke-width="0.5" stroke-miterlimit="10"/>
<path d="M110.706 171.303C110.87 171.72 110.681 172.189 110.278 172.358C109.875 172.527 109.422 172.332 109.258 171.915C109.12 171.564 109.233 171.173 109.523 170.965C109.573 170.926 109.636 170.886 109.699 170.86C110.089 170.691 110.542 170.886 110.706 171.303Z" fill="#D02900" stroke="#4D4D4D" stroke-width="0.25" stroke-miterlimit="10"/>
<path d="M109.535 170.939L110.442 172.293" stroke="#4D4D4D" stroke-width="0.25" stroke-miterlimit="10"/>
<path d="M106.401 160.299C106.564 160.716 106.376 161.185 105.973 161.354C105.57 161.523 105.117 161.328 104.953 160.911C104.815 160.56 104.928 160.169 105.218 159.961C105.268 159.922 105.331 159.883 105.394 159.857C105.771 159.687 106.237 159.883 106.401 160.299Z" fill="#D02900" stroke="#4D4D4D" stroke-width="0.25" stroke-miterlimit="10"/>
<path d="M105.218 159.935L106.136 161.289" stroke="#4D4D4D" stroke-width="0.25" stroke-miterlimit="10"/>
<path d="M110.14 159.205L114.495 168.985C115.376 169.35 115.968 169.011 116.132 168.165L111.675 158.437C110.794 157.825 110.265 158.02 110.14 159.205Z" fill="url(#paint4_linear_9_1058)" stroke="black" stroke-width="0.25" stroke-miterlimit="10"/>
<path d="M110.882 159.258C111.146 159.258 111.361 159.036 111.361 158.763C111.361 158.489 111.146 158.268 110.882 158.268C110.618 158.268 110.404 158.489 110.404 158.763C110.404 159.036 110.618 159.258 110.882 159.258Z" fill="black" stroke="#666666" stroke-width="0.25" stroke-miterlimit="10"/>
<path d="M115.175 168.907C115.439 168.907 115.653 168.685 115.653 168.412C115.653 168.139 115.439 167.917 115.175 167.917C114.911 167.917 114.696 168.139 114.696 168.412C114.696 168.685 114.911 168.907 115.175 168.907Z" fill="black" stroke="#4D4D4D" stroke-width="0.25" stroke-miterlimit="10"/>
<path d="M111.625 161.002L111.134 159.726L111.915 160.078L111.625 161.002Z" fill="black" stroke="black" stroke-width="0.25" stroke-miterlimit="10"/>
<path d="M112.343 162.161L111.94 161.146L112.682 161.367L112.343 162.161Z" fill="black" stroke="black" stroke-width="0.25" stroke-miterlimit="10"/>
<path d="M113.098 163.594L112.657 162.487L113.475 162.787L113.098 163.594Z" fill="black" stroke="black" stroke-width="0.25" stroke-miterlimit="10"/>
<path d="M112.947 164.05L113.501 165.118L113.727 164.375L112.947 164.05Z" fill="black" stroke="black" stroke-width="0.25" stroke-miterlimit="10"/>
<path d="M113.815 165.417L114.193 166.381L114.508 165.691L113.815 165.417Z" fill="black" stroke="black" stroke-width="0.25" stroke-miterlimit="10"/>
<path d="M114.659 166.745L115.024 167.683L115.339 167.136L114.659 166.745Z" fill="black" stroke="black" stroke-width="0.25" stroke-miterlimit="10"/>
<path d="M113.928 155.859L119.228 153.645C119.467 153.541 119.732 153.658 119.82 153.905L124.452 165.73C124.528 165.925 124.44 166.146 124.251 166.224L118.863 168.49C118.674 168.568 118.46 168.477 118.385 168.282L113.727 156.393C113.639 156.171 113.74 155.937 113.928 155.859Z" fill="#0F0E0A"/>
<path d="M115.25 157.2L119.077 155.598C119.329 155.494 119.618 155.611 119.732 155.872L123.231 164.349C123.345 164.61 123.219 164.922 122.967 165.026L118.951 166.706C118.7 166.81 118.423 166.68 118.322 166.433L114.973 157.89C114.86 157.617 114.986 157.304 115.25 157.2Z" fill="url(#paint5_linear_9_1058)" stroke="black" stroke-width="0.5" stroke-miterlimit="10"/>
<path d="M114.369 156.731C114.571 156.731 114.734 156.562 114.734 156.354C114.734 156.145 114.571 155.976 114.369 155.976C114.168 155.976 114.004 156.145 114.004 156.354C114.004 156.562 114.168 156.731 114.369 156.731Z" fill="#CB1300" stroke="#4D4D4D" stroke-width="0.25" stroke-miterlimit="10"/>
<path d="M119.367 154.504C119.568 154.504 119.732 154.335 119.732 154.127C119.732 153.918 119.568 153.749 119.367 153.749C119.165 153.749 119.002 153.918 119.002 154.127C119.002 154.335 119.165 154.504 119.367 154.504Z" fill="#CB1300" stroke="#4D4D4D" stroke-width="0.25" stroke-miterlimit="10"/>
<path d="M123.949 166.198C124.15 166.198 124.314 166.029 124.314 165.821C124.314 165.612 124.15 165.443 123.949 165.443C123.747 165.443 123.584 165.612 123.584 165.821C123.584 166.029 123.747 166.198 123.949 166.198Z" fill="#CB1300" stroke="#4D4D4D" stroke-width="0.25" stroke-miterlimit="10"/>
<path d="M118.901 168.308C119.102 168.308 119.266 168.139 119.266 167.93C119.266 167.722 119.102 167.553 118.901 167.553C118.699 167.553 118.536 167.722 118.536 167.93C118.536 168.139 118.699 168.308 118.901 168.308Z" fill="#CB1300" stroke="#4D4D4D" stroke-width="0.25" stroke-miterlimit="10"/>
<path d="M116.962 156.041C117.164 156.041 117.327 155.872 117.327 155.663C117.327 155.455 117.164 155.286 116.962 155.286C116.761 155.286 116.597 155.455 116.597 155.663C116.597 155.872 116.761 156.041 116.962 156.041Z" fill="#CB1300" stroke="#4D4D4D" stroke-width="0.25" stroke-miterlimit="10"/>
<path d="M121.23 166.928C121.431 166.928 121.595 166.759 121.595 166.55C121.595 166.341 121.431 166.172 121.23 166.172C121.028 166.172 120.865 166.341 120.865 166.55C120.865 166.759 121.028 166.928 121.23 166.928Z" fill="#CB1300" stroke="#4D4D4D" stroke-width="0.25" stroke-miterlimit="10"/>
<path d="M125.069 151.327L130.369 149.113C130.608 149.009 130.872 149.126 130.96 149.374L135.593 161.198C135.668 161.393 135.58 161.615 135.391 161.693L130.004 163.959C129.815 164.037 129.601 163.946 129.525 163.75L124.868 151.861C124.78 151.639 124.868 151.405 125.069 151.327Z" fill="#0F0E0A"/>
<path d="M125.497 152.199C125.699 152.199 125.862 152.03 125.862 151.822C125.862 151.613 125.699 151.444 125.497 151.444C125.296 151.444 125.132 151.613 125.132 151.822C125.132 152.03 125.296 152.199 125.497 152.199Z" fill="#CB1300" stroke="#4D4D4D" stroke-width="0.25" stroke-miterlimit="10"/>
<path d="M130.495 149.973C130.696 149.973 130.86 149.804 130.86 149.595C130.86 149.386 130.696 149.217 130.495 149.217C130.293 149.217 130.13 149.386 130.13 149.595C130.13 149.804 130.293 149.973 130.495 149.973Z" fill="#CB1300" stroke="#4D4D4D" stroke-width="0.25" stroke-miterlimit="10"/>
<path d="M135.077 161.667C135.279 161.667 135.442 161.498 135.442 161.289C135.442 161.08 135.279 160.911 135.077 160.911C134.875 160.911 134.712 161.08 134.712 161.289C134.712 161.498 134.875 161.667 135.077 161.667Z" fill="#CB1300" stroke="#4D4D4D" stroke-width="0.25" stroke-miterlimit="10"/>
<path d="M130.029 163.789C130.231 163.789 130.394 163.62 130.394 163.412C130.394 163.203 130.231 163.034 130.029 163.034C129.827 163.034 129.664 163.203 129.664 163.412C129.664 163.62 129.827 163.789 130.029 163.789Z" fill="#CB1300" stroke="#4D4D4D" stroke-width="0.25" stroke-miterlimit="10"/>
<path d="M128.103 151.509C128.305 151.509 128.468 151.34 128.468 151.132C128.468 150.923 128.305 150.754 128.103 150.754C127.901 150.754 127.738 150.923 127.738 151.132C127.738 151.34 127.901 151.509 128.103 151.509Z" fill="#CB1300" stroke="#4D4D4D" stroke-width="0.25" stroke-miterlimit="10"/>
<path d="M132.358 162.409C132.559 162.409 132.723 162.24 132.723 162.031C132.723 161.823 132.559 161.654 132.358 161.654C132.156 161.654 131.993 161.823 131.993 162.031C131.993 162.24 132.156 162.409 132.358 162.409Z" fill="#CB1300" stroke="#4D4D4D" stroke-width="0.25" stroke-miterlimit="10"/>
<path d="M126.454 152.499L130.281 150.897C130.533 150.793 130.822 150.91 130.935 151.171L134.435 159.648C134.548 159.909 134.422 160.221 134.171 160.325L130.155 162.005C129.903 162.109 129.626 161.979 129.525 161.732L126.177 153.189C126.064 152.929 126.19 152.616 126.454 152.499Z" fill="url(#paint6_linear_9_1058)" stroke="black" stroke-width="0.5" stroke-miterlimit="10"/>
<path d="M133.264 144.699C133.897 144.699 134.41 144.168 134.41 143.514C134.41 142.859 133.897 142.329 133.264 142.329C132.631 142.329 132.119 142.859 132.119 143.514C132.119 144.168 132.631 144.699 133.264 144.699Z" fill="black" stroke="#4D4D4D" stroke-width="0.25" stroke-miterlimit="10"/>
<path d="M133.264 143.956C133.501 143.956 133.692 143.758 133.692 143.514C133.692 143.269 133.501 143.071 133.264 143.071C133.028 143.071 132.836 143.269 132.836 143.514C132.836 143.758 133.028 143.956 133.264 143.956Z" fill="#CB1300" stroke="#4D4D4D" stroke-width="0.25" stroke-miterlimit="10"/>
<path d="M140.238 141.196L140.666 141.013C140.792 140.961 140.842 140.818 140.792 140.701L140.666 140.388C140.641 140.31 140.666 140.232 140.729 140.193L140.842 140.128C140.918 140.089 141.006 140.102 141.069 140.154L142.164 141.091C142.265 141.183 142.328 141.326 142.315 141.469L142.302 141.573C142.29 141.691 142.189 141.769 142.076 141.743L141.774 141.664C141.723 141.651 141.673 141.651 141.623 141.677L141.396 141.769C141.308 141.808 141.258 141.886 141.258 141.99V142.498L140.238 141.196Z" fill="url(#paint7_linear_9_1058)" stroke="black" stroke-width="0.25" stroke-miterlimit="10"/>
<path d="M86.8262 174.91L86.4234 175.08C86.3605 175.106 86.3227 175.184 86.3479 175.249L86.436 175.561C86.4612 175.64 86.3983 175.705 86.3227 175.692L86.008 175.6C85.9451 175.587 85.8947 175.535 85.8696 175.47L85.4038 174.285C85.3786 174.22 85.3786 174.142 85.4038 174.064L85.5297 173.751C85.5674 173.66 85.6933 173.66 85.7311 173.751L85.9199 174.142C85.9451 174.194 86.0206 174.22 86.0709 174.194L86.5619 173.934L86.927 174.858L86.8262 174.91Z" fill="url(#paint8_linear_9_1058)" stroke="black" stroke-width="0.25" stroke-miterlimit="10"/>
<path d="M201.782 120.933L201.492 120.204C201.48 120.165 201.454 120.126 201.429 120.086L200.246 118.537C200.183 118.446 200.183 118.328 200.258 118.25L200.51 117.951C200.611 117.821 200.749 117.729 200.9 117.664L201.366 117.469C201.542 117.391 201.731 117.365 201.908 117.391L202.197 117.43C202.298 117.443 202.373 117.534 202.373 117.638L202.398 119.774C202.398 119.839 202.411 119.904 202.436 119.956L202.713 120.672L201.782 120.933Z" fill="#FF1D25" stroke="black" stroke-width="0.25" stroke-miterlimit="10"/>
<path d="M213.942 126.715L214.282 127.418C214.307 127.457 214.332 127.496 214.357 127.535L215.654 128.981C215.729 129.059 215.729 129.176 215.667 129.267L215.44 129.593C215.339 129.723 215.213 129.84 215.075 129.905L214.622 130.14C214.458 130.231 214.269 130.27 214.08 130.257L213.791 130.244C213.69 130.244 213.602 130.153 213.589 130.049L213.388 127.926C213.388 127.861 213.363 127.796 213.338 127.744L212.998 127.053L213.942 126.715Z" fill="#FF1D25" stroke="black" stroke-width="0.25" stroke-miterlimit="10"/>
<path d="M205.797 119.513L205.508 118.784C205.495 118.745 205.47 118.706 205.445 118.667L204.262 117.117C204.199 117.026 204.199 116.909 204.274 116.831L204.526 116.531C204.627 116.401 204.765 116.31 204.916 116.245L205.382 116.05C205.558 115.971 205.747 115.945 205.923 115.971L206.213 116.01C206.314 116.024 206.389 116.115 206.389 116.219L206.414 118.354C206.414 118.42 206.427 118.485 206.452 118.537L206.691 119.136L205.797 119.513Z" fill="#FF1D25" stroke="black" stroke-width="0.25" stroke-miterlimit="10"/>
<path d="M210.09 128.225L210.38 128.955C210.392 128.994 210.417 129.033 210.442 129.072L211.638 130.608C211.701 130.687 211.701 130.817 211.638 130.895L211.387 131.195C211.286 131.325 211.147 131.416 210.996 131.481L210.531 131.689C210.354 131.767 210.166 131.794 209.989 131.767L209.7 131.741C209.599 131.728 209.524 131.637 209.524 131.533L209.473 129.397C209.473 129.332 209.461 129.267 209.435 129.215L209.196 128.616L210.09 128.225Z" fill="#FF1D25" stroke="black" stroke-width="0.25" stroke-miterlimit="10"/>
<path d="M209.624 117.638L209.423 117.143C209.41 117.104 209.385 117.065 209.36 117.026L208.177 115.477C208.114 115.385 208.114 115.268 208.189 115.19L208.441 114.891C208.542 114.76 208.68 114.669 208.831 114.604L209.297 114.409C209.473 114.331 209.662 114.305 209.838 114.331L210.128 114.37C210.228 114.383 210.304 114.474 210.304 114.578L210.329 116.714C210.329 116.779 210.342 116.844 210.367 116.896L210.468 117.156L209.624 117.638Z" fill="#FF1D25" stroke="black" stroke-width="0.25" stroke-miterlimit="10"/>
<path d="M206.188 130.153L206.376 130.661C206.389 130.7 206.414 130.739 206.439 130.778L207.61 132.341C207.673 132.432 207.673 132.549 207.597 132.627L207.346 132.926C207.232 133.057 207.107 133.148 206.955 133.213L206.49 133.408C206.313 133.473 206.125 133.499 205.948 133.473L205.672 133.434C205.571 133.421 205.495 133.33 205.495 133.226L205.483 131.09C205.483 131.025 205.47 130.96 205.445 130.908L205.344 130.648L206.188 130.153Z" fill="#FF1D25" stroke="black" stroke-width="0.25" stroke-miterlimit="10"/>
<path d="M203.028 123.433C203.563 123.433 203.997 122.984 203.997 122.43C203.997 121.877 203.563 121.428 203.028 121.428C202.493 121.428 202.059 121.877 202.059 122.43C202.059 122.984 202.493 123.433 203.028 123.433Z" fill="#E4290B" stroke="black" stroke-width="0.25" stroke-miterlimit="10"/>
<path d="M207.031 122.027C207.566 122.027 208 121.578 208 121.024C208 120.47 207.566 120.021 207.031 120.021C206.496 120.021 206.062 120.47 206.062 121.024C206.062 121.578 206.496 122.027 207.031 122.027Z" fill="#E4290B" stroke="black" stroke-width="0.25" stroke-miterlimit="10"/>
<path d="M211.135 120.178C211.67 120.178 212.104 119.729 212.104 119.175C212.104 118.621 211.67 118.172 211.135 118.172C210.599 118.172 210.165 118.621 210.165 119.175C210.165 119.729 210.599 120.178 211.135 120.178Z" fill="#E4290B" stroke="black" stroke-width="0.25" stroke-miterlimit="10"/>
<path d="M213.224 126.168C213.76 126.168 214.194 125.719 214.194 125.165C214.194 124.611 213.76 124.162 213.224 124.162C212.689 124.162 212.255 124.611 212.255 125.165C212.255 125.719 212.689 126.168 213.224 126.168Z" fill="#E4290B" stroke="black" stroke-width="0.25" stroke-miterlimit="10"/>
<path d="M205.269 129.502C205.804 129.502 206.238 129.053 206.238 128.499C206.238 127.945 205.804 127.496 205.269 127.496C204.733 127.496 204.299 127.945 204.299 128.499C204.299 129.053 204.733 129.502 205.269 129.502Z" fill="#E4290B" stroke="black" stroke-width="0.25" stroke-miterlimit="10"/>
<path d="M209.259 127.705C209.794 127.705 210.228 127.256 210.228 126.702C210.228 126.148 209.794 125.699 209.259 125.699C208.724 125.699 208.29 126.148 208.29 126.702C208.29 127.256 208.724 127.705 209.259 127.705Z" fill="#E4290B" stroke="black" stroke-width="0.25" stroke-miterlimit="10"/>
<path d="M196.96 126.598C200.208 125.413 202.046 125.295 202.827 125.986C202.852 125.999 202.864 126.038 202.852 126.064C202.55 127.548 201.001 128.811 198.232 129.84L196.96 126.598Z" fill="black" stroke="#808080" stroke-width="0.25" stroke-miterlimit="10"/>
<path d="M202.185 126.532C202.317 126.532 202.424 126.422 202.424 126.285C202.424 126.148 202.317 126.038 202.185 126.038C202.053 126.038 201.945 126.148 201.945 126.285C201.945 126.422 202.053 126.532 202.185 126.532Z" fill="#E4290B" stroke="#4D4D4D" stroke-width="0.25" stroke-miterlimit="10"/>
<path d="M192.403 128.434L194.82 127.288L195.034 127.848C195.123 128.186 195.311 128.33 195.601 128.304C195.412 128.772 195.374 129.241 195.5 129.697L196.671 131.025C195.752 131.064 194.909 131.22 194.166 131.546C193.7 131.26 193.335 130.934 193.096 130.569C192.995 130.244 193.008 129.957 193.134 129.71C193.184 129.606 193.197 129.489 193.134 129.384C193.033 129.228 192.869 129.098 192.63 129.02C192.617 129.02 192.605 129.007 192.605 128.994L192.403 128.434Z" fill="#E4290B" stroke="black" stroke-width="0.25" stroke-miterlimit="10"/>
<path d="M183.68 131.976L185.946 130.869L186.185 131.481C186.286 131.859 186.487 132.028 186.764 132.015C186.613 132.51 186.588 133.018 186.739 133.512L187.947 135.023C187.066 135.01 186.261 135.14 185.568 135.44C185.102 135.114 184.737 134.737 184.486 134.32C184.36 133.955 184.36 133.643 184.486 133.382C184.536 133.278 184.523 133.135 184.46 133.031C184.347 132.848 184.183 132.705 183.957 132.614C183.944 132.614 183.932 132.601 183.932 132.588L183.68 131.976Z" fill="#E4290B" stroke="black" stroke-width="0.25" stroke-miterlimit="10"/>
<path d="M175.951 135.205L178.217 134.098L178.456 134.711C178.557 135.088 178.758 135.257 179.035 135.244C178.884 135.739 178.859 136.247 179.01 136.742L180.218 138.253C179.337 138.24 178.531 138.37 177.839 138.669C177.373 138.344 177.008 137.966 176.756 137.549C176.631 137.185 176.631 136.872 176.756 136.612C176.807 136.508 176.794 136.377 176.731 136.26C176.618 136.078 176.454 135.935 176.228 135.844C176.215 135.844 176.203 135.83 176.203 135.817L175.951 135.205Z" fill="#E4290B" stroke="black" stroke-width="0.25" stroke-miterlimit="10"/>
<path d="M169.229 137.771L170.928 136.898L171.192 137.575C171.318 137.992 171.494 138.187 171.721 138.213C171.658 138.721 171.696 139.255 171.872 139.802L173.018 141.547C172.3 141.43 171.671 141.456 171.142 141.69C170.727 141.287 170.387 140.844 170.135 140.362C169.996 139.958 169.959 139.633 170.022 139.372C170.047 139.268 170.022 139.125 169.959 138.995C169.845 138.786 169.694 138.617 169.506 138.487C169.493 138.487 169.493 138.474 169.48 138.461L169.229 137.771Z" fill="#E4290B" stroke="black" stroke-width="0.25" stroke-miterlimit="10"/>
<path d="M162.96 140.401L164.659 139.529L164.923 140.206C165.049 140.623 165.226 140.818 165.452 140.844C165.389 141.352 165.427 141.886 165.603 142.433L166.749 144.178C166.031 144.06 165.402 144.086 164.873 144.321C164.458 143.917 164.118 143.474 163.866 142.993C163.728 142.589 163.69 142.263 163.753 142.003C163.778 141.899 163.753 141.755 163.69 141.625C163.576 141.417 163.425 141.248 163.237 141.117C163.224 141.117 163.224 141.104 163.211 141.091L162.96 140.401Z" fill="#E4290B" stroke="black" stroke-width="0.25" stroke-miterlimit="10"/>
<path d="M148.345 146.405L149.566 145.714L149.843 146.431C149.981 146.86 150.145 147.082 150.321 147.134C150.321 147.642 150.422 148.176 150.611 148.749L151.693 150.637C151.127 150.428 150.636 150.389 150.258 150.559C149.893 150.103 149.579 149.621 149.339 149.113C149.188 148.696 149.125 148.358 149.151 148.11C149.163 148.006 149.125 147.863 149.062 147.733C148.949 147.511 148.823 147.329 148.66 147.173C148.647 147.16 148.647 147.16 148.634 147.147L148.345 146.405Z" fill="#E4290B" stroke="black" stroke-width="0.25" stroke-miterlimit="10"/>
<path d="M144.581 147.85L145.324 147.355L145.626 148.123C145.789 148.579 145.928 148.827 146.054 148.905C146.129 149.413 146.268 149.96 146.494 150.572L147.514 152.642C147.086 152.343 146.746 152.225 146.507 152.343C146.192 151.822 145.903 151.288 145.651 150.741C145.487 150.298 145.387 149.947 145.361 149.699C145.349 149.595 145.311 149.439 145.248 149.309C145.135 149.074 145.021 148.853 144.883 148.683C144.883 148.67 144.87 148.657 144.87 148.644L144.581 147.85Z" fill="#E4290B" stroke="black" stroke-width="0.25" stroke-miterlimit="10"/>
<path d="M141.069 149.191L141.9 148.657L142.202 149.439C142.365 149.908 142.516 150.155 142.655 150.233C142.718 150.754 142.869 151.327 143.083 151.939L144.153 154.049C143.7 153.749 143.322 153.645 143.058 153.775C142.718 153.254 142.428 152.707 142.164 152.147C142 151.692 141.9 151.34 141.887 151.08C141.874 150.975 141.837 150.819 141.774 150.676C141.66 150.428 141.535 150.22 141.396 150.038C141.383 150.025 141.383 150.012 141.371 149.999L141.069 149.191Z" fill="#E4290B" stroke="black" stroke-width="0.25" stroke-miterlimit="10"/>
<path d="M137.997 150.35L138.639 149.881L138.954 150.676C139.13 151.145 139.269 151.405 139.382 151.496C139.483 152.017 139.634 152.59 139.873 153.228L140.918 155.403C140.515 155.077 140.2 154.934 139.999 155.038C139.684 154.491 139.395 153.931 139.143 153.345C138.967 152.877 138.866 152.525 138.828 152.265C138.816 152.16 138.765 152.004 138.702 151.848C138.589 151.6 138.476 151.379 138.337 151.184C138.337 151.171 138.325 151.158 138.325 151.145L137.997 150.35Z" fill="#E4290B" stroke="black" stroke-width="0.25" stroke-miterlimit="10"/>
<path d="M133.994 152.147L134.447 151.77L134.75 152.538C134.913 152.994 135.039 153.241 135.14 153.332C135.253 153.827 135.417 154.374 135.643 154.973L136.6 157.07C136.273 156.731 136.021 156.575 135.87 156.653C135.58 156.119 135.329 155.572 135.089 155.012C134.926 154.57 134.813 154.231 134.762 153.984C134.737 153.879 134.699 153.736 134.636 153.593C134.536 153.345 134.422 153.137 134.309 152.942C134.309 152.929 134.296 152.916 134.296 152.903L133.994 152.147Z" fill="#E4290B" stroke="black" stroke-width="0.25" stroke-miterlimit="10"/>
<path d="M155.256 143.266L156.351 142.797L158.277 147.655L157.157 148.124L155.256 143.266Z" fill="#E4290B" stroke="black" stroke-width="0.25" stroke-miterlimit="10"/>
<path d="M156.225 144.321C156.357 144.321 156.464 144.21 156.464 144.074C156.464 143.937 156.357 143.826 156.225 143.826C156.093 143.826 155.986 143.937 155.986 144.074C155.986 144.21 156.093 144.321 156.225 144.321Z" fill="#E4290B" stroke="black" stroke-width="0.25" stroke-miterlimit="10"/>
<path d="M157.27 146.978C157.402 146.978 157.509 146.867 157.509 146.73C157.509 146.593 157.402 146.483 157.27 146.483C157.138 146.483 157.031 146.593 157.031 146.73C157.031 146.867 157.138 146.978 157.27 146.978Z" fill="#E4290B" stroke="black" stroke-width="0.25" stroke-miterlimit="10"/>
<path d="M132.081 151.158L135.14 158.958" stroke="url(#paint9_linear_9_1058)" stroke-width="0.25" stroke-miterlimit="10"/>
<path d="M133.088 150.728L136.172 158.502" stroke="url(#paint10_linear_9_1058)" stroke-width="0.25" stroke-miterlimit="10"/>
<path d="M134.309 150.272L137.343 157.994" stroke="url(#paint11_linear_9_1058)" stroke-width="0.25" stroke-miterlimit="10"/>
<path d="M135.706 149.764L138.639 157.239" stroke="url(#paint12_linear_9_1058)" stroke-width="0.25" stroke-miterlimit="10"/>
<path d="M137.129 149.152L140.062 156.64" stroke="url(#paint13_linear_9_1058)" stroke-width="0.25" stroke-miterlimit="10"/>
<path d="M138.652 148.553L141.572 156.08" stroke="url(#paint14_linear_9_1058)" stroke-width="0.25" stroke-miterlimit="10"/>
<path d="M140.25 147.915L143.133 155.416" stroke="url(#paint15_linear_9_1058)" stroke-width="0.25" stroke-miterlimit="10"/>
<path d="M141.9 147.264L144.82 154.713" stroke="url(#paint16_linear_9_1058)" stroke-width="0.25" stroke-miterlimit="10"/>
<path d="M143.599 146.6L146.482 153.957" stroke="url(#paint17_linear_9_1058)" stroke-width="0.25" stroke-miterlimit="10"/>
<path d="M145.5 145.805L148.382 153.15" stroke="url(#paint18_linear_9_1058)" stroke-width="0.25" stroke-miterlimit="10"/>
<path d="M147.526 145.037L150.371 152.291" stroke="url(#paint19_linear_9_1058)" stroke-width="0.25" stroke-miterlimit="10"/>
<path d="M149.603 144.217L152.411 151.392" stroke="url(#paint20_linear_9_1058)" stroke-width="0.25" stroke-miterlimit="10"/>
<path d="M151.869 143.331L154.639 150.415" stroke="url(#paint21_linear_9_1058)" stroke-width="0.25" stroke-miterlimit="10"/>
<path d="M154.186 142.42L156.942 149.452" stroke="url(#paint22_linear_9_1058)" stroke-width="0.25" stroke-miterlimit="10"/>
<path d="M156.64 141.443L159.347 148.358" stroke="url(#paint23_linear_9_1058)" stroke-width="0.25" stroke-miterlimit="10"/>
<path d="M159.385 140.349L161.965 147.212" stroke="url(#paint24_linear_9_1058)" stroke-width="0.25" stroke-miterlimit="10"/>
<path d="M162.154 139.255L164.785 145.975" stroke="url(#paint25_linear_9_1058)" stroke-width="0.25" stroke-miterlimit="10"/>
<path d="M165.062 138.109L167.605 144.607" stroke="url(#paint26_linear_9_1058)" stroke-width="0.25" stroke-miterlimit="10"/>
<path d="M168.209 136.872L170.727 143.292" stroke="url(#paint27_linear_9_1058)" stroke-width="0.25" stroke-miterlimit="10"/>
<path d="M171.507 135.557L174.075 141.899" stroke="url(#paint28_linear_9_1058)" stroke-width="0.25" stroke-miterlimit="10"/>
<path d="M175.044 134.163L177.398 140.453" stroke="url(#paint29_linear_9_1058)" stroke-width="0.25" stroke-miterlimit="10"/>
<path d="M178.796 132.679L181.187 138.799" stroke="url(#paint30_linear_9_1058)" stroke-width="0.25" stroke-miterlimit="10"/>
<path d="M182.66 131.155L184.989 137.133" stroke="url(#paint31_linear_9_1058)" stroke-width="0.25" stroke-miterlimit="10"/>
<path d="M186.877 129.489L189.156 135.31" stroke="url(#paint32_linear_9_1058)" stroke-width="0.25" stroke-miterlimit="10"/>
<path d="M191.245 127.757L193.461 133.421" stroke="url(#paint33_linear_9_1058)" stroke-width="0.25" stroke-miterlimit="10"/>
<path d="M195.802 125.959L196.595 125.647L198.735 131.103L197.955 131.455L195.802 125.959Z" fill="#666666"/>
<path opacity="0.4" d="M107.345 162.057L203.67 123.173" stroke="#CCCCCC" stroke-width="0.25" stroke-miterlimit="10"/>
<path opacity="0.4" d="M107.849 163.334L197.124 127.001L207.686 121.766" stroke="#CCCCCC" stroke-width="0.25" stroke-miterlimit="10"/>
<path opacity="0.4" d="M108.453 164.883L197.502 127.978L211.89 119.8" stroke="#CCCCCC" stroke-width="0.25" stroke-miterlimit="10"/>
<path opacity="0.4" d="M109.019 166.342L197.892 128.955L212.86 124.241" stroke="#CCCCCC" stroke-width="0.25" stroke-miterlimit="10"/>
<path opacity="0.4" d="M109.498 167.566L198.232 129.827L208.617 126.025" stroke="#CCCCCC" stroke-width="0.25" stroke-miterlimit="10"/>
<path opacity="0.4" d="M110.14 169.181L198.547 130.622L204.904 127.574" stroke="#CCCCCC" stroke-width="0.25" stroke-miterlimit="10"/>
<circle cx="147" cy="147" r="140" stroke="#FF0000" stroke-width="14"/>
<defs>
<linearGradient id="paint0_linear_9_1058" x1="110.4" y1="184.038" x2="109.342" y2="181.515" gradientUnits="userSpaceOnUse">
<stop stop-color="#E72000"/>
<stop offset="0.0347" stop-color="#E11F00"/>
<stop offset="0.0816" stop-color="#D01D00"/>
<stop offset="0.1353" stop-color="#B31900"/>
<stop offset="0.1943" stop-color="#8C1300"/>
<stop offset="0.2574" stop-color="#590C00"/>
<stop offset="0.323" stop-color="#1D0400"/>
<stop offset="0.3515"/>
<stop offset="0.3737" stop-color="#270500"/>
<stop offset="0.4058" stop-color="#5A0C00"/>
<stop offset="0.4386" stop-color="#851200"/>
<stop offset="0.4715" stop-color="#A81700"/>
<stop offset="0.5046" stop-color="#C41B00"/>
<stop offset="0.5379" stop-color="#D71E00"/>
<stop offset="0.5716" stop-color="#E31F00"/>
<stop offset="0.6064" stop-color="#E72000"/>
<stop offset="0.631" stop-color="#DA1E00"/>
<stop offset="0.677" stop-color="#B61900"/>
<stop offset="0.7393" stop-color="#7D1100"/>
<stop offset="0.8149" stop-color="#2E0600"/>
<stop offset="0.8564"/>
<stop offset="1" stop-color="#B92900"/>
</linearGradient>
<linearGradient id="paint1_linear_9_1058" x1="116.198" y1="181.204" x2="115.141" y2="178.68" gradientUnits="userSpaceOnUse">
<stop stop-color="#E72000"/>
<stop offset="0.0347" stop-color="#E11F00"/>
<stop offset="0.0816" stop-color="#D01D00"/>
<stop offset="0.1353" stop-color="#B31900"/>
<stop offset="0.1943" stop-color="#8C1300"/>
<stop offset="0.2574" stop-color="#590C00"/>
<stop offset="0.323" stop-color="#1D0400"/>
<stop offset="0.3515"/>
<stop offset="0.3737" stop-color="#270500"/>
<stop offset="0.4058" stop-color="#5A0C00"/>
<stop offset="0.4386" stop-color="#851200"/>
<stop offset="0.4715" stop-color="#A81700"/>
<stop offset="0.5046" stop-color="#C41B00"/>
<stop offset="0.5379" stop-color="#D71E00"/>
<stop offset="0.5716" stop-color="#E31F00"/>
<stop offset="0.6064" stop-color="#E72000"/>
<stop offset="0.631" stop-color="#DA1E00"/>
<stop offset="0.677" stop-color="#B61900"/>
<stop offset="0.7393" stop-color="#7D1100"/>
<stop offset="0.8149" stop-color="#2E0600"/>
<stop offset="0.8564"/>
<stop offset="1" stop-color="#B92900"/>
</linearGradient>
<linearGradient id="paint2_linear_9_1058" x1="119.677" y1="176.105" x2="118.619" y2="173.581" gradientUnits="userSpaceOnUse">
<stop stop-color="#E72000"/>
<stop offset="0.0347" stop-color="#E11F00"/>
<stop offset="0.0816" stop-color="#D01D00"/>
<stop offset="0.1353" stop-color="#B31900"/>
<stop offset="0.1943" stop-color="#8C1300"/>
<stop offset="0.2574" stop-color="#590C00"/>
<stop offset="0.323" stop-color="#1D0400"/>
<stop offset="0.3515"/>
<stop offset="0.3737" stop-color="#270500"/>
<stop offset="0.4058" stop-color="#5A0C00"/>
<stop offset="0.4386" stop-color="#851200"/>
<stop offset="0.4715" stop-color="#A81700"/>
<stop offset="0.5046" stop-color="#C41B00"/>
<stop offset="0.5379" stop-color="#D71E00"/>
<stop offset="0.5716" stop-color="#E31F00"/>
<stop offset="0.6064" stop-color="#E72000"/>
<stop offset="0.631" stop-color="#DA1E00"/>
<stop offset="0.677" stop-color="#B61900"/>
<stop offset="0.7393" stop-color="#7D1100"/>
<stop offset="0.8149" stop-color="#2E0600"/>
<stop offset="0.8564"/>
<stop offset="1" stop-color="#B92900"/>
</linearGradient>
<linearGradient id="paint3_linear_9_1058" x1="106.734" y1="166.358" x2="108.656" y2="165.606" gradientUnits="userSpaceOnUse">
<stop stop-color="#E72000"/>
<stop offset="0.0347" stop-color="#E11F00"/>
<stop offset="0.0816" stop-color="#D01D00"/>
<stop offset="0.1353" stop-color="#B31900"/>
<stop offset="0.1943" stop-color="#8C1300"/>
<stop offset="0.2574" stop-color="#590C00"/>
<stop offset="0.323" stop-color="#1D0400"/>
<stop offset="0.3515"/>
<stop offset="0.3767" stop-color="#1B0400"/>
<stop offset="0.4612" stop-color="#721000"/>
<stop offset="0.5303" stop-color="#B11900"/>
<stop offset="0.5804" stop-color="#D81E00"/>
<stop offset="0.6064" stop-color="#E72000"/>
<stop offset="0.631" stop-color="#DA1E00"/>
<stop offset="0.677" stop-color="#B61900"/>
<stop offset="0.7393" stop-color="#7D1100"/>
<stop offset="0.8149" stop-color="#2E0600"/>
<stop offset="0.8564"/>
<stop offset="1" stop-color="#B92900"/>
</linearGradient>
<linearGradient id="paint4_linear_9_1058" x1="111.961" y1="164.061" x2="114.109" y2="163.22" gradientUnits="userSpaceOnUse">
<stop stop-color="#E72000"/>
<stop offset="0.0347" stop-color="#E11F00"/>
<stop offset="0.0816" stop-color="#D01D00"/>
<stop offset="0.1353" stop-color="#B31900"/>
<stop offset="0.1943" stop-color="#8C1300"/>
<stop offset="0.2574" stop-color="#590C00"/>
<stop offset="0.323" stop-color="#1D0400"/>
<stop offset="0.3515"/>
<stop offset="0.3767" stop-color="#1B0400"/>
<stop offset="0.4612" stop-color="#721000"/>
<stop offset="0.5303" stop-color="#B11900"/>
<stop offset="0.5804" stop-color="#D81E00"/>
<stop offset="0.6064" stop-color="#E72000"/>
<stop offset="0.631" stop-color="#DA1E00"/>
<stop offset="0.677" stop-color="#B61900"/>
<stop offset="0.7393" stop-color="#7D1100"/>
<stop offset="0.8149" stop-color="#2E0600"/>
<stop offset="0.8564"/>
<stop offset="1" stop-color="#B92900"/>
</linearGradient>
<linearGradient id="paint5_linear_9_1058" x1="116.565" y1="162.17" x2="121.53" y2="160.226" gradientUnits="userSpaceOnUse">
<stop stop-color="#BBBABF"/>
<stop offset="0.077" stop-color="#C1A5A6"/>
<stop offset="0.2453" stop-color="#CC7D74"/>
<stop offset="0.4118" stop-color="#D65C4A"/>
<stop offset="0.5732" stop-color="#DD422A"/>
<stop offset="0.7281" stop-color="#E32F13"/>
<stop offset="0.8735" stop-color="#E62405"/>
<stop offset="1" stop-color="#E72000"/>
</linearGradient>
<linearGradient id="paint6_linear_9_1058" x1="127.763" y1="157.477" x2="132.728" y2="155.533" gradientUnits="userSpaceOnUse">
<stop stop-color="#BBBABF"/>
<stop offset="0.077" stop-color="#C1A5A6"/>
<stop offset="0.2453" stop-color="#CC7D74"/>
<stop offset="0.4118" stop-color="#D65C4A"/>
<stop offset="0.5732" stop-color="#DD422A"/>
<stop offset="0.7281" stop-color="#E32F13"/>
<stop offset="0.8735" stop-color="#E62405"/>
<stop offset="1" stop-color="#E72000"/>
</linearGradient>
<linearGradient id="paint7_linear_9_1058" x1="140.329" y1="141.631" x2="142.087" y2="140.942" gradientUnits="userSpaceOnUse">
<stop stop-color="#BBBABF"/>
<stop offset="0.077" stop-color="#C1A5A6"/>
<stop offset="0.2453" stop-color="#CC7D74"/>
<stop offset="0.4118" stop-color="#D65C4A"/>
<stop offset="0.5732" stop-color="#DD422A"/>
<stop offset="0.7281" stop-color="#E32F13"/>
<stop offset="0.8735" stop-color="#E62405"/>
<stop offset="1" stop-color="#E72000"/>
</linearGradient>
<linearGradient id="paint8_linear_9_1058" x1="85.5565" y1="174.86" x2="86.6866" y2="174.417" gradientUnits="userSpaceOnUse">
<stop stop-color="#BBBABF"/>
<stop offset="0.077" stop-color="#C1A5A6"/>
<stop offset="0.2453" stop-color="#CC7D74"/>
<stop offset="0.4118" stop-color="#D65C4A"/>
<stop offset="0.5732" stop-color="#DD422A"/>
<stop offset="0.7281" stop-color="#E32F13"/>
<stop offset="0.8735" stop-color="#E62405"/>
<stop offset="1" stop-color="#E72000"/>
</linearGradient>
<linearGradient id="paint9_linear_9_1058" x1="133.393" y1="155.143" x2="133.687" y2="155.028" gradientUnits="userSpaceOnUse">
<stop stop-color="white"/>
<stop offset="1"/>
</linearGradient>
<linearGradient id="paint10_linear_9_1058" x1="134.398" y1="154.713" x2="134.728" y2="154.584" gradientUnits="userSpaceOnUse">
<stop stop-color="white"/>
<stop offset="1"/>
</linearGradient>
<linearGradient id="paint11_linear_9_1058" x1="135.61" y1="154.22" x2="135.904" y2="154.104" gradientUnits="userSpaceOnUse">
<stop stop-color="white"/>
<stop offset="1"/>
</linearGradient>
<linearGradient id="paint12_linear_9_1058" x1="136.957" y1="153.592" x2="137.251" y2="153.476" gradientUnits="userSpaceOnUse">
<stop stop-color="white"/>
<stop offset="1"/>
</linearGradient>
<linearGradient id="paint13_linear_9_1058" x1="138.377" y1="152.989" x2="138.671" y2="152.874" gradientUnits="userSpaceOnUse">
<stop stop-color="white"/>
<stop offset="1"/>
</linearGradient>
<linearGradient id="paint14_linear_9_1058" x1="139.882" y1="152.408" x2="140.196" y2="152.285" gradientUnits="userSpaceOnUse">
<stop stop-color="white"/>
<stop offset="1"/>
</linearGradient>
<linearGradient id="paint15_linear_9_1058" x1="141.457" y1="151.767" x2="141.796" y2="151.634" gradientUnits="userSpaceOnUse">
<stop stop-color="white"/>
<stop offset="1"/>
</linearGradient>
<linearGradient id="paint16_linear_9_1058" x1="143.148" y1="151.08" x2="143.442" y2="150.964" gradientUnits="userSpaceOnUse">
<stop stop-color="white"/>
<stop offset="1"/>
</linearGradient>
<linearGradient id="paint17_linear_9_1058" x1="144.827" y1="150.362" x2="145.121" y2="150.247" gradientUnits="userSpaceOnUse">
<stop stop-color="white"/>
<stop offset="1"/>
</linearGradient>
<linearGradient id="paint18_linear_9_1058" x1="146.721" y1="149.566" x2="147.024" y2="149.448" gradientUnits="userSpaceOnUse">
<stop stop-color="white"/>
<stop offset="1"/>
</linearGradient>
<linearGradient id="paint19_linear_9_1058" x1="148.735" y1="148.753" x2="149.029" y2="148.637" gradientUnits="userSpaceOnUse">
<stop stop-color="white"/>
<stop offset="1"/>
</linearGradient>
<linearGradient id="paint20_linear_9_1058" x1="150.795" y1="147.894" x2="151.09" y2="147.779" gradientUnits="userSpaceOnUse">
<stop stop-color="white"/>
<stop offset="1"/>
</linearGradient>
<linearGradient id="paint21_linear_9_1058" x1="153.035" y1="146.961" x2="153.329" y2="146.846" gradientUnits="userSpaceOnUse">
<stop stop-color="white"/>
<stop offset="1"/>
</linearGradient>
<linearGradient id="paint22_linear_9_1058" x1="155.349" y1="146.024" x2="155.643" y2="145.909" gradientUnits="userSpaceOnUse">
<stop stop-color="white"/>
<stop offset="1"/>
</linearGradient>
<linearGradient id="paint23_linear_9_1058" x1="157.779" y1="144.985" x2="158.073" y2="144.87" gradientUnits="userSpaceOnUse">
<stop stop-color="white"/>
<stop offset="1"/>
</linearGradient>
<linearGradient id="paint24_linear_9_1058" x1="160.418" y1="143.887" x2="160.803" y2="143.736" gradientUnits="userSpaceOnUse">
<stop stop-color="white"/>
<stop offset="1"/>
</linearGradient>
<linearGradient id="paint25_linear_9_1058" x1="163.254" y1="142.705" x2="163.548" y2="142.589" gradientUnits="userSpaceOnUse">
<stop stop-color="white"/>
<stop offset="1"/>
</linearGradient>
<linearGradient id="paint26_linear_9_1058" x1="166.113" y1="141.446" x2="166.408" y2="141.331" gradientUnits="userSpaceOnUse">
<stop stop-color="white"/>
<stop offset="1"/>
</linearGradient>
<linearGradient id="paint27_linear_9_1058" x1="169.25" y1="140.169" x2="169.545" y2="140.054" gradientUnits="userSpaceOnUse">
<stop stop-color="white"/>
<stop offset="1"/>
</linearGradient>
<linearGradient id="paint28_linear_9_1058" x1="172.54" y1="138.83" x2="172.902" y2="138.688" gradientUnits="userSpaceOnUse">
<stop stop-color="white"/>
<stop offset="1"/>
</linearGradient>
<linearGradient id="paint29_linear_9_1058" x1="175.957" y1="137.414" x2="176.34" y2="137.264" gradientUnits="userSpaceOnUse">
<stop stop-color="white"/>
<stop offset="1"/>
</linearGradient>
<linearGradient id="paint30_linear_9_1058" x1="179.769" y1="135.825" x2="180.064" y2="135.71" gradientUnits="userSpaceOnUse">
<stop stop-color="white"/>
<stop offset="1"/>
</linearGradient>
<linearGradient id="paint31_linear_9_1058" x1="183.605" y1="134.227" x2="183.9" y2="134.112" gradientUnits="userSpaceOnUse">
<stop stop-color="white"/>
<stop offset="1"/>
</linearGradient>
<linearGradient id="paint32_linear_9_1058" x1="187.796" y1="132.482" x2="188.09" y2="132.367" gradientUnits="userSpaceOnUse">
<stop stop-color="white"/>
<stop offset="1"/>
</linearGradient>
<linearGradient id="paint33_linear_9_1058" x1="192.139" y1="130.673" x2="192.434" y2="130.557" gradientUnits="userSpaceOnUse">
<stop stop-color="white"/>
<stop offset="1"/>
</linearGradient>
</defs>
</svg>
