<svg width="315" height="331" viewBox="0 0 315 331" fill="none" xmlns="http://www.w3.org/2000/svg">
<g filter="url(#filter0_d_56_3855)">
<path d="M264.828 6.85269L257.974 13.7054L267.931 23.6613L277.888 33.6171H218.147H158.405L158.328 103.05L158.276 172.482H227.845H297.414L297.362 143.313L297.285 114.169L287.664 114.092L278.017 114.04V133.564V153.087H227.974H177.931V103.05V53.0117H227.793H277.655L267.802 62.8382L257.974 72.6648L264.905 79.5693L271.81 86.4996L293.405 64.907L315 43.3144L293.328 21.6443L271.681 -4.57764e-05L264.828 6.85269Z" fill="#610202"/>
<path d="M24.9052 33.5396L0 33.6171V103.05V172.482H69.4397H138.879V147.528V122.573H129.181H119.483V137.83V153.087H69.4397H19.3966V103.05V53.0117H34.6552H49.9138V43.1851C49.9138 37.7805 49.8879 33.3844 49.8621 33.4103C49.8103 33.462 38.5862 33.5137 24.9052 33.5396Z" fill="#610202"/>
<path d="M79.9655 78.69L58.4483 100.205V86.3186V72.4062H48.6207H38.7931L38.8448 102.972L38.9224 133.564L69.5172 133.641L100.086 133.693V123.866V114.04H86.1983H72.2845L93.6983 92.6282C105.466 80.8622 115.086 71.1132 115.086 70.9839C115.086 70.8288 112.034 67.6739 108.284 63.9243L101.509 57.1492L79.9655 78.69Z" fill="#610202"/>
<path d="M0 261.49V331H69.4397H138.879V261.412V191.825L69.4397 191.928L0 192.006V261.49ZM84.1035 233.071L62.5862 254.586L69.4397 261.438L76.319 268.317L97.8879 246.698L119.483 225.106V268.343V311.605H69.4397H19.3966V261.568V211.53H62.5086H105.647L84.1035 233.071Z" fill="#610202"/>
<path d="M158.379 192.109C158.328 192.161 158.276 223.451 158.276 261.619V331H227.845H297.414V301.779V272.558H287.716H278.017L277.966 292.03L277.888 311.476L227.922 311.554L177.931 311.605V261.568V211.53H197.328H216.724V201.755V192.006H187.603C171.595 192.006 158.431 192.058 158.379 192.109Z" fill="#610202"/>
<path d="M236.25 192.213C236.172 192.368 236.147 196.764 236.172 201.962L236.25 211.4L250.086 211.478L263.922 211.53L255.31 220.27C250.578 225.054 240.905 234.777 233.845 241.837L220.991 254.715L227.845 261.568L234.698 268.42L256.345 246.776L278.017 225.106V239.147V253.163H287.716H297.414L297.362 222.572L297.285 192.006L266.819 191.928C242.534 191.877 236.328 191.928 236.25 192.213Z" fill="#610202"/>
</g>
<defs>
<filter id="filter0_d_56_3855" x="-4" y="-6.10352e-05" width="323" height="339" filterUnits="userSpaceOnUse" color-interpolation-filters="sRGB">
<feFlood flood-opacity="0" result="BackgroundImageFix"/>
<feColorMatrix in="SourceAlpha" type="matrix" values="0 0 0 0 0 0 0 0 0 0 0 0 0 0 0 0 0 0 127 0" result="hardAlpha"/>
<feOffset dy="4"/>
<feGaussianBlur stdDeviation="2"/>
<feComposite in2="hardAlpha" operator="out"/>
<feColorMatrix type="matrix" values="0 0 0 0 0 0 0 0 0 0 0 0 0 0 0 0 0 0 0.25 0"/>
<feBlend mode="normal" in2="BackgroundImageFix" result="effect1_dropShadow_56_3855"/>
<feBlend mode="normal" in="SourceGraphic" in2="effect1_dropShadow_56_3855" result="shape"/>
</filter>
</defs>
</svg>
