<svg width="136" height="208" viewBox="0 0 136 208" fill="none" xmlns="http://www.w3.org/2000/svg">
<path d="M64.088 41.7077C74.9544 41.7077 83.7634 32.595 83.7634 21.3538C83.7634 10.1127 74.9544 1 64.088 1C53.2216 1 44.4126 10.1127 44.4126 21.3538C44.4126 32.595 53.2216 41.7077 64.088 41.7077Z" fill="#FF0001" stroke="black" stroke-width="2" stroke-miterlimit="10"/>
<path d="M44.5257 46.3046L18.38 76.2037C16.4415 78.2092 15.3715 83.3269 16.0135 86.882L18.4556 101.259L21.3886 118.474C21.9425 120.987 23.4027 122.863 25.7442 124.113C26.7764 124.673 27.9345 124.959 29.1052 124.972C30.5528 124.998 31.9501 124.933 33.209 124.699C35.286 124.243 36.8344 122.902 37.9044 120.714C38.5086 119.477 38.8107 118.122 38.861 116.742L39.0373 111.846C39.0625 111.221 39.0373 110.596 38.9618 109.984L37.3001 95.7893L36.5071 87.3638C36.4693 86.895 36.4819 86.4262 36.5448 85.9705C36.5448 85.8793 36.5448 85.7882 36.5448 85.697C36.5574 84.7073 36.8973 83.7437 37.4638 82.9363L44.1859 73.3258V113.487C44.1859 114.007 44.1229 114.515 43.9845 115.01L23.9692 190.8C22.8614 198.379 24.6112 203.262 28.7024 204.812C33.637 207.273 38.2694 206.036 42.0459 202.051C43.2544 200.788 44.1104 199.212 44.5887 197.506L64.6291 127.42C64.6921 127.212 64.969 127.225 65.0194 127.42L73.2143 158.518L85.6892 199.017C86.9984 203.093 90.4475 205.307 94.7275 205.958C95.9486 206.14 97.1949 206.127 98.4033 205.893C103.313 204.942 105.591 202.025 106.044 195.149C106.158 193.469 105.981 191.79 105.553 190.162L85.9788 115.987C85.7899 115.271 85.6892 114.528 85.6892 113.786V73.5342L92.0462 82.3763C92.3861 82.8581 92.6631 83.392 92.8393 83.965L93.003 84.4859C93.1414 84.9026 93.2044 85.3324 93.2044 85.7751V89.4865C93.2044 89.8381 93.1792 90.1767 93.1414 90.5283L90.9259 110.231C90.8756 110.687 90.8504 111.156 90.863 111.624L91.0392 118.044C91.5301 121.873 93.5443 123.983 96.6787 124.803C97.0564 124.907 97.434 124.959 97.8117 124.985C101.777 125.285 104.446 124.595 106.51 121.938C107.568 120.571 108.235 118.943 108.537 117.224L113.711 86.6997C113.799 86.2048 113.836 85.71 113.824 85.2152C113.811 84.2385 113.748 83.2879 113.648 82.4024C113.333 79.8891 112.276 77.545 110.652 75.6438L85.8906 46.6822C85.5004 46.2134 84.9213 45.9529 84.3297 45.9529H45.2559C45.0041 45.9529 44.7272 46.0832 44.5257 46.3046Z" fill="#FF0000" stroke="black" stroke-width="2" stroke-miterlimit="10"/>
<path d="M44.1985 81.5429L93.1792 55.1337L95.5332 57.8944L44.1985 81.5429Z" fill="black"/>
<path d="M44.1985 75.9042L87.1872 48.5314L89.6419 51.0056L44.1985 75.9042Z" fill="black"/>
<path d="M99.146 166.383L78.8538 176.801L99.9768 168.988L99.146 166.383Z" fill="black" stroke="black" stroke-width="0.25" stroke-miterlimit="10"/>
<path d="M100.405 172.894L80.1128 183.312L101.236 175.499L100.405 172.894Z" fill="black" stroke="black" stroke-width="0.25" stroke-miterlimit="10"/>
<path d="M113.73 88.0409L115.417 87.0903C116.323 86.4392 117.028 85.4495 117.557 84.1733L121.447 82.858C121.585 82.819 121.711 82.7669 121.837 82.7018L125.865 80.8917C126.004 80.8266 126.142 80.7484 126.28 80.6703C127.879 79.889 129.327 79.0556 130.51 78.131C130.699 78.6258 130.9 79.0946 131.127 79.5243C131.228 79.7197 131.366 79.889 131.53 80.0322C131.756 80.4359 132.272 80.8526 132.902 81.2824C133.04 81.4126 133.116 81.5949 133.091 81.7902L132.952 83.1836C132.927 83.4571 132.965 83.7306 133.065 83.991L133.103 84.0952C133.191 84.3035 133.292 84.5119 133.431 84.6942L135.634 87.6372C135.659 87.6763 135.646 87.7284 135.596 87.7284L131.429 88.8223L128.471 89.9292L124.996 91.3877C123.549 92.0127 122.227 92.7159 121.069 93.5103C119.949 92.8592 118.702 92.5857 117.305 92.7159L115.782 93.328L113.73 88.0409Z" fill="#615C54"/>
<path d="M60.7967 131.483C58.5309 130.376 56.4916 128.631 55.8748 126.73C54.9684 124.542 54.9684 122.836 55.6482 121.157C55.8244 120.714 56.1643 119.972 56.4664 119.594C56.8189 119.177 57.2469 119.073 57.763 118.917C57.763 118.917 57.763 118.917 57.7756 118.917L81.2526 109.15L100.714 100.594L115.807 93.8619C117.821 92.9634 119.697 92.4685 121.031 93.5624L122.177 92.8201L122.92 92.3774C123.171 92.2341 123.448 92.156 123.7 92.0518L126.344 90.8147L127.237 90.437L130.196 89.3301L130.976 89.0046L135.911 87.6112C134.022 85.0849 132.978 83.5873 133.179 83.6264C132.978 83.0013 132.978 82.1028 133.179 81.1261C131.782 80.3838 130.989 79.1858 130.548 77.571C129.667 78.2612 128.786 78.8602 127.892 79.29C127.401 79.5634 126.91 79.8239 126.709 79.928C125.752 80.462 124.921 80.9959 123.889 81.3735L122.882 81.7903C121.925 82.2981 120.868 82.5977 119.81 82.9362L118.753 83.2488L117.255 83.7436C116.6 85.723 115.279 87.1945 113.629 87.6242L79.0874 101.285L60.7464 108.707L58.4805 104.931L57.2343 103.433C55.2076 101.454 52.9291 100.139 50.3737 99.5396C49.203 99.2662 47.9694 99.4224 46.8868 99.9563C46.6098 100.1 46.2322 100.243 45.9553 100.399C45.9301 100.412 45.8923 100.438 45.8671 100.451C45.0489 100.907 44.2936 101.48 43.639 102.157L38.5912 107.535C37.6848 108.252 36.5896 108.421 35.4189 108.252C28.936 106.181 23.4853 104.462 19.9858 104.475C18.0724 104.618 16.4233 105.009 14.5728 105.465L12.1559 106.481C11.237 106.871 10.3558 107.379 9.56274 107.991L7.81296 109.345C6.98214 109.984 6.23946 110.739 5.59746 111.585L5.15687 112.171C4.48969 113.044 3.89803 113.981 3.40709 114.971C2.58885 116.586 1.90909 117.953 1.59438 119.75L1.45593 120.076C1.26711 121.183 1.06567 122.224 1.0405 123.344L1.00274 123.904C0.977559 125.363 1.12862 127.043 1.3552 128.475L1.3804 128.866C1.56923 130.064 1.69511 131.197 2.08534 132.343L3.69663 136.119L4.09946 137.161L5.48417 141.029C6.18911 142.487 6.93178 143.998 7.92625 145.261C8.8326 146.407 9.94038 147.8 11.0104 148.816C12.735 150.222 14.6987 151.329 16.6625 152.254C18.5004 152.97 20.2501 153.257 22.1006 153.478C24.8196 154.012 28.08 153.426 31.2019 152.085C35.0791 150.327 38.2513 147.24 40.706 143.386C43.7146 138.086 45.9049 133.853 47.0378 133.58C48.3092 132.512 50.2478 132.773 53.9236 132.851C54.2005 132.851 54.6789 132.838 54.9558 132.825L56.7559 132.746C57.3224 132.707 58.1532 132.551 58.6819 132.343L60.7967 131.483Z" fill="#0F0E0A"/>
<path d="M113.932 88.2493L115.304 87.5591C115.493 87.468 115.656 87.3508 115.82 87.2075C116.688 86.4002 117.356 85.5016 117.796 84.4728C119.861 83.7696 121.472 83.2097 122.24 82.8841L125.89 81.3475C126.029 81.2824 126.18 81.2173 126.306 81.1391L130.359 78.7951L130.901 79.8499C131.064 80.1755 131.303 80.475 131.58 80.7094L132.738 81.7121L132.613 82.832C132.55 83.0664 132.575 83.4701 132.663 83.7045C132.751 83.9389 132.801 84.2645 132.978 84.5119C133.066 84.7203 133.217 84.8765 133.343 85.0588L135.105 87.468L133.897 87.7023L133.003 87.8716C132.789 87.9107 132.587 87.9758 132.373 88.0409L131.58 88.3274L129.428 89.0436C129.277 89.0957 129.138 89.1478 128.987 89.2129L124.757 90.984L123.776 91.5049L121.082 92.9373C120.339 92.6378 119.47 92.4685 118.476 92.4164C117.733 92.3774 116.978 92.4946 116.286 92.7811L115.644 93.0415L115.329 92.2472C117.972 91.2705 119.621 90.0334 119.961 88.4186C119.256 87.6373 117.33 87.8586 114.057 89.0046L113.781 88.3014L113.932 88.2493Z" fill="#FF0000"/>
<path d="M56.0763 119.906C54.9056 121.73 54.6664 123.748 55.1825 125.949C55.8875 128.566 57.4484 130.389 59.8024 131.431C58.8331 131.809 57.9394 132.121 57.3603 132.186L49.3416 132.343C48.259 132.304 47.1261 132.746 45.9302 133.606C45.1497 134.387 44.47 135.247 43.9161 136.21L40.832 142.227C39.9508 143.711 38.9941 145.052 37.9745 146.251C35.6708 148.699 33.2161 150.535 30.5726 151.642C26.0283 153.647 21.3202 153.569 16.436 151.498C12.8358 149.636 9.83979 146.98 7.57391 143.373C5.52203 139.752 3.83522 135.872 2.55123 131.692C1.35535 126.652 1.43089 121.99 2.80301 117.693C4.90524 112.484 8.32922 108.864 13.2134 106.988C16.5241 105.504 19.9985 105.204 23.5987 105.868C26.3178 106.48 29.0494 107.275 31.8188 108.225C34.4749 109.072 36.338 109.332 37.2947 108.903C39.2585 108.421 40.8949 105.608 42.8713 103.668C44.5707 102.014 46.0435 101.141 47.1135 100.685C48.1709 100.217 49.2409 100.021 50.3109 100.217C53.1433 100.868 55.4091 102.457 57.2848 104.709C58.4807 106.116 59.3996 107.509 60.1045 108.916L56.0763 119.906Z" fill="#FF2727" stroke="black" stroke-width="2" stroke-miterlimit="10"/>
<path d="M27.098 146.511C27.835 146.511 28.4324 145.893 28.4324 145.131C28.4324 144.368 27.835 143.75 27.098 143.75C26.3611 143.75 25.7637 144.368 25.7637 145.131C25.7637 145.893 26.3611 146.511 27.098 146.511Z" fill="url(#paint0_linear_57_4382)" stroke="black" stroke-width="0.25" stroke-miterlimit="10"/>
<path d="M32.9013 143.672C33.6382 143.672 34.2356 143.054 34.2356 142.292C34.2356 141.529 33.6382 140.911 32.9013 140.911C32.1643 140.911 31.5669 141.529 31.5669 142.292C31.5669 143.054 32.1643 143.672 32.9013 143.672Z" fill="url(#paint1_linear_57_4382)" stroke="black" stroke-width="0.25" stroke-miterlimit="10"/>
<path d="M36.3756 138.58C37.1125 138.58 37.71 137.962 37.71 137.2C37.71 136.438 37.1125 135.82 36.3756 135.82C35.6387 135.82 35.0413 136.438 35.0413 137.2C35.0413 137.962 35.6387 138.58 36.3756 138.58Z" fill="url(#paint2_linear_57_4382)" stroke="black" stroke-width="0.25" stroke-miterlimit="10"/>
<path d="M49.2156 113.552L113.73 88.0409L115.87 93.4972L52.2745 121.352L49.2156 113.552Z" fill="#241D1C"/>
<path d="M25.6379 133.072L22.2517 124.399L24.1399 123.579L27.5388 132.278L25.6379 133.072Z" fill="url(#paint3_linear_57_4382)" stroke="black" stroke-width="0.5" stroke-miterlimit="10"/>
<path d="M22.2516 124.399L21.5466 122.602C21.8865 121.586 22.5159 121.313 23.4475 121.808L24.1398 123.592" fill="black"/>
<path d="M22.2516 124.399L21.5466 122.602C21.8865 121.586 22.5159 121.313 23.4475 121.808L24.1398 123.592" stroke="black" stroke-width="0.5" stroke-miterlimit="10"/>
<path d="M27.5386 132.239L28.2436 134.036C27.9037 135.051 27.2743 135.325 26.3427 134.83L25.6504 133.046" fill="black"/>
<path d="M27.5386 132.239L28.2436 134.036C27.9037 135.051 27.2743 135.325 26.3427 134.83L25.6504 133.046" stroke="black" stroke-width="0.5" stroke-miterlimit="10"/>
<path d="M27.8407 133.697C28.0043 134.114 27.8155 134.583 27.4127 134.752C27.0098 134.921 26.5567 134.726 26.393 134.309C26.2546 133.958 26.3678 133.567 26.6574 133.359C26.7077 133.319 26.7707 133.28 26.8336 133.254C27.2239 133.085 27.677 133.28 27.8407 133.697Z" fill="#D02900" stroke="#4D4D4D" stroke-width="0.25" stroke-miterlimit="10"/>
<path d="M26.6699 133.332L27.5763 134.687" stroke="#4D4D4D" stroke-width="0.25" stroke-miterlimit="10"/>
<path d="M23.5355 122.693C23.6992 123.11 23.5103 123.579 23.1075 123.748C22.7047 123.917 22.2515 123.722 22.0878 123.305C21.9494 122.954 22.0627 122.563 22.3522 122.355C22.4026 122.316 22.4655 122.277 22.5284 122.25C22.9061 122.081 23.3719 122.277 23.5355 122.693Z" fill="#D02900" stroke="#4D4D4D" stroke-width="0.25" stroke-miterlimit="10"/>
<path d="M22.3523 122.329L23.2712 123.683" stroke="#4D4D4D" stroke-width="0.25" stroke-miterlimit="10"/>
<path d="M27.2744 121.599L31.6299 131.379C32.5111 131.744 33.1027 131.405 33.2664 130.559L28.8102 120.831C27.929 120.219 27.4003 120.414 27.2744 121.599Z" fill="url(#paint4_linear_57_4382)" stroke="black" stroke-width="0.25" stroke-miterlimit="10"/>
<path d="M28.0169 121.651C28.2811 121.651 28.4953 121.43 28.4953 121.157C28.4953 120.883 28.2811 120.662 28.0169 120.662C27.7527 120.662 27.5386 120.883 27.5386 121.157C27.5386 121.43 27.7527 121.651 28.0169 121.651Z" fill="black" stroke="#666666" stroke-width="0.25" stroke-miterlimit="10"/>
<path d="M32.3097 131.301C32.5738 131.301 32.788 131.079 32.788 130.806C32.788 130.533 32.5738 130.311 32.3097 130.311C32.0455 130.311 31.8313 130.533 31.8313 130.806C31.8313 131.079 32.0455 131.301 32.3097 131.301Z" fill="black" stroke="#4D4D4D" stroke-width="0.25" stroke-miterlimit="10"/>
<path d="M28.7598 123.396L28.2688 122.12L29.0493 122.472L28.7598 123.396Z" fill="black" stroke="black" stroke-width="0.25" stroke-miterlimit="10"/>
<path d="M29.4773 124.555L29.0745 123.54L29.8172 123.761L29.4773 124.555Z" fill="black" stroke="black" stroke-width="0.25" stroke-miterlimit="10"/>
<path d="M30.2325 125.988L29.792 124.881L30.6102 125.18L30.2325 125.988Z" fill="black" stroke="black" stroke-width="0.25" stroke-miterlimit="10"/>
<path d="M30.0815 126.444L30.6354 127.512L30.862 126.769L30.0815 126.444Z" fill="black" stroke="black" stroke-width="0.25" stroke-miterlimit="10"/>
<path d="M30.9502 127.811L31.3279 128.775L31.6426 128.084L30.9502 127.811Z" fill="black" stroke="black" stroke-width="0.25" stroke-miterlimit="10"/>
<path d="M31.7935 129.139L32.1585 130.077L32.4732 129.53L31.7935 129.139Z" fill="black" stroke="black" stroke-width="0.25" stroke-miterlimit="10"/>
<path d="M31.0633 118.253L36.3629 116.039C36.6021 115.935 36.8665 116.052 36.9546 116.299L41.587 128.124C41.6626 128.319 41.5744 128.54 41.3856 128.618L35.9979 130.884C35.809 130.962 35.595 130.871 35.5195 130.676L30.8618 118.787C30.7737 118.565 30.8744 118.331 31.0633 118.253Z" fill="#0F0E0A"/>
<path d="M32.385 119.594L36.2118 117.992C36.4636 117.888 36.7532 118.005 36.8664 118.266L40.366 126.743C40.4793 127.004 40.3534 127.316 40.1016 127.42L36.086 129.1C35.8342 129.204 35.5573 129.074 35.4566 128.827L32.1081 120.284C31.9948 120.011 32.1207 119.698 32.385 119.594Z" fill="url(#paint5_linear_57_4382)" stroke="black" stroke-width="0.5" stroke-miterlimit="10"/>
<path d="M31.5037 119.125C31.7054 119.125 31.8688 118.956 31.8688 118.747C31.8688 118.539 31.7054 118.37 31.5037 118.37C31.3021 118.37 31.1387 118.539 31.1387 118.747C31.1387 118.956 31.3021 119.125 31.5037 119.125Z" fill="#CB1300" stroke="#4D4D4D" stroke-width="0.25" stroke-miterlimit="10"/>
<path d="M36.5013 116.898C36.7029 116.898 36.8664 116.729 36.8664 116.521C36.8664 116.312 36.7029 116.143 36.5013 116.143C36.2997 116.143 36.1362 116.312 36.1362 116.521C36.1362 116.729 36.2997 116.898 36.5013 116.898Z" fill="#CB1300" stroke="#4D4D4D" stroke-width="0.25" stroke-miterlimit="10"/>
<path d="M41.0836 128.592C41.2852 128.592 41.4486 128.423 41.4486 128.215C41.4486 128.006 41.2852 127.837 41.0836 127.837C40.882 127.837 40.7185 128.006 40.7185 128.215C40.7185 128.423 40.882 128.592 41.0836 128.592Z" fill="#CB1300" stroke="#4D4D4D" stroke-width="0.25" stroke-miterlimit="10"/>
<path d="M36.0355 130.702C36.2371 130.702 36.4005 130.533 36.4005 130.324C36.4005 130.116 36.2371 129.947 36.0355 129.947C35.8339 129.947 35.6704 130.116 35.6704 130.324C35.6704 130.533 35.8339 130.702 36.0355 130.702Z" fill="#CB1300" stroke="#4D4D4D" stroke-width="0.25" stroke-miterlimit="10"/>
<path d="M34.097 118.435C34.2986 118.435 34.4621 118.266 34.4621 118.057C34.4621 117.849 34.2986 117.68 34.097 117.68C33.8954 117.68 33.7319 117.849 33.7319 118.057C33.7319 118.266 33.8954 118.435 34.097 118.435Z" fill="#CB1300" stroke="#4D4D4D" stroke-width="0.25" stroke-miterlimit="10"/>
<path d="M38.3646 129.322C38.5662 129.322 38.7296 129.153 38.7296 128.944C38.7296 128.735 38.5662 128.566 38.3646 128.566C38.163 128.566 37.9995 128.735 37.9995 128.944C37.9995 129.153 38.163 129.322 38.3646 129.322Z" fill="#CB1300" stroke="#4D4D4D" stroke-width="0.25" stroke-miterlimit="10"/>
<path d="M42.2038 113.721L47.5034 111.507C47.7426 111.403 48.0069 111.52 48.0951 111.768L52.7275 123.592C52.8031 123.787 52.7149 124.008 52.5261 124.087L47.1384 126.353C46.9495 126.431 46.7355 126.339 46.66 126.144L42.0024 114.255C41.9142 114.033 42.0024 113.799 42.2038 113.721Z" fill="#0F0E0A"/>
<path d="M42.6319 114.593C42.8335 114.593 42.997 114.424 42.997 114.216C42.997 114.007 42.8335 113.838 42.6319 113.838C42.4303 113.838 42.2668 114.007 42.2668 114.216C42.2668 114.424 42.4303 114.593 42.6319 114.593Z" fill="#CB1300" stroke="#4D4D4D" stroke-width="0.25" stroke-miterlimit="10"/>
<path d="M47.6295 112.367C47.8311 112.367 47.9945 112.197 47.9945 111.989C47.9945 111.78 47.8311 111.611 47.6295 111.611C47.4279 111.611 47.2644 111.78 47.2644 111.989C47.2644 112.197 47.4279 112.367 47.6295 112.367Z" fill="#CB1300" stroke="#4D4D4D" stroke-width="0.25" stroke-miterlimit="10"/>
<path d="M52.2115 124.061C52.4131 124.061 52.5765 123.891 52.5765 123.683C52.5765 123.474 52.4131 123.305 52.2115 123.305C52.0099 123.305 51.8464 123.474 51.8464 123.683C51.8464 123.891 52.0099 124.061 52.2115 124.061Z" fill="#CB1300" stroke="#4D4D4D" stroke-width="0.25" stroke-miterlimit="10"/>
<path d="M47.1637 126.183C47.3653 126.183 47.5287 126.014 47.5287 125.806C47.5287 125.597 47.3653 125.428 47.1637 125.428C46.962 125.428 46.7986 125.597 46.7986 125.806C46.7986 126.014 46.962 126.183 47.1637 126.183Z" fill="#CB1300" stroke="#4D4D4D" stroke-width="0.25" stroke-miterlimit="10"/>
<path d="M45.2376 113.903C45.4392 113.903 45.6027 113.734 45.6027 113.526C45.6027 113.317 45.4392 113.148 45.2376 113.148C45.036 113.148 44.8726 113.317 44.8726 113.526C44.8726 113.734 45.036 113.903 45.2376 113.903Z" fill="#CB1300" stroke="#4D4D4D" stroke-width="0.25" stroke-miterlimit="10"/>
<path d="M49.4923 124.803C49.6939 124.803 49.8573 124.634 49.8573 124.425C49.8573 124.217 49.6939 124.048 49.4923 124.048C49.2907 124.048 49.1272 124.217 49.1272 124.425C49.1272 124.634 49.2907 124.803 49.4923 124.803Z" fill="#CB1300" stroke="#4D4D4D" stroke-width="0.25" stroke-miterlimit="10"/>
<path d="M43.5887 114.893L47.4155 113.291C47.6673 113.187 47.9568 113.304 48.0701 113.565L51.5696 122.042C51.6829 122.303 51.557 122.615 51.3052 122.719L47.2896 124.399C47.0378 124.503 46.7609 124.373 46.6602 124.126L43.3117 115.583C43.1984 115.323 43.3243 115.01 43.5887 114.893Z" fill="url(#paint6_linear_57_4382)" stroke="black" stroke-width="0.5" stroke-miterlimit="10"/>
<path d="M50.3989 107.093C51.0316 107.093 51.5445 106.562 51.5445 105.908C51.5445 105.253 51.0316 104.723 50.3989 104.723C49.7663 104.723 49.2534 105.253 49.2534 105.908C49.2534 106.562 49.7663 107.093 50.3989 107.093Z" fill="black" stroke="#4D4D4D" stroke-width="0.25" stroke-miterlimit="10"/>
<path d="M50.3989 106.35C50.6353 106.35 50.8269 106.152 50.8269 105.907C50.8269 105.663 50.6353 105.465 50.3989 105.465C50.1626 105.465 49.9709 105.663 49.9709 105.907C49.9709 106.152 50.1626 106.35 50.3989 106.35Z" fill="#CB1300" stroke="#4D4D4D" stroke-width="0.25" stroke-miterlimit="10"/>
<path d="M57.3728 103.59L57.8008 103.407C57.9267 103.355 57.977 103.212 57.9267 103.095L57.8008 102.782C57.7757 102.704 57.8008 102.626 57.8638 102.587L57.9771 102.522C58.0526 102.483 58.1407 102.496 58.2036 102.548L59.2988 103.485C59.3995 103.577 59.4625 103.72 59.4499 103.863L59.4373 103.967C59.4247 104.084 59.324 104.163 59.2107 104.137L58.9086 104.058C58.8582 104.045 58.8079 104.045 58.7575 104.071L58.5309 104.163C58.4428 104.202 58.3925 104.28 58.3925 104.384V104.892L57.3728 103.59Z" fill="url(#paint7_linear_57_4382)" stroke="black" stroke-width="0.25" stroke-miterlimit="10"/>
<path d="M3.96089 137.304L3.55806 137.474C3.49511 137.5 3.45735 137.578 3.48253 137.643L3.57066 137.955C3.59583 138.033 3.5329 138.099 3.45737 138.086L3.14266 137.994C3.07972 137.981 3.02939 137.929 3.00421 137.864L2.53841 136.679C2.51324 136.614 2.51324 136.536 2.53841 136.458L2.6643 136.145C2.70207 136.054 2.82795 136.054 2.86572 136.145L3.05453 136.536C3.07971 136.588 3.15523 136.614 3.20559 136.588L3.69655 136.328L4.06161 137.252L3.96089 137.304Z" fill="url(#paint8_linear_57_4382)" stroke="black" stroke-width="0.25" stroke-miterlimit="10"/>
<path d="M118.916 83.3268L118.627 82.5976C118.614 82.5585 118.589 82.5195 118.564 82.4804L117.381 80.9307C117.318 80.8396 117.318 80.7224 117.393 80.6442L117.645 80.3447C117.746 80.2145 117.884 80.1233 118.035 80.0582L118.501 79.8629C118.677 79.7848 118.866 79.7587 119.042 79.7848L119.332 79.8238C119.433 79.8368 119.508 79.928 119.508 80.0322L119.533 82.1678C119.533 82.2329 119.546 82.2981 119.571 82.3502L119.848 83.0664L118.916 83.3268Z" fill="#FF1D25" stroke="black" stroke-width="0.25" stroke-miterlimit="10"/>
<path d="M131.077 89.1087L131.417 89.8119C131.442 89.851 131.467 89.8901 131.492 89.9291L132.789 91.3746C132.864 91.4527 132.864 91.5699 132.801 91.6611L132.575 91.9866C132.474 92.1169 132.348 92.2341 132.21 92.2992L131.756 92.5336C131.593 92.6248 131.404 92.6638 131.215 92.6508L130.926 92.6378C130.825 92.6378 130.737 92.5466 130.724 92.4424L130.523 90.3198C130.523 90.2547 130.498 90.1896 130.472 90.1375L130.133 89.4473L131.077 89.1087Z" fill="#FF1D25" stroke="black" stroke-width="0.25" stroke-miterlimit="10"/>
<path d="M122.932 81.9074L122.643 81.1781C122.63 81.1391 122.605 81.1 122.58 81.061L121.396 79.5113C121.333 79.4201 121.333 79.3029 121.409 79.2248L121.661 78.9253C121.761 78.7951 121.9 78.7039 122.051 78.6388L122.517 78.4435C122.693 78.3653 122.882 78.3393 123.058 78.3653L123.348 78.4044C123.448 78.4174 123.524 78.5086 123.524 78.6128L123.549 80.7484C123.549 80.8135 123.562 80.8786 123.587 80.9307L123.826 81.5297L122.932 81.9074Z" fill="#FF1D25" stroke="black" stroke-width="0.25" stroke-miterlimit="10"/>
<path d="M127.225 90.6194L127.514 91.3486C127.527 91.3877 127.552 91.4267 127.577 91.4658L128.773 93.0024C128.836 93.0805 128.836 93.2108 128.773 93.2889L128.521 93.5884C128.421 93.7187 128.282 93.8098 128.131 93.8749L127.665 94.0833C127.489 94.1614 127.3 94.1875 127.124 94.1614L126.835 94.1353C126.734 94.1223 126.658 94.0312 126.658 93.927L126.608 91.7914C126.608 91.7262 126.595 91.6611 126.57 91.609L126.331 91.01L127.225 90.6194Z" fill="#FF1D25" stroke="black" stroke-width="0.25" stroke-miterlimit="10"/>
<path d="M126.759 80.0322L126.558 79.5373C126.545 79.4983 126.52 79.4592 126.495 79.4201L125.311 77.8705C125.248 77.7793 125.248 77.6621 125.324 77.584L125.576 77.2845C125.676 77.1542 125.815 77.0631 125.966 76.998L126.432 76.8026C126.608 76.7245 126.797 76.6985 126.973 76.7245L127.263 76.7636C127.363 76.7766 127.439 76.8678 127.439 76.9719L127.464 79.1076C127.464 79.1727 127.477 79.2378 127.502 79.2899L127.602 79.5504L126.759 80.0322Z" fill="#FF1D25" stroke="black" stroke-width="0.25" stroke-miterlimit="10"/>
<path d="M123.322 92.5467L123.511 93.0545C123.524 93.0936 123.549 93.1327 123.574 93.1717L124.745 94.7344C124.808 94.8256 124.808 94.9428 124.732 95.0209L124.48 95.3204C124.367 95.4506 124.241 95.5418 124.09 95.6069L123.624 95.8022C123.448 95.8673 123.259 95.8934 123.083 95.8674L122.806 95.8283C122.706 95.8153 122.63 95.7241 122.63 95.6199L122.617 93.4843C122.617 93.4192 122.605 93.3541 122.58 93.302L122.479 93.0415L123.322 92.5467Z" fill="#FF1D25" stroke="black" stroke-width="0.25" stroke-miterlimit="10"/>
<path d="M120.163 85.8272C120.698 85.8272 121.132 85.3782 121.132 84.8244C121.132 84.2706 120.698 83.8217 120.163 83.8217C119.627 83.8217 119.193 84.2706 119.193 84.8244C119.193 85.3782 119.627 85.8272 120.163 85.8272Z" fill="#E4290B" stroke="black" stroke-width="0.25" stroke-miterlimit="10"/>
<path d="M124.166 84.4207C124.701 84.4207 125.135 83.9717 125.135 83.418C125.135 82.8642 124.701 82.4152 124.166 82.4152C123.63 82.4152 123.197 82.8642 123.197 83.418C123.197 83.9717 123.63 84.4207 124.166 84.4207Z" fill="#E4290B" stroke="black" stroke-width="0.25" stroke-miterlimit="10"/>
<path d="M128.27 82.5716C128.805 82.5716 129.239 82.1226 129.239 81.5689C129.239 81.0151 128.805 80.5662 128.27 80.5662C127.734 80.5662 127.3 81.0151 127.3 81.5689C127.3 82.1226 127.734 82.5716 128.27 82.5716Z" fill="#E4290B" stroke="black" stroke-width="0.25" stroke-miterlimit="10"/>
<path d="M130.359 88.5618C130.895 88.5618 131.328 88.1129 131.328 87.5591C131.328 87.0053 130.895 86.5564 130.359 86.5564C129.824 86.5564 129.39 87.0053 129.39 87.5591C129.39 88.1129 129.824 88.5618 130.359 88.5618Z" fill="#E4290B" stroke="black" stroke-width="0.25" stroke-miterlimit="10"/>
<path d="M122.403 91.8954C122.939 91.8954 123.373 91.4465 123.373 90.8927C123.373 90.339 122.939 89.89 122.403 89.89C121.868 89.89 121.434 90.339 121.434 90.8927C121.434 91.4465 121.868 91.8954 122.403 91.8954Z" fill="#E4290B" stroke="black" stroke-width="0.25" stroke-miterlimit="10"/>
<path d="M126.394 90.0984C126.929 90.0984 127.363 89.6495 127.363 89.0957C127.363 88.5419 126.929 88.093 126.394 88.093C125.859 88.093 125.425 88.5419 125.425 89.0957C125.425 89.6495 125.859 90.0984 126.394 90.0984Z" fill="#E4290B" stroke="black" stroke-width="0.25" stroke-miterlimit="10"/>
<path d="M114.095 88.9916C117.343 87.8065 119.181 87.6893 119.961 88.3795C119.987 88.3925 119.999 88.4316 119.986 88.4576C119.684 89.9422 118.136 91.2053 115.367 92.2341L114.095 88.9916Z" fill="black" stroke="#808080" stroke-width="0.25" stroke-miterlimit="10"/>
<path d="M119.32 88.9264C119.452 88.9264 119.559 88.8156 119.559 88.679C119.559 88.5423 119.452 88.4316 119.32 88.4316C119.187 88.4316 119.08 88.5423 119.08 88.679C119.08 88.8156 119.187 88.9264 119.32 88.9264Z" fill="#E4290B" stroke="#4D4D4D" stroke-width="0.25" stroke-miterlimit="10"/>
<path d="M109.538 90.8277L111.955 89.6817L112.169 90.2417C112.257 90.5802 112.446 90.7235 112.736 90.6974C112.547 91.1662 112.509 91.6351 112.635 92.0908L113.806 93.4191C112.887 93.4582 112.043 93.6144 111.301 93.94C110.835 93.6535 110.47 93.3279 110.231 92.9633C110.13 92.6377 110.143 92.3513 110.268 92.1038C110.319 91.9997 110.331 91.8824 110.268 91.7783C110.168 91.622 110.004 91.4918 109.765 91.4136C109.752 91.4136 109.74 91.4006 109.74 91.3876L109.538 90.8277Z" fill="#E4290B" stroke="black" stroke-width="0.25" stroke-miterlimit="10"/>
<path d="M100.815 94.3698L103.081 93.2628L103.32 93.8749C103.42 94.2525 103.622 94.4218 103.899 94.4088C103.748 94.9037 103.723 95.4115 103.874 95.9064L105.082 97.417C104.201 97.4039 103.395 97.5341 102.703 97.8336C102.237 97.5081 101.872 97.1305 101.62 96.7137C101.494 96.3491 101.494 96.0366 101.62 95.7761C101.671 95.672 101.658 95.5287 101.595 95.4246C101.482 95.2422 101.318 95.099 101.092 95.0078C101.079 95.0078 101.066 94.9948 101.066 94.9818L100.815 94.3698Z" fill="#E4290B" stroke="black" stroke-width="0.25" stroke-miterlimit="10"/>
<path d="M93.0857 97.5993L95.3516 96.4924L95.5907 97.1045C95.6914 97.4821 95.8928 97.6514 96.1698 97.6384C96.0187 98.1332 95.9936 98.6411 96.1446 99.1359L97.3531 100.647C96.4719 100.633 95.6663 100.764 94.9739 101.063C94.5082 100.738 94.1431 100.36 93.8913 99.9433C93.7654 99.5787 93.7654 99.2662 93.8913 99.0057C93.9417 98.9016 93.9291 98.7713 93.8662 98.6541C93.7529 98.4718 93.5892 98.3286 93.3626 98.2374C93.35 98.2374 93.3374 98.2244 93.3374 98.2114L93.0857 97.5993Z" fill="#E4290B" stroke="black" stroke-width="0.25" stroke-miterlimit="10"/>
<path d="M86.3633 100.165L88.0627 99.2921L88.327 99.9693C88.4529 100.386 88.6291 100.581 88.8557 100.607C88.7928 101.115 88.8305 101.649 89.0068 102.196L90.1523 103.941C89.4348 103.824 88.8054 103.85 88.2767 104.084C87.8613 103.681 87.5214 103.238 87.2696 102.756C87.1311 102.352 87.0934 102.027 87.1563 101.766C87.1815 101.662 87.1563 101.519 87.0934 101.389C86.9801 101.18 86.829 101.011 86.6402 100.881C86.6276 100.881 86.6276 100.868 86.615 100.855L86.3633 100.165Z" fill="#E4290B" stroke="black" stroke-width="0.25" stroke-miterlimit="10"/>
<path d="M80.0945 102.795L81.7939 101.923L82.0582 102.6C82.1841 103.016 82.3604 103.212 82.587 103.238C82.524 103.746 82.5618 104.28 82.738 104.827L83.8835 106.572C83.166 106.454 82.5366 106.48 82.0079 106.715C81.5925 106.311 81.2526 105.868 81.0008 105.387C80.8624 104.983 80.8246 104.657 80.8875 104.397C80.9127 104.293 80.8875 104.149 80.8246 104.019C80.7113 103.811 80.5602 103.642 80.3714 103.511C80.3588 103.511 80.3588 103.498 80.3462 103.485L80.0945 102.795Z" fill="#E4290B" stroke="black" stroke-width="0.25" stroke-miterlimit="10"/>
<path d="M65.4797 108.798L66.7008 108.108L66.9777 108.824C67.1162 109.254 67.2799 109.476 67.4561 109.528C67.4561 110.036 67.5568 110.569 67.7456 111.142L68.8282 113.031C68.2617 112.822 67.7708 112.783 67.3932 112.953C67.0281 112.497 66.7134 112.015 66.4742 111.507C66.3232 111.09 66.2602 110.752 66.2854 110.504C66.298 110.4 66.2602 110.257 66.1973 110.127C66.084 109.905 65.9581 109.723 65.7944 109.567C65.7819 109.554 65.7819 109.554 65.7693 109.541L65.4797 108.798Z" fill="#E4290B" stroke="black" stroke-width="0.25" stroke-miterlimit="10"/>
<path d="M61.7156 110.244L62.4583 109.749L62.7604 110.517C62.9241 110.973 63.0625 111.221 63.1884 111.299C63.2639 111.807 63.4024 112.354 63.629 112.966L64.6487 115.036C64.2207 114.737 63.8807 114.619 63.6416 114.737C63.3269 114.216 63.0373 113.682 62.7856 113.135C62.6219 112.692 62.5212 112.341 62.496 112.093C62.4835 111.989 62.4457 111.833 62.3827 111.702C62.2695 111.468 62.1562 111.247 62.0177 111.077C62.0177 111.064 62.0051 111.051 62.0051 111.038L61.7156 110.244Z" fill="#E4290B" stroke="black" stroke-width="0.25" stroke-miterlimit="10"/>
<path d="M58.2034 111.585L59.0342 111.051L59.3363 111.833C59.5 112.301 59.651 112.549 59.7895 112.627C59.8524 113.148 60.0035 113.721 60.2175 114.333L61.2875 116.443C60.8343 116.143 60.4567 116.039 60.1923 116.169C59.8524 115.648 59.5629 115.101 59.2986 114.541C59.1349 114.086 59.0342 113.734 59.0216 113.473C59.009 113.369 58.9712 113.213 58.9083 113.07C58.795 112.822 58.6691 112.614 58.5307 112.432C58.5181 112.419 58.5181 112.406 58.5055 112.393L58.2034 111.585Z" fill="#E4290B" stroke="black" stroke-width="0.25" stroke-miterlimit="10"/>
<path d="M55.1321 112.744L55.7741 112.275L56.0888 113.07C56.265 113.539 56.4035 113.799 56.5168 113.89C56.6175 114.411 56.7686 114.984 57.0078 115.622L58.0526 117.797C57.6497 117.471 57.3351 117.328 57.1336 117.432C56.8189 116.885 56.5294 116.325 56.2776 115.739C56.1014 115.271 56.0007 114.919 55.9629 114.658C55.9503 114.554 55.9 114.398 55.8371 114.242C55.7238 113.994 55.6105 113.773 55.472 113.578C55.472 113.565 55.4594 113.552 55.4594 113.539L55.1321 112.744Z" fill="#E4290B" stroke="black" stroke-width="0.25" stroke-miterlimit="10"/>
<path d="M51.1292 114.541L51.5823 114.164L51.8845 114.932C52.0481 115.388 52.174 115.635 52.2747 115.726C52.388 116.221 52.5516 116.768 52.7782 117.367L53.7349 119.464C53.4076 119.125 53.1559 118.969 53.0048 119.047C52.7153 118.513 52.4635 117.966 52.2243 117.406C52.0607 116.964 51.9474 116.625 51.8971 116.378C51.8719 116.273 51.8341 116.13 51.7712 115.987C51.6705 115.739 51.5571 115.531 51.4439 115.336C51.4439 115.323 51.4313 115.31 51.4313 115.297L51.1292 114.541Z" fill="#E4290B" stroke="black" stroke-width="0.25" stroke-miterlimit="10"/>
<path d="M72.3906 105.66L73.4858 105.191L75.4118 110.049L74.2914 110.517L72.3906 105.66Z" fill="#E4290B" stroke="black" stroke-width="0.25" stroke-miterlimit="10"/>
<path d="M73.3598 106.715C73.4919 106.715 73.599 106.604 73.599 106.467C73.599 106.331 73.4919 106.22 73.3598 106.22C73.2277 106.22 73.1206 106.331 73.1206 106.467C73.1206 106.604 73.2277 106.715 73.3598 106.715Z" fill="#E4290B" stroke="black" stroke-width="0.25" stroke-miterlimit="10"/>
<path d="M74.4047 109.371C74.5368 109.371 74.6438 109.261 74.6438 109.124C74.6438 108.987 74.5368 108.877 74.4047 108.877C74.2726 108.877 74.1655 108.987 74.1655 109.124C74.1655 109.261 74.2726 109.371 74.4047 109.371Z" fill="#E4290B" stroke="black" stroke-width="0.25" stroke-miterlimit="10"/>
<path d="M49.2156 113.552L52.2745 121.352" stroke="url(#paint9_linear_57_4382)" stroke-width="0.25" stroke-miterlimit="10"/>
<path d="M50.2227 113.122L53.3068 120.896" stroke="url(#paint10_linear_57_4382)" stroke-width="0.25" stroke-miterlimit="10"/>
<path d="M51.4436 112.666L54.4774 120.388" stroke="url(#paint11_linear_57_4382)" stroke-width="0.25" stroke-miterlimit="10"/>
<path d="M52.8408 112.158L55.7739 119.633" stroke="url(#paint12_linear_57_4382)" stroke-width="0.25" stroke-miterlimit="10"/>
<path d="M54.2634 111.546L57.1965 119.034" stroke="url(#paint13_linear_57_4382)" stroke-width="0.25" stroke-miterlimit="10"/>
<path d="M55.7866 110.947L58.7071 118.474" stroke="url(#paint14_linear_57_4382)" stroke-width="0.25" stroke-miterlimit="10"/>
<path d="M57.3853 110.309L60.268 117.81" stroke="url(#paint15_linear_57_4382)" stroke-width="0.25" stroke-miterlimit="10"/>
<path d="M59.0344 109.658L61.9549 117.107" stroke="url(#paint16_linear_57_4382)" stroke-width="0.25" stroke-miterlimit="10"/>
<path d="M60.7336 108.994L63.6164 116.351" stroke="url(#paint17_linear_57_4382)" stroke-width="0.25" stroke-miterlimit="10"/>
<path d="M62.6345 108.199L65.5172 115.544" stroke="url(#paint18_linear_57_4382)" stroke-width="0.25" stroke-miterlimit="10"/>
<path d="M64.6614 107.431L67.5063 114.684" stroke="url(#paint19_linear_57_4382)" stroke-width="0.25" stroke-miterlimit="10"/>
<path d="M66.7383 106.611L69.5455 113.786" stroke="url(#paint20_linear_57_4382)" stroke-width="0.25" stroke-miterlimit="10"/>
<path d="M69.0042 105.725L71.7735 112.809" stroke="url(#paint21_linear_57_4382)" stroke-width="0.25" stroke-miterlimit="10"/>
<path d="M71.3206 104.814L74.0774 111.846" stroke="url(#paint22_linear_57_4382)" stroke-width="0.25" stroke-miterlimit="10"/>
<path d="M73.7751 103.837L76.4816 110.752" stroke="url(#paint23_linear_57_4382)" stroke-width="0.25" stroke-miterlimit="10"/>
<path d="M76.5195 102.743L79.1001 109.606" stroke="url(#paint24_linear_57_4382)" stroke-width="0.25" stroke-miterlimit="10"/>
<path d="M79.2886 101.649L81.9195 108.369" stroke="url(#paint25_linear_57_4382)" stroke-width="0.25" stroke-miterlimit="10"/>
<path d="M82.1968 100.503L84.7396 107.001" stroke="url(#paint26_linear_57_4382)" stroke-width="0.25" stroke-miterlimit="10"/>
<path d="M85.3438 99.2661L87.8614 105.686" stroke="url(#paint27_linear_57_4382)" stroke-width="0.25" stroke-miterlimit="10"/>
<path d="M88.6418 97.9508L91.2098 104.293" stroke="url(#paint28_linear_57_4382)" stroke-width="0.25" stroke-miterlimit="10"/>
<path d="M92.179 96.5574L94.5329 102.847" stroke="url(#paint29_linear_57_4382)" stroke-width="0.25" stroke-miterlimit="10"/>
<path d="M95.9304 95.0729L98.3222 101.193" stroke="url(#paint30_linear_57_4382)" stroke-width="0.25" stroke-miterlimit="10"/>
<path d="M99.7952 93.5493L102.124 99.5265" stroke="url(#paint31_linear_57_4382)" stroke-width="0.25" stroke-miterlimit="10"/>
<path d="M104.012 91.8824L106.29 97.7034" stroke="url(#paint32_linear_57_4382)" stroke-width="0.25" stroke-miterlimit="10"/>
<path d="M108.38 90.1505L110.596 95.8152" stroke="url(#paint33_linear_57_4382)" stroke-width="0.25" stroke-miterlimit="10"/>
<path d="M112.937 88.3533L113.73 88.0408L115.87 93.4971L115.09 93.8487L112.937 88.3533Z" fill="#666666"/>
<path opacity="0.4" d="M24.48 124.451L120.805 85.5666" stroke="#CCCCCC" stroke-width="0.25" stroke-miterlimit="10"/>
<path opacity="0.4" d="M24.9836 125.727L114.259 89.3953L124.821 84.1603" stroke="#CCCCCC" stroke-width="0.25" stroke-miterlimit="10"/>
<path opacity="0.4" d="M25.5879 127.277L114.637 90.3719L129.025 82.1939" stroke="#CCCCCC" stroke-width="0.25" stroke-miterlimit="10"/>
<path opacity="0.4" d="M26.1543 128.736L115.027 91.3486L129.994 86.6345" stroke="#CCCCCC" stroke-width="0.25" stroke-miterlimit="10"/>
<path opacity="0.4" d="M26.6326 129.96L115.367 92.221L125.752 88.4185" stroke="#CCCCCC" stroke-width="0.25" stroke-miterlimit="10"/>
<path opacity="0.4" d="M27.2747 131.574L115.682 93.0155L122.039 89.9683" stroke="#CCCCCC" stroke-width="0.25" stroke-miterlimit="10"/>
<defs>
<linearGradient id="paint0_linear_57_4382" x1="27.5344" y1="146.432" x2="26.4768" y2="143.909" gradientUnits="userSpaceOnUse">
<stop stop-color="#E72000"/>
<stop offset="0.0347" stop-color="#E11F00"/>
<stop offset="0.0816" stop-color="#D01D00"/>
<stop offset="0.1353" stop-color="#B31900"/>
<stop offset="0.1943" stop-color="#8C1300"/>
<stop offset="0.2574" stop-color="#590C00"/>
<stop offset="0.323" stop-color="#1D0400"/>
<stop offset="0.3515"/>
<stop offset="0.3737" stop-color="#270500"/>
<stop offset="0.4058" stop-color="#5A0C00"/>
<stop offset="0.4386" stop-color="#851200"/>
<stop offset="0.4715" stop-color="#A81700"/>
<stop offset="0.5046" stop-color="#C41B00"/>
<stop offset="0.5379" stop-color="#D71E00"/>
<stop offset="0.5716" stop-color="#E31F00"/>
<stop offset="0.6064" stop-color="#E72000"/>
<stop offset="0.631" stop-color="#DA1E00"/>
<stop offset="0.677" stop-color="#B61900"/>
<stop offset="0.7393" stop-color="#7D1100"/>
<stop offset="0.8149" stop-color="#2E0600"/>
<stop offset="0.8564"/>
<stop offset="1" stop-color="#B92900"/>
</linearGradient>
<linearGradient id="paint1_linear_57_4382" x1="33.3332" y1="143.598" x2="32.2756" y2="141.074" gradientUnits="userSpaceOnUse">
<stop stop-color="#E72000"/>
<stop offset="0.0347" stop-color="#E11F00"/>
<stop offset="0.0816" stop-color="#D01D00"/>
<stop offset="0.1353" stop-color="#B31900"/>
<stop offset="0.1943" stop-color="#8C1300"/>
<stop offset="0.2574" stop-color="#590C00"/>
<stop offset="0.323" stop-color="#1D0400"/>
<stop offset="0.3515"/>
<stop offset="0.3737" stop-color="#270500"/>
<stop offset="0.4058" stop-color="#5A0C00"/>
<stop offset="0.4386" stop-color="#851200"/>
<stop offset="0.4715" stop-color="#A81700"/>
<stop offset="0.5046" stop-color="#C41B00"/>
<stop offset="0.5379" stop-color="#D71E00"/>
<stop offset="0.5716" stop-color="#E31F00"/>
<stop offset="0.6064" stop-color="#E72000"/>
<stop offset="0.631" stop-color="#DA1E00"/>
<stop offset="0.677" stop-color="#B61900"/>
<stop offset="0.7393" stop-color="#7D1100"/>
<stop offset="0.8149" stop-color="#2E0600"/>
<stop offset="0.8564"/>
<stop offset="1" stop-color="#B92900"/>
</linearGradient>
<linearGradient id="paint2_linear_57_4382" x1="36.8114" y1="138.499" x2="35.7537" y2="135.975" gradientUnits="userSpaceOnUse">
<stop stop-color="#E72000"/>
<stop offset="0.0347" stop-color="#E11F00"/>
<stop offset="0.0816" stop-color="#D01D00"/>
<stop offset="0.1353" stop-color="#B31900"/>
<stop offset="0.1943" stop-color="#8C1300"/>
<stop offset="0.2574" stop-color="#590C00"/>
<stop offset="0.323" stop-color="#1D0400"/>
<stop offset="0.3515"/>
<stop offset="0.3737" stop-color="#270500"/>
<stop offset="0.4058" stop-color="#5A0C00"/>
<stop offset="0.4386" stop-color="#851200"/>
<stop offset="0.4715" stop-color="#A81700"/>
<stop offset="0.5046" stop-color="#C41B00"/>
<stop offset="0.5379" stop-color="#D71E00"/>
<stop offset="0.5716" stop-color="#E31F00"/>
<stop offset="0.6064" stop-color="#E72000"/>
<stop offset="0.631" stop-color="#DA1E00"/>
<stop offset="0.677" stop-color="#B61900"/>
<stop offset="0.7393" stop-color="#7D1100"/>
<stop offset="0.8149" stop-color="#2E0600"/>
<stop offset="0.8564"/>
<stop offset="1" stop-color="#B92900"/>
</linearGradient>
<linearGradient id="paint3_linear_57_4382" x1="23.869" y1="128.752" x2="25.7905" y2="127.999" gradientUnits="userSpaceOnUse">
<stop stop-color="#E72000"/>
<stop offset="0.0347" stop-color="#E11F00"/>
<stop offset="0.0816" stop-color="#D01D00"/>
<stop offset="0.1353" stop-color="#B31900"/>
<stop offset="0.1943" stop-color="#8C1300"/>
<stop offset="0.2574" stop-color="#590C00"/>
<stop offset="0.323" stop-color="#1D0400"/>
<stop offset="0.3515"/>
<stop offset="0.3767" stop-color="#1B0400"/>
<stop offset="0.4612" stop-color="#721000"/>
<stop offset="0.5303" stop-color="#B11900"/>
<stop offset="0.5804" stop-color="#D81E00"/>
<stop offset="0.6064" stop-color="#E72000"/>
<stop offset="0.631" stop-color="#DA1E00"/>
<stop offset="0.677" stop-color="#B61900"/>
<stop offset="0.7393" stop-color="#7D1100"/>
<stop offset="0.8149" stop-color="#2E0600"/>
<stop offset="0.8564"/>
<stop offset="1" stop-color="#B92900"/>
</linearGradient>
<linearGradient id="paint4_linear_57_4382" x1="29.096" y1="126.455" x2="31.2435" y2="125.613" gradientUnits="userSpaceOnUse">
<stop stop-color="#E72000"/>
<stop offset="0.0347" stop-color="#E11F00"/>
<stop offset="0.0816" stop-color="#D01D00"/>
<stop offset="0.1353" stop-color="#B31900"/>
<stop offset="0.1943" stop-color="#8C1300"/>
<stop offset="0.2574" stop-color="#590C00"/>
<stop offset="0.323" stop-color="#1D0400"/>
<stop offset="0.3515"/>
<stop offset="0.3767" stop-color="#1B0400"/>
<stop offset="0.4612" stop-color="#721000"/>
<stop offset="0.5303" stop-color="#B11900"/>
<stop offset="0.5804" stop-color="#D81E00"/>
<stop offset="0.6064" stop-color="#E72000"/>
<stop offset="0.631" stop-color="#DA1E00"/>
<stop offset="0.677" stop-color="#B61900"/>
<stop offset="0.7393" stop-color="#7D1100"/>
<stop offset="0.8149" stop-color="#2E0600"/>
<stop offset="0.8564"/>
<stop offset="1" stop-color="#B92900"/>
</linearGradient>
<linearGradient id="paint5_linear_57_4382" x1="33.7002" y1="124.564" x2="38.6648" y2="122.62" gradientUnits="userSpaceOnUse">
<stop stop-color="#BBBABF"/>
<stop offset="0.077" stop-color="#C1A5A6"/>
<stop offset="0.2453" stop-color="#CC7D74"/>
<stop offset="0.4118" stop-color="#D65C4A"/>
<stop offset="0.5732" stop-color="#DD422A"/>
<stop offset="0.7281" stop-color="#E32F13"/>
<stop offset="0.8735" stop-color="#E62405"/>
<stop offset="1" stop-color="#E72000"/>
</linearGradient>
<linearGradient id="paint6_linear_57_4382" x1="44.8982" y1="119.871" x2="49.8625" y2="117.926" gradientUnits="userSpaceOnUse">
<stop stop-color="#BBBABF"/>
<stop offset="0.077" stop-color="#C1A5A6"/>
<stop offset="0.2453" stop-color="#CC7D74"/>
<stop offset="0.4118" stop-color="#D65C4A"/>
<stop offset="0.5732" stop-color="#DD422A"/>
<stop offset="0.7281" stop-color="#E32F13"/>
<stop offset="0.8735" stop-color="#E62405"/>
<stop offset="1" stop-color="#E72000"/>
</linearGradient>
<linearGradient id="paint7_linear_57_4382" x1="57.4637" y1="104.025" x2="59.2217" y2="103.336" gradientUnits="userSpaceOnUse">
<stop stop-color="#BBBABF"/>
<stop offset="0.077" stop-color="#C1A5A6"/>
<stop offset="0.2453" stop-color="#CC7D74"/>
<stop offset="0.4118" stop-color="#D65C4A"/>
<stop offset="0.5732" stop-color="#DD422A"/>
<stop offset="0.7281" stop-color="#E32F13"/>
<stop offset="0.8735" stop-color="#E62405"/>
<stop offset="1" stop-color="#E72000"/>
</linearGradient>
<linearGradient id="paint8_linear_57_4382" x1="2.69112" y1="137.254" x2="3.82124" y2="136.811" gradientUnits="userSpaceOnUse">
<stop stop-color="#BBBABF"/>
<stop offset="0.077" stop-color="#C1A5A6"/>
<stop offset="0.2453" stop-color="#CC7D74"/>
<stop offset="0.4118" stop-color="#D65C4A"/>
<stop offset="0.5732" stop-color="#DD422A"/>
<stop offset="0.7281" stop-color="#E32F13"/>
<stop offset="0.8735" stop-color="#E62405"/>
<stop offset="1" stop-color="#E72000"/>
</linearGradient>
<linearGradient id="paint9_linear_57_4382" x1="50.5278" y1="117.537" x2="50.8221" y2="117.422" gradientUnits="userSpaceOnUse">
<stop stop-color="white"/>
<stop offset="1"/>
</linearGradient>
<linearGradient id="paint10_linear_57_4382" x1="51.5326" y1="117.107" x2="51.8629" y2="116.978" gradientUnits="userSpaceOnUse">
<stop stop-color="white"/>
<stop offset="1"/>
</linearGradient>
<linearGradient id="paint11_linear_57_4382" x1="52.7449" y1="116.613" x2="53.0393" y2="116.498" gradientUnits="userSpaceOnUse">
<stop stop-color="white"/>
<stop offset="1"/>
</linearGradient>
<linearGradient id="paint12_linear_57_4382" x1="54.0914" y1="115.986" x2="54.3858" y2="115.87" gradientUnits="userSpaceOnUse">
<stop stop-color="white"/>
<stop offset="1"/>
</linearGradient>
<linearGradient id="paint13_linear_57_4382" x1="55.5117" y1="115.383" x2="55.806" y2="115.268" gradientUnits="userSpaceOnUse">
<stop stop-color="white"/>
<stop offset="1"/>
</linearGradient>
<linearGradient id="paint14_linear_57_4382" x1="57.0172" y1="114.802" x2="57.3303" y2="114.679" gradientUnits="userSpaceOnUse">
<stop stop-color="white"/>
<stop offset="1"/>
</linearGradient>
<linearGradient id="paint15_linear_57_4382" x1="58.5913" y1="114.161" x2="58.931" y2="114.028" gradientUnits="userSpaceOnUse">
<stop stop-color="white"/>
<stop offset="1"/>
</linearGradient>
<linearGradient id="paint16_linear_57_4382" x1="60.2829" y1="113.473" x2="60.5773" y2="113.358" gradientUnits="userSpaceOnUse">
<stop stop-color="white"/>
<stop offset="1"/>
</linearGradient>
<linearGradient id="paint17_linear_57_4382" x1="61.9617" y1="112.756" x2="62.2561" y2="112.641" gradientUnits="userSpaceOnUse">
<stop stop-color="white"/>
<stop offset="1"/>
</linearGradient>
<linearGradient id="paint18_linear_57_4382" x1="63.8562" y1="111.96" x2="64.1593" y2="111.842" gradientUnits="userSpaceOnUse">
<stop stop-color="white"/>
<stop offset="1"/>
</linearGradient>
<linearGradient id="paint19_linear_57_4382" x1="65.8694" y1="111.146" x2="66.1638" y2="111.031" gradientUnits="userSpaceOnUse">
<stop stop-color="white"/>
<stop offset="1"/>
</linearGradient>
<linearGradient id="paint20_linear_57_4382" x1="67.9302" y1="110.288" x2="68.2246" y2="110.173" gradientUnits="userSpaceOnUse">
<stop stop-color="white"/>
<stop offset="1"/>
</linearGradient>
<linearGradient id="paint21_linear_57_4382" x1="70.1696" y1="109.355" x2="70.464" y2="109.24" gradientUnits="userSpaceOnUse">
<stop stop-color="white"/>
<stop offset="1"/>
</linearGradient>
<linearGradient id="paint22_linear_57_4382" x1="72.4839" y1="108.418" x2="72.7783" y2="108.303" gradientUnits="userSpaceOnUse">
<stop stop-color="white"/>
<stop offset="1"/>
</linearGradient>
<linearGradient id="paint23_linear_57_4382" x1="74.9137" y1="107.379" x2="75.2081" y2="107.264" gradientUnits="userSpaceOnUse">
<stop stop-color="white"/>
<stop offset="1"/>
</linearGradient>
<linearGradient id="paint24_linear_57_4382" x1="77.5526" y1="106.281" x2="77.9382" y2="106.13" gradientUnits="userSpaceOnUse">
<stop stop-color="white"/>
<stop offset="1"/>
</linearGradient>
<linearGradient id="paint25_linear_57_4382" x1="80.3883" y1="105.099" x2="80.6827" y2="104.983" gradientUnits="userSpaceOnUse">
<stop stop-color="white"/>
<stop offset="1"/>
</linearGradient>
<linearGradient id="paint26_linear_57_4382" x1="83.2481" y1="103.84" x2="83.5425" y2="103.725" gradientUnits="userSpaceOnUse">
<stop stop-color="white"/>
<stop offset="1"/>
</linearGradient>
<linearGradient id="paint27_linear_57_4382" x1="86.3851" y1="102.563" x2="86.6795" y2="102.448" gradientUnits="userSpaceOnUse">
<stop stop-color="white"/>
<stop offset="1"/>
</linearGradient>
<linearGradient id="paint28_linear_57_4382" x1="89.6746" y1="101.223" x2="90.0367" y2="101.082" gradientUnits="userSpaceOnUse">
<stop stop-color="white"/>
<stop offset="1"/>
</linearGradient>
<linearGradient id="paint29_linear_57_4382" x1="93.0921" y1="99.8081" x2="93.475" y2="99.6581" gradientUnits="userSpaceOnUse">
<stop stop-color="white"/>
<stop offset="1"/>
</linearGradient>
<linearGradient id="paint30_linear_57_4382" x1="96.9042" y1="98.2192" x2="97.1986" y2="98.1039" gradientUnits="userSpaceOnUse">
<stop stop-color="white"/>
<stop offset="1"/>
</linearGradient>
<linearGradient id="paint31_linear_57_4382" x1="100.74" y1="96.6214" x2="101.035" y2="96.5061" gradientUnits="userSpaceOnUse">
<stop stop-color="white"/>
<stop offset="1"/>
</linearGradient>
<linearGradient id="paint32_linear_57_4382" x1="104.931" y1="94.8757" x2="105.225" y2="94.7604" gradientUnits="userSpaceOnUse">
<stop stop-color="white"/>
<stop offset="1"/>
</linearGradient>
<linearGradient id="paint33_linear_57_4382" x1="109.274" y1="93.0665" x2="109.569" y2="92.9512" gradientUnits="userSpaceOnUse">
<stop stop-color="white"/>
<stop offset="1"/>
</linearGradient>
</defs>
</svg>
