<svg width="230" height="230" viewBox="0 0 230 230" fill="none" xmlns="http://www.w3.org/2000/svg">
<path d="M19.621 210.379L38.5165 229.293L76.4046 191.405L114.646 153.163L115 152.809L115.354 153.163L153.595 191.405L191.484 229.293L210.379 210.379L210.379 210.379L229.293 191.484L191.405 153.595L153.163 115.354L152.809 115L153.163 114.646L191.405 76.4046L229.293 38.5165L210.379 19.621L210.379 19.6207L191.484 0.707245L153.595 38.5954L115.354 76.8372L115 77.1908L114.646 76.8372L76.4412 38.632C65.9385 28.1293 56.3828 18.5827 49.4459 11.6618C45.9774 8.20137 43.1638 5.39751 41.214 3.45885C40.2391 2.48946 39.4804 1.73671 38.9639 1.22646C38.7837 1.04849 38.6334 0.900345 38.5137 0.782928C38.4944 0.801727 38.4743 0.821335 38.4534 0.841751C38.191 1.09789 37.8067 1.4763 37.3131 1.96429C36.3262 2.94005 34.9052 4.35133 33.1556 6.09293C29.6566 9.57596 24.8446 14.3788 19.566 19.6574L0.7071 38.5163L38.5954 76.4046L76.8372 114.646L77.1908 115L76.8372 115.354L38.5954 153.595L0.707275 191.484L19.6207 210.379L19.621 210.379Z" fill="#820000" fill-opacity="0.68" stroke="#0A0808"/>
</svg>
